<?xml version="1.0" encoding="UTF-8" standalone="no"?>
<!DOCTYPE svg PUBLIC "-//W3C//DTD SVG 1.1//EN" "http://www.w3.org/Graphics/SVG/1.1/DTD/svg11.dtd">
<svg width="100%" height="100%" viewBox="0 0 1170 210" version="1.1" xmlns="http://www.w3.org/2000/svg" xmlns:xlink="http://www.w3.org/1999/xlink" xml:space="preserve" xmlns:serif="http://www.serif.com/" style="fill-rule:evenodd;clip-rule:evenodd;stroke-linecap:round;stroke-linejoin:round;stroke-miterlimit:1.5;">
    <g transform="matrix(1,0,0,1,-2082.4,-842.955)">
        <g transform="matrix(0.63098,0,0,0.63098,1352.33,-315.008)">
            <g>
                <g transform="matrix(0.0819962,0,0,0.486063,1177.64,1518.58)">
                    <path d="M1793.9,857.731C1793.9,857.731 1774.28,860.094 1823.55,857.731C1872.81,855.368 1867.86,771.913 1888.2,771.342C1908.54,770.771 1922.67,1059.32 1951.74,1061.01C1980.81,1062.69 1988.18,653.755 2014.16,654.455C2040.15,655.154 2046.83,1062.25 2078.82,1061.01C2110.81,1059.76 2113.23,651.287 2144.91,654.455C2176.6,657.622 2171.51,1052.68 2205.89,1061.01C2240.28,1069.34 2240.01,650.331 2268.32,654.455C2296.63,658.579 2302.74,958.549 2332.97,959.369C2363.21,960.189 2349.99,859.539 2364.18,857.731C2378.38,855.922 2453.43,857.731 2453.43,857.731" style="fill:none;stroke:black;stroke-width:8.53px;"/>
                </g>
                <path d="M1158.54,1935.51L1186.64,1935.51L1192.31,2166.47L1299.73,2165.81L1306.55,1935.51L1324.42,1935.51" style="fill:none;stroke:black;stroke-width:2.97px;"/>
            </g>
        </g>
        <g transform="matrix(0.63098,0,0,0.63098,1934.9,-315.008)">
            <g>
                <g transform="matrix(0.0819962,0,0,0.486063,1177.64,1518.58)">
                    <path d="M1793.9,857.731C1793.9,857.731 1774.28,860.094 1823.55,857.731C1872.81,855.368 1867.86,771.913 1888.2,771.342C1908.54,770.771 1922.67,1059.32 1951.74,1061.01C1980.81,1062.69 1988.18,653.755 2014.16,654.455C2040.15,655.154 2046.83,1062.25 2078.82,1061.01C2110.81,1059.76 2113.23,651.287 2144.91,654.455C2176.6,657.622 2171.51,1052.68 2205.89,1061.01C2240.28,1069.34 2240.01,650.331 2268.32,654.455C2296.63,658.579 2302.74,958.549 2332.97,959.369C2363.21,960.189 2349.99,859.539 2364.18,857.731C2378.38,855.922 2453.43,857.731 2453.43,857.731" style="fill:none;stroke:black;stroke-width:8.53px;"/>
                </g>
                <path d="M1158.54,1935.51L1186.64,1935.51L1192.31,2166.47L1299.73,2165.81L1306.55,1935.51L1324.42,1935.51" style="fill:none;stroke:black;stroke-width:2.97px;"/>
            </g>
        </g>
        <g transform="matrix(1,0,0,1,0,-245.008)">
            <path d="M2222.33,1151.27L2667.97,1151.27" style="fill:none;stroke:black;stroke-width:1.87px;"/>
        </g>
        <g transform="matrix(1,0,0,1,582.573,-245.008)">
            <path d="M2222.33,1151.27L2667.97,1151.27" style="fill:none;stroke:black;stroke-width:1.87px;"/>
        </g>
    </g>
</svg>
