<?xml version="1.0" encoding="UTF-8" standalone="no"?>
<!DOCTYPE svg PUBLIC "-//W3C//DTD SVG 1.1//EN" "http://www.w3.org/Graphics/SVG/1.1/DTD/svg11.dtd">
<svg width="100%" height="100%" viewBox="0 0 1170 148" version="1.1" xmlns="http://www.w3.org/2000/svg" xmlns:xlink="http://www.w3.org/1999/xlink" xml:space="preserve" xmlns:serif="http://www.serif.com/" style="fill-rule:evenodd;clip-rule:evenodd;stroke-linecap:round;stroke-linejoin:round;stroke-miterlimit:1.5;">
    <g transform="matrix(1,0,0,1,-2082.4,-1554.79)">
        <g transform="matrix(0.63098,0,0,0.63098,1352.33,334.455)">
            <g>
                <path d="M1158.54,1935.51L1186.64,1935.51L1192.31,2166.47L1299.73,2165.81L1306.55,1935.51L1324.42,1935.51" style="fill:none;stroke:black;stroke-width:2.97px;"/>
            </g>
        </g>
        <g transform="matrix(0.63098,0,0,0.63098,1934.9,334.455)">
            <g>
                <path d="M1158.54,1935.51L1186.64,1935.51L1192.31,2166.47L1299.73,2165.81L1306.55,1935.51L1324.42,1935.51" style="fill:none;stroke:black;stroke-width:2.97px;"/>
            </g>
        </g>
        <g transform="matrix(1,0,0,1,582.573,404.455)">
            <path d="M2188.01,1151.27L2667.97,1151.27" style="fill:none;stroke:black;stroke-width:1.87px;"/>
        </g>
        <g transform="matrix(1.00613,0,0,1,-13.403,404.455)">
            <path d="M2188.01,1151.27L2667.97,1151.27" style="fill:none;stroke:black;stroke-width:1.87px;"/>
        </g>
    </g>
</svg>
