ISO-10303-21;
HEADER;
FILE_DESCRIPTION(('FreeCAD Model'),'2;1');
FILE_NAME('Open CASCADE Shape Model','2026-05-21T10:14:29',('Author'),(
    ''),'Open CASCADE STEP processor 7.8','FreeCAD','Unknown');
FILE_SCHEMA(('AUTOMOTIVE_DESIGN { 1 0 10303 214 1 1 1 1 }'));
ENDSEC;
DATA;
#1 = APPLICATION_PROTOCOL_DEFINITION('international standard',
  'automotive_design',2000,#2);
#2 = APPLICATION_CONTEXT(
  'core data for automotive mechanical design processes');
#3 = SHAPE_DEFINITION_REPRESENTATION(#4,#10);
#4 = PRODUCT_DEFINITION_SHAPE('','',#5);
#5 = PRODUCT_DEFINITION('design','',#6,#9);
#6 = PRODUCT_DEFINITION_FORMATION('','',#7);
#7 = PRODUCT('Unnamed1','Unnamed1','',(#8));
#8 = PRODUCT_CONTEXT('',#2,'mechanical');
#9 = PRODUCT_DEFINITION_CONTEXT('part definition',#2,'design');
#10 = SHAPE_REPRESENTATION('',(#11,#15,#19,#23,#27,#31,#35,#39,#43,#47),
  #51);
#11 = AXIS2_PLACEMENT_3D('',#12,#13,#14);
#12 = CARTESIAN_POINT('',(0.,0.,0.));
#13 = DIRECTION('',(0.,0.,1.));
#14 = DIRECTION('',(1.,0.,-0.));
#15 = AXIS2_PLACEMENT_3D('',#16,#17,#18);
#16 = CARTESIAN_POINT('',(-3.931192398071,-0.526986598969,
    -0.645914745331));
#17 = DIRECTION('',(0.,-0.,1.));
#18 = DIRECTION('',(2.22044604925E-16,1.,0.));
#19 = AXIS2_PLACEMENT_3D('',#20,#21,#22);
#20 = CARTESIAN_POINT('',(0.,0.,0.));
#21 = DIRECTION('',(0.,0.,1.));
#22 = DIRECTION('',(1.,0.,0.));
#23 = AXIS2_PLACEMENT_3D('',#24,#25,#26);
#24 = CARTESIAN_POINT('',(0.,0.,0.));
#25 = DIRECTION('',(0.,0.,1.));
#26 = DIRECTION('',(1.,0.,0.));
#27 = AXIS2_PLACEMENT_3D('',#28,#29,#30);
#28 = CARTESIAN_POINT('',(0.,0.,0.));
#29 = DIRECTION('',(1.,1.232595164408E-32,1.110223024625E-16));
#30 = DIRECTION('',(0.,1.,-1.110223024625E-16));
#31 = AXIS2_PLACEMENT_3D('',#32,#33,#34);
#32 = CARTESIAN_POINT('',(0.,0.,0.));
#33 = DIRECTION('',(0.,-1.,1.110223024625E-16));
#34 = DIRECTION('',(0.,1.110223024625E-16,1.));
#35 = AXIS2_PLACEMENT_3D('',#36,#37,#38);
#36 = CARTESIAN_POINT('',(0.,0.,0.));
#37 = DIRECTION('',(0.,0.,1.));
#38 = DIRECTION('',(1.,0.,0.));
#39 = AXIS2_PLACEMENT_3D('',#40,#41,#42);
#40 = CARTESIAN_POINT('',(0.,0.,0.));
#41 = DIRECTION('',(0.,-1.,-2.22044604925E-16));
#42 = DIRECTION('',(1.,0.,0.));
#43 = AXIS2_PLACEMENT_3D('',#44,#45,#46);
#44 = CARTESIAN_POINT('',(0.,0.,0.));
#45 = DIRECTION('',(1.,1.232595164408E-32,1.110223024625E-16));
#46 = DIRECTION('',(0.,1.,-1.110223024625E-16));
#47 = AXIS2_PLACEMENT_3D('',#48,#49,#50);
#48 = CARTESIAN_POINT('',(0.,0.,0.));
#49 = DIRECTION('',(0.,0.,1.));
#50 = DIRECTION('',(1.,0.,-0.));
#51 = ( GEOMETRIC_REPRESENTATION_CONTEXT(3) 
GLOBAL_UNCERTAINTY_ASSIGNED_CONTEXT((#55)) GLOBAL_UNIT_ASSIGNED_CONTEXT(
(#52,#53,#54)) REPRESENTATION_CONTEXT('Context #1',
  '3D Context with UNIT and UNCERTAINTY') );
#52 = ( LENGTH_UNIT() NAMED_UNIT(*) SI_UNIT(.MILLI.,.METRE.) );
#53 = ( NAMED_UNIT(*) PLANE_ANGLE_UNIT() SI_UNIT($,.RADIAN.) );
#54 = ( NAMED_UNIT(*) SI_UNIT($,.STERADIAN.) SOLID_ANGLE_UNIT() );
#55 = UNCERTAINTY_MEASURE_WITH_UNIT(LENGTH_MEASURE(1.E-07),#52,
  'distance_accuracy_value','confusion accuracy');
#56 = PRODUCT_RELATED_PRODUCT_CATEGORY('part',$,(#7));
#57 = SHAPE_DEFINITION_REPRESENTATION(#58,#64);
#58 = PRODUCT_DEFINITION_SHAPE('','',#59);
#59 = PRODUCT_DEFINITION('design','',#60,#63);
#60 = PRODUCT_DEFINITION_FORMATION('','',#61);
#61 = PRODUCT('Body001','Body001','',(#62));
#62 = PRODUCT_CONTEXT('',#2,'mechanical');
#63 = PRODUCT_DEFINITION_CONTEXT('part definition',#2,'design');
#64 = ADVANCED_BREP_SHAPE_REPRESENTATION('',(#11,#65),#684);
#65 = MANIFOLD_SOLID_BREP('',#66);
#66 = CLOSED_SHELL('',(#67,#189,#220,#245,#270,#294,#318,#336,#361,#386,
    #411,#442,#460,#485,#510,#535,#560,#585,#606,#631,#648,#657,#666,
    #675));
#67 = ADVANCED_FACE('',(#68,#121,#132,#143,#154,#173),#184,.T.);
#68 = FACE_BOUND('',#69,.T.);
#69 = EDGE_LOOP('',(#70,#80,#89,#97,#106,#114));
#70 = ORIENTED_EDGE('',*,*,#71,.F.);
#71 = EDGE_CURVE('',#72,#74,#76,.T.);
#72 = VERTEX_POINT('',#73);
#73 = CARTESIAN_POINT('',(-5.5,0.,0.));
#74 = VERTEX_POINT('',#75);
#75 = CARTESIAN_POINT('',(-5.5,-4.5,0.));
#76 = LINE('',#77,#78);
#77 = CARTESIAN_POINT('',(-5.5,0.,0.));
#78 = VECTOR('',#79,1.);
#79 = DIRECTION('',(0.,-1.,0.));
#80 = ORIENTED_EDGE('',*,*,#81,.F.);
#81 = EDGE_CURVE('',#82,#72,#84,.T.);
#82 = VERTEX_POINT('',#83);
#83 = CARTESIAN_POINT('',(5.5,0.,0.));
#84 = CIRCLE('',#85,5.5);
#85 = AXIS2_PLACEMENT_3D('',#86,#87,#88);
#86 = CARTESIAN_POINT('',(0.,0.,0.));
#87 = DIRECTION('',(0.,0.,1.));
#88 = DIRECTION('',(1.,0.,-0.));
#89 = ORIENTED_EDGE('',*,*,#90,.F.);
#90 = EDGE_CURVE('',#91,#82,#93,.T.);
#91 = VERTEX_POINT('',#92);
#92 = CARTESIAN_POINT('',(5.5,-4.5,0.));
#93 = LINE('',#94,#95);
#94 = CARTESIAN_POINT('',(5.5,-6.5,0.));
#95 = VECTOR('',#96,1.);
#96 = DIRECTION('',(0.,1.,0.));
#97 = ORIENTED_EDGE('',*,*,#98,.F.);
#98 = EDGE_CURVE('',#99,#91,#101,.T.);
#99 = VERTEX_POINT('',#100);
#100 = CARTESIAN_POINT('',(3.5,-6.5,0.));
#101 = CIRCLE('',#102,2.);
#102 = AXIS2_PLACEMENT_3D('',#103,#104,#105);
#103 = CARTESIAN_POINT('',(3.5,-4.5,0.));
#104 = DIRECTION('',(-0.,0.,1.));
#105 = DIRECTION('',(0.,-1.,0.));
#106 = ORIENTED_EDGE('',*,*,#107,.F.);
#107 = EDGE_CURVE('',#108,#99,#110,.T.);
#108 = VERTEX_POINT('',#109);
#109 = CARTESIAN_POINT('',(-3.5,-6.5,0.));
#110 = LINE('',#111,#112);
#111 = CARTESIAN_POINT('',(-5.5,-6.5,0.));
#112 = VECTOR('',#113,1.);
#113 = DIRECTION('',(1.,0.,0.));
#114 = ORIENTED_EDGE('',*,*,#115,.F.);
#115 = EDGE_CURVE('',#74,#108,#116,.T.);
#116 = CIRCLE('',#117,2.);
#117 = AXIS2_PLACEMENT_3D('',#118,#119,#120);
#118 = CARTESIAN_POINT('',(-3.5,-4.5,0.));
#119 = DIRECTION('',(-0.,0.,1.));
#120 = DIRECTION('',(0.,-1.,0.));
#121 = FACE_BOUND('',#122,.T.);
#122 = EDGE_LOOP('',(#123));
#123 = ORIENTED_EDGE('',*,*,#124,.F.);
#124 = EDGE_CURVE('',#125,#125,#127,.T.);
#125 = VERTEX_POINT('',#126);
#126 = CARTESIAN_POINT('',(3.,-4.5,0.));
#127 = CIRCLE('',#128,0.5);
#128 = AXIS2_PLACEMENT_3D('',#129,#130,#131);
#129 = CARTESIAN_POINT('',(2.5,-4.5,0.));
#130 = DIRECTION('',(0.,0.,-1.));
#131 = DIRECTION('',(1.,0.,0.));
#132 = FACE_BOUND('',#133,.T.);
#133 = EDGE_LOOP('',(#134));
#134 = ORIENTED_EDGE('',*,*,#135,.F.);
#135 = EDGE_CURVE('',#136,#136,#138,.T.);
#136 = VERTEX_POINT('',#137);
#137 = CARTESIAN_POINT('',(-2.,-4.5,0.));
#138 = CIRCLE('',#139,0.5);
#139 = AXIS2_PLACEMENT_3D('',#140,#141,#142);
#140 = CARTESIAN_POINT('',(-2.5,-4.5,0.));
#141 = DIRECTION('',(0.,0.,-1.));
#142 = DIRECTION('',(1.,0.,0.));
#143 = FACE_BOUND('',#144,.T.);
#144 = EDGE_LOOP('',(#145));
#145 = ORIENTED_EDGE('',*,*,#146,.F.);
#146 = EDGE_CURVE('',#147,#147,#149,.T.);
#147 = VERTEX_POINT('',#148);
#148 = CARTESIAN_POINT('',(3.,3.,0.));
#149 = CIRCLE('',#150,0.5);
#150 = AXIS2_PLACEMENT_3D('',#151,#152,#153);
#151 = CARTESIAN_POINT('',(2.5,3.,0.));
#152 = DIRECTION('',(0.,0.,-1.));
#153 = DIRECTION('',(1.,0.,0.));
#154 = FACE_BOUND('',#155,.T.);
#155 = EDGE_LOOP('',(#156,#166));
#156 = ORIENTED_EDGE('',*,*,#157,.F.);
#157 = EDGE_CURVE('',#158,#160,#162,.T.);
#158 = VERTEX_POINT('',#159);
#159 = CARTESIAN_POINT('',(-1.581138830084,0.75,0.));
#160 = VERTEX_POINT('',#161);
#161 = CARTESIAN_POINT('',(1.581138830084,0.75,0.));
#162 = LINE('',#163,#164);
#163 = CARTESIAN_POINT('',(-1.581138830084,0.75,0.));
#164 = VECTOR('',#165,1.);
#165 = DIRECTION('',(1.,0.,0.));
#166 = ORIENTED_EDGE('',*,*,#167,.T.);
#167 = EDGE_CURVE('',#158,#160,#168,.T.);
#168 = CIRCLE('',#169,1.75);
#169 = AXIS2_PLACEMENT_3D('',#170,#171,#172);
#170 = CARTESIAN_POINT('',(0.,0.,0.));
#171 = DIRECTION('',(0.,0.,1.));
#172 = DIRECTION('',(1.,0.,-0.));
#173 = FACE_BOUND('',#174,.T.);
#174 = EDGE_LOOP('',(#175));
#175 = ORIENTED_EDGE('',*,*,#176,.F.);
#176 = EDGE_CURVE('',#177,#177,#179,.T.);
#177 = VERTEX_POINT('',#178);
#178 = CARTESIAN_POINT('',(-2.,3.,0.));
#179 = CIRCLE('',#180,0.5);
#180 = AXIS2_PLACEMENT_3D('',#181,#182,#183);
#181 = CARTESIAN_POINT('',(-2.5,3.,0.));
#182 = DIRECTION('',(0.,0.,-1.));
#183 = DIRECTION('',(1.,0.,0.));
#184 = PLANE('',#185);
#185 = AXIS2_PLACEMENT_3D('',#186,#187,#188);
#186 = CARTESIAN_POINT('',(1.75442650805E-16,-1.514949705458,0.));
#187 = DIRECTION('',(-0.,-0.,-1.));
#188 = DIRECTION('',(-1.,0.,0.));
#189 = ADVANCED_FACE('',(#190),#215,.F.);
#190 = FACE_BOUND('',#191,.F.);
#191 = EDGE_LOOP('',(#192,#193,#201,#209));
#192 = ORIENTED_EDGE('',*,*,#71,.F.);
#193 = ORIENTED_EDGE('',*,*,#194,.T.);
#194 = EDGE_CURVE('',#72,#195,#197,.T.);
#195 = VERTEX_POINT('',#196);
#196 = CARTESIAN_POINT('',(-5.5,0.,2.75));
#197 = LINE('',#198,#199);
#198 = CARTESIAN_POINT('',(-5.5,3.4E-16,0.));
#199 = VECTOR('',#200,1.);
#200 = DIRECTION('',(0.,0.,1.));
#201 = ORIENTED_EDGE('',*,*,#202,.T.);
#202 = EDGE_CURVE('',#195,#203,#205,.T.);
#203 = VERTEX_POINT('',#204);
#204 = CARTESIAN_POINT('',(-5.5,-4.5,2.75));
#205 = LINE('',#206,#207);
#206 = CARTESIAN_POINT('',(-5.5,0.,2.75));
#207 = VECTOR('',#208,1.);
#208 = DIRECTION('',(0.,-1.,0.));
#209 = ORIENTED_EDGE('',*,*,#210,.F.);
#210 = EDGE_CURVE('',#74,#203,#211,.T.);
#211 = LINE('',#212,#213);
#212 = CARTESIAN_POINT('',(-5.5,-4.5,0.));
#213 = VECTOR('',#214,1.);
#214 = DIRECTION('',(0.,0.,1.));
#215 = PLANE('',#216);
#216 = AXIS2_PLACEMENT_3D('',#217,#218,#219);
#217 = CARTESIAN_POINT('',(-5.5,0.,0.));
#218 = DIRECTION('',(1.,0.,0.));
#219 = DIRECTION('',(0.,-1.,0.));
#220 = ADVANCED_FACE('',(#221),#240,.T.);
#221 = FACE_BOUND('',#222,.T.);
#222 = EDGE_LOOP('',(#223,#224,#232,#239));
#223 = ORIENTED_EDGE('',*,*,#115,.T.);
#224 = ORIENTED_EDGE('',*,*,#225,.T.);
#225 = EDGE_CURVE('',#108,#226,#228,.T.);
#226 = VERTEX_POINT('',#227);
#227 = CARTESIAN_POINT('',(-3.5,-6.5,2.75));
#228 = LINE('',#229,#230);
#229 = CARTESIAN_POINT('',(-3.5,-6.5,0.));
#230 = VECTOR('',#231,1.);
#231 = DIRECTION('',(0.,0.,1.));
#232 = ORIENTED_EDGE('',*,*,#233,.F.);
#233 = EDGE_CURVE('',#203,#226,#234,.T.);
#234 = CIRCLE('',#235,2.);
#235 = AXIS2_PLACEMENT_3D('',#236,#237,#238);
#236 = CARTESIAN_POINT('',(-3.5,-4.5,2.75));
#237 = DIRECTION('',(-0.,0.,1.));
#238 = DIRECTION('',(0.,-1.,0.));
#239 = ORIENTED_EDGE('',*,*,#210,.F.);
#240 = CYLINDRICAL_SURFACE('',#241,2.);
#241 = AXIS2_PLACEMENT_3D('',#242,#243,#244);
#242 = CARTESIAN_POINT('',(-3.5,-4.5,0.));
#243 = DIRECTION('',(0.,0.,1.));
#244 = DIRECTION('',(-1.,0.,0.));
#245 = ADVANCED_FACE('',(#246),#265,.T.);
#246 = FACE_BOUND('',#247,.T.);
#247 = EDGE_LOOP('',(#248,#249,#250,#259));
#248 = ORIENTED_EDGE('',*,*,#81,.T.);
#249 = ORIENTED_EDGE('',*,*,#194,.T.);
#250 = ORIENTED_EDGE('',*,*,#251,.F.);
#251 = EDGE_CURVE('',#252,#195,#254,.T.);
#252 = VERTEX_POINT('',#253);
#253 = CARTESIAN_POINT('',(5.5,0.,2.75));
#254 = CIRCLE('',#255,5.5);
#255 = AXIS2_PLACEMENT_3D('',#256,#257,#258);
#256 = CARTESIAN_POINT('',(0.,0.,2.75));
#257 = DIRECTION('',(0.,0.,1.));
#258 = DIRECTION('',(1.,0.,-0.));
#259 = ORIENTED_EDGE('',*,*,#260,.F.);
#260 = EDGE_CURVE('',#82,#252,#261,.T.);
#261 = LINE('',#262,#263);
#262 = CARTESIAN_POINT('',(5.5,0.,0.));
#263 = VECTOR('',#264,1.);
#264 = DIRECTION('',(0.,0.,1.));
#265 = CYLINDRICAL_SURFACE('',#266,5.5);
#266 = AXIS2_PLACEMENT_3D('',#267,#268,#269);
#267 = CARTESIAN_POINT('',(0.,0.,0.));
#268 = DIRECTION('',(-0.,-0.,-1.));
#269 = DIRECTION('',(1.,0.,0.));
#270 = ADVANCED_FACE('',(#271),#289,.F.);
#271 = FACE_BOUND('',#272,.F.);
#272 = EDGE_LOOP('',(#273,#274,#275,#283));
#273 = ORIENTED_EDGE('',*,*,#107,.F.);
#274 = ORIENTED_EDGE('',*,*,#225,.T.);
#275 = ORIENTED_EDGE('',*,*,#276,.T.);
#276 = EDGE_CURVE('',#226,#277,#279,.T.);
#277 = VERTEX_POINT('',#278);
#278 = CARTESIAN_POINT('',(3.5,-6.5,2.75));
#279 = LINE('',#280,#281);
#280 = CARTESIAN_POINT('',(-5.5,-6.5,2.75));
#281 = VECTOR('',#282,1.);
#282 = DIRECTION('',(1.,0.,0.));
#283 = ORIENTED_EDGE('',*,*,#284,.F.);
#284 = EDGE_CURVE('',#99,#277,#285,.T.);
#285 = LINE('',#286,#287);
#286 = CARTESIAN_POINT('',(3.5,-6.5,0.));
#287 = VECTOR('',#288,1.);
#288 = DIRECTION('',(0.,0.,1.));
#289 = PLANE('',#290);
#290 = AXIS2_PLACEMENT_3D('',#291,#292,#293);
#291 = CARTESIAN_POINT('',(-5.5,-6.5,0.));
#292 = DIRECTION('',(0.,1.,0.));
#293 = DIRECTION('',(1.,0.,0.));
#294 = ADVANCED_FACE('',(#295),#313,.F.);
#295 = FACE_BOUND('',#296,.F.);
#296 = EDGE_LOOP('',(#297,#298,#306,#312));
#297 = ORIENTED_EDGE('',*,*,#90,.F.);
#298 = ORIENTED_EDGE('',*,*,#299,.T.);
#299 = EDGE_CURVE('',#91,#300,#302,.T.);
#300 = VERTEX_POINT('',#301);
#301 = CARTESIAN_POINT('',(5.5,-4.5,2.75));
#302 = LINE('',#303,#304);
#303 = CARTESIAN_POINT('',(5.5,-4.5,0.));
#304 = VECTOR('',#305,1.);
#305 = DIRECTION('',(0.,0.,1.));
#306 = ORIENTED_EDGE('',*,*,#307,.T.);
#307 = EDGE_CURVE('',#300,#252,#308,.T.);
#308 = LINE('',#309,#310);
#309 = CARTESIAN_POINT('',(5.5,-6.5,2.75));
#310 = VECTOR('',#311,1.);
#311 = DIRECTION('',(0.,1.,0.));
#312 = ORIENTED_EDGE('',*,*,#260,.F.);
#313 = PLANE('',#314);
#314 = AXIS2_PLACEMENT_3D('',#315,#316,#317);
#315 = CARTESIAN_POINT('',(5.5,-6.5,0.));
#316 = DIRECTION('',(-1.,0.,0.));
#317 = DIRECTION('',(0.,1.,0.));
#318 = ADVANCED_FACE('',(#319),#331,.T.);
#319 = FACE_BOUND('',#320,.T.);
#320 = EDGE_LOOP('',(#321,#322,#323,#330));
#321 = ORIENTED_EDGE('',*,*,#98,.T.);
#322 = ORIENTED_EDGE('',*,*,#299,.T.);
#323 = ORIENTED_EDGE('',*,*,#324,.F.);
#324 = EDGE_CURVE('',#277,#300,#325,.T.);
#325 = CIRCLE('',#326,2.);
#326 = AXIS2_PLACEMENT_3D('',#327,#328,#329);
#327 = CARTESIAN_POINT('',(3.5,-4.5,2.75));
#328 = DIRECTION('',(-0.,0.,1.));
#329 = DIRECTION('',(0.,-1.,0.));
#330 = ORIENTED_EDGE('',*,*,#284,.F.);
#331 = CYLINDRICAL_SURFACE('',#332,2.);
#332 = AXIS2_PLACEMENT_3D('',#333,#334,#335);
#333 = CARTESIAN_POINT('',(3.5,-4.5,0.));
#334 = DIRECTION('',(0.,0.,1.));
#335 = DIRECTION('',(0.,-1.,0.));
#336 = ADVANCED_FACE('',(#337),#356,.T.);
#337 = FACE_BOUND('',#338,.T.);
#338 = EDGE_LOOP('',(#339,#340,#348,#355));
#339 = ORIENTED_EDGE('',*,*,#124,.T.);
#340 = ORIENTED_EDGE('',*,*,#341,.T.);
#341 = EDGE_CURVE('',#125,#342,#344,.T.);
#342 = VERTEX_POINT('',#343);
#343 = CARTESIAN_POINT('',(3.,-4.5,-0.65));
#344 = LINE('',#345,#346);
#345 = CARTESIAN_POINT('',(3.,-4.5,0.));
#346 = VECTOR('',#347,1.);
#347 = DIRECTION('',(0.,0.,-1.));
#348 = ORIENTED_EDGE('',*,*,#349,.F.);
#349 = EDGE_CURVE('',#342,#342,#350,.T.);
#350 = CIRCLE('',#351,0.5);
#351 = AXIS2_PLACEMENT_3D('',#352,#353,#354);
#352 = CARTESIAN_POINT('',(2.5,-4.5,-0.65));
#353 = DIRECTION('',(0.,0.,-1.));
#354 = DIRECTION('',(1.,0.,0.));
#355 = ORIENTED_EDGE('',*,*,#341,.F.);
#356 = CYLINDRICAL_SURFACE('',#357,0.5);
#357 = AXIS2_PLACEMENT_3D('',#358,#359,#360);
#358 = CARTESIAN_POINT('',(2.5,-4.5,0.));
#359 = DIRECTION('',(0.,0.,1.));
#360 = DIRECTION('',(1.,0.,-0.));
#361 = ADVANCED_FACE('',(#362),#381,.T.);
#362 = FACE_BOUND('',#363,.T.);
#363 = EDGE_LOOP('',(#364,#365,#373,#380));
#364 = ORIENTED_EDGE('',*,*,#135,.T.);
#365 = ORIENTED_EDGE('',*,*,#366,.T.);
#366 = EDGE_CURVE('',#136,#367,#369,.T.);
#367 = VERTEX_POINT('',#368);
#368 = CARTESIAN_POINT('',(-2.,-4.5,-0.65));
#369 = LINE('',#370,#371);
#370 = CARTESIAN_POINT('',(-2.,-4.5,0.));
#371 = VECTOR('',#372,1.);
#372 = DIRECTION('',(0.,0.,-1.));
#373 = ORIENTED_EDGE('',*,*,#374,.F.);
#374 = EDGE_CURVE('',#367,#367,#375,.T.);
#375 = CIRCLE('',#376,0.5);
#376 = AXIS2_PLACEMENT_3D('',#377,#378,#379);
#377 = CARTESIAN_POINT('',(-2.5,-4.5,-0.65));
#378 = DIRECTION('',(0.,0.,-1.));
#379 = DIRECTION('',(1.,0.,0.));
#380 = ORIENTED_EDGE('',*,*,#366,.F.);
#381 = CYLINDRICAL_SURFACE('',#382,0.5);
#382 = AXIS2_PLACEMENT_3D('',#383,#384,#385);
#383 = CARTESIAN_POINT('',(-2.5,-4.5,0.));
#384 = DIRECTION('',(0.,0.,1.));
#385 = DIRECTION('',(1.,0.,-0.));
#386 = ADVANCED_FACE('',(#387),#406,.T.);
#387 = FACE_BOUND('',#388,.T.);
#388 = EDGE_LOOP('',(#389,#390,#398,#405));
#389 = ORIENTED_EDGE('',*,*,#146,.T.);
#390 = ORIENTED_EDGE('',*,*,#391,.T.);
#391 = EDGE_CURVE('',#147,#392,#394,.T.);
#392 = VERTEX_POINT('',#393);
#393 = CARTESIAN_POINT('',(3.,3.,-0.65));
#394 = LINE('',#395,#396);
#395 = CARTESIAN_POINT('',(3.,3.,0.));
#396 = VECTOR('',#397,1.);
#397 = DIRECTION('',(0.,0.,-1.));
#398 = ORIENTED_EDGE('',*,*,#399,.F.);
#399 = EDGE_CURVE('',#392,#392,#400,.T.);
#400 = CIRCLE('',#401,0.5);
#401 = AXIS2_PLACEMENT_3D('',#402,#403,#404);
#402 = CARTESIAN_POINT('',(2.5,3.,-0.65));
#403 = DIRECTION('',(0.,0.,-1.));
#404 = DIRECTION('',(1.,8.881784197001E-16,0.));
#405 = ORIENTED_EDGE('',*,*,#391,.F.);
#406 = CYLINDRICAL_SURFACE('',#407,0.5);
#407 = AXIS2_PLACEMENT_3D('',#408,#409,#410);
#408 = CARTESIAN_POINT('',(2.5,3.,0.));
#409 = DIRECTION('',(0.,0.,1.));
#410 = DIRECTION('',(1.,0.,-0.));
#411 = ADVANCED_FACE('',(#412),#437,.F.);
#412 = FACE_BOUND('',#413,.F.);
#413 = EDGE_LOOP('',(#414,#422,#430,#436));
#414 = ORIENTED_EDGE('',*,*,#415,.T.);
#415 = EDGE_CURVE('',#158,#416,#418,.T.);
#416 = VERTEX_POINT('',#417);
#417 = CARTESIAN_POINT('',(-1.581138830084,0.75,2.85));
#418 = LINE('',#419,#420);
#419 = CARTESIAN_POINT('',(-1.581138830084,0.75,0.));
#420 = VECTOR('',#421,1.);
#421 = DIRECTION('',(0.,0.,1.));
#422 = ORIENTED_EDGE('',*,*,#423,.T.);
#423 = EDGE_CURVE('',#416,#424,#426,.T.);
#424 = VERTEX_POINT('',#425);
#425 = CARTESIAN_POINT('',(1.581138830084,0.75,2.85));
#426 = LINE('',#427,#428);
#427 = CARTESIAN_POINT('',(-1.581138830084,0.75,2.85));
#428 = VECTOR('',#429,1.);
#429 = DIRECTION('',(1.,0.,0.));
#430 = ORIENTED_EDGE('',*,*,#431,.F.);
#431 = EDGE_CURVE('',#160,#424,#432,.T.);
#432 = LINE('',#433,#434);
#433 = CARTESIAN_POINT('',(1.581138830084,0.75,0.));
#434 = VECTOR('',#435,1.);
#435 = DIRECTION('',(0.,0.,1.));
#436 = ORIENTED_EDGE('',*,*,#157,.F.);
#437 = PLANE('',#438);
#438 = AXIS2_PLACEMENT_3D('',#439,#440,#441);
#439 = CARTESIAN_POINT('',(-1.581138830084,0.75,0.));
#440 = DIRECTION('',(0.,1.,0.));
#441 = DIRECTION('',(1.,0.,0.));
#442 = ADVANCED_FACE('',(#443),#455,.F.);
#443 = FACE_BOUND('',#444,.F.);
#444 = EDGE_LOOP('',(#445,#446,#447,#454));
#445 = ORIENTED_EDGE('',*,*,#167,.T.);
#446 = ORIENTED_EDGE('',*,*,#431,.T.);
#447 = ORIENTED_EDGE('',*,*,#448,.F.);
#448 = EDGE_CURVE('',#416,#424,#449,.T.);
#449 = CIRCLE('',#450,1.75);
#450 = AXIS2_PLACEMENT_3D('',#451,#452,#453);
#451 = CARTESIAN_POINT('',(0.,0.,2.85));
#452 = DIRECTION('',(0.,0.,1.));
#453 = DIRECTION('',(1.,0.,-0.));
#454 = ORIENTED_EDGE('',*,*,#415,.F.);
#455 = CYLINDRICAL_SURFACE('',#456,1.75);
#456 = AXIS2_PLACEMENT_3D('',#457,#458,#459);
#457 = CARTESIAN_POINT('',(0.,0.,0.));
#458 = DIRECTION('',(-0.,-0.,-1.));
#459 = DIRECTION('',(1.,0.,0.));
#460 = ADVANCED_FACE('',(#461),#480,.T.);
#461 = FACE_BOUND('',#462,.T.);
#462 = EDGE_LOOP('',(#463,#464,#472,#479));
#463 = ORIENTED_EDGE('',*,*,#176,.T.);
#464 = ORIENTED_EDGE('',*,*,#465,.T.);
#465 = EDGE_CURVE('',#177,#466,#468,.T.);
#466 = VERTEX_POINT('',#467);
#467 = CARTESIAN_POINT('',(-2.,3.,-0.65));
#468 = LINE('',#469,#470);
#469 = CARTESIAN_POINT('',(-2.,3.,0.));
#470 = VECTOR('',#471,1.);
#471 = DIRECTION('',(0.,0.,-1.));
#472 = ORIENTED_EDGE('',*,*,#473,.F.);
#473 = EDGE_CURVE('',#466,#466,#474,.T.);
#474 = CIRCLE('',#475,0.5);
#475 = AXIS2_PLACEMENT_3D('',#476,#477,#478);
#476 = CARTESIAN_POINT('',(-2.5,3.,-0.65));
#477 = DIRECTION('',(0.,0.,-1.));
#478 = DIRECTION('',(1.,8.881784197001E-16,0.));
#479 = ORIENTED_EDGE('',*,*,#465,.F.);
#480 = CYLINDRICAL_SURFACE('',#481,0.5);
#481 = AXIS2_PLACEMENT_3D('',#482,#483,#484);
#482 = CARTESIAN_POINT('',(-2.5,3.,0.));
#483 = DIRECTION('',(0.,0.,1.));
#484 = DIRECTION('',(1.,0.,-0.));
#485 = ADVANCED_FACE('',(#486,#494),#505,.T.);
#486 = FACE_BOUND('',#487,.T.);
#487 = EDGE_LOOP('',(#488,#489,#490,#491,#492,#493));
#488 = ORIENTED_EDGE('',*,*,#202,.T.);
#489 = ORIENTED_EDGE('',*,*,#233,.T.);
#490 = ORIENTED_EDGE('',*,*,#276,.T.);
#491 = ORIENTED_EDGE('',*,*,#324,.T.);
#492 = ORIENTED_EDGE('',*,*,#307,.T.);
#493 = ORIENTED_EDGE('',*,*,#251,.T.);
#494 = FACE_BOUND('',#495,.F.);
#495 = EDGE_LOOP('',(#496));
#496 = ORIENTED_EDGE('',*,*,#497,.T.);
#497 = EDGE_CURVE('',#498,#498,#500,.T.);
#498 = VERTEX_POINT('',#499);
#499 = CARTESIAN_POINT('',(2.075,0.,2.75));
#500 = CIRCLE('',#501,2.075);
#501 = AXIS2_PLACEMENT_3D('',#502,#503,#504);
#502 = CARTESIAN_POINT('',(0.,0.,2.75));
#503 = DIRECTION('',(0.,0.,1.));
#504 = DIRECTION('',(1.,0.,-0.));
#505 = PLANE('',#506);
#506 = AXIS2_PLACEMENT_3D('',#507,#508,#509);
#507 = CARTESIAN_POINT('',(9.E-17,-1.196432346566,2.75));
#508 = DIRECTION('',(0.,0.,1.));
#509 = DIRECTION('',(1.,0.,-0.));
#510 = ADVANCED_FACE('',(#511),#530,.T.);
#511 = FACE_BOUND('',#512,.T.);
#512 = EDGE_LOOP('',(#513,#521,#522,#523));
#513 = ORIENTED_EDGE('',*,*,#514,.F.);
#514 = EDGE_CURVE('',#342,#515,#517,.T.);
#515 = VERTEX_POINT('',#516);
#516 = CARTESIAN_POINT('',(2.85,-4.5,-0.8));
#517 = LINE('',#518,#519);
#518 = CARTESIAN_POINT('',(3.,-4.5,-0.65));
#519 = VECTOR('',#520,1.);
#520 = DIRECTION('',(-0.707106781187,0.,-0.707106781187));
#521 = ORIENTED_EDGE('',*,*,#349,.T.);
#522 = ORIENTED_EDGE('',*,*,#514,.T.);
#523 = ORIENTED_EDGE('',*,*,#524,.F.);
#524 = EDGE_CURVE('',#515,#515,#525,.T.);
#525 = CIRCLE('',#526,0.35);
#526 = AXIS2_PLACEMENT_3D('',#527,#528,#529);
#527 = CARTESIAN_POINT('',(2.5,-4.5,-0.8));
#528 = DIRECTION('',(0.,0.,-1.));
#529 = DIRECTION('',(1.,0.,0.));
#530 = CONICAL_SURFACE('',#531,0.5,0.785398163397);
#531 = AXIS2_PLACEMENT_3D('',#532,#533,#534);
#532 = CARTESIAN_POINT('',(2.5,-4.5,-0.65));
#533 = DIRECTION('',(0.,0.,1.));
#534 = DIRECTION('',(1.,0.,-0.));
#535 = ADVANCED_FACE('',(#536),#555,.T.);
#536 = FACE_BOUND('',#537,.T.);
#537 = EDGE_LOOP('',(#538,#546,#547,#548));
#538 = ORIENTED_EDGE('',*,*,#539,.F.);
#539 = EDGE_CURVE('',#367,#540,#542,.T.);
#540 = VERTEX_POINT('',#541);
#541 = CARTESIAN_POINT('',(-2.15,-4.5,-0.8));
#542 = LINE('',#543,#544);
#543 = CARTESIAN_POINT('',(-2.,-4.5,-0.65));
#544 = VECTOR('',#545,1.);
#545 = DIRECTION('',(-0.707106781187,0.,-0.707106781187));
#546 = ORIENTED_EDGE('',*,*,#374,.T.);
#547 = ORIENTED_EDGE('',*,*,#539,.T.);
#548 = ORIENTED_EDGE('',*,*,#549,.F.);
#549 = EDGE_CURVE('',#540,#540,#550,.T.);
#550 = CIRCLE('',#551,0.35);
#551 = AXIS2_PLACEMENT_3D('',#552,#553,#554);
#552 = CARTESIAN_POINT('',(-2.5,-4.5,-0.8));
#553 = DIRECTION('',(0.,0.,-1.));
#554 = DIRECTION('',(1.,0.,0.));
#555 = CONICAL_SURFACE('',#556,0.5,0.785398163397);
#556 = AXIS2_PLACEMENT_3D('',#557,#558,#559);
#557 = CARTESIAN_POINT('',(-2.5,-4.5,-0.65));
#558 = DIRECTION('',(0.,0.,1.));
#559 = DIRECTION('',(1.,0.,-0.));
#560 = ADVANCED_FACE('',(#561),#580,.T.);
#561 = FACE_BOUND('',#562,.T.);
#562 = EDGE_LOOP('',(#563,#571,#572,#573));
#563 = ORIENTED_EDGE('',*,*,#564,.F.);
#564 = EDGE_CURVE('',#392,#565,#567,.T.);
#565 = VERTEX_POINT('',#566);
#566 = CARTESIAN_POINT('',(2.85,3.,-0.8));
#567 = LINE('',#568,#569);
#568 = CARTESIAN_POINT('',(3.,3.,-0.65));
#569 = VECTOR('',#570,1.);
#570 = DIRECTION('',(-0.707106781187,-6.280369834731E-16,-0.707106781187
    ));
#571 = ORIENTED_EDGE('',*,*,#399,.T.);
#572 = ORIENTED_EDGE('',*,*,#564,.T.);
#573 = ORIENTED_EDGE('',*,*,#574,.F.);
#574 = EDGE_CURVE('',#565,#565,#575,.T.);
#575 = CIRCLE('',#576,0.35);
#576 = AXIS2_PLACEMENT_3D('',#577,#578,#579);
#577 = CARTESIAN_POINT('',(2.5,3.,-0.8));
#578 = DIRECTION('',(0.,0.,-1.));
#579 = DIRECTION('',(1.,8.881784197001E-16,0.));
#580 = CONICAL_SURFACE('',#581,0.5,0.785398163397);
#581 = AXIS2_PLACEMENT_3D('',#582,#583,#584);
#582 = CARTESIAN_POINT('',(2.5,3.,-0.65));
#583 = DIRECTION('',(0.,0.,1.));
#584 = DIRECTION('',(1.,8.881784197001E-16,-0.));
#585 = ADVANCED_FACE('',(#586,#597),#601,.T.);
#586 = FACE_BOUND('',#587,.T.);
#587 = EDGE_LOOP('',(#588));
#588 = ORIENTED_EDGE('',*,*,#589,.T.);
#589 = EDGE_CURVE('',#590,#590,#592,.T.);
#590 = VERTEX_POINT('',#591);
#591 = CARTESIAN_POINT('',(2.075,0.,2.85));
#592 = CIRCLE('',#593,2.075);
#593 = AXIS2_PLACEMENT_3D('',#594,#595,#596);
#594 = CARTESIAN_POINT('',(0.,0.,2.85));
#595 = DIRECTION('',(0.,0.,1.));
#596 = DIRECTION('',(1.,0.,-0.));
#597 = FACE_BOUND('',#598,.T.);
#598 = EDGE_LOOP('',(#599,#600));
#599 = ORIENTED_EDGE('',*,*,#423,.T.);
#600 = ORIENTED_EDGE('',*,*,#448,.F.);
#601 = PLANE('',#602);
#602 = AXIS2_PLACEMENT_3D('',#603,#604,#605);
#603 = CARTESIAN_POINT('',(-2.494296788045E-16,-9.581038480586E-02,2.85)
  );
#604 = DIRECTION('',(0.,0.,1.));
#605 = DIRECTION('',(1.,0.,-0.));
#606 = ADVANCED_FACE('',(#607),#626,.T.);
#607 = FACE_BOUND('',#608,.T.);
#608 = EDGE_LOOP('',(#609,#617,#618,#619));
#609 = ORIENTED_EDGE('',*,*,#610,.F.);
#610 = EDGE_CURVE('',#466,#611,#613,.T.);
#611 = VERTEX_POINT('',#612);
#612 = CARTESIAN_POINT('',(-2.15,3.,-0.8));
#613 = LINE('',#614,#615);
#614 = CARTESIAN_POINT('',(-2.,3.,-0.65));
#615 = VECTOR('',#616,1.);
#616 = DIRECTION('',(-0.707106781187,-6.280369834731E-16,-0.707106781187
    ));
#617 = ORIENTED_EDGE('',*,*,#473,.T.);
#618 = ORIENTED_EDGE('',*,*,#610,.T.);
#619 = ORIENTED_EDGE('',*,*,#620,.F.);
#620 = EDGE_CURVE('',#611,#611,#621,.T.);
#621 = CIRCLE('',#622,0.35);
#622 = AXIS2_PLACEMENT_3D('',#623,#624,#625);
#623 = CARTESIAN_POINT('',(-2.5,3.,-0.8));
#624 = DIRECTION('',(0.,0.,-1.));
#625 = DIRECTION('',(1.,8.881784197001E-16,0.));
#626 = CONICAL_SURFACE('',#627,0.5,0.785398163397);
#627 = AXIS2_PLACEMENT_3D('',#628,#629,#630);
#628 = CARTESIAN_POINT('',(-2.5,3.,-0.65));
#629 = DIRECTION('',(0.,0.,1.));
#630 = DIRECTION('',(1.,8.881784197001E-16,-0.));
#631 = ADVANCED_FACE('',(#632),#643,.T.);
#632 = FACE_BOUND('',#633,.T.);
#633 = EDGE_LOOP('',(#634,#640,#641,#642));
#634 = ORIENTED_EDGE('',*,*,#635,.T.);
#635 = EDGE_CURVE('',#498,#590,#636,.T.);
#636 = LINE('',#637,#638);
#637 = CARTESIAN_POINT('',(2.075,0.,0.));
#638 = VECTOR('',#639,1.);
#639 = DIRECTION('',(0.,0.,1.));
#640 = ORIENTED_EDGE('',*,*,#589,.F.);
#641 = ORIENTED_EDGE('',*,*,#635,.F.);
#642 = ORIENTED_EDGE('',*,*,#497,.T.);
#643 = CYLINDRICAL_SURFACE('',#644,2.075);
#644 = AXIS2_PLACEMENT_3D('',#645,#646,#647);
#645 = CARTESIAN_POINT('',(0.,0.,0.));
#646 = DIRECTION('',(-0.,-0.,-1.));
#647 = DIRECTION('',(1.,0.,0.));
#648 = ADVANCED_FACE('',(#649),#652,.F.);
#649 = FACE_BOUND('',#650,.F.);
#650 = EDGE_LOOP('',(#651));
#651 = ORIENTED_EDGE('',*,*,#524,.F.);
#652 = PLANE('',#653);
#653 = AXIS2_PLACEMENT_3D('',#654,#655,#656);
#654 = CARTESIAN_POINT('',(-6.730369402342E-16,-0.75,-0.8));
#655 = DIRECTION('',(0.,0.,1.));
#656 = DIRECTION('',(1.,0.,-0.));
#657 = ADVANCED_FACE('',(#658),#661,.F.);
#658 = FACE_BOUND('',#659,.F.);
#659 = EDGE_LOOP('',(#660));
#660 = ORIENTED_EDGE('',*,*,#549,.F.);
#661 = PLANE('',#662);
#662 = AXIS2_PLACEMENT_3D('',#663,#664,#665);
#663 = CARTESIAN_POINT('',(-6.730369402342E-16,-0.75,-0.8));
#664 = DIRECTION('',(0.,0.,1.));
#665 = DIRECTION('',(1.,0.,-0.));
#666 = ADVANCED_FACE('',(#667),#670,.F.);
#667 = FACE_BOUND('',#668,.F.);
#668 = EDGE_LOOP('',(#669));
#669 = ORIENTED_EDGE('',*,*,#574,.F.);
#670 = PLANE('',#671);
#671 = AXIS2_PLACEMENT_3D('',#672,#673,#674);
#672 = CARTESIAN_POINT('',(-6.730369402342E-16,-0.75,-0.8));
#673 = DIRECTION('',(0.,0.,1.));
#674 = DIRECTION('',(1.,0.,-0.));
#675 = ADVANCED_FACE('',(#676),#679,.F.);
#676 = FACE_BOUND('',#677,.F.);
#677 = EDGE_LOOP('',(#678));
#678 = ORIENTED_EDGE('',*,*,#620,.F.);
#679 = PLANE('',#680);
#680 = AXIS2_PLACEMENT_3D('',#681,#682,#683);
#681 = CARTESIAN_POINT('',(-6.730369402342E-16,-0.75,-0.8));
#682 = DIRECTION('',(0.,0.,1.));
#683 = DIRECTION('',(1.,0.,-0.));
#684 = ( GEOMETRIC_REPRESENTATION_CONTEXT(3) 
GLOBAL_UNCERTAINTY_ASSIGNED_CONTEXT((#688)) GLOBAL_UNIT_ASSIGNED_CONTEXT
((#685,#686,#687)) REPRESENTATION_CONTEXT('Context #1',
  '3D Context with UNIT and UNCERTAINTY') );
#685 = ( LENGTH_UNIT() NAMED_UNIT(*) SI_UNIT(.MILLI.,.METRE.) );
#686 = ( NAMED_UNIT(*) PLANE_ANGLE_UNIT() SI_UNIT($,.RADIAN.) );
#687 = ( NAMED_UNIT(*) SI_UNIT($,.STERADIAN.) SOLID_ANGLE_UNIT() );
#688 = UNCERTAINTY_MEASURE_WITH_UNIT(LENGTH_MEASURE(1.E-07),#685,
  'distance_accuracy_value','confusion accuracy');
#689 = CONTEXT_DEPENDENT_SHAPE_REPRESENTATION(#690,#692);
#690 = ( REPRESENTATION_RELATIONSHIP('','',#64,#10) 
REPRESENTATION_RELATIONSHIP_WITH_TRANSFORMATION(#691) 
SHAPE_REPRESENTATION_RELATIONSHIP() );
#691 = ITEM_DEFINED_TRANSFORMATION('','',#11,#15);
#692 = PRODUCT_DEFINITION_SHAPE('Placement','Placement of an item',#693
  );
#693 = NEXT_ASSEMBLY_USAGE_OCCURRENCE('1','Body001','',#5,#59,$);
#694 = PRODUCT_RELATED_PRODUCT_CATEGORY('part',$,(#61));
#695 = SHAPE_DEFINITION_REPRESENTATION(#696,#702);
#696 = PRODUCT_DEFINITION_SHAPE('','',#697);
#697 = PRODUCT_DEFINITION('design','',#698,#701);
#698 = PRODUCT_DEFINITION_FORMATION('','',#699);
#699 = PRODUCT('Alps_RDC503_module','Alps_RDC503_module','',(#700));
#700 = PRODUCT_CONTEXT('',#2,'mechanical');
#701 = PRODUCT_DEFINITION_CONTEXT('part definition',#2,'design');
#702 = SHAPE_REPRESENTATION('',(#11,#703),#707);
#703 = AXIS2_PLACEMENT_3D('',#704,#705,#706);
#704 = CARTESIAN_POINT('',(-3.931192398071,-0.526986598969,
    -0.645914745331));
#705 = DIRECTION('',(0.,-0.,1.));
#706 = DIRECTION('',(2.22044604925E-16,1.,0.));
#707 = ( GEOMETRIC_REPRESENTATION_CONTEXT(3) 
GLOBAL_UNCERTAINTY_ASSIGNED_CONTEXT((#711)) GLOBAL_UNIT_ASSIGNED_CONTEXT
((#708,#709,#710)) REPRESENTATION_CONTEXT('Context #1',
  '3D Context with UNIT and UNCERTAINTY') );
#708 = ( LENGTH_UNIT() NAMED_UNIT(*) SI_UNIT(.MILLI.,.METRE.) );
#709 = ( NAMED_UNIT(*) PLANE_ANGLE_UNIT() SI_UNIT($,.RADIAN.) );
#710 = ( NAMED_UNIT(*) SI_UNIT($,.STERADIAN.) SOLID_ANGLE_UNIT() );
#711 = UNCERTAINTY_MEASURE_WITH_UNIT(LENGTH_MEASURE(1.E-07),#708,
  'distance_accuracy_value','confusion accuracy');
#712 = CONTEXT_DEPENDENT_SHAPE_REPRESENTATION(#713,#715);
#713 = ( REPRESENTATION_RELATIONSHIP('','',#702,#10) 
REPRESENTATION_RELATIONSHIP_WITH_TRANSFORMATION(#714) 
SHAPE_REPRESENTATION_RELATIONSHIP() );
#714 = ITEM_DEFINED_TRANSFORMATION('','',#11,#19);
#715 = PRODUCT_DEFINITION_SHAPE('Placement','Placement of an item',#716
  );
#716 = NEXT_ASSEMBLY_USAGE_OCCURRENCE('3','Alps_RDC503_module','',#5,
  #697,$);
#717 = PRODUCT_RELATED_PRODUCT_CATEGORY('part',$,(#699));
#718 = CONTEXT_DEPENDENT_SHAPE_REPRESENTATION(#719,#721);
#719 = ( REPRESENTATION_RELATIONSHIP('','',#64,#702) 
REPRESENTATION_RELATIONSHIP_WITH_TRANSFORMATION(#720) 
SHAPE_REPRESENTATION_RELATIONSHIP() );
#720 = ITEM_DEFINED_TRANSFORMATION('','',#11,#703);
#721 = PRODUCT_DEFINITION_SHAPE('Placement','Placement of an item',#722
  );
#722 = NEXT_ASSEMBLY_USAGE_OCCURRENCE('2','Body001','',#697,#59,$);
#723 = SHAPE_DEFINITION_REPRESENTATION(#724,#730);
#724 = PRODUCT_DEFINITION_SHAPE('','',#725);
#725 = PRODUCT_DEFINITION('design','',#726,#729);
#726 = PRODUCT_DEFINITION_FORMATION('','',#727);
#727 = PRODUCT('X-axis002','X-axis002','',(#728));
#728 = PRODUCT_CONTEXT('',#2,'mechanical');
#729 = PRODUCT_DEFINITION_CONTEXT('part definition',#2,'design');
#730 = GEOMETRICALLY_BOUNDED_WIREFRAME_SHAPE_REPRESENTATION('',(#11,#731
    ),#736);
#731 = GEOMETRIC_CURVE_SET('',(#732));
#732 = LINE('',#733,#734);
#733 = CARTESIAN_POINT('',(0.,0.,0.));
#734 = VECTOR('',#735,1.);
#735 = DIRECTION('',(1.,0.,0.));
#736 = ( GEOMETRIC_REPRESENTATION_CONTEXT(3) 
GLOBAL_UNCERTAINTY_ASSIGNED_CONTEXT((#740)) GLOBAL_UNIT_ASSIGNED_CONTEXT
((#737,#738,#739)) REPRESENTATION_CONTEXT('Context #1',
  '3D Context with UNIT and UNCERTAINTY') );
#737 = ( LENGTH_UNIT() NAMED_UNIT(*) SI_UNIT(.MILLI.,.METRE.) );
#738 = ( NAMED_UNIT(*) PLANE_ANGLE_UNIT() SI_UNIT($,.RADIAN.) );
#739 = ( NAMED_UNIT(*) SI_UNIT($,.STERADIAN.) SOLID_ANGLE_UNIT() );
#740 = UNCERTAINTY_MEASURE_WITH_UNIT(LENGTH_MEASURE(1.E-07),#737,
  'distance_accuracy_value','confusion accuracy');
#741 = CONTEXT_DEPENDENT_SHAPE_REPRESENTATION(#742,#744);
#742 = ( REPRESENTATION_RELATIONSHIP('','',#730,#10) 
REPRESENTATION_RELATIONSHIP_WITH_TRANSFORMATION(#743) 
SHAPE_REPRESENTATION_RELATIONSHIP() );
#743 = ITEM_DEFINED_TRANSFORMATION('','',#11,#23);
#744 = PRODUCT_DEFINITION_SHAPE('Placement','Placement of an item',#745
  );
#745 = NEXT_ASSEMBLY_USAGE_OCCURRENCE('4','X-axis002','',#5,#725,$);
#746 = PRODUCT_RELATED_PRODUCT_CATEGORY('part',$,(#727));
#747 = CONTEXT_DEPENDENT_SHAPE_REPRESENTATION(#748,#750);
#748 = ( REPRESENTATION_RELATIONSHIP('','',#730,#10) 
REPRESENTATION_RELATIONSHIP_WITH_TRANSFORMATION(#749) 
SHAPE_REPRESENTATION_RELATIONSHIP() );
#749 = ITEM_DEFINED_TRANSFORMATION('','',#11,#27);
#750 = PRODUCT_DEFINITION_SHAPE('Placement','Placement of an item',#751
  );
#751 = NEXT_ASSEMBLY_USAGE_OCCURRENCE('5','Y-axis002','',#5,#725,$);
#752 = CONTEXT_DEPENDENT_SHAPE_REPRESENTATION(#753,#755);
#753 = ( REPRESENTATION_RELATIONSHIP('','',#730,#10) 
REPRESENTATION_RELATIONSHIP_WITH_TRANSFORMATION(#754) 
SHAPE_REPRESENTATION_RELATIONSHIP() );
#754 = ITEM_DEFINED_TRANSFORMATION('','',#11,#31);
#755 = PRODUCT_DEFINITION_SHAPE('Placement','Placement of an item',#756
  );
#756 = NEXT_ASSEMBLY_USAGE_OCCURRENCE('6','Z-axis002','',#5,#725,$);
#757 = SHAPE_DEFINITION_REPRESENTATION(#758,#764);
#758 = PRODUCT_DEFINITION_SHAPE('','',#759);
#759 = PRODUCT_DEFINITION('design','',#760,#763);
#760 = PRODUCT_DEFINITION_FORMATION('','',#761);
#761 = PRODUCT('XY-plane002','XY-plane002','',(#762));
#762 = PRODUCT_CONTEXT('',#2,'mechanical');
#763 = PRODUCT_DEFINITION_CONTEXT('part definition',#2,'design');
#764 = MANIFOLD_SURFACE_SHAPE_REPRESENTATION('',(#11),#765);
#765 = ( GEOMETRIC_REPRESENTATION_CONTEXT(3) 
GLOBAL_UNCERTAINTY_ASSIGNED_CONTEXT((#769)) GLOBAL_UNIT_ASSIGNED_CONTEXT
((#766,#767,#768)) REPRESENTATION_CONTEXT('Context #1',
  '3D Context with UNIT and UNCERTAINTY') );
#766 = ( LENGTH_UNIT() NAMED_UNIT(*) SI_UNIT(.MILLI.,.METRE.) );
#767 = ( NAMED_UNIT(*) PLANE_ANGLE_UNIT() SI_UNIT($,.RADIAN.) );
#768 = ( NAMED_UNIT(*) SI_UNIT($,.STERADIAN.) SOLID_ANGLE_UNIT() );
#769 = UNCERTAINTY_MEASURE_WITH_UNIT(LENGTH_MEASURE(1.E-07),#766,
  'distance_accuracy_value','confusion accuracy');
#770 = CONTEXT_DEPENDENT_SHAPE_REPRESENTATION(#771,#773);
#771 = ( REPRESENTATION_RELATIONSHIP('','',#764,#10) 
REPRESENTATION_RELATIONSHIP_WITH_TRANSFORMATION(#772) 
SHAPE_REPRESENTATION_RELATIONSHIP() );
#772 = ITEM_DEFINED_TRANSFORMATION('','',#11,#35);
#773 = PRODUCT_DEFINITION_SHAPE('Placement','Placement of an item',#774
  );
#774 = NEXT_ASSEMBLY_USAGE_OCCURRENCE('7','XY-plane002','',#5,#759,$);
#775 = PRODUCT_RELATED_PRODUCT_CATEGORY('part',$,(#761));
#776 = CONTEXT_DEPENDENT_SHAPE_REPRESENTATION(#777,#779);
#777 = ( REPRESENTATION_RELATIONSHIP('','',#764,#10) 
REPRESENTATION_RELATIONSHIP_WITH_TRANSFORMATION(#778) 
SHAPE_REPRESENTATION_RELATIONSHIP() );
#778 = ITEM_DEFINED_TRANSFORMATION('','',#11,#39);
#779 = PRODUCT_DEFINITION_SHAPE('Placement','Placement of an item',#780
  );
#780 = NEXT_ASSEMBLY_USAGE_OCCURRENCE('8','XZ-plane002','',#5,#759,$);
#781 = CONTEXT_DEPENDENT_SHAPE_REPRESENTATION(#782,#784);
#782 = ( REPRESENTATION_RELATIONSHIP('','',#764,#10) 
REPRESENTATION_RELATIONSHIP_WITH_TRANSFORMATION(#783) 
SHAPE_REPRESENTATION_RELATIONSHIP() );
#783 = ITEM_DEFINED_TRANSFORMATION('','',#11,#43);
#784 = PRODUCT_DEFINITION_SHAPE('Placement','Placement of an item',#785
  );
#785 = NEXT_ASSEMBLY_USAGE_OCCURRENCE('9','YZ-plane002','',#5,#759,$);
#786 = SHAPE_DEFINITION_REPRESENTATION(#787,#793);
#787 = PRODUCT_DEFINITION_SHAPE('','',#788);
#788 = PRODUCT_DEFINITION('design','',#789,#792);
#789 = PRODUCT_DEFINITION_FORMATION('','',#790);
#790 = PRODUCT('Open CASCADE STEP translator 7.8 1.9',
  'Open CASCADE STEP translator 7.8 1.9','',(#791));
#791 = PRODUCT_CONTEXT('',#2,'mechanical');
#792 = PRODUCT_DEFINITION_CONTEXT('part definition',#2,'design');
#793 = GEOMETRICALLY_BOUNDED_WIREFRAME_SHAPE_REPRESENTATION('',(#11,#794
    ),#796);
#794 = GEOMETRIC_CURVE_SET('',(#795));
#795 = CARTESIAN_POINT('',(0.,0.,0.));
#796 = ( GEOMETRIC_REPRESENTATION_CONTEXT(3) 
GLOBAL_UNCERTAINTY_ASSIGNED_CONTEXT((#800)) GLOBAL_UNIT_ASSIGNED_CONTEXT
((#797,#798,#799)) REPRESENTATION_CONTEXT('Context #1',
  '3D Context with UNIT and UNCERTAINTY') );
#797 = ( LENGTH_UNIT() NAMED_UNIT(*) SI_UNIT(.MILLI.,.METRE.) );
#798 = ( NAMED_UNIT(*) PLANE_ANGLE_UNIT() SI_UNIT($,.RADIAN.) );
#799 = ( NAMED_UNIT(*) SI_UNIT($,.STERADIAN.) SOLID_ANGLE_UNIT() );
#800 = UNCERTAINTY_MEASURE_WITH_UNIT(LENGTH_MEASURE(1.E-07),#797,
  'distance_accuracy_value','confusion accuracy');
#801 = CONTEXT_DEPENDENT_SHAPE_REPRESENTATION(#802,#804);
#802 = ( REPRESENTATION_RELATIONSHIP('','',#793,#10) 
REPRESENTATION_RELATIONSHIP_WITH_TRANSFORMATION(#803) 
SHAPE_REPRESENTATION_RELATIONSHIP() );
#803 = ITEM_DEFINED_TRANSFORMATION('','',#11,#47);
#804 = PRODUCT_DEFINITION_SHAPE('Placement','Placement of an item',#805
  );
#805 = NEXT_ASSEMBLY_USAGE_OCCURRENCE('10','','',#5,#788,$);
#806 = PRODUCT_RELATED_PRODUCT_CATEGORY('part',$,(#790));
#807 = MECHANICAL_DESIGN_GEOMETRIC_PRESENTATION_REPRESENTATION('',(#808)
  ,#684);
#808 = STYLED_ITEM('color',(#809),#65);
#809 = PRESENTATION_STYLE_ASSIGNMENT((#810,#816));
#810 = SURFACE_STYLE_USAGE(.BOTH.,#811);
#811 = SURFACE_SIDE_STYLE('',(#812));
#812 = SURFACE_STYLE_FILL_AREA(#813);
#813 = FILL_AREA_STYLE('',(#814));
#814 = FILL_AREA_STYLE_COLOUR('',#815);
#815 = COLOUR_RGB('',0.14117647753,0.14117647753,0.14117647753);
#816 = CURVE_STYLE('',#817,POSITIVE_LENGTH_MEASURE(0.1),#818);
#817 = DRAUGHTING_PRE_DEFINED_CURVE_FONT('continuous');
#818 = COLOUR_RGB('',9.803921802644E-02,9.803921802644E-02,
  9.803921802644E-02);
ENDSEC;
END-ISO-10303-21;
