  0
SECTION
  2
HEADER
  9
$ANGBASE
  50
0.0
  9
$ANGDIR
  70
1
  9
$MEASUREMENT
  70
1
  0
ENDSEC
  0
SECTION
  2
TABLES
  0
TABLE
  2
LTYPE
  70
4
  0
LTYPE
  5
40F
  2
CONTINUOUS
  70
0
  3
Solid line
  72
65
  73
0
  40
0.0
  0
LTYPE
  5
410
  2
DASHDOT
 70
0
  3
Dash Dot ____ _ ____ _
 72
65
 73
4
 40
2.0
 49
1.25
 49
-0.25
 49
0.25
 49
-0.25
  0
LTYPE
  5
411
  2
DASHED
 70
0
  3
Dashed __ __ __ __ __
 72
65
 73
2
 40
0.75
 49
0.5
 49
-0.25
  0
LTYPE
  5
43B
  2
DOTTED
 70
0
  3
Dotted .  .  .  .
 72
65
 73
2
 40
0.2
 49
0.0
 49
-0.2
  0
ENDTAB
  0
TABLE
  2
STYLE
  70
4
  0
STYLE
  2
KICAD
  70
0
  40
0
  41
1
  42
1
  50
0
  71
0
  3
isocp.shx
  0
STYLE
  2
KICADB
  70
0
  40
0
  41
1
  42
1
  50
0
  71
0
  3
isocp.shx
  0
STYLE
  2
KICADI
  70
0
  40
0
  41
1
  42
1
  50
15
  71
0
  3
isocp.shx
  0
STYLE
  2
KICADBI
  70
0
  40
0
  41
1
  42
1
  50
15
  71
0
  3
isocp.shx
  0
ENDTAB
  0
TABLE
  2
LAYER
  70
1
  0
LAYER
  2
BLACK
  70
0
  62
7
  6
CONTINUOUS
  0
ENDTAB
  0
ENDSEC
  0
SECTION
  2
ENTITIES
0
LINE
8
BLACK
6
CONTINUOUS
10
169.002
20
-59.95
11
169.01
21
-59.9507
0
LINE
8
BLACK
6
CONTINUOUS
10
169.01
20
-59.9507
11
169.019
21
-59.9536
0
LINE
8
BLACK
6
CONTINUOUS
10
169.019
20
-59.9536
11
169.028
21
-59.9582
0
LINE
8
BLACK
6
CONTINUOUS
10
169.028
20
-59.9582
11
169.036
21
-59.9645
0
LINE
8
BLACK
6
CONTINUOUS
10
169.036
20
-59.9645
11
169.042
21
-59.9721
0
LINE
8
BLACK
6
CONTINUOUS
10
169.042
20
-59.9721
11
169.046
21
-59.9808
0
LINE
8
BLACK
6
CONTINUOUS
10
169.046
20
-59.9808
11
169.049
21
-59.9902
0
LINE
8
BLACK
6
CONTINUOUS
10
169.049
20
-59.9902
11
169.05
21
-60
0
LINE
8
BLACK
6
CONTINUOUS
10
169.05
20
-60
11
169.05
21
-60.0024
0
LINE
8
BLACK
6
CONTINUOUS
10
169.05
20
-60.0024
11
169.05
21
-154.998
0
LINE
8
BLACK
6
CONTINUOUS
10
169.05
20
-154.998
11
169.05
21
-155
0
LINE
8
BLACK
6
CONTINUOUS
10
169.05
20
-155
11
169.05
21
-155.002
0
LINE
8
BLACK
6
CONTINUOUS
10
169.05
20
-155.002
11
169.05
21
-155.002
0
LINE
8
BLACK
6
CONTINUOUS
10
169.05
20
-155.002
11
169.049
21
-155.01
0
LINE
8
BLACK
6
CONTINUOUS
10
169.049
20
-155.01
11
169.046
21
-155.019
0
LINE
8
BLACK
6
CONTINUOUS
10
169.046
20
-155.019
11
169.042
21
-155.028
0
LINE
8
BLACK
6
CONTINUOUS
10
169.042
20
-155.028
11
169.036
21
-155.036
0
LINE
8
BLACK
6
CONTINUOUS
10
169.036
20
-155.036
11
169.028
21
-155.042
0
LINE
8
BLACK
6
CONTINUOUS
10
169.028
20
-155.042
11
169.019
21
-155.046
0
LINE
8
BLACK
6
CONTINUOUS
10
169.019
20
-155.046
11
169.01
21
-155.049
0
LINE
8
BLACK
6
CONTINUOUS
10
169.01
20
-155.049
11
169
21
-155.05
0
LINE
8
BLACK
6
CONTINUOUS
10
169
20
-155.05
11
168.998
21
-155.05
0
LINE
8
BLACK
6
CONTINUOUS
10
168.998
20
-155.05
11
42.0024
21
-155.05
0
LINE
8
BLACK
6
CONTINUOUS
10
42.0024
20
-155.05
11
42
21
-155.05
0
LINE
8
BLACK
6
CONTINUOUS
10
42
20
-155.05
11
41.9902
21
-155.049
0
LINE
8
BLACK
6
CONTINUOUS
10
41.9902
20
-155.049
11
41.9808
21
-155.046
0
LINE
8
BLACK
6
CONTINUOUS
10
41.9808
20
-155.046
11
41.9721
21
-155.042
0
LINE
8
BLACK
6
CONTINUOUS
10
41.9721
20
-155.042
11
41.9645
21
-155.036
0
LINE
8
BLACK
6
CONTINUOUS
10
41.9645
20
-155.036
11
41.9582
21
-155.028
0
LINE
8
BLACK
6
CONTINUOUS
10
41.9582
20
-155.028
11
41.9536
21
-155.019
0
LINE
8
BLACK
6
CONTINUOUS
10
41.9536
20
-155.019
11
41.9507
21
-155.01
0
LINE
8
BLACK
6
CONTINUOUS
10
41.9507
20
-155.01
11
41.9498
21
-155
0
LINE
8
BLACK
6
CONTINUOUS
10
41.9498
20
-155
11
41.95
21
-154.998
0
LINE
8
BLACK
6
CONTINUOUS
10
41.95
20
-154.998
11
41.95
21
-60.0025
0
LINE
8
BLACK
6
CONTINUOUS
10
41.95
20
-60.0025
11
41.9498
21
-60
0
LINE
8
BLACK
6
CONTINUOUS
10
41.9498
20
-60
11
41.9507
21
-59.9902
0
LINE
8
BLACK
6
CONTINUOUS
10
41.9507
20
-59.9902
11
41.9536
21
-59.9808
0
LINE
8
BLACK
6
CONTINUOUS
10
41.9536
20
-59.9808
11
41.9582
21
-59.9721
0
LINE
8
BLACK
6
CONTINUOUS
10
41.9582
20
-59.9721
11
41.9645
21
-59.9645
0
LINE
8
BLACK
6
CONTINUOUS
10
41.9645
20
-59.9645
11
41.9721
21
-59.9582
0
LINE
8
BLACK
6
CONTINUOUS
10
41.9721
20
-59.9582
11
41.9808
21
-59.9536
0
LINE
8
BLACK
6
CONTINUOUS
10
41.9808
20
-59.9536
11
41.9902
21
-59.9507
0
LINE
8
BLACK
6
CONTINUOUS
10
41.9902
20
-59.9507
11
41.9976
21
-59.95
0
LINE
8
BLACK
6
CONTINUOUS
10
41.9976
20
-59.95
11
42
21
-59.9498
0
LINE
8
BLACK
6
CONTINUOUS
10
42
20
-59.9498
11
42.0024
21
-59.95
0
LINE
8
BLACK
6
CONTINUOUS
10
42.0024
20
-59.95
11
168.998
21
-59.95
0
LINE
8
BLACK
6
CONTINUOUS
10
168.998
20
-59.95
11
169
21
-59.9498
0
LINE
8
BLACK
6
CONTINUOUS
10
169
20
-59.9498
11
169.002
21
-59.95
0
LINE
8
BLACK
6
CONTINUOUS
10
42.05
20
-60.05
11
42.05
21
-154.95
0
LINE
8
BLACK
6
CONTINUOUS
10
42.05
20
-154.95
11
168.95
21
-154.95
0
LINE
8
BLACK
6
CONTINUOUS
10
168.95
20
-154.95
11
168.95
21
-60.05
0
LINE
8
BLACK
6
CONTINUOUS
10
168.95
20
-60.05
11
42.05
21
-60.05
  0
ENDSEC
  0
EOF
