  0
SECTION
  2
HEADER
  9
$ANGBASE
  50
0.0
  9
$ANGDIR
  70
1
  9
$MEASUREMENT
  70
0
  0
ENDSEC
  0
SECTION
  2
TABLES
  0
TABLE
  2
LTYPE
  70
4
  0
LTYPE
  5
40F
  2
CONTINUOUS
  70
0
  3
Solid line
  72
65
  73
0
  40
0.0
  0
LTYPE
  5
410
  2
DASHDOT
 70
0
  3
Dash Dot ____ _ ____ _
 72
65
 73
4
 40
2.0
 49
1.25
 49
-0.25
 49
0.25
 49
-0.25
  0
LTYPE
  5
411
  2
DASHED
 70
0
  3
Dashed __ __ __ __ __
 72
65
 73
2
 40
0.75
 49
0.5
 49
-0.25
  0
LTYPE
  5
43B
  2
DOTTED
 70
0
  3
Dotted .  .  .  .
 72
65
 73
2
 40
0.2
 49
0.0
 49
-0.2
  0
ENDTAB
  0
TABLE
  2
STYLE
  70
4
  0
STYLE
  2
KICAD
  70
0
  40
0
  41
1
  42
1
  50
0
  71
0
  3
isocp.shx
  0
STYLE
  2
KICADB
  70
0
  40
0
  41
1
  42
1
  50
0
  71
0
  3
isocp.shx
  0
STYLE
  2
KICADI
  70
0
  40
0
  41
1
  42
1
  50
15
  71
0
  3
isocp.shx
  0
STYLE
  2
KICADBI
  70
0
  40
0
  41
1
  42
1
  50
15
  71
0
  3
isocp.shx
  0
ENDTAB
  0
TABLE
  2
LAYER
  70
1
  0
LAYER
  2
BLACK
  70
0
  62
7
  6
CONTINUOUS
  0
ENDTAB
  0
ENDSEC
  0
SECTION
  2
ENTITIES
0
LINE
8
BLACK
6
CONTINUOUS
10
2.78102
20
-2.05331
11
2.70228
21
-2.05331
0
LINE
8
BLACK
6
CONTINUOUS
10
2.78102
20
-5.99031
11
2.78102
21
-2.05331
0
LINE
8
BLACK
6
CONTINUOUS
10
2.70228
20
-5.99031
11
2.78102
21
-5.99031
0
LINE
8
BLACK
6
CONTINUOUS
10
1.7574
20
-5.99031
11
1.7574
21
-2.05331
0
LINE
8
BLACK
6
CONTINUOUS
10
2.70228
20
-5.99031
11
1.7574
21
-5.99031
0
LINE
8
BLACK
6
CONTINUOUS
10
1.7574
20
-2.05331
11
2.70228
21
-2.05331
0
LINE
8
BLACK
6
CONTINUOUS
10
1.86918
20
-6.17465
11
1.86918
21
-6.05654
0
LINE
8
BLACK
6
CONTINUOUS
10
1.86918
20
-6.05654
11
1.89731
21
-6.05654
0
LINE
8
BLACK
6
CONTINUOUS
10
1.89731
20
-6.05654
11
1.91418
21
-6.06217
0
LINE
8
BLACK
6
CONTINUOUS
10
1.91418
20
-6.06217
11
1.92543
21
-6.07341
0
LINE
8
BLACK
6
CONTINUOUS
10
1.92543
20
-6.07341
11
1.93105
21
-6.08466
0
LINE
8
BLACK
6
CONTINUOUS
10
1.93105
20
-6.08466
11
1.93668
21
-6.10716
0
LINE
8
BLACK
6
CONTINUOUS
10
1.93668
20
-6.10716
11
1.93668
21
-6.12403
0
LINE
8
BLACK
6
CONTINUOUS
10
1.93668
20
-6.12403
11
1.93105
21
-6.14653
0
LINE
8
BLACK
6
CONTINUOUS
10
1.93105
20
-6.14653
11
1.92543
21
-6.15778
0
LINE
8
BLACK
6
CONTINUOUS
10
1.92543
20
-6.15778
11
1.91418
21
-6.16903
0
LINE
8
BLACK
6
CONTINUOUS
10
1.91418
20
-6.16903
11
1.89731
21
-6.17465
0
LINE
8
BLACK
6
CONTINUOUS
10
1.89731
20
-6.17465
11
1.86918
21
-6.17465
0
LINE
8
BLACK
6
CONTINUOUS
10
1.98729
20
-6.17465
11
1.98729
21
-6.09591
0
LINE
8
BLACK
6
CONTINUOUS
10
1.98729
20
-6.11841
11
1.99292
21
-6.10716
0
LINE
8
BLACK
6
CONTINUOUS
10
1.99292
20
-6.10716
11
1.99854
21
-6.10154
0
LINE
8
BLACK
6
CONTINUOUS
10
1.99854
20
-6.10154
11
2.00979
21
-6.09591
0
LINE
8
BLACK
6
CONTINUOUS
10
2.00979
20
-6.09591
11
2.02104
21
-6.09591
0
LINE
8
BLACK
6
CONTINUOUS
10
2.06041
20
-6.17465
11
2.06041
21
-6.09591
0
LINE
8
BLACK
6
CONTINUOUS
10
2.06041
20
-6.05654
11
2.05479
21
-6.06217
0
LINE
8
BLACK
6
CONTINUOUS
10
2.05479
20
-6.06217
11
2.06041
21
-6.06779
0
LINE
8
BLACK
6
CONTINUOUS
10
2.06041
20
-6.06779
11
2.06603
21
-6.06217
0
LINE
8
BLACK
6
CONTINUOUS
10
2.06603
20
-6.06217
11
2.06041
21
-6.05654
0
LINE
8
BLACK
6
CONTINUOUS
10
2.06041
20
-6.05654
11
2.06041
21
-6.06779
0
LINE
8
BLACK
6
CONTINUOUS
10
2.13353
20
-6.17465
11
2.12228
21
-6.16903
0
LINE
8
BLACK
6
CONTINUOUS
10
2.12228
20
-6.16903
11
2.11665
21
-6.15778
0
LINE
8
BLACK
6
CONTINUOUS
10
2.11665
20
-6.15778
11
2.11665
21
-6.05654
0
LINE
8
BLACK
6
CONTINUOUS
10
2.19539
20
-6.17465
11
2.18415
21
-6.16903
0
LINE
8
BLACK
6
CONTINUOUS
10
2.18415
20
-6.16903
11
2.17852
21
-6.15778
0
LINE
8
BLACK
6
CONTINUOUS
10
2.17852
20
-6.15778
11
2.17852
21
-6.05654
0
LINE
8
BLACK
6
CONTINUOUS
10
2.33038
20
-6.17465
11
2.33038
21
-6.05654
0
LINE
8
BLACK
6
CONTINUOUS
10
2.33038
20
-6.05654
11
2.36975
21
-6.14091
0
LINE
8
BLACK
6
CONTINUOUS
10
2.36975
20
-6.14091
11
2.40912
21
-6.05654
0
LINE
8
BLACK
6
CONTINUOUS
10
2.40912
20
-6.05654
11
2.40912
21
-6.17465
0
LINE
8
BLACK
6
CONTINUOUS
10
2.51598
20
-6.17465
11
2.51598
21
-6.11278
0
LINE
8
BLACK
6
CONTINUOUS
10
2.51598
20
-6.11278
11
2.51035
21
-6.10154
0
LINE
8
BLACK
6
CONTINUOUS
10
2.51035
20
-6.10154
11
2.49911
21
-6.09591
0
LINE
8
BLACK
6
CONTINUOUS
10
2.49911
20
-6.09591
11
2.47661
21
-6.09591
0
LINE
8
BLACK
6
CONTINUOUS
10
2.47661
20
-6.09591
11
2.46536
21
-6.10154
0
LINE
8
BLACK
6
CONTINUOUS
10
2.51598
20
-6.16903
11
2.50473
21
-6.17465
0
LINE
8
BLACK
6
CONTINUOUS
10
2.50473
20
-6.17465
11
2.47661
21
-6.17465
0
LINE
8
BLACK
6
CONTINUOUS
10
2.47661
20
-6.17465
11
2.46536
21
-6.16903
0
LINE
8
BLACK
6
CONTINUOUS
10
2.46536
20
-6.16903
11
2.45974
21
-6.15778
0
LINE
8
BLACK
6
CONTINUOUS
10
2.45974
20
-6.15778
11
2.45974
21
-6.14653
0
LINE
8
BLACK
6
CONTINUOUS
10
2.45974
20
-6.14653
11
2.46536
21
-6.13528
0
LINE
8
BLACK
6
CONTINUOUS
10
2.46536
20
-6.13528
11
2.47661
21
-6.12966
0
LINE
8
BLACK
6
CONTINUOUS
10
2.47661
20
-6.12966
11
2.50473
21
-6.12966
0
LINE
8
BLACK
6
CONTINUOUS
10
2.50473
20
-6.12966
11
2.51598
21
-6.12403
0
LINE
8
BLACK
6
CONTINUOUS
10
2.57222
20
-6.09591
11
2.57222
21
-6.21402
0
LINE
8
BLACK
6
CONTINUOUS
10
2.57222
20
-6.10154
11
2.58347
21
-6.09591
0
LINE
8
BLACK
6
CONTINUOUS
10
2.58347
20
-6.09591
11
2.60597
21
-6.09591
0
LINE
8
BLACK
6
CONTINUOUS
10
2.60597
20
-6.09591
11
2.61722
21
-6.10154
0
LINE
8
BLACK
6
CONTINUOUS
10
2.61722
20
-6.10154
11
2.62284
21
-6.10716
0
LINE
8
BLACK
6
CONTINUOUS
10
2.62284
20
-6.10716
11
2.62846
21
-6.11841
0
LINE
8
BLACK
6
CONTINUOUS
10
2.62846
20
-6.11841
11
2.62846
21
-6.15215
0
LINE
8
BLACK
6
CONTINUOUS
10
2.62846
20
-6.15215
11
2.62284
21
-6.1634
0
LINE
8
BLACK
6
CONTINUOUS
10
2.62284
20
-6.1634
11
2.61722
21
-6.16903
0
LINE
8
BLACK
6
CONTINUOUS
10
2.61722
20
-6.16903
11
2.60597
21
-6.17465
0
LINE
8
BLACK
6
CONTINUOUS
10
2.60597
20
-6.17465
11
2.58347
21
-6.17465
0
LINE
8
BLACK
6
CONTINUOUS
10
2.58347
20
-6.17465
11
2.57222
21
-6.16903
0
LINE
8
BLACK
6
CONTINUOUS
10
2.67908
20
-6.1634
11
2.68471
21
-6.16903
0
LINE
8
BLACK
6
CONTINUOUS
10
2.68471
20
-6.16903
11
2.67908
21
-6.17465
0
LINE
8
BLACK
6
CONTINUOUS
10
2.67908
20
-6.17465
11
2.67346
21
-6.16903
0
LINE
8
BLACK
6
CONTINUOUS
10
2.67346
20
-6.16903
11
2.67908
21
-6.1634
0
LINE
8
BLACK
6
CONTINUOUS
10
2.67908
20
-6.1634
11
2.67908
21
-6.17465
0
LINE
8
BLACK
6
CONTINUOUS
10
2.67908
20
-6.10154
11
2.68471
21
-6.10716
0
LINE
8
BLACK
6
CONTINUOUS
10
2.68471
20
-6.10716
11
2.67908
21
-6.11278
0
LINE
8
BLACK
6
CONTINUOUS
10
2.67908
20
-6.11278
11
2.67346
21
-6.10716
0
LINE
8
BLACK
6
CONTINUOUS
10
2.67346
20
-6.10716
11
2.67908
21
-6.10154
0
LINE
8
BLACK
6
CONTINUOUS
10
2.67908
20
-6.10154
11
2.67908
21
-6.11278
  0
ENDSEC
  0
EOF
