M48
; DRILL file {KiCad (5.1.5-0-10_14)} date 2021 November 29, Monday 15:22:59
; FORMAT={-:-/ absolute / inch / decimal}
; #@! TF.CreationDate,2021-11-29T15:22:59+01:00
; #@! TF.GenerationSoftware,Kicad,Pcbnew,(5.1.5-0-10_14)
; #@! TF.FileFunction,Plated,1,2,PTH
FMAT,2
INCH
T1C0.0157
T2C0.0315
T3C0.0472
T4C0.0787
T5C0.0827
T6C0.1260
%
G90
G05
T1
X1.8676Y-3.2738
X1.9041Y-2.5061
X1.907Y-2.5887
X1.907Y-3.0218
X1.907Y-4.3525
X1.9857Y-4.699
X1.9936Y-4.2738
X2.0015Y-2.2694
X2.0157Y-3.8098
X2.0251Y-4.132
X2.0487Y-4.9431
X2.0566Y-3.2423
X2.0566Y-3.6517
X2.0566Y-4.3604
X2.0881Y-3.3289
X2.0955Y-3.17
X2.1235Y-2.9779
X2.1905Y-3.3624
X2.222Y-2.5021
X2.2377Y-3.9588
X2.2613Y-3.8722
X2.2627Y-3.2531
X2.2771Y-4.5336
X2.285Y-5.195
X2.3007Y-4.9903
X2.3243Y-4.2265
X2.3322Y-3.132
X2.4267Y-3.7069
X2.4424Y-2.3446
X2.4503Y-3.8565
X2.4818Y-2.6517
X2.4897Y-3.3525
X2.4976Y-3.4313
X2.5054Y-2.4313
X2.5054Y-3.5021
X2.5133Y-3.5966
X2.5606Y-3.1084
X2.592Y-3.8013
X2.594Y-2.9549
X2.6206Y-3.6931
X2.6472Y-3.3604
X2.6472Y-4.51
X2.655Y-3.9588
X2.6629Y-2.3368
X2.6747Y-3.1045
X2.7023Y-2.5651
X2.7495Y-4.9431
T2
X2.0369Y-4.8702
X2.1157Y-4.8702
X2.1944Y-4.8702
X2.2731Y-4.8702
X2.3519Y-4.8702
X2.4306Y-4.8702
T3
X2.1263Y-2.2443
X2.2263Y-2.2521
X2.3263Y-2.2443
X2.592Y-4.0612
X2.592Y-4.2612
X2.5999Y-4.1612
X2.5999Y-4.3612
X1.8834Y-4.6541
X1.8834Y-4.7541
T4
X2.5999Y-4.762
X2.5999Y-3.2383
X2.6039Y-2.2423
X1.9306Y-3.7935
X2.5999Y-2.7403
T5
X1.9779Y-5.3033
X2.4897Y-5.3033
T6
X2.2377Y-5.8092
X1.9621Y-2.758
T0
M30
