  0
SECTION
  2
HEADER
  9
$ANGBASE
  50
0.0
  9
$ANGDIR
  70
1
  9
$MEASUREMENT
  70
0
  0
ENDSEC
  0
SECTION
  2
TABLES
  0
TABLE
  2
LTYPE
  70
4
  0
LTYPE
  5
40F
  2
CONTINUOUS
  70
0
  3
Solid line
  72
65
  73
0
  40
0.0
  0
LTYPE
  5
410
  2
DASHDOT
 70
0
  3
Dash Dot ____ _ ____ _
 72
65
 73
4
 40
2.0
 49
1.25
 49
-0.25
 49
0.25
 49
-0.25
  0
LTYPE
  5
411
  2
DASHED
 70
0
  3
Dashed __ __ __ __ __
 72
65
 73
2
 40
0.75
 49
0.5
 49
-0.25
  0
LTYPE
  5
43B
  2
DOTTED
 70
0
  3
Dotted .  .  .  .
 72
65
 73
2
 40
0.2
 49
0.0
 49
-0.2
  0
ENDTAB
  0
TABLE
  2
STYLE
  70
4
  0
STYLE
  2
KICAD
  70
0
  40
0
  41
1
  42
1
  50
0
  71
0
  3
isocp.shx
  0
STYLE
  2
KICADB
  70
0
  40
0
  41
1
  42
1
  50
0
  71
0
  3
isocp.shx
  0
STYLE
  2
KICADI
  70
0
  40
0
  41
1
  42
1
  50
15
  71
0
  3
isocp.shx
  0
STYLE
  2
KICADBI
  70
0
  40
0
  41
1
  42
1
  50
15
  71
0
  3
isocp.shx
  0
ENDTAB
  0
TABLE
  2
LAYER
  70
1
  0
LAYER
  2
BLACK
  70
0
  62
7
  6
CONTINUOUS
  0
ENDTAB
  0
ENDSEC
  0
SECTION
  2
ENTITIES
0
LINE
8
BLACK
6
CONTINUOUS
10
2.78102
20
-2.05331
11
2.70228
21
-2.05331
0
LINE
8
BLACK
6
CONTINUOUS
10
2.78102
20
-5.99031
11
2.78102
21
-2.05331
0
LINE
8
BLACK
6
CONTINUOUS
10
2.70228
20
-5.99031
11
2.78102
21
-5.99031
0
LINE
8
BLACK
6
CONTINUOUS
10
1.7574
20
-5.99031
11
1.7574
21
-2.05331
0
LINE
8
BLACK
6
CONTINUOUS
10
2.70228
20
-5.99031
11
1.7574
21
-5.99031
0
LINE
8
BLACK
6
CONTINUOUS
10
1.7574
20
-2.05331
11
2.70228
21
-2.05331
0
LINE
8
BLACK
6
CONTINUOUS
10
1.85976
20
-3.26591
11
1.87551
21
-3.28165
0
LINE
8
BLACK
6
CONTINUOUS
10
1.87551
20
-3.26591
11
1.85976
21
-3.28165
0
LINE
8
BLACK
6
CONTINUOUS
10
1.89618
20
-2.49819
11
1.91193
21
-2.51394
0
LINE
8
BLACK
6
CONTINUOUS
10
1.91193
20
-2.49819
11
1.89618
21
-2.51394
0
LINE
8
BLACK
6
CONTINUOUS
10
1.89913
20
-2.58087
11
1.91488
21
-2.59661
0
LINE
8
BLACK
6
CONTINUOUS
10
1.91488
20
-2.58087
11
1.89913
21
-2.59661
0
LINE
8
BLACK
6
CONTINUOUS
10
1.89913
20
-3.01394
11
1.91488
21
-3.02969
0
LINE
8
BLACK
6
CONTINUOUS
10
1.91488
20
-3.01394
11
1.89913
21
-3.02969
0
LINE
8
BLACK
6
CONTINUOUS
10
1.89913
20
-4.34465
11
1.91488
21
-4.36039
0
LINE
8
BLACK
6
CONTINUOUS
10
1.91488
20
-4.34465
11
1.89913
21
-4.36039
0
LINE
8
BLACK
6
CONTINUOUS
10
1.97787
20
-4.6911
11
1.99362
21
-4.70685
0
LINE
8
BLACK
6
CONTINUOUS
10
1.99362
20
-4.6911
11
1.97787
21
-4.70685
0
LINE
8
BLACK
6
CONTINUOUS
10
1.98575
20
-4.26591
11
2.0015
21
-4.28165
0
LINE
8
BLACK
6
CONTINUOUS
10
2.0015
20
-4.26591
11
1.98575
21
-4.28165
0
LINE
8
BLACK
6
CONTINUOUS
10
1.99362
20
-2.26148
11
2.00937
21
-2.27722
0
LINE
8
BLACK
6
CONTINUOUS
10
2.00937
20
-2.26148
11
1.99362
21
-2.27722
0
LINE
8
BLACK
6
CONTINUOUS
10
2.00782
20
-3.80189
11
2.02357
21
-3.81764
0
LINE
8
BLACK
6
CONTINUOUS
10
2.02357
20
-3.80189
11
2.00782
21
-3.81764
0
LINE
8
BLACK
6
CONTINUOUS
10
2.01724
20
-4.12417
11
2.03299
21
-4.13992
0
LINE
8
BLACK
6
CONTINUOUS
10
2.03299
20
-4.12417
11
2.01724
21
-4.13992
0
LINE
8
BLACK
6
CONTINUOUS
10
2.04087
20
-4.9352
11
2.05661
21
-4.95094
0
LINE
8
BLACK
6
CONTINUOUS
10
2.05661
20
-4.9352
11
2.04087
21
-4.95094
0
LINE
8
BLACK
6
CONTINUOUS
10
2.04874
20
-3.23441
11
2.06449
21
-3.25016
0
LINE
8
BLACK
6
CONTINUOUS
10
2.06449
20
-3.23441
11
2.04874
21
-3.25016
0
LINE
8
BLACK
6
CONTINUOUS
10
2.04874
20
-3.64386
11
2.06449
21
-3.65961
0
LINE
8
BLACK
6
CONTINUOUS
10
2.06449
20
-3.64386
11
2.04874
21
-3.65961
0
LINE
8
BLACK
6
CONTINUOUS
10
2.04874
20
-4.35252
11
2.06449
21
-4.36827
0
LINE
8
BLACK
6
CONTINUOUS
10
2.06449
20
-4.35252
11
2.04874
21
-4.36827
0
LINE
8
BLACK
6
CONTINUOUS
10
2.08024
20
-3.32102
11
2.09598
21
-3.33677
0
LINE
8
BLACK
6
CONTINUOUS
10
2.09598
20
-3.32102
11
2.08024
21
-3.33677
0
LINE
8
BLACK
6
CONTINUOUS
10
2.08764
20
-3.16208
11
2.10339
21
-3.17783
0
LINE
8
BLACK
6
CONTINUOUS
10
2.10339
20
-3.16208
11
2.08764
21
-3.17783
0
LINE
8
BLACK
6
CONTINUOUS
10
2.11567
20
-2.97004
11
2.13142
21
-2.98579
0
LINE
8
BLACK
6
CONTINUOUS
10
2.13142
20
-2.97004
11
2.11567
21
-2.98579
0
LINE
8
BLACK
6
CONTINUOUS
10
2.1826
20
-3.35449
11
2.19835
21
-3.37024
0
LINE
8
BLACK
6
CONTINUOUS
10
2.19835
20
-3.35449
11
2.1826
21
-3.37024
0
LINE
8
BLACK
6
CONTINUOUS
10
2.21409
20
-2.49425
11
2.22984
21
-2.51
0
LINE
8
BLACK
6
CONTINUOUS
10
2.22984
20
-2.49425
11
2.21409
21
-2.51
0
LINE
8
BLACK
6
CONTINUOUS
10
2.22984
20
-3.95094
11
2.24559
21
-3.96669
0
LINE
8
BLACK
6
CONTINUOUS
10
2.24559
20
-3.95094
11
2.22984
21
-3.96669
0
LINE
8
BLACK
6
CONTINUOUS
10
2.25346
20
-3.86433
11
2.26921
21
-3.88008
0
LINE
8
BLACK
6
CONTINUOUS
10
2.26921
20
-3.86433
11
2.25346
21
-3.88008
0
LINE
8
BLACK
6
CONTINUOUS
10
2.25479
20
-3.24524
11
2.27054
21
-3.26098
0
LINE
8
BLACK
6
CONTINUOUS
10
2.27054
20
-3.24524
11
2.25479
21
-3.26098
0
LINE
8
BLACK
6
CONTINUOUS
10
2.26921
20
-4.52575
11
2.28496
21
-4.5415
0
LINE
8
BLACK
6
CONTINUOUS
10
2.28496
20
-4.52575
11
2.26921
21
-4.5415
0
LINE
8
BLACK
6
CONTINUOUS
10
2.27709
20
-5.18717
11
2.29283
21
-5.20291
0
LINE
8
BLACK
6
CONTINUOUS
10
2.29283
20
-5.18717
11
2.27709
21
-5.20291
0
LINE
8
BLACK
6
CONTINUOUS
10
2.29283
20
-4.98244
11
2.30858
21
-4.99819
0
LINE
8
BLACK
6
CONTINUOUS
10
2.30858
20
-4.98244
11
2.29283
21
-4.99819
0
LINE
8
BLACK
6
CONTINUOUS
10
2.31646
20
-4.21866
11
2.3322
21
-4.23441
0
LINE
8
BLACK
6
CONTINUOUS
10
2.3322
20
-4.21866
11
2.31646
21
-4.23441
0
LINE
8
BLACK
6
CONTINUOUS
10
2.32433
20
-3.12417
11
2.34008
21
-3.13992
0
LINE
8
BLACK
6
CONTINUOUS
10
2.34008
20
-3.12417
11
2.32433
21
-3.13992
0
LINE
8
BLACK
6
CONTINUOUS
10
2.41882
20
-3.69898
11
2.43457
21
-3.71472
0
LINE
8
BLACK
6
CONTINUOUS
10
2.43457
20
-3.69898
11
2.41882
21
-3.71472
0
LINE
8
BLACK
6
CONTINUOUS
10
2.43457
20
-2.33677
11
2.45031
21
-2.35252
0
LINE
8
BLACK
6
CONTINUOUS
10
2.45031
20
-2.33677
11
2.43457
21
-2.35252
0
LINE
8
BLACK
6
CONTINUOUS
10
2.44244
20
-3.84858
11
2.45819
21
-3.86433
0
LINE
8
BLACK
6
CONTINUOUS
10
2.45819
20
-3.84858
11
2.44244
21
-3.86433
0
LINE
8
BLACK
6
CONTINUOUS
10
2.47394
20
-2.64386
11
2.48969
21
-2.65961
0
LINE
8
BLACK
6
CONTINUOUS
10
2.48969
20
-2.64386
11
2.47394
21
-2.65961
0
LINE
8
BLACK
6
CONTINUOUS
10
2.48181
20
-3.34465
11
2.49756
21
-3.36039
0
LINE
8
BLACK
6
CONTINUOUS
10
2.49756
20
-3.34465
11
2.48181
21
-3.36039
0
LINE
8
BLACK
6
CONTINUOUS
10
2.48969
20
-3.42339
11
2.50543
21
-3.43913
0
LINE
8
BLACK
6
CONTINUOUS
10
2.50543
20
-3.42339
11
2.48969
21
-3.43913
0
LINE
8
BLACK
6
CONTINUOUS
10
2.49756
20
-2.42339
11
2.51331
21
-2.43913
0
LINE
8
BLACK
6
CONTINUOUS
10
2.51331
20
-2.42339
11
2.49756
21
-2.43913
0
LINE
8
BLACK
6
CONTINUOUS
10
2.49756
20
-3.49425
11
2.51331
21
-3.51
0
LINE
8
BLACK
6
CONTINUOUS
10
2.51331
20
-3.49425
11
2.49756
21
-3.51
0
LINE
8
BLACK
6
CONTINUOUS
10
2.50543
20
-3.58874
11
2.52118
21
-3.60449
0
LINE
8
BLACK
6
CONTINUOUS
10
2.52118
20
-3.58874
11
2.50543
21
-3.60449
0
LINE
8
BLACK
6
CONTINUOUS
10
2.55268
20
-3.10055
11
2.56843
21
-3.1163
0
LINE
8
BLACK
6
CONTINUOUS
10
2.56843
20
-3.10055
11
2.55268
21
-3.1163
0
LINE
8
BLACK
6
CONTINUOUS
10
2.58417
20
-3.79346
11
2.59992
21
-3.80921
0
LINE
8
BLACK
6
CONTINUOUS
10
2.59992
20
-3.79346
11
2.58417
21
-3.80921
0
LINE
8
BLACK
6
CONTINUOUS
10
2.58614
20
-2.94701
11
2.60189
21
-2.96276
0
LINE
8
BLACK
6
CONTINUOUS
10
2.60189
20
-2.94701
11
2.58614
21
-2.96276
0
LINE
8
BLACK
6
CONTINUOUS
10
2.61272
20
-3.68526
11
2.62846
21
-3.70101
0
LINE
8
BLACK
6
CONTINUOUS
10
2.62846
20
-3.68526
11
2.61272
21
-3.70101
0
LINE
8
BLACK
6
CONTINUOUS
10
2.63929
20
-3.35252
11
2.65504
21
-3.36827
0
LINE
8
BLACK
6
CONTINUOUS
10
2.65504
20
-3.35252
11
2.63929
21
-3.36827
0
LINE
8
BLACK
6
CONTINUOUS
10
2.63929
20
-4.50213
11
2.65504
21
-4.51787
0
LINE
8
BLACK
6
CONTINUOUS
10
2.65504
20
-4.50213
11
2.63929
21
-4.51787
0
LINE
8
BLACK
6
CONTINUOUS
10
2.64717
20
-3.95094
11
2.66291
21
-3.96669
0
LINE
8
BLACK
6
CONTINUOUS
10
2.66291
20
-3.95094
11
2.64717
21
-3.96669
0
LINE
8
BLACK
6
CONTINUOUS
10
2.65504
20
-2.3289
11
2.67079
21
-2.34465
0
LINE
8
BLACK
6
CONTINUOUS
10
2.67079
20
-2.3289
11
2.65504
21
-2.34465
0
LINE
8
BLACK
6
CONTINUOUS
10
2.66685
20
-3.09661
11
2.6826
21
-3.11236
0
LINE
8
BLACK
6
CONTINUOUS
10
2.6826
20
-3.09661
11
2.66685
21
-3.11236
0
LINE
8
BLACK
6
CONTINUOUS
10
2.69441
20
-2.55724
11
2.71016
21
-2.57299
0
LINE
8
BLACK
6
CONTINUOUS
10
2.71016
20
-2.55724
11
2.69441
21
-2.57299
0
LINE
8
BLACK
6
CONTINUOUS
10
2.74165
20
-4.9352
11
2.7574
21
-4.95094
0
LINE
8
BLACK
6
CONTINUOUS
10
2.7574
20
-4.9352
11
2.74165
21
-4.95094
0
CIRCLE
8
BLACK
10
2.03693
20
-4.87024
40
0.015748
0
CIRCLE
8
BLACK
10
2.11567
20
-4.87024
40
0.015748
0
CIRCLE
8
BLACK
10
2.19441
20
-4.87024
40
0.015748
0
CIRCLE
8
BLACK
10
2.27315
20
-4.87024
40
0.015748
0
CIRCLE
8
BLACK
10
2.35189
20
-4.87024
40
0.015748
0
CIRCLE
8
BLACK
10
2.43063
20
-4.87024
40
0.015748
0
LINE
8
BLACK
6
CONTINUOUS
10
2.1263
20
-2.22063
11
2.1263
21
-2.26787
0
LINE
8
BLACK
6
CONTINUOUS
10
2.10268
20
-2.24425
11
2.14992
21
-2.24425
0
LINE
8
BLACK
6
CONTINUOUS
10
2.2263
20
-2.2285
11
2.2263
21
-2.27575
0
LINE
8
BLACK
6
CONTINUOUS
10
2.20268
20
-2.25213
11
2.24992
21
-2.25213
0
LINE
8
BLACK
6
CONTINUOUS
10
2.3263
20
-2.22063
11
2.3263
21
-2.26787
0
LINE
8
BLACK
6
CONTINUOUS
10
2.30268
20
-2.24425
11
2.34992
21
-2.24425
0
LINE
8
BLACK
6
CONTINUOUS
10
2.59205
20
-4.03756
11
2.59205
21
-4.0848
0
LINE
8
BLACK
6
CONTINUOUS
10
2.56843
20
-4.06118
11
2.61567
21
-4.06118
0
LINE
8
BLACK
6
CONTINUOUS
10
2.59205
20
-4.23756
11
2.59205
21
-4.2848
0
LINE
8
BLACK
6
CONTINUOUS
10
2.56843
20
-4.26118
11
2.61567
21
-4.26118
0
LINE
8
BLACK
6
CONTINUOUS
10
2.59992
20
-4.13756
11
2.59992
21
-4.1848
0
LINE
8
BLACK
6
CONTINUOUS
10
2.5763
20
-4.16118
11
2.62354
21
-4.16118
0
LINE
8
BLACK
6
CONTINUOUS
10
2.59992
20
-4.33756
11
2.59992
21
-4.3848
0
LINE
8
BLACK
6
CONTINUOUS
10
2.5763
20
-4.36118
11
2.62354
21
-4.36118
0
LINE
8
BLACK
6
CONTINUOUS
10
1.88339
20
-4.63047
11
1.88339
21
-4.67772
0
LINE
8
BLACK
6
CONTINUOUS
10
1.85976
20
-4.65409
11
1.90701
21
-4.65409
0
LINE
8
BLACK
6
CONTINUOUS
10
1.88339
20
-4.73047
11
1.88339
21
-4.77772
0
LINE
8
BLACK
6
CONTINUOUS
10
1.85976
20
-4.75409
11
1.90701
21
-4.75409
0
LINE
8
BLACK
6
CONTINUOUS
10
2.62776
20
-4.78981
11
2.62776
21
-4.73413
0
LINE
8
BLACK
6
CONTINUOUS
10
2.62776
20
-4.73413
11
2.57208
21
-4.73413
0
LINE
8
BLACK
6
CONTINUOUS
10
2.57208
20
-4.73413
11
2.57208
21
-4.78981
0
LINE
8
BLACK
6
CONTINUOUS
10
2.57208
20
-4.78981
11
2.62776
21
-4.78981
0
LINE
8
BLACK
6
CONTINUOUS
10
2.62776
20
-3.26619
11
2.62776
21
-3.21051
0
LINE
8
BLACK
6
CONTINUOUS
10
2.62776
20
-3.21051
11
2.57208
21
-3.21051
0
LINE
8
BLACK
6
CONTINUOUS
10
2.57208
20
-3.21051
11
2.57208
21
-3.26619
0
LINE
8
BLACK
6
CONTINUOUS
10
2.57208
20
-3.26619
11
2.62776
21
-3.26619
0
LINE
8
BLACK
6
CONTINUOUS
10
2.6317
20
-2.27012
11
2.6317
21
-2.21444
0
LINE
8
BLACK
6
CONTINUOUS
10
2.6317
20
-2.21444
11
2.57602
21
-2.21444
0
LINE
8
BLACK
6
CONTINUOUS
10
2.57602
20
-2.21444
11
2.57602
21
-2.27012
0
LINE
8
BLACK
6
CONTINUOUS
10
2.57602
20
-2.27012
11
2.6317
21
-2.27012
0
LINE
8
BLACK
6
CONTINUOUS
10
1.95847
20
-3.8213
11
1.95847
21
-3.76563
0
LINE
8
BLACK
6
CONTINUOUS
10
1.95847
20
-3.76563
11
1.90279
21
-3.76563
0
LINE
8
BLACK
6
CONTINUOUS
10
1.90279
20
-3.76563
11
1.90279
21
-3.8213
0
LINE
8
BLACK
6
CONTINUOUS
10
1.90279
20
-3.8213
11
1.95847
21
-3.8213
0
LINE
8
BLACK
6
CONTINUOUS
10
2.62776
20
-2.76815
11
2.62776
21
-2.71248
0
LINE
8
BLACK
6
CONTINUOUS
10
2.62776
20
-2.71248
11
2.57208
21
-2.71248
0
LINE
8
BLACK
6
CONTINUOUS
10
2.57208
20
-2.71248
11
2.57208
21
-2.76815
0
LINE
8
BLACK
6
CONTINUOUS
10
2.57208
20
-2.76815
11
2.62776
21
-2.76815
0
LINE
8
BLACK
6
CONTINUOUS
10
1.97787
20
-5.34465
11
2.01921
21
-5.30331
0
LINE
8
BLACK
6
CONTINUOUS
10
2.01921
20
-5.30331
11
1.97787
21
-5.26197
0
LINE
8
BLACK
6
CONTINUOUS
10
1.97787
20
-5.26197
11
1.93654
21
-5.30331
0
LINE
8
BLACK
6
CONTINUOUS
10
1.93654
20
-5.30331
11
1.97787
21
-5.34465
0
LINE
8
BLACK
6
CONTINUOUS
10
2.48969
20
-5.34465
11
2.53102
21
-5.30331
0
LINE
8
BLACK
6
CONTINUOUS
10
2.53102
20
-5.30331
11
2.48969
21
-5.26197
0
LINE
8
BLACK
6
CONTINUOUS
10
2.48969
20
-5.26197
11
2.44835
21
-5.30331
0
LINE
8
BLACK
6
CONTINUOUS
10
2.44835
20
-5.30331
11
2.48969
21
-5.34465
0
LINE
8
BLACK
6
CONTINUOUS
10
2.17472
20
-5.74622
11
2.30071
21
-5.8722
0
LINE
8
BLACK
6
CONTINUOUS
10
2.30071
20
-5.74622
11
2.17472
21
-5.8722
0
CIRCLE
8
BLACK
10
2.23772
20
-5.80921
40
0.0629921
0
LINE
8
BLACK
6
CONTINUOUS
10
1.89913
20
-2.69504
11
2.02512
21
-2.82102
0
LINE
8
BLACK
6
CONTINUOUS
10
2.02512
20
-2.69504
11
1.89913
21
-2.82102
0
CIRCLE
8
BLACK
10
1.96213
20
-2.75803
40
0.0629921
0
LINE
8
BLACK
6
CONTINUOUS
10
1.86918
20
-6.17465
11
1.86918
21
-6.05654
0
LINE
8
BLACK
6
CONTINUOUS
10
1.86918
20
-6.05654
11
1.89731
21
-6.05654
0
LINE
8
BLACK
6
CONTINUOUS
10
1.89731
20
-6.05654
11
1.91418
21
-6.06217
0
LINE
8
BLACK
6
CONTINUOUS
10
1.91418
20
-6.06217
11
1.92543
21
-6.07341
0
LINE
8
BLACK
6
CONTINUOUS
10
1.92543
20
-6.07341
11
1.93105
21
-6.08466
0
LINE
8
BLACK
6
CONTINUOUS
10
1.93105
20
-6.08466
11
1.93668
21
-6.10716
0
LINE
8
BLACK
6
CONTINUOUS
10
1.93668
20
-6.10716
11
1.93668
21
-6.12403
0
LINE
8
BLACK
6
CONTINUOUS
10
1.93668
20
-6.12403
11
1.93105
21
-6.14653
0
LINE
8
BLACK
6
CONTINUOUS
10
1.93105
20
-6.14653
11
1.92543
21
-6.15778
0
LINE
8
BLACK
6
CONTINUOUS
10
1.92543
20
-6.15778
11
1.91418
21
-6.16903
0
LINE
8
BLACK
6
CONTINUOUS
10
1.91418
20
-6.16903
11
1.89731
21
-6.17465
0
LINE
8
BLACK
6
CONTINUOUS
10
1.89731
20
-6.17465
11
1.86918
21
-6.17465
0
LINE
8
BLACK
6
CONTINUOUS
10
1.98729
20
-6.17465
11
1.98729
21
-6.09591
0
LINE
8
BLACK
6
CONTINUOUS
10
1.98729
20
-6.11841
11
1.99292
21
-6.10716
0
LINE
8
BLACK
6
CONTINUOUS
10
1.99292
20
-6.10716
11
1.99854
21
-6.10154
0
LINE
8
BLACK
6
CONTINUOUS
10
1.99854
20
-6.10154
11
2.00979
21
-6.09591
0
LINE
8
BLACK
6
CONTINUOUS
10
2.00979
20
-6.09591
11
2.02104
21
-6.09591
0
LINE
8
BLACK
6
CONTINUOUS
10
2.06041
20
-6.17465
11
2.06041
21
-6.09591
0
LINE
8
BLACK
6
CONTINUOUS
10
2.06041
20
-6.05654
11
2.05479
21
-6.06217
0
LINE
8
BLACK
6
CONTINUOUS
10
2.05479
20
-6.06217
11
2.06041
21
-6.06779
0
LINE
8
BLACK
6
CONTINUOUS
10
2.06041
20
-6.06779
11
2.06603
21
-6.06217
0
LINE
8
BLACK
6
CONTINUOUS
10
2.06603
20
-6.06217
11
2.06041
21
-6.05654
0
LINE
8
BLACK
6
CONTINUOUS
10
2.06041
20
-6.05654
11
2.06041
21
-6.06779
0
LINE
8
BLACK
6
CONTINUOUS
10
2.13353
20
-6.17465
11
2.12228
21
-6.16903
0
LINE
8
BLACK
6
CONTINUOUS
10
2.12228
20
-6.16903
11
2.11665
21
-6.15778
0
LINE
8
BLACK
6
CONTINUOUS
10
2.11665
20
-6.15778
11
2.11665
21
-6.05654
0
LINE
8
BLACK
6
CONTINUOUS
10
2.19539
20
-6.17465
11
2.18415
21
-6.16903
0
LINE
8
BLACK
6
CONTINUOUS
10
2.18415
20
-6.16903
11
2.17852
21
-6.15778
0
LINE
8
BLACK
6
CONTINUOUS
10
2.17852
20
-6.15778
11
2.17852
21
-6.05654
0
LINE
8
BLACK
6
CONTINUOUS
10
2.33038
20
-6.17465
11
2.33038
21
-6.05654
0
LINE
8
BLACK
6
CONTINUOUS
10
2.33038
20
-6.05654
11
2.36975
21
-6.14091
0
LINE
8
BLACK
6
CONTINUOUS
10
2.36975
20
-6.14091
11
2.40912
21
-6.05654
0
LINE
8
BLACK
6
CONTINUOUS
10
2.40912
20
-6.05654
11
2.40912
21
-6.17465
0
LINE
8
BLACK
6
CONTINUOUS
10
2.51598
20
-6.17465
11
2.51598
21
-6.11278
0
LINE
8
BLACK
6
CONTINUOUS
10
2.51598
20
-6.11278
11
2.51035
21
-6.10154
0
LINE
8
BLACK
6
CONTINUOUS
10
2.51035
20
-6.10154
11
2.49911
21
-6.09591
0
LINE
8
BLACK
6
CONTINUOUS
10
2.49911
20
-6.09591
11
2.47661
21
-6.09591
0
LINE
8
BLACK
6
CONTINUOUS
10
2.47661
20
-6.09591
11
2.46536
21
-6.10154
0
LINE
8
BLACK
6
CONTINUOUS
10
2.51598
20
-6.16903
11
2.50473
21
-6.17465
0
LINE
8
BLACK
6
CONTINUOUS
10
2.50473
20
-6.17465
11
2.47661
21
-6.17465
0
LINE
8
BLACK
6
CONTINUOUS
10
2.47661
20
-6.17465
11
2.46536
21
-6.16903
0
LINE
8
BLACK
6
CONTINUOUS
10
2.46536
20
-6.16903
11
2.45974
21
-6.15778
0
LINE
8
BLACK
6
CONTINUOUS
10
2.45974
20
-6.15778
11
2.45974
21
-6.14653
0
LINE
8
BLACK
6
CONTINUOUS
10
2.45974
20
-6.14653
11
2.46536
21
-6.13528
0
LINE
8
BLACK
6
CONTINUOUS
10
2.46536
20
-6.13528
11
2.47661
21
-6.12966
0
LINE
8
BLACK
6
CONTINUOUS
10
2.47661
20
-6.12966
11
2.50473
21
-6.12966
0
LINE
8
BLACK
6
CONTINUOUS
10
2.50473
20
-6.12966
11
2.51598
21
-6.12403
0
LINE
8
BLACK
6
CONTINUOUS
10
2.57222
20
-6.09591
11
2.57222
21
-6.21402
0
LINE
8
BLACK
6
CONTINUOUS
10
2.57222
20
-6.10154
11
2.58347
21
-6.09591
0
LINE
8
BLACK
6
CONTINUOUS
10
2.58347
20
-6.09591
11
2.60597
21
-6.09591
0
LINE
8
BLACK
6
CONTINUOUS
10
2.60597
20
-6.09591
11
2.61722
21
-6.10154
0
LINE
8
BLACK
6
CONTINUOUS
10
2.61722
20
-6.10154
11
2.62284
21
-6.10716
0
LINE
8
BLACK
6
CONTINUOUS
10
2.62284
20
-6.10716
11
2.62846
21
-6.11841
0
LINE
8
BLACK
6
CONTINUOUS
10
2.62846
20
-6.11841
11
2.62846
21
-6.15215
0
LINE
8
BLACK
6
CONTINUOUS
10
2.62846
20
-6.15215
11
2.62284
21
-6.1634
0
LINE
8
BLACK
6
CONTINUOUS
10
2.62284
20
-6.1634
11
2.61722
21
-6.16903
0
LINE
8
BLACK
6
CONTINUOUS
10
2.61722
20
-6.16903
11
2.60597
21
-6.17465
0
LINE
8
BLACK
6
CONTINUOUS
10
2.60597
20
-6.17465
11
2.58347
21
-6.17465
0
LINE
8
BLACK
6
CONTINUOUS
10
2.58347
20
-6.17465
11
2.57222
21
-6.16903
0
LINE
8
BLACK
6
CONTINUOUS
10
2.67908
20
-6.1634
11
2.68471
21
-6.16903
0
LINE
8
BLACK
6
CONTINUOUS
10
2.68471
20
-6.16903
11
2.67908
21
-6.17465
0
LINE
8
BLACK
6
CONTINUOUS
10
2.67908
20
-6.17465
11
2.67346
21
-6.16903
0
LINE
8
BLACK
6
CONTINUOUS
10
2.67346
20
-6.16903
11
2.67908
21
-6.1634
0
LINE
8
BLACK
6
CONTINUOUS
10
2.67908
20
-6.1634
11
2.67908
21
-6.17465
0
LINE
8
BLACK
6
CONTINUOUS
10
2.67908
20
-6.10154
11
2.68471
21
-6.10716
0
LINE
8
BLACK
6
CONTINUOUS
10
2.68471
20
-6.10716
11
2.67908
21
-6.11278
0
LINE
8
BLACK
6
CONTINUOUS
10
2.67908
20
-6.11278
11
2.67346
21
-6.10716
0
LINE
8
BLACK
6
CONTINUOUS
10
2.67346
20
-6.10716
11
2.67908
21
-6.10154
0
LINE
8
BLACK
6
CONTINUOUS
10
2.67908
20
-6.10154
11
2.67908
21
-6.11278
0
LINE
8
BLACK
6
CONTINUOUS
10
1.74067
20
-6.36138
11
1.75642
21
-6.37713
0
LINE
8
BLACK
6
CONTINUOUS
10
1.75642
20
-6.36138
11
1.74067
21
-6.37713
0
LINE
8
BLACK
6
CONTINUOUS
10
1.89168
20
-6.30457
11
1.90293
21
-6.30457
0
LINE
8
BLACK
6
CONTINUOUS
10
1.90293
20
-6.30457
11
1.91418
21
-6.3102
0
LINE
8
BLACK
6
CONTINUOUS
10
1.91418
20
-6.3102
11
1.9198
21
-6.31582
0
LINE
8
BLACK
6
CONTINUOUS
10
1.9198
20
-6.31582
11
1.92543
21
-6.32707
0
LINE
8
BLACK
6
CONTINUOUS
10
1.92543
20
-6.32707
11
1.93105
21
-6.34957
0
LINE
8
BLACK
6
CONTINUOUS
10
1.93105
20
-6.34957
11
1.93105
21
-6.37769
0
LINE
8
BLACK
6
CONTINUOUS
10
1.93105
20
-6.37769
11
1.92543
21
-6.40019
0
LINE
8
BLACK
6
CONTINUOUS
10
1.92543
20
-6.40019
11
1.9198
21
-6.41143
0
LINE
8
BLACK
6
CONTINUOUS
10
1.9198
20
-6.41143
11
1.91418
21
-6.41706
0
LINE
8
BLACK
6
CONTINUOUS
10
1.91418
20
-6.41706
11
1.90293
21
-6.42268
0
LINE
8
BLACK
6
CONTINUOUS
10
1.90293
20
-6.42268
11
1.89168
21
-6.42268
0
LINE
8
BLACK
6
CONTINUOUS
10
1.89168
20
-6.42268
11
1.88043
21
-6.41706
0
LINE
8
BLACK
6
CONTINUOUS
10
1.88043
20
-6.41706
11
1.87481
21
-6.41143
0
LINE
8
BLACK
6
CONTINUOUS
10
1.87481
20
-6.41143
11
1.86918
21
-6.40019
0
LINE
8
BLACK
6
CONTINUOUS
10
1.86918
20
-6.40019
11
1.86356
21
-6.37769
0
LINE
8
BLACK
6
CONTINUOUS
10
1.86356
20
-6.37769
11
1.86356
21
-6.34957
0
LINE
8
BLACK
6
CONTINUOUS
10
1.86356
20
-6.34957
11
1.86918
21
-6.32707
0
LINE
8
BLACK
6
CONTINUOUS
10
1.86918
20
-6.32707
11
1.87481
21
-6.31582
0
LINE
8
BLACK
6
CONTINUOUS
10
1.87481
20
-6.31582
11
1.88043
21
-6.3102
0
LINE
8
BLACK
6
CONTINUOUS
10
1.88043
20
-6.3102
11
1.89168
21
-6.30457
0
LINE
8
BLACK
6
CONTINUOUS
10
1.98167
20
-6.41143
11
1.98729
21
-6.41706
0
LINE
8
BLACK
6
CONTINUOUS
10
1.98729
20
-6.41706
11
1.98167
21
-6.42268
0
LINE
8
BLACK
6
CONTINUOUS
10
1.98167
20
-6.42268
11
1.97605
21
-6.41706
0
LINE
8
BLACK
6
CONTINUOUS
10
1.97605
20
-6.41706
11
1.98167
21
-6.41143
0
LINE
8
BLACK
6
CONTINUOUS
10
1.98167
20
-6.41143
11
1.98167
21
-6.42268
0
LINE
8
BLACK
6
CONTINUOUS
10
2.08853
20
-6.34394
11
2.08853
21
-6.42268
0
LINE
8
BLACK
6
CONTINUOUS
10
2.06041
20
-6.29895
11
2.03229
21
-6.38331
0
LINE
8
BLACK
6
CONTINUOUS
10
2.03229
20
-6.38331
11
2.1054
21
-6.38331
0
LINE
8
BLACK
6
CONTINUOUS
10
2.1729
20
-6.30457
11
2.18415
21
-6.30457
0
LINE
8
BLACK
6
CONTINUOUS
10
2.18415
20
-6.30457
11
2.19539
21
-6.3102
0
LINE
8
BLACK
6
CONTINUOUS
10
2.19539
20
-6.3102
11
2.20102
21
-6.31582
0
LINE
8
BLACK
6
CONTINUOUS
10
2.20102
20
-6.31582
11
2.20664
21
-6.32707
0
LINE
8
BLACK
6
CONTINUOUS
10
2.20664
20
-6.32707
11
2.21227
21
-6.34957
0
LINE
8
BLACK
6
CONTINUOUS
10
2.21227
20
-6.34957
11
2.21227
21
-6.37769
0
LINE
8
BLACK
6
CONTINUOUS
10
2.21227
20
-6.37769
11
2.20664
21
-6.40019
0
LINE
8
BLACK
6
CONTINUOUS
10
2.20664
20
-6.40019
11
2.20102
21
-6.41143
0
LINE
8
BLACK
6
CONTINUOUS
10
2.20102
20
-6.41143
11
2.19539
21
-6.41706
0
LINE
8
BLACK
6
CONTINUOUS
10
2.19539
20
-6.41706
11
2.18415
21
-6.42268
0
LINE
8
BLACK
6
CONTINUOUS
10
2.18415
20
-6.42268
11
2.1729
21
-6.42268
0
LINE
8
BLACK
6
CONTINUOUS
10
2.1729
20
-6.42268
11
2.16165
21
-6.41706
0
LINE
8
BLACK
6
CONTINUOUS
10
2.16165
20
-6.41706
11
2.15602
21
-6.41143
0
LINE
8
BLACK
6
CONTINUOUS
10
2.15602
20
-6.41143
11
2.1504
21
-6.40019
0
LINE
8
BLACK
6
CONTINUOUS
10
2.1504
20
-6.40019
11
2.14477
21
-6.37769
0
LINE
8
BLACK
6
CONTINUOUS
10
2.14477
20
-6.37769
11
2.14477
21
-6.34957
0
LINE
8
BLACK
6
CONTINUOUS
10
2.14477
20
-6.34957
11
2.1504
21
-6.32707
0
LINE
8
BLACK
6
CONTINUOUS
10
2.1504
20
-6.32707
11
2.15602
21
-6.31582
0
LINE
8
BLACK
6
CONTINUOUS
10
2.15602
20
-6.31582
11
2.16165
21
-6.3102
0
LINE
8
BLACK
6
CONTINUOUS
10
2.16165
20
-6.3102
11
2.1729
21
-6.30457
0
LINE
8
BLACK
6
CONTINUOUS
10
2.26289
20
-6.42268
11
2.26289
21
-6.34394
0
LINE
8
BLACK
6
CONTINUOUS
10
2.26289
20
-6.35519
11
2.26851
21
-6.34957
0
LINE
8
BLACK
6
CONTINUOUS
10
2.26851
20
-6.34957
11
2.27976
21
-6.34394
0
LINE
8
BLACK
6
CONTINUOUS
10
2.27976
20
-6.34394
11
2.29663
21
-6.34394
0
LINE
8
BLACK
6
CONTINUOUS
10
2.29663
20
-6.34394
11
2.30788
21
-6.34957
0
LINE
8
BLACK
6
CONTINUOUS
10
2.30788
20
-6.34957
11
2.3135
21
-6.36082
0
LINE
8
BLACK
6
CONTINUOUS
10
2.3135
20
-6.36082
11
2.3135
21
-6.42268
0
LINE
8
BLACK
6
CONTINUOUS
10
2.3135
20
-6.36082
11
2.31913
21
-6.34957
0
LINE
8
BLACK
6
CONTINUOUS
10
2.31913
20
-6.34957
11
2.33038
21
-6.34394
0
LINE
8
BLACK
6
CONTINUOUS
10
2.33038
20
-6.34394
11
2.34725
21
-6.34394
0
LINE
8
BLACK
6
CONTINUOUS
10
2.34725
20
-6.34394
11
2.3585
21
-6.34957
0
LINE
8
BLACK
6
CONTINUOUS
10
2.3585
20
-6.34957
11
2.36412
21
-6.36082
0
LINE
8
BLACK
6
CONTINUOUS
10
2.36412
20
-6.36082
11
2.36412
21
-6.42268
0
LINE
8
BLACK
6
CONTINUOUS
10
2.42037
20
-6.42268
11
2.42037
21
-6.34394
0
LINE
8
BLACK
6
CONTINUOUS
10
2.42037
20
-6.35519
11
2.42599
21
-6.34957
0
LINE
8
BLACK
6
CONTINUOUS
10
2.42599
20
-6.34957
11
2.43724
21
-6.34394
0
LINE
8
BLACK
6
CONTINUOUS
10
2.43724
20
-6.34394
11
2.45411
21
-6.34394
0
LINE
8
BLACK
6
CONTINUOUS
10
2.45411
20
-6.34394
11
2.46536
21
-6.34957
0
LINE
8
BLACK
6
CONTINUOUS
10
2.46536
20
-6.34957
11
2.47098
21
-6.36082
0
LINE
8
BLACK
6
CONTINUOUS
10
2.47098
20
-6.36082
11
2.47098
21
-6.42268
0
LINE
8
BLACK
6
CONTINUOUS
10
2.47098
20
-6.36082
11
2.47661
21
-6.34957
0
LINE
8
BLACK
6
CONTINUOUS
10
2.47661
20
-6.34957
11
2.48786
21
-6.34394
0
LINE
8
BLACK
6
CONTINUOUS
10
2.48786
20
-6.34394
11
2.50473
21
-6.34394
0
LINE
8
BLACK
6
CONTINUOUS
10
2.50473
20
-6.34394
11
2.51598
21
-6.34957
0
LINE
8
BLACK
6
CONTINUOUS
10
2.51598
20
-6.34957
11
2.5216
21
-6.36082
0
LINE
8
BLACK
6
CONTINUOUS
10
2.5216
20
-6.36082
11
2.5216
21
-6.42268
0
LINE
8
BLACK
6
CONTINUOUS
10
2.7522
20
-6.29895
11
2.65096
21
-6.4508
0
LINE
8
BLACK
6
CONTINUOUS
10
2.90406
20
-6.30457
11
2.9153
21
-6.30457
0
LINE
8
BLACK
6
CONTINUOUS
10
2.9153
20
-6.30457
11
2.92655
21
-6.3102
0
LINE
8
BLACK
6
CONTINUOUS
10
2.92655
20
-6.3102
11
2.93218
21
-6.31582
0
LINE
8
BLACK
6
CONTINUOUS
10
2.93218
20
-6.31582
11
2.9378
21
-6.32707
0
LINE
8
BLACK
6
CONTINUOUS
10
2.9378
20
-6.32707
11
2.94343
21
-6.34957
0
LINE
8
BLACK
6
CONTINUOUS
10
2.94343
20
-6.34957
11
2.94343
21
-6.37769
0
LINE
8
BLACK
6
CONTINUOUS
10
2.94343
20
-6.37769
11
2.9378
21
-6.40019
0
LINE
8
BLACK
6
CONTINUOUS
10
2.9378
20
-6.40019
11
2.93218
21
-6.41143
0
LINE
8
BLACK
6
CONTINUOUS
10
2.93218
20
-6.41143
11
2.92655
21
-6.41706
0
LINE
8
BLACK
6
CONTINUOUS
10
2.92655
20
-6.41706
11
2.9153
21
-6.42268
0
LINE
8
BLACK
6
CONTINUOUS
10
2.9153
20
-6.42268
11
2.90406
21
-6.42268
0
LINE
8
BLACK
6
CONTINUOUS
10
2.90406
20
-6.42268
11
2.89281
21
-6.41706
0
LINE
8
BLACK
6
CONTINUOUS
10
2.89281
20
-6.41706
11
2.88718
21
-6.41143
0
LINE
8
BLACK
6
CONTINUOUS
10
2.88718
20
-6.41143
11
2.88156
21
-6.40019
0
LINE
8
BLACK
6
CONTINUOUS
10
2.88156
20
-6.40019
11
2.87593
21
-6.37769
0
LINE
8
BLACK
6
CONTINUOUS
10
2.87593
20
-6.37769
11
2.87593
21
-6.34957
0
LINE
8
BLACK
6
CONTINUOUS
10
2.87593
20
-6.34957
11
2.88156
21
-6.32707
0
LINE
8
BLACK
6
CONTINUOUS
10
2.88156
20
-6.32707
11
2.88718
21
-6.31582
0
LINE
8
BLACK
6
CONTINUOUS
10
2.88718
20
-6.31582
11
2.89281
21
-6.3102
0
LINE
8
BLACK
6
CONTINUOUS
10
2.89281
20
-6.3102
11
2.90406
21
-6.30457
0
LINE
8
BLACK
6
CONTINUOUS
10
2.99404
20
-6.41143
11
2.99967
21
-6.41706
0
LINE
8
BLACK
6
CONTINUOUS
10
2.99967
20
-6.41706
11
2.99404
21
-6.42268
0
LINE
8
BLACK
6
CONTINUOUS
10
2.99404
20
-6.42268
11
2.98842
21
-6.41706
0
LINE
8
BLACK
6
CONTINUOUS
10
2.98842
20
-6.41706
11
2.99404
21
-6.41143
0
LINE
8
BLACK
6
CONTINUOUS
10
2.99404
20
-6.41143
11
2.99404
21
-6.42268
0
LINE
8
BLACK
6
CONTINUOUS
10
3.07278
20
-6.30457
11
3.08403
21
-6.30457
0
LINE
8
BLACK
6
CONTINUOUS
10
3.08403
20
-6.30457
11
3.09528
21
-6.3102
0
LINE
8
BLACK
6
CONTINUOUS
10
3.09528
20
-6.3102
11
3.10091
21
-6.31582
0
LINE
8
BLACK
6
CONTINUOUS
10
3.10091
20
-6.31582
11
3.10653
21
-6.32707
0
LINE
8
BLACK
6
CONTINUOUS
10
3.10653
20
-6.32707
11
3.11215
21
-6.34957
0
LINE
8
BLACK
6
CONTINUOUS
10
3.11215
20
-6.34957
11
3.11215
21
-6.37769
0
LINE
8
BLACK
6
CONTINUOUS
10
3.11215
20
-6.37769
11
3.10653
21
-6.40019
0
LINE
8
BLACK
6
CONTINUOUS
10
3.10653
20
-6.40019
11
3.10091
21
-6.41143
0
LINE
8
BLACK
6
CONTINUOUS
10
3.10091
20
-6.41143
11
3.09528
21
-6.41706
0
LINE
8
BLACK
6
CONTINUOUS
10
3.09528
20
-6.41706
11
3.08403
21
-6.42268
0
LINE
8
BLACK
6
CONTINUOUS
10
3.08403
20
-6.42268
11
3.07278
21
-6.42268
0
LINE
8
BLACK
6
CONTINUOUS
10
3.07278
20
-6.42268
11
3.06154
21
-6.41706
0
LINE
8
BLACK
6
CONTINUOUS
10
3.06154
20
-6.41706
11
3.05591
21
-6.41143
0
LINE
8
BLACK
6
CONTINUOUS
10
3.05591
20
-6.41143
11
3.05029
21
-6.40019
0
LINE
8
BLACK
6
CONTINUOUS
10
3.05029
20
-6.40019
11
3.04466
21
-6.37769
0
LINE
8
BLACK
6
CONTINUOUS
10
3.04466
20
-6.37769
11
3.04466
21
-6.34957
0
LINE
8
BLACK
6
CONTINUOUS
10
3.04466
20
-6.34957
11
3.05029
21
-6.32707
0
LINE
8
BLACK
6
CONTINUOUS
10
3.05029
20
-6.32707
11
3.05591
21
-6.31582
0
LINE
8
BLACK
6
CONTINUOUS
10
3.05591
20
-6.31582
11
3.06154
21
-6.3102
0
LINE
8
BLACK
6
CONTINUOUS
10
3.06154
20
-6.3102
11
3.07278
21
-6.30457
0
LINE
8
BLACK
6
CONTINUOUS
10
3.22464
20
-6.42268
11
3.15715
21
-6.42268
0
LINE
8
BLACK
6
CONTINUOUS
10
3.19089
20
-6.42268
11
3.19089
21
-6.30457
0
LINE
8
BLACK
6
CONTINUOUS
10
3.19089
20
-6.30457
11
3.17965
21
-6.32145
0
LINE
8
BLACK
6
CONTINUOUS
10
3.17965
20
-6.32145
11
3.1684
21
-6.33269
0
LINE
8
BLACK
6
CONTINUOUS
10
3.1684
20
-6.33269
11
3.15715
21
-6.33832
0
LINE
8
BLACK
6
CONTINUOUS
10
3.32588
20
-6.30457
11
3.30338
21
-6.30457
0
LINE
8
BLACK
6
CONTINUOUS
10
3.30338
20
-6.30457
11
3.29213
21
-6.3102
0
LINE
8
BLACK
6
CONTINUOUS
10
3.29213
20
-6.3102
11
3.28651
21
-6.31582
0
LINE
8
BLACK
6
CONTINUOUS
10
3.28651
20
-6.31582
11
3.27526
21
-6.33269
0
LINE
8
BLACK
6
CONTINUOUS
10
3.27526
20
-6.33269
11
3.26963
21
-6.35519
0
LINE
8
BLACK
6
CONTINUOUS
10
3.26963
20
-6.35519
11
3.26963
21
-6.40019
0
LINE
8
BLACK
6
CONTINUOUS
10
3.26963
20
-6.40019
11
3.27526
21
-6.41143
0
LINE
8
BLACK
6
CONTINUOUS
10
3.27526
20
-6.41143
11
3.28088
21
-6.41706
0
LINE
8
BLACK
6
CONTINUOUS
10
3.28088
20
-6.41706
11
3.29213
21
-6.42268
0
LINE
8
BLACK
6
CONTINUOUS
10
3.29213
20
-6.42268
11
3.31463
21
-6.42268
0
LINE
8
BLACK
6
CONTINUOUS
10
3.31463
20
-6.42268
11
3.32588
21
-6.41706
0
LINE
8
BLACK
6
CONTINUOUS
10
3.32588
20
-6.41706
11
3.3315
21
-6.41143
0
LINE
8
BLACK
6
CONTINUOUS
10
3.3315
20
-6.41143
11
3.33713
21
-6.40019
0
LINE
8
BLACK
6
CONTINUOUS
10
3.33713
20
-6.40019
11
3.33713
21
-6.37206
0
LINE
8
BLACK
6
CONTINUOUS
10
3.33713
20
-6.37206
11
3.3315
21
-6.36082
0
LINE
8
BLACK
6
CONTINUOUS
10
3.3315
20
-6.36082
11
3.32588
21
-6.35519
0
LINE
8
BLACK
6
CONTINUOUS
10
3.32588
20
-6.35519
11
3.31463
21
-6.34957
0
LINE
8
BLACK
6
CONTINUOUS
10
3.31463
20
-6.34957
11
3.29213
21
-6.34957
0
LINE
8
BLACK
6
CONTINUOUS
10
3.29213
20
-6.34957
11
3.28088
21
-6.35519
0
LINE
8
BLACK
6
CONTINUOUS
10
3.28088
20
-6.35519
11
3.27526
21
-6.36082
0
LINE
8
BLACK
6
CONTINUOUS
10
3.27526
20
-6.36082
11
3.26963
21
-6.37206
0
LINE
8
BLACK
6
CONTINUOUS
10
3.38212
20
-6.30457
11
3.38212
21
-6.32707
0
LINE
8
BLACK
6
CONTINUOUS
10
3.42711
20
-6.30457
11
3.42711
21
-6.32707
0
LINE
8
BLACK
6
CONTINUOUS
10
3.60147
20
-6.46768
11
3.59584
21
-6.46205
0
LINE
8
BLACK
6
CONTINUOUS
10
3.59584
20
-6.46205
11
3.58459
21
-6.44518
0
LINE
8
BLACK
6
CONTINUOUS
10
3.58459
20
-6.44518
11
3.57897
21
-6.43393
0
LINE
8
BLACK
6
CONTINUOUS
10
3.57897
20
-6.43393
11
3.57335
21
-6.41706
0
LINE
8
BLACK
6
CONTINUOUS
10
3.57335
20
-6.41706
11
3.56772
21
-6.38894
0
LINE
8
BLACK
6
CONTINUOUS
10
3.56772
20
-6.38894
11
3.56772
21
-6.36644
0
LINE
8
BLACK
6
CONTINUOUS
10
3.56772
20
-6.36644
11
3.57335
21
-6.33832
0
LINE
8
BLACK
6
CONTINUOUS
10
3.57335
20
-6.33832
11
3.57897
21
-6.32145
0
LINE
8
BLACK
6
CONTINUOUS
10
3.57897
20
-6.32145
11
3.58459
21
-6.3102
0
LINE
8
BLACK
6
CONTINUOUS
10
3.58459
20
-6.3102
11
3.59584
21
-6.29332
0
LINE
8
BLACK
6
CONTINUOUS
10
3.59584
20
-6.29332
11
3.60147
21
-6.2877
0
LINE
8
BLACK
6
CONTINUOUS
10
3.69708
20
-6.34394
11
3.69708
21
-6.42268
0
LINE
8
BLACK
6
CONTINUOUS
10
3.66896
20
-6.29895
11
3.64084
21
-6.38331
0
LINE
8
BLACK
6
CONTINUOUS
10
3.64084
20
-6.38331
11
3.71395
21
-6.38331
0
LINE
8
BLACK
6
CONTINUOUS
10
3.7477
20
-6.30457
11
3.82644
21
-6.30457
0
LINE
8
BLACK
6
CONTINUOUS
10
3.82644
20
-6.30457
11
3.77582
21
-6.42268
0
LINE
8
BLACK
6
CONTINUOUS
10
3.96142
20
-6.42268
11
3.96142
21
-6.30457
0
LINE
8
BLACK
6
CONTINUOUS
10
4.01204
20
-6.42268
11
4.01204
21
-6.36082
0
LINE
8
BLACK
6
CONTINUOUS
10
4.01204
20
-6.36082
11
4.00642
21
-6.34957
0
LINE
8
BLACK
6
CONTINUOUS
10
4.00642
20
-6.34957
11
3.99517
21
-6.34394
0
LINE
8
BLACK
6
CONTINUOUS
10
3.99517
20
-6.34394
11
3.9783
21
-6.34394
0
LINE
8
BLACK
6
CONTINUOUS
10
3.9783
20
-6.34394
11
3.96705
21
-6.34957
0
LINE
8
BLACK
6
CONTINUOUS
10
3.96705
20
-6.34957
11
3.96142
21
-6.35519
0
LINE
8
BLACK
6
CONTINUOUS
10
4.08516
20
-6.42268
11
4.07391
21
-6.41706
0
LINE
8
BLACK
6
CONTINUOUS
10
4.07391
20
-6.41706
11
4.06828
21
-6.41143
0
LINE
8
BLACK
6
CONTINUOUS
10
4.06828
20
-6.41143
11
4.06266
21
-6.40019
0
LINE
8
BLACK
6
CONTINUOUS
10
4.06266
20
-6.40019
11
4.06266
21
-6.36644
0
LINE
8
BLACK
6
CONTINUOUS
10
4.06266
20
-6.36644
11
4.06828
21
-6.35519
0
LINE
8
BLACK
6
CONTINUOUS
10
4.06828
20
-6.35519
11
4.07391
21
-6.34957
0
LINE
8
BLACK
6
CONTINUOUS
10
4.07391
20
-6.34957
11
4.08516
21
-6.34394
0
LINE
8
BLACK
6
CONTINUOUS
10
4.08516
20
-6.34394
11
4.10203
21
-6.34394
0
LINE
8
BLACK
6
CONTINUOUS
10
4.10203
20
-6.34394
11
4.11328
21
-6.34957
0
LINE
8
BLACK
6
CONTINUOUS
10
4.11328
20
-6.34957
11
4.1189
21
-6.35519
0
LINE
8
BLACK
6
CONTINUOUS
10
4.1189
20
-6.35519
11
4.12453
21
-6.36644
0
LINE
8
BLACK
6
CONTINUOUS
10
4.12453
20
-6.36644
11
4.12453
21
-6.40019
0
LINE
8
BLACK
6
CONTINUOUS
10
4.12453
20
-6.40019
11
4.1189
21
-6.41143
0
LINE
8
BLACK
6
CONTINUOUS
10
4.1189
20
-6.41143
11
4.11328
21
-6.41706
0
LINE
8
BLACK
6
CONTINUOUS
10
4.11328
20
-6.41706
11
4.10203
21
-6.42268
0
LINE
8
BLACK
6
CONTINUOUS
10
4.10203
20
-6.42268
11
4.08516
21
-6.42268
0
LINE
8
BLACK
6
CONTINUOUS
10
4.19202
20
-6.42268
11
4.18077
21
-6.41706
0
LINE
8
BLACK
6
CONTINUOUS
10
4.18077
20
-6.41706
11
4.17515
21
-6.40581
0
LINE
8
BLACK
6
CONTINUOUS
10
4.17515
20
-6.40581
11
4.17515
21
-6.30457
0
LINE
8
BLACK
6
CONTINUOUS
10
4.28201
20
-6.41706
11
4.27076
21
-6.42268
0
LINE
8
BLACK
6
CONTINUOUS
10
4.27076
20
-6.42268
11
4.24826
21
-6.42268
0
LINE
8
BLACK
6
CONTINUOUS
10
4.24826
20
-6.42268
11
4.23701
21
-6.41706
0
LINE
8
BLACK
6
CONTINUOUS
10
4.23701
20
-6.41706
11
4.23139
21
-6.40581
0
LINE
8
BLACK
6
CONTINUOUS
10
4.23139
20
-6.40581
11
4.23139
21
-6.36082
0
LINE
8
BLACK
6
CONTINUOUS
10
4.23139
20
-6.36082
11
4.23701
21
-6.34957
0
LINE
8
BLACK
6
CONTINUOUS
10
4.23701
20
-6.34957
11
4.24826
21
-6.34394
0
LINE
8
BLACK
6
CONTINUOUS
10
4.24826
20
-6.34394
11
4.27076
21
-6.34394
0
LINE
8
BLACK
6
CONTINUOUS
10
4.27076
20
-6.34394
11
4.28201
21
-6.34957
0
LINE
8
BLACK
6
CONTINUOUS
10
4.28201
20
-6.34957
11
4.28763
21
-6.36082
0
LINE
8
BLACK
6
CONTINUOUS
10
4.28763
20
-6.36082
11
4.28763
21
-6.37206
0
LINE
8
BLACK
6
CONTINUOUS
10
4.28763
20
-6.37206
11
4.23139
21
-6.38331
0
LINE
8
BLACK
6
CONTINUOUS
10
4.33263
20
-6.41706
11
4.34388
21
-6.42268
0
LINE
8
BLACK
6
CONTINUOUS
10
4.34388
20
-6.42268
11
4.36637
21
-6.42268
0
LINE
8
BLACK
6
CONTINUOUS
10
4.36637
20
-6.42268
11
4.37762
21
-6.41706
0
LINE
8
BLACK
6
CONTINUOUS
10
4.37762
20
-6.41706
11
4.38325
21
-6.40581
0
LINE
8
BLACK
6
CONTINUOUS
10
4.38325
20
-6.40581
11
4.38325
21
-6.40019
0
LINE
8
BLACK
6
CONTINUOUS
10
4.38325
20
-6.40019
11
4.37762
21
-6.38894
0
LINE
8
BLACK
6
CONTINUOUS
10
4.37762
20
-6.38894
11
4.36637
21
-6.38331
0
LINE
8
BLACK
6
CONTINUOUS
10
4.36637
20
-6.38331
11
4.3495
21
-6.38331
0
LINE
8
BLACK
6
CONTINUOUS
10
4.3495
20
-6.38331
11
4.33825
21
-6.37769
0
LINE
8
BLACK
6
CONTINUOUS
10
4.33825
20
-6.37769
11
4.33263
21
-6.36644
0
LINE
8
BLACK
6
CONTINUOUS
10
4.33263
20
-6.36644
11
4.33263
21
-6.36082
0
LINE
8
BLACK
6
CONTINUOUS
10
4.33263
20
-6.36082
11
4.33825
21
-6.34957
0
LINE
8
BLACK
6
CONTINUOUS
10
4.33825
20
-6.34957
11
4.3495
21
-6.34394
0
LINE
8
BLACK
6
CONTINUOUS
10
4.3495
20
-6.34394
11
4.36637
21
-6.34394
0
LINE
8
BLACK
6
CONTINUOUS
10
4.36637
20
-6.34394
11
4.37762
21
-6.34957
0
LINE
8
BLACK
6
CONTINUOUS
10
4.42262
20
-6.46768
11
4.42824
21
-6.46205
0
LINE
8
BLACK
6
CONTINUOUS
10
4.42824
20
-6.46205
11
4.43949
21
-6.44518
0
LINE
8
BLACK
6
CONTINUOUS
10
4.43949
20
-6.44518
11
4.44511
21
-6.43393
0
LINE
8
BLACK
6
CONTINUOUS
10
4.44511
20
-6.43393
11
4.45074
21
-6.41706
0
LINE
8
BLACK
6
CONTINUOUS
10
4.45074
20
-6.41706
11
4.45636
21
-6.38894
0
LINE
8
BLACK
6
CONTINUOUS
10
4.45636
20
-6.38894
11
4.45636
21
-6.36644
0
LINE
8
BLACK
6
CONTINUOUS
10
4.45636
20
-6.36644
11
4.45074
21
-6.33832
0
LINE
8
BLACK
6
CONTINUOUS
10
4.45074
20
-6.33832
11
4.44511
21
-6.32145
0
LINE
8
BLACK
6
CONTINUOUS
10
4.44511
20
-6.32145
11
4.43949
21
-6.3102
0
LINE
8
BLACK
6
CONTINUOUS
10
4.43949
20
-6.3102
11
4.42824
21
-6.29332
0
LINE
8
BLACK
6
CONTINUOUS
10
4.42824
20
-6.29332
11
4.42262
21
-6.2877
0
CIRCLE
8
BLACK
10
1.74067
20
-6.52516
40
0.015748
0
LINE
8
BLACK
6
CONTINUOUS
10
1.89168
20
-6.46048
11
1.90293
21
-6.46048
0
LINE
8
BLACK
6
CONTINUOUS
10
1.90293
20
-6.46048
11
1.91418
21
-6.4661
0
LINE
8
BLACK
6
CONTINUOUS
10
1.91418
20
-6.4661
11
1.9198
21
-6.47173
0
LINE
8
BLACK
6
CONTINUOUS
10
1.9198
20
-6.47173
11
1.92543
21
-6.48298
0
LINE
8
BLACK
6
CONTINUOUS
10
1.92543
20
-6.48298
11
1.93105
21
-6.50547
0
LINE
8
BLACK
6
CONTINUOUS
10
1.93105
20
-6.50547
11
1.93105
21
-6.53359
0
LINE
8
BLACK
6
CONTINUOUS
10
1.93105
20
-6.53359
11
1.92543
21
-6.55609
0
LINE
8
BLACK
6
CONTINUOUS
10
1.92543
20
-6.55609
11
1.9198
21
-6.56734
0
LINE
8
BLACK
6
CONTINUOUS
10
1.9198
20
-6.56734
11
1.91418
21
-6.57296
0
LINE
8
BLACK
6
CONTINUOUS
10
1.91418
20
-6.57296
11
1.90293
21
-6.57859
0
LINE
8
BLACK
6
CONTINUOUS
10
1.90293
20
-6.57859
11
1.89168
21
-6.57859
0
LINE
8
BLACK
6
CONTINUOUS
10
1.89168
20
-6.57859
11
1.88043
21
-6.57296
0
LINE
8
BLACK
6
CONTINUOUS
10
1.88043
20
-6.57296
11
1.87481
21
-6.56734
0
LINE
8
BLACK
6
CONTINUOUS
10
1.87481
20
-6.56734
11
1.86918
21
-6.55609
0
LINE
8
BLACK
6
CONTINUOUS
10
1.86918
20
-6.55609
11
1.86356
21
-6.53359
0
LINE
8
BLACK
6
CONTINUOUS
10
1.86356
20
-6.53359
11
1.86356
21
-6.50547
0
LINE
8
BLACK
6
CONTINUOUS
10
1.86356
20
-6.50547
11
1.86918
21
-6.48298
0
LINE
8
BLACK
6
CONTINUOUS
10
1.86918
20
-6.48298
11
1.87481
21
-6.47173
0
LINE
8
BLACK
6
CONTINUOUS
10
1.87481
20
-6.47173
11
1.88043
21
-6.4661
0
LINE
8
BLACK
6
CONTINUOUS
10
1.88043
20
-6.4661
11
1.89168
21
-6.46048
0
LINE
8
BLACK
6
CONTINUOUS
10
1.98167
20
-6.56734
11
1.98729
21
-6.57296
0
LINE
8
BLACK
6
CONTINUOUS
10
1.98729
20
-6.57296
11
1.98167
21
-6.57859
0
LINE
8
BLACK
6
CONTINUOUS
10
1.98167
20
-6.57859
11
1.97605
21
-6.57296
0
LINE
8
BLACK
6
CONTINUOUS
10
1.97605
20
-6.57296
11
1.98167
21
-6.56734
0
LINE
8
BLACK
6
CONTINUOUS
10
1.98167
20
-6.56734
11
1.98167
21
-6.57859
0
LINE
8
BLACK
6
CONTINUOUS
10
2.05479
20
-6.5111
11
2.04354
21
-6.50547
0
LINE
8
BLACK
6
CONTINUOUS
10
2.04354
20
-6.50547
11
2.03791
21
-6.49985
0
LINE
8
BLACK
6
CONTINUOUS
10
2.03791
20
-6.49985
11
2.03229
21
-6.4886
0
LINE
8
BLACK
6
CONTINUOUS
10
2.03229
20
-6.4886
11
2.03229
21
-6.48298
0
LINE
8
BLACK
6
CONTINUOUS
10
2.03229
20
-6.48298
11
2.03791
21
-6.47173
0
LINE
8
BLACK
6
CONTINUOUS
10
2.03791
20
-6.47173
11
2.04354
21
-6.4661
0
LINE
8
BLACK
6
CONTINUOUS
10
2.04354
20
-6.4661
11
2.05479
21
-6.46048
0
LINE
8
BLACK
6
CONTINUOUS
10
2.05479
20
-6.46048
11
2.07728
21
-6.46048
0
LINE
8
BLACK
6
CONTINUOUS
10
2.07728
20
-6.46048
11
2.08853
21
-6.4661
0
LINE
8
BLACK
6
CONTINUOUS
10
2.08853
20
-6.4661
11
2.09416
21
-6.47173
0
LINE
8
BLACK
6
CONTINUOUS
10
2.09416
20
-6.47173
11
2.09978
21
-6.48298
0
LINE
8
BLACK
6
CONTINUOUS
10
2.09978
20
-6.48298
11
2.09978
21
-6.4886
0
LINE
8
BLACK
6
CONTINUOUS
10
2.09978
20
-6.4886
11
2.09416
21
-6.49985
0
LINE
8
BLACK
6
CONTINUOUS
10
2.09416
20
-6.49985
11
2.08853
21
-6.50547
0
LINE
8
BLACK
6
CONTINUOUS
10
2.08853
20
-6.50547
11
2.07728
21
-6.5111
0
LINE
8
BLACK
6
CONTINUOUS
10
2.07728
20
-6.5111
11
2.05479
21
-6.5111
0
LINE
8
BLACK
6
CONTINUOUS
10
2.05479
20
-6.5111
11
2.04354
21
-6.51672
0
LINE
8
BLACK
6
CONTINUOUS
10
2.04354
20
-6.51672
11
2.03791
21
-6.52235
0
LINE
8
BLACK
6
CONTINUOUS
10
2.03791
20
-6.52235
11
2.03229
21
-6.53359
0
LINE
8
BLACK
6
CONTINUOUS
10
2.03229
20
-6.53359
11
2.03229
21
-6.55609
0
LINE
8
BLACK
6
CONTINUOUS
10
2.03229
20
-6.55609
11
2.03791
21
-6.56734
0
LINE
8
BLACK
6
CONTINUOUS
10
2.03791
20
-6.56734
11
2.04354
21
-6.57296
0
LINE
8
BLACK
6
CONTINUOUS
10
2.04354
20
-6.57296
11
2.05479
21
-6.57859
0
LINE
8
BLACK
6
CONTINUOUS
10
2.05479
20
-6.57859
11
2.07728
21
-6.57859
0
LINE
8
BLACK
6
CONTINUOUS
10
2.07728
20
-6.57859
11
2.08853
21
-6.57296
0
LINE
8
BLACK
6
CONTINUOUS
10
2.08853
20
-6.57296
11
2.09416
21
-6.56734
0
LINE
8
BLACK
6
CONTINUOUS
10
2.09416
20
-6.56734
11
2.09978
21
-6.55609
0
LINE
8
BLACK
6
CONTINUOUS
10
2.09978
20
-6.55609
11
2.09978
21
-6.53359
0
LINE
8
BLACK
6
CONTINUOUS
10
2.09978
20
-6.53359
11
2.09416
21
-6.52235
0
LINE
8
BLACK
6
CONTINUOUS
10
2.09416
20
-6.52235
11
2.08853
21
-6.51672
0
LINE
8
BLACK
6
CONTINUOUS
10
2.08853
20
-6.51672
11
2.07728
21
-6.5111
0
LINE
8
BLACK
6
CONTINUOUS
10
2.1729
20
-6.46048
11
2.18415
21
-6.46048
0
LINE
8
BLACK
6
CONTINUOUS
10
2.18415
20
-6.46048
11
2.19539
21
-6.4661
0
LINE
8
BLACK
6
CONTINUOUS
10
2.19539
20
-6.4661
11
2.20102
21
-6.47173
0
LINE
8
BLACK
6
CONTINUOUS
10
2.20102
20
-6.47173
11
2.20664
21
-6.48298
0
LINE
8
BLACK
6
CONTINUOUS
10
2.20664
20
-6.48298
11
2.21227
21
-6.50547
0
LINE
8
BLACK
6
CONTINUOUS
10
2.21227
20
-6.50547
11
2.21227
21
-6.53359
0
LINE
8
BLACK
6
CONTINUOUS
10
2.21227
20
-6.53359
11
2.20664
21
-6.55609
0
LINE
8
BLACK
6
CONTINUOUS
10
2.20664
20
-6.55609
11
2.20102
21
-6.56734
0
LINE
8
BLACK
6
CONTINUOUS
10
2.20102
20
-6.56734
11
2.19539
21
-6.57296
0
LINE
8
BLACK
6
CONTINUOUS
10
2.19539
20
-6.57296
11
2.18415
21
-6.57859
0
LINE
8
BLACK
6
CONTINUOUS
10
2.18415
20
-6.57859
11
2.1729
21
-6.57859
0
LINE
8
BLACK
6
CONTINUOUS
10
2.1729
20
-6.57859
11
2.16165
21
-6.57296
0
LINE
8
BLACK
6
CONTINUOUS
10
2.16165
20
-6.57296
11
2.15602
21
-6.56734
0
LINE
8
BLACK
6
CONTINUOUS
10
2.15602
20
-6.56734
11
2.1504
21
-6.55609
0
LINE
8
BLACK
6
CONTINUOUS
10
2.1504
20
-6.55609
11
2.14477
21
-6.53359
0
LINE
8
BLACK
6
CONTINUOUS
10
2.14477
20
-6.53359
11
2.14477
21
-6.50547
0
LINE
8
BLACK
6
CONTINUOUS
10
2.14477
20
-6.50547
11
2.1504
21
-6.48298
0
LINE
8
BLACK
6
CONTINUOUS
10
2.1504
20
-6.48298
11
2.15602
21
-6.47173
0
LINE
8
BLACK
6
CONTINUOUS
10
2.15602
20
-6.47173
11
2.16165
21
-6.4661
0
LINE
8
BLACK
6
CONTINUOUS
10
2.16165
20
-6.4661
11
2.1729
21
-6.46048
0
LINE
8
BLACK
6
CONTINUOUS
10
2.26289
20
-6.57859
11
2.26289
21
-6.49985
0
LINE
8
BLACK
6
CONTINUOUS
10
2.26289
20
-6.5111
11
2.26851
21
-6.50547
0
LINE
8
BLACK
6
CONTINUOUS
10
2.26851
20
-6.50547
11
2.27976
21
-6.49985
0
LINE
8
BLACK
6
CONTINUOUS
10
2.27976
20
-6.49985
11
2.29663
21
-6.49985
0
LINE
8
BLACK
6
CONTINUOUS
10
2.29663
20
-6.49985
11
2.30788
21
-6.50547
0
LINE
8
BLACK
6
CONTINUOUS
10
2.30788
20
-6.50547
11
2.3135
21
-6.51672
0
LINE
8
BLACK
6
CONTINUOUS
10
2.3135
20
-6.51672
11
2.3135
21
-6.57859
0
LINE
8
BLACK
6
CONTINUOUS
10
2.3135
20
-6.51672
11
2.31913
21
-6.50547
0
LINE
8
BLACK
6
CONTINUOUS
10
2.31913
20
-6.50547
11
2.33038
21
-6.49985
0
LINE
8
BLACK
6
CONTINUOUS
10
2.33038
20
-6.49985
11
2.34725
21
-6.49985
0
LINE
8
BLACK
6
CONTINUOUS
10
2.34725
20
-6.49985
11
2.3585
21
-6.50547
0
LINE
8
BLACK
6
CONTINUOUS
10
2.3585
20
-6.50547
11
2.36412
21
-6.51672
0
LINE
8
BLACK
6
CONTINUOUS
10
2.36412
20
-6.51672
11
2.36412
21
-6.57859
0
LINE
8
BLACK
6
CONTINUOUS
10
2.42037
20
-6.57859
11
2.42037
21
-6.49985
0
LINE
8
BLACK
6
CONTINUOUS
10
2.42037
20
-6.5111
11
2.42599
21
-6.50547
0
LINE
8
BLACK
6
CONTINUOUS
10
2.42599
20
-6.50547
11
2.43724
21
-6.49985
0
LINE
8
BLACK
6
CONTINUOUS
10
2.43724
20
-6.49985
11
2.45411
21
-6.49985
0
LINE
8
BLACK
6
CONTINUOUS
10
2.45411
20
-6.49985
11
2.46536
21
-6.50547
0
LINE
8
BLACK
6
CONTINUOUS
10
2.46536
20
-6.50547
11
2.47098
21
-6.51672
0
LINE
8
BLACK
6
CONTINUOUS
10
2.47098
20
-6.51672
11
2.47098
21
-6.57859
0
LINE
8
BLACK
6
CONTINUOUS
10
2.47098
20
-6.51672
11
2.47661
21
-6.50547
0
LINE
8
BLACK
6
CONTINUOUS
10
2.47661
20
-6.50547
11
2.48786
21
-6.49985
0
LINE
8
BLACK
6
CONTINUOUS
10
2.48786
20
-6.49985
11
2.50473
21
-6.49985
0
LINE
8
BLACK
6
CONTINUOUS
10
2.50473
20
-6.49985
11
2.51598
21
-6.50547
0
LINE
8
BLACK
6
CONTINUOUS
10
2.51598
20
-6.50547
11
2.5216
21
-6.51672
0
LINE
8
BLACK
6
CONTINUOUS
10
2.5216
20
-6.51672
11
2.5216
21
-6.57859
0
LINE
8
BLACK
6
CONTINUOUS
10
2.7522
20
-6.45485
11
2.65096
21
-6.60671
0
LINE
8
BLACK
6
CONTINUOUS
10
2.90406
20
-6.46048
11
2.9153
21
-6.46048
0
LINE
8
BLACK
6
CONTINUOUS
10
2.9153
20
-6.46048
11
2.92655
21
-6.4661
0
LINE
8
BLACK
6
CONTINUOUS
10
2.92655
20
-6.4661
11
2.93218
21
-6.47173
0
LINE
8
BLACK
6
CONTINUOUS
10
2.93218
20
-6.47173
11
2.9378
21
-6.48298
0
LINE
8
BLACK
6
CONTINUOUS
10
2.9378
20
-6.48298
11
2.94343
21
-6.50547
0
LINE
8
BLACK
6
CONTINUOUS
10
2.94343
20
-6.50547
11
2.94343
21
-6.53359
0
LINE
8
BLACK
6
CONTINUOUS
10
2.94343
20
-6.53359
11
2.9378
21
-6.55609
0
LINE
8
BLACK
6
CONTINUOUS
10
2.9378
20
-6.55609
11
2.93218
21
-6.56734
0
LINE
8
BLACK
6
CONTINUOUS
10
2.93218
20
-6.56734
11
2.92655
21
-6.57296
0
LINE
8
BLACK
6
CONTINUOUS
10
2.92655
20
-6.57296
11
2.9153
21
-6.57859
0
LINE
8
BLACK
6
CONTINUOUS
10
2.9153
20
-6.57859
11
2.90406
21
-6.57859
0
LINE
8
BLACK
6
CONTINUOUS
10
2.90406
20
-6.57859
11
2.89281
21
-6.57296
0
LINE
8
BLACK
6
CONTINUOUS
10
2.89281
20
-6.57296
11
2.88718
21
-6.56734
0
LINE
8
BLACK
6
CONTINUOUS
10
2.88718
20
-6.56734
11
2.88156
21
-6.55609
0
LINE
8
BLACK
6
CONTINUOUS
10
2.88156
20
-6.55609
11
2.87593
21
-6.53359
0
LINE
8
BLACK
6
CONTINUOUS
10
2.87593
20
-6.53359
11
2.87593
21
-6.50547
0
LINE
8
BLACK
6
CONTINUOUS
10
2.87593
20
-6.50547
11
2.88156
21
-6.48298
0
LINE
8
BLACK
6
CONTINUOUS
10
2.88156
20
-6.48298
11
2.88718
21
-6.47173
0
LINE
8
BLACK
6
CONTINUOUS
10
2.88718
20
-6.47173
11
2.89281
21
-6.4661
0
LINE
8
BLACK
6
CONTINUOUS
10
2.89281
20
-6.4661
11
2.90406
21
-6.46048
0
LINE
8
BLACK
6
CONTINUOUS
10
2.99404
20
-6.56734
11
2.99967
21
-6.57296
0
LINE
8
BLACK
6
CONTINUOUS
10
2.99967
20
-6.57296
11
2.99404
21
-6.57859
0
LINE
8
BLACK
6
CONTINUOUS
10
2.99404
20
-6.57859
11
2.98842
21
-6.57296
0
LINE
8
BLACK
6
CONTINUOUS
10
2.98842
20
-6.57296
11
2.99404
21
-6.56734
0
LINE
8
BLACK
6
CONTINUOUS
10
2.99404
20
-6.56734
11
2.99404
21
-6.57859
0
LINE
8
BLACK
6
CONTINUOUS
10
3.07278
20
-6.46048
11
3.08403
21
-6.46048
0
LINE
8
BLACK
6
CONTINUOUS
10
3.08403
20
-6.46048
11
3.09528
21
-6.4661
0
LINE
8
BLACK
6
CONTINUOUS
10
3.09528
20
-6.4661
11
3.10091
21
-6.47173
0
LINE
8
BLACK
6
CONTINUOUS
10
3.10091
20
-6.47173
11
3.10653
21
-6.48298
0
LINE
8
BLACK
6
CONTINUOUS
10
3.10653
20
-6.48298
11
3.11215
21
-6.50547
0
LINE
8
BLACK
6
CONTINUOUS
10
3.11215
20
-6.50547
11
3.11215
21
-6.53359
0
LINE
8
BLACK
6
CONTINUOUS
10
3.11215
20
-6.53359
11
3.10653
21
-6.55609
0
LINE
8
BLACK
6
CONTINUOUS
10
3.10653
20
-6.55609
11
3.10091
21
-6.56734
0
LINE
8
BLACK
6
CONTINUOUS
10
3.10091
20
-6.56734
11
3.09528
21
-6.57296
0
LINE
8
BLACK
6
CONTINUOUS
10
3.09528
20
-6.57296
11
3.08403
21
-6.57859
0
LINE
8
BLACK
6
CONTINUOUS
10
3.08403
20
-6.57859
11
3.07278
21
-6.57859
0
LINE
8
BLACK
6
CONTINUOUS
10
3.07278
20
-6.57859
11
3.06154
21
-6.57296
0
LINE
8
BLACK
6
CONTINUOUS
10
3.06154
20
-6.57296
11
3.05591
21
-6.56734
0
LINE
8
BLACK
6
CONTINUOUS
10
3.05591
20
-6.56734
11
3.05029
21
-6.55609
0
LINE
8
BLACK
6
CONTINUOUS
10
3.05029
20
-6.55609
11
3.04466
21
-6.53359
0
LINE
8
BLACK
6
CONTINUOUS
10
3.04466
20
-6.53359
11
3.04466
21
-6.50547
0
LINE
8
BLACK
6
CONTINUOUS
10
3.04466
20
-6.50547
11
3.05029
21
-6.48298
0
LINE
8
BLACK
6
CONTINUOUS
10
3.05029
20
-6.48298
11
3.05591
21
-6.47173
0
LINE
8
BLACK
6
CONTINUOUS
10
3.05591
20
-6.47173
11
3.06154
21
-6.4661
0
LINE
8
BLACK
6
CONTINUOUS
10
3.06154
20
-6.4661
11
3.07278
21
-6.46048
0
LINE
8
BLACK
6
CONTINUOUS
10
3.15152
20
-6.46048
11
3.22464
21
-6.46048
0
LINE
8
BLACK
6
CONTINUOUS
10
3.22464
20
-6.46048
11
3.18527
21
-6.50547
0
LINE
8
BLACK
6
CONTINUOUS
10
3.18527
20
-6.50547
11
3.20214
21
-6.50547
0
LINE
8
BLACK
6
CONTINUOUS
10
3.20214
20
-6.50547
11
3.21339
21
-6.5111
0
LINE
8
BLACK
6
CONTINUOUS
10
3.21339
20
-6.5111
11
3.21902
21
-6.51672
0
LINE
8
BLACK
6
CONTINUOUS
10
3.21902
20
-6.51672
11
3.22464
21
-6.52797
0
LINE
8
BLACK
6
CONTINUOUS
10
3.22464
20
-6.52797
11
3.22464
21
-6.55609
0
LINE
8
BLACK
6
CONTINUOUS
10
3.22464
20
-6.55609
11
3.21902
21
-6.56734
0
LINE
8
BLACK
6
CONTINUOUS
10
3.21902
20
-6.56734
11
3.21339
21
-6.57296
0
LINE
8
BLACK
6
CONTINUOUS
10
3.21339
20
-6.57296
11
3.20214
21
-6.57859
0
LINE
8
BLACK
6
CONTINUOUS
10
3.20214
20
-6.57859
11
3.1684
21
-6.57859
0
LINE
8
BLACK
6
CONTINUOUS
10
3.1684
20
-6.57859
11
3.15715
21
-6.57296
0
LINE
8
BLACK
6
CONTINUOUS
10
3.15715
20
-6.57296
11
3.15152
21
-6.56734
0
LINE
8
BLACK
6
CONTINUOUS
10
3.33713
20
-6.57859
11
3.26963
21
-6.57859
0
LINE
8
BLACK
6
CONTINUOUS
10
3.30338
20
-6.57859
11
3.30338
21
-6.46048
0
LINE
8
BLACK
6
CONTINUOUS
10
3.30338
20
-6.46048
11
3.29213
21
-6.47735
0
LINE
8
BLACK
6
CONTINUOUS
10
3.29213
20
-6.47735
11
3.28088
21
-6.4886
0
LINE
8
BLACK
6
CONTINUOUS
10
3.28088
20
-6.4886
11
3.26963
21
-6.49422
0
LINE
8
BLACK
6
CONTINUOUS
10
3.38212
20
-6.46048
11
3.38212
21
-6.48298
0
LINE
8
BLACK
6
CONTINUOUS
10
3.42711
20
-6.46048
11
3.42711
21
-6.48298
0
LINE
8
BLACK
6
CONTINUOUS
10
3.60147
20
-6.62358
11
3.59584
21
-6.61796
0
LINE
8
BLACK
6
CONTINUOUS
10
3.59584
20
-6.61796
11
3.58459
21
-6.60109
0
LINE
8
BLACK
6
CONTINUOUS
10
3.58459
20
-6.60109
11
3.57897
21
-6.58984
0
LINE
8
BLACK
6
CONTINUOUS
10
3.57897
20
-6.58984
11
3.57335
21
-6.57296
0
LINE
8
BLACK
6
CONTINUOUS
10
3.57335
20
-6.57296
11
3.56772
21
-6.54484
0
LINE
8
BLACK
6
CONTINUOUS
10
3.56772
20
-6.54484
11
3.56772
21
-6.52235
0
LINE
8
BLACK
6
CONTINUOUS
10
3.56772
20
-6.52235
11
3.57335
21
-6.49422
0
LINE
8
BLACK
6
CONTINUOUS
10
3.57335
20
-6.49422
11
3.57897
21
-6.47735
0
LINE
8
BLACK
6
CONTINUOUS
10
3.57897
20
-6.47735
11
3.58459
21
-6.4661
0
LINE
8
BLACK
6
CONTINUOUS
10
3.58459
20
-6.4661
11
3.59584
21
-6.44923
0
LINE
8
BLACK
6
CONTINUOUS
10
3.59584
20
-6.44923
11
3.60147
21
-6.44361
0
LINE
8
BLACK
6
CONTINUOUS
10
3.69708
20
-6.46048
11
3.67458
21
-6.46048
0
LINE
8
BLACK
6
CONTINUOUS
10
3.67458
20
-6.46048
11
3.66334
21
-6.4661
0
LINE
8
BLACK
6
CONTINUOUS
10
3.66334
20
-6.4661
11
3.65771
21
-6.47173
0
LINE
8
BLACK
6
CONTINUOUS
10
3.65771
20
-6.47173
11
3.64646
21
-6.4886
0
LINE
8
BLACK
6
CONTINUOUS
10
3.64646
20
-6.4886
11
3.64084
21
-6.5111
0
LINE
8
BLACK
6
CONTINUOUS
10
3.64084
20
-6.5111
11
3.64084
21
-6.55609
0
LINE
8
BLACK
6
CONTINUOUS
10
3.64084
20
-6.55609
11
3.64646
21
-6.56734
0
LINE
8
BLACK
6
CONTINUOUS
10
3.64646
20
-6.56734
11
3.65209
21
-6.57296
0
LINE
8
BLACK
6
CONTINUOUS
10
3.65209
20
-6.57296
11
3.66334
21
-6.57859
0
LINE
8
BLACK
6
CONTINUOUS
10
3.66334
20
-6.57859
11
3.68583
21
-6.57859
0
LINE
8
BLACK
6
CONTINUOUS
10
3.68583
20
-6.57859
11
3.69708
21
-6.57296
0
LINE
8
BLACK
6
CONTINUOUS
10
3.69708
20
-6.57296
11
3.70271
21
-6.56734
0
LINE
8
BLACK
6
CONTINUOUS
10
3.70271
20
-6.56734
11
3.70833
21
-6.55609
0
LINE
8
BLACK
6
CONTINUOUS
10
3.70833
20
-6.55609
11
3.70833
21
-6.52797
0
LINE
8
BLACK
6
CONTINUOUS
10
3.70833
20
-6.52797
11
3.70271
21
-6.51672
0
LINE
8
BLACK
6
CONTINUOUS
10
3.70271
20
-6.51672
11
3.69708
21
-6.5111
0
LINE
8
BLACK
6
CONTINUOUS
10
3.69708
20
-6.5111
11
3.68583
21
-6.50547
0
LINE
8
BLACK
6
CONTINUOUS
10
3.68583
20
-6.50547
11
3.66334
21
-6.50547
0
LINE
8
BLACK
6
CONTINUOUS
10
3.66334
20
-6.50547
11
3.65209
21
-6.5111
0
LINE
8
BLACK
6
CONTINUOUS
10
3.65209
20
-6.5111
11
3.64646
21
-6.51672
0
LINE
8
BLACK
6
CONTINUOUS
10
3.64646
20
-6.51672
11
3.64084
21
-6.52797
0
LINE
8
BLACK
6
CONTINUOUS
10
3.84894
20
-6.57859
11
3.84894
21
-6.46048
0
LINE
8
BLACK
6
CONTINUOUS
10
3.89956
20
-6.57859
11
3.89956
21
-6.51672
0
LINE
8
BLACK
6
CONTINUOUS
10
3.89956
20
-6.51672
11
3.89393
21
-6.50547
0
LINE
8
BLACK
6
CONTINUOUS
10
3.89393
20
-6.50547
11
3.88268
21
-6.49985
0
LINE
8
BLACK
6
CONTINUOUS
10
3.88268
20
-6.49985
11
3.86581
21
-6.49985
0
LINE
8
BLACK
6
CONTINUOUS
10
3.86581
20
-6.49985
11
3.85456
21
-6.50547
0
LINE
8
BLACK
6
CONTINUOUS
10
3.85456
20
-6.50547
11
3.84894
21
-6.5111
0
LINE
8
BLACK
6
CONTINUOUS
10
3.97267
20
-6.57859
11
3.96142
21
-6.57296
0
LINE
8
BLACK
6
CONTINUOUS
10
3.96142
20
-6.57296
11
3.9558
21
-6.56734
0
LINE
8
BLACK
6
CONTINUOUS
10
3.9558
20
-6.56734
11
3.95017
21
-6.55609
0
LINE
8
BLACK
6
CONTINUOUS
10
3.95017
20
-6.55609
11
3.95017
21
-6.52235
0
LINE
8
BLACK
6
CONTINUOUS
10
3.95017
20
-6.52235
11
3.9558
21
-6.5111
0
LINE
8
BLACK
6
CONTINUOUS
10
3.9558
20
-6.5111
11
3.96142
21
-6.50547
0
LINE
8
BLACK
6
CONTINUOUS
10
3.96142
20
-6.50547
11
3.97267
21
-6.49985
0
LINE
8
BLACK
6
CONTINUOUS
10
3.97267
20
-6.49985
11
3.98954
21
-6.49985
0
LINE
8
BLACK
6
CONTINUOUS
10
3.98954
20
-6.49985
11
4.00079
21
-6.50547
0
LINE
8
BLACK
6
CONTINUOUS
10
4.00079
20
-6.50547
11
4.00642
21
-6.5111
0
LINE
8
BLACK
6
CONTINUOUS
10
4.00642
20
-6.5111
11
4.01204
21
-6.52235
0
LINE
8
BLACK
6
CONTINUOUS
10
4.01204
20
-6.52235
11
4.01204
21
-6.55609
0
LINE
8
BLACK
6
CONTINUOUS
10
4.01204
20
-6.55609
11
4.00642
21
-6.56734
0
LINE
8
BLACK
6
CONTINUOUS
10
4.00642
20
-6.56734
11
4.00079
21
-6.57296
0
LINE
8
BLACK
6
CONTINUOUS
10
4.00079
20
-6.57296
11
3.98954
21
-6.57859
0
LINE
8
BLACK
6
CONTINUOUS
10
3.98954
20
-6.57859
11
3.97267
21
-6.57859
0
LINE
8
BLACK
6
CONTINUOUS
10
4.07953
20
-6.57859
11
4.06828
21
-6.57296
0
LINE
8
BLACK
6
CONTINUOUS
10
4.06828
20
-6.57296
11
4.06266
21
-6.56172
0
LINE
8
BLACK
6
CONTINUOUS
10
4.06266
20
-6.56172
11
4.06266
21
-6.46048
0
LINE
8
BLACK
6
CONTINUOUS
10
4.16952
20
-6.57296
11
4.15827
21
-6.57859
0
LINE
8
BLACK
6
CONTINUOUS
10
4.15827
20
-6.57859
11
4.13578
21
-6.57859
0
LINE
8
BLACK
6
CONTINUOUS
10
4.13578
20
-6.57859
11
4.12453
21
-6.57296
0
LINE
8
BLACK
6
CONTINUOUS
10
4.12453
20
-6.57296
11
4.1189
21
-6.56172
0
LINE
8
BLACK
6
CONTINUOUS
10
4.1189
20
-6.56172
11
4.1189
21
-6.51672
0
LINE
8
BLACK
6
CONTINUOUS
10
4.1189
20
-6.51672
11
4.12453
21
-6.50547
0
LINE
8
BLACK
6
CONTINUOUS
10
4.12453
20
-6.50547
11
4.13578
21
-6.49985
0
LINE
8
BLACK
6
CONTINUOUS
10
4.13578
20
-6.49985
11
4.15827
21
-6.49985
0
LINE
8
BLACK
6
CONTINUOUS
10
4.15827
20
-6.49985
11
4.16952
21
-6.50547
0
LINE
8
BLACK
6
CONTINUOUS
10
4.16952
20
-6.50547
11
4.17515
21
-6.51672
0
LINE
8
BLACK
6
CONTINUOUS
10
4.17515
20
-6.51672
11
4.17515
21
-6.52797
0
LINE
8
BLACK
6
CONTINUOUS
10
4.17515
20
-6.52797
11
4.1189
21
-6.53922
0
LINE
8
BLACK
6
CONTINUOUS
10
4.22014
20
-6.57296
11
4.23139
21
-6.57859
0
LINE
8
BLACK
6
CONTINUOUS
10
4.23139
20
-6.57859
11
4.25389
21
-6.57859
0
LINE
8
BLACK
6
CONTINUOUS
10
4.25389
20
-6.57859
11
4.26513
21
-6.57296
0
LINE
8
BLACK
6
CONTINUOUS
10
4.26513
20
-6.57296
11
4.27076
21
-6.56172
0
LINE
8
BLACK
6
CONTINUOUS
10
4.27076
20
-6.56172
11
4.27076
21
-6.55609
0
LINE
8
BLACK
6
CONTINUOUS
10
4.27076
20
-6.55609
11
4.26513
21
-6.54484
0
LINE
8
BLACK
6
CONTINUOUS
10
4.26513
20
-6.54484
11
4.25389
21
-6.53922
0
LINE
8
BLACK
6
CONTINUOUS
10
4.25389
20
-6.53922
11
4.23701
21
-6.53922
0
LINE
8
BLACK
6
CONTINUOUS
10
4.23701
20
-6.53922
11
4.22576
21
-6.53359
0
LINE
8
BLACK
6
CONTINUOUS
10
4.22576
20
-6.53359
11
4.22014
21
-6.52235
0
LINE
8
BLACK
6
CONTINUOUS
10
4.22014
20
-6.52235
11
4.22014
21
-6.51672
0
LINE
8
BLACK
6
CONTINUOUS
10
4.22014
20
-6.51672
11
4.22576
21
-6.50547
0
LINE
8
BLACK
6
CONTINUOUS
10
4.22576
20
-6.50547
11
4.23701
21
-6.49985
0
LINE
8
BLACK
6
CONTINUOUS
10
4.23701
20
-6.49985
11
4.25389
21
-6.49985
0
LINE
8
BLACK
6
CONTINUOUS
10
4.25389
20
-6.49985
11
4.26513
21
-6.50547
0
LINE
8
BLACK
6
CONTINUOUS
10
4.31013
20
-6.62358
11
4.31575
21
-6.61796
0
LINE
8
BLACK
6
CONTINUOUS
10
4.31575
20
-6.61796
11
4.327
21
-6.60109
0
LINE
8
BLACK
6
CONTINUOUS
10
4.327
20
-6.60109
11
4.33263
21
-6.58984
0
LINE
8
BLACK
6
CONTINUOUS
10
4.33263
20
-6.58984
11
4.33825
21
-6.57296
0
LINE
8
BLACK
6
CONTINUOUS
10
4.33825
20
-6.57296
11
4.34388
21
-6.54484
0
LINE
8
BLACK
6
CONTINUOUS
10
4.34388
20
-6.54484
11
4.34388
21
-6.52235
0
LINE
8
BLACK
6
CONTINUOUS
10
4.34388
20
-6.52235
11
4.33825
21
-6.49422
0
LINE
8
BLACK
6
CONTINUOUS
10
4.33825
20
-6.49422
11
4.33263
21
-6.47735
0
LINE
8
BLACK
6
CONTINUOUS
10
4.33263
20
-6.47735
11
4.327
21
-6.4661
0
LINE
8
BLACK
6
CONTINUOUS
10
4.327
20
-6.4661
11
4.31575
21
-6.44923
0
LINE
8
BLACK
6
CONTINUOUS
10
4.31575
20
-6.44923
11
4.31013
21
-6.44361
0
LINE
8
BLACK
6
CONTINUOUS
10
1.7328
20
-6.65744
11
1.7328
21
-6.70469
0
LINE
8
BLACK
6
CONTINUOUS
10
1.70917
20
-6.68106
11
1.75642
21
-6.68106
0
LINE
8
BLACK
6
CONTINUOUS
10
1.93105
20
-6.73449
11
1.86356
21
-6.73449
0
LINE
8
BLACK
6
CONTINUOUS
10
1.89731
20
-6.73449
11
1.89731
21
-6.61638
0
LINE
8
BLACK
6
CONTINUOUS
10
1.89731
20
-6.61638
11
1.88606
21
-6.63326
0
LINE
8
BLACK
6
CONTINUOUS
10
1.88606
20
-6.63326
11
1.87481
21
-6.64451
0
LINE
8
BLACK
6
CONTINUOUS
10
1.87481
20
-6.64451
11
1.86356
21
-6.65013
0
LINE
8
BLACK
6
CONTINUOUS
10
1.98167
20
-6.72325
11
1.98729
21
-6.72887
0
LINE
8
BLACK
6
CONTINUOUS
10
1.98729
20
-6.72887
11
1.98167
21
-6.73449
0
LINE
8
BLACK
6
CONTINUOUS
10
1.98167
20
-6.73449
11
1.97605
21
-6.72887
0
LINE
8
BLACK
6
CONTINUOUS
10
1.97605
20
-6.72887
11
1.98167
21
-6.72325
0
LINE
8
BLACK
6
CONTINUOUS
10
1.98167
20
-6.72325
11
1.98167
21
-6.73449
0
LINE
8
BLACK
6
CONTINUOUS
10
2.03229
20
-6.62763
11
2.03791
21
-6.62201
0
LINE
8
BLACK
6
CONTINUOUS
10
2.03791
20
-6.62201
11
2.04916
21
-6.61638
0
LINE
8
BLACK
6
CONTINUOUS
10
2.04916
20
-6.61638
11
2.07728
21
-6.61638
0
LINE
8
BLACK
6
CONTINUOUS
10
2.07728
20
-6.61638
11
2.08853
21
-6.62201
0
LINE
8
BLACK
6
CONTINUOUS
10
2.08853
20
-6.62201
11
2.09416
21
-6.62763
0
LINE
8
BLACK
6
CONTINUOUS
10
2.09416
20
-6.62763
11
2.09978
21
-6.63888
0
LINE
8
BLACK
6
CONTINUOUS
10
2.09978
20
-6.63888
11
2.09978
21
-6.65013
0
LINE
8
BLACK
6
CONTINUOUS
10
2.09978
20
-6.65013
11
2.09416
21
-6.667
0
LINE
8
BLACK
6
CONTINUOUS
10
2.09416
20
-6.667
11
2.02666
21
-6.73449
0
LINE
8
BLACK
6
CONTINUOUS
10
2.02666
20
-6.73449
11
2.09978
21
-6.73449
0
LINE
8
BLACK
6
CONTINUOUS
10
2.1729
20
-6.61638
11
2.18415
21
-6.61638
0
LINE
8
BLACK
6
CONTINUOUS
10
2.18415
20
-6.61638
11
2.19539
21
-6.62201
0
LINE
8
BLACK
6
CONTINUOUS
10
2.19539
20
-6.62201
11
2.20102
21
-6.62763
0
LINE
8
BLACK
6
CONTINUOUS
10
2.20102
20
-6.62763
11
2.20664
21
-6.63888
0
LINE
8
BLACK
6
CONTINUOUS
10
2.20664
20
-6.63888
11
2.21227
21
-6.66138
0
LINE
8
BLACK
6
CONTINUOUS
10
2.21227
20
-6.66138
11
2.21227
21
-6.6895
0
LINE
8
BLACK
6
CONTINUOUS
10
2.21227
20
-6.6895
11
2.20664
21
-6.712
0
LINE
8
BLACK
6
CONTINUOUS
10
2.20664
20
-6.712
11
2.20102
21
-6.72325
0
LINE
8
BLACK
6
CONTINUOUS
10
2.20102
20
-6.72325
11
2.19539
21
-6.72887
0
LINE
8
BLACK
6
CONTINUOUS
10
2.19539
20
-6.72887
11
2.18415
21
-6.73449
0
LINE
8
BLACK
6
CONTINUOUS
10
2.18415
20
-6.73449
11
2.1729
21
-6.73449
0
LINE
8
BLACK
6
CONTINUOUS
10
2.1729
20
-6.73449
11
2.16165
21
-6.72887
0
LINE
8
BLACK
6
CONTINUOUS
10
2.16165
20
-6.72887
11
2.15602
21
-6.72325
0
LINE
8
BLACK
6
CONTINUOUS
10
2.15602
20
-6.72325
11
2.1504
21
-6.712
0
LINE
8
BLACK
6
CONTINUOUS
10
2.1504
20
-6.712
11
2.14477
21
-6.6895
0
LINE
8
BLACK
6
CONTINUOUS
10
2.14477
20
-6.6895
11
2.14477
21
-6.66138
0
LINE
8
BLACK
6
CONTINUOUS
10
2.14477
20
-6.66138
11
2.1504
21
-6.63888
0
LINE
8
BLACK
6
CONTINUOUS
10
2.1504
20
-6.63888
11
2.15602
21
-6.62763
0
LINE
8
BLACK
6
CONTINUOUS
10
2.15602
20
-6.62763
11
2.16165
21
-6.62201
0
LINE
8
BLACK
6
CONTINUOUS
10
2.16165
20
-6.62201
11
2.1729
21
-6.61638
0
LINE
8
BLACK
6
CONTINUOUS
10
2.26289
20
-6.73449
11
2.26289
21
-6.65575
0
LINE
8
BLACK
6
CONTINUOUS
10
2.26289
20
-6.667
11
2.26851
21
-6.66138
0
LINE
8
BLACK
6
CONTINUOUS
10
2.26851
20
-6.66138
11
2.27976
21
-6.65575
0
LINE
8
BLACK
6
CONTINUOUS
10
2.27976
20
-6.65575
11
2.29663
21
-6.65575
0
LINE
8
BLACK
6
CONTINUOUS
10
2.29663
20
-6.65575
11
2.30788
21
-6.66138
0
LINE
8
BLACK
6
CONTINUOUS
10
2.30788
20
-6.66138
11
2.3135
21
-6.67263
0
LINE
8
BLACK
6
CONTINUOUS
10
2.3135
20
-6.67263
11
2.3135
21
-6.73449
0
LINE
8
BLACK
6
CONTINUOUS
10
2.3135
20
-6.67263
11
2.31913
21
-6.66138
0
LINE
8
BLACK
6
CONTINUOUS
10
2.31913
20
-6.66138
11
2.33038
21
-6.65575
0
LINE
8
BLACK
6
CONTINUOUS
10
2.33038
20
-6.65575
11
2.34725
21
-6.65575
0
LINE
8
BLACK
6
CONTINUOUS
10
2.34725
20
-6.65575
11
2.3585
21
-6.66138
0
LINE
8
BLACK
6
CONTINUOUS
10
2.3585
20
-6.66138
11
2.36412
21
-6.67263
0
LINE
8
BLACK
6
CONTINUOUS
10
2.36412
20
-6.67263
11
2.36412
21
-6.73449
0
LINE
8
BLACK
6
CONTINUOUS
10
2.42037
20
-6.73449
11
2.42037
21
-6.65575
0
LINE
8
BLACK
6
CONTINUOUS
10
2.42037
20
-6.667
11
2.42599
21
-6.66138
0
LINE
8
BLACK
6
CONTINUOUS
10
2.42599
20
-6.66138
11
2.43724
21
-6.65575
0
LINE
8
BLACK
6
CONTINUOUS
10
2.43724
20
-6.65575
11
2.45411
21
-6.65575
0
LINE
8
BLACK
6
CONTINUOUS
10
2.45411
20
-6.65575
11
2.46536
21
-6.66138
0
LINE
8
BLACK
6
CONTINUOUS
10
2.46536
20
-6.66138
11
2.47098
21
-6.67263
0
LINE
8
BLACK
6
CONTINUOUS
10
2.47098
20
-6.67263
11
2.47098
21
-6.73449
0
LINE
8
BLACK
6
CONTINUOUS
10
2.47098
20
-6.67263
11
2.47661
21
-6.66138
0
LINE
8
BLACK
6
CONTINUOUS
10
2.47661
20
-6.66138
11
2.48786
21
-6.65575
0
LINE
8
BLACK
6
CONTINUOUS
10
2.48786
20
-6.65575
11
2.50473
21
-6.65575
0
LINE
8
BLACK
6
CONTINUOUS
10
2.50473
20
-6.65575
11
2.51598
21
-6.66138
0
LINE
8
BLACK
6
CONTINUOUS
10
2.51598
20
-6.66138
11
2.5216
21
-6.67263
0
LINE
8
BLACK
6
CONTINUOUS
10
2.5216
20
-6.67263
11
2.5216
21
-6.73449
0
LINE
8
BLACK
6
CONTINUOUS
10
2.7522
20
-6.61076
11
2.65096
21
-6.76262
0
LINE
8
BLACK
6
CONTINUOUS
10
2.90406
20
-6.61638
11
2.9153
21
-6.61638
0
LINE
8
BLACK
6
CONTINUOUS
10
2.9153
20
-6.61638
11
2.92655
21
-6.62201
0
LINE
8
BLACK
6
CONTINUOUS
10
2.92655
20
-6.62201
11
2.93218
21
-6.62763
0
LINE
8
BLACK
6
CONTINUOUS
10
2.93218
20
-6.62763
11
2.9378
21
-6.63888
0
LINE
8
BLACK
6
CONTINUOUS
10
2.9378
20
-6.63888
11
2.94343
21
-6.66138
0
LINE
8
BLACK
6
CONTINUOUS
10
2.94343
20
-6.66138
11
2.94343
21
-6.6895
0
LINE
8
BLACK
6
CONTINUOUS
10
2.94343
20
-6.6895
11
2.9378
21
-6.712
0
LINE
8
BLACK
6
CONTINUOUS
10
2.9378
20
-6.712
11
2.93218
21
-6.72325
0
LINE
8
BLACK
6
CONTINUOUS
10
2.93218
20
-6.72325
11
2.92655
21
-6.72887
0
LINE
8
BLACK
6
CONTINUOUS
10
2.92655
20
-6.72887
11
2.9153
21
-6.73449
0
LINE
8
BLACK
6
CONTINUOUS
10
2.9153
20
-6.73449
11
2.90406
21
-6.73449
0
LINE
8
BLACK
6
CONTINUOUS
10
2.90406
20
-6.73449
11
2.89281
21
-6.72887
0
LINE
8
BLACK
6
CONTINUOUS
10
2.89281
20
-6.72887
11
2.88718
21
-6.72325
0
LINE
8
BLACK
6
CONTINUOUS
10
2.88718
20
-6.72325
11
2.88156
21
-6.712
0
LINE
8
BLACK
6
CONTINUOUS
10
2.88156
20
-6.712
11
2.87593
21
-6.6895
0
LINE
8
BLACK
6
CONTINUOUS
10
2.87593
20
-6.6895
11
2.87593
21
-6.66138
0
LINE
8
BLACK
6
CONTINUOUS
10
2.87593
20
-6.66138
11
2.88156
21
-6.63888
0
LINE
8
BLACK
6
CONTINUOUS
10
2.88156
20
-6.63888
11
2.88718
21
-6.62763
0
LINE
8
BLACK
6
CONTINUOUS
10
2.88718
20
-6.62763
11
2.89281
21
-6.62201
0
LINE
8
BLACK
6
CONTINUOUS
10
2.89281
20
-6.62201
11
2.90406
21
-6.61638
0
LINE
8
BLACK
6
CONTINUOUS
10
2.99404
20
-6.72325
11
2.99967
21
-6.72887
0
LINE
8
BLACK
6
CONTINUOUS
10
2.99967
20
-6.72887
11
2.99404
21
-6.73449
0
LINE
8
BLACK
6
CONTINUOUS
10
2.99404
20
-6.73449
11
2.98842
21
-6.72887
0
LINE
8
BLACK
6
CONTINUOUS
10
2.98842
20
-6.72887
11
2.99404
21
-6.72325
0
LINE
8
BLACK
6
CONTINUOUS
10
2.99404
20
-6.72325
11
2.99404
21
-6.73449
0
LINE
8
BLACK
6
CONTINUOUS
10
3.07278
20
-6.61638
11
3.08403
21
-6.61638
0
LINE
8
BLACK
6
CONTINUOUS
10
3.08403
20
-6.61638
11
3.09528
21
-6.62201
0
LINE
8
BLACK
6
CONTINUOUS
10
3.09528
20
-6.62201
11
3.10091
21
-6.62763
0
LINE
8
BLACK
6
CONTINUOUS
10
3.10091
20
-6.62763
11
3.10653
21
-6.63888
0
LINE
8
BLACK
6
CONTINUOUS
10
3.10653
20
-6.63888
11
3.11215
21
-6.66138
0
LINE
8
BLACK
6
CONTINUOUS
10
3.11215
20
-6.66138
11
3.11215
21
-6.6895
0
LINE
8
BLACK
6
CONTINUOUS
10
3.11215
20
-6.6895
11
3.10653
21
-6.712
0
LINE
8
BLACK
6
CONTINUOUS
10
3.10653
20
-6.712
11
3.10091
21
-6.72325
0
LINE
8
BLACK
6
CONTINUOUS
10
3.10091
20
-6.72325
11
3.09528
21
-6.72887
0
LINE
8
BLACK
6
CONTINUOUS
10
3.09528
20
-6.72887
11
3.08403
21
-6.73449
0
LINE
8
BLACK
6
CONTINUOUS
10
3.08403
20
-6.73449
11
3.07278
21
-6.73449
0
LINE
8
BLACK
6
CONTINUOUS
10
3.07278
20
-6.73449
11
3.06154
21
-6.72887
0
LINE
8
BLACK
6
CONTINUOUS
10
3.06154
20
-6.72887
11
3.05591
21
-6.72325
0
LINE
8
BLACK
6
CONTINUOUS
10
3.05591
20
-6.72325
11
3.05029
21
-6.712
0
LINE
8
BLACK
6
CONTINUOUS
10
3.05029
20
-6.712
11
3.04466
21
-6.6895
0
LINE
8
BLACK
6
CONTINUOUS
10
3.04466
20
-6.6895
11
3.04466
21
-6.66138
0
LINE
8
BLACK
6
CONTINUOUS
10
3.04466
20
-6.66138
11
3.05029
21
-6.63888
0
LINE
8
BLACK
6
CONTINUOUS
10
3.05029
20
-6.63888
11
3.05591
21
-6.62763
0
LINE
8
BLACK
6
CONTINUOUS
10
3.05591
20
-6.62763
11
3.06154
21
-6.62201
0
LINE
8
BLACK
6
CONTINUOUS
10
3.06154
20
-6.62201
11
3.07278
21
-6.61638
0
LINE
8
BLACK
6
CONTINUOUS
10
3.21339
20
-6.65575
11
3.21339
21
-6.73449
0
LINE
8
BLACK
6
CONTINUOUS
10
3.18527
20
-6.61076
11
3.15715
21
-6.69512
0
LINE
8
BLACK
6
CONTINUOUS
10
3.15715
20
-6.69512
11
3.23026
21
-6.69512
0
LINE
8
BLACK
6
CONTINUOUS
10
3.26401
20
-6.61638
11
3.34275
21
-6.61638
0
LINE
8
BLACK
6
CONTINUOUS
10
3.34275
20
-6.61638
11
3.29213
21
-6.73449
0
LINE
8
BLACK
6
CONTINUOUS
10
3.38212
20
-6.61638
11
3.38212
21
-6.63888
0
LINE
8
BLACK
6
CONTINUOUS
10
3.42711
20
-6.61638
11
3.42711
21
-6.63888
0
LINE
8
BLACK
6
CONTINUOUS
10
3.60147
20
-6.77949
11
3.59584
21
-6.77386
0
LINE
8
BLACK
6
CONTINUOUS
10
3.59584
20
-6.77386
11
3.58459
21
-6.75699
0
LINE
8
BLACK
6
CONTINUOUS
10
3.58459
20
-6.75699
11
3.57897
21
-6.74574
0
LINE
8
BLACK
6
CONTINUOUS
10
3.57897
20
-6.74574
11
3.57335
21
-6.72887
0
LINE
8
BLACK
6
CONTINUOUS
10
3.57335
20
-6.72887
11
3.56772
21
-6.70075
0
LINE
8
BLACK
6
CONTINUOUS
10
3.56772
20
-6.70075
11
3.56772
21
-6.67825
0
LINE
8
BLACK
6
CONTINUOUS
10
3.56772
20
-6.67825
11
3.57335
21
-6.65013
0
LINE
8
BLACK
6
CONTINUOUS
10
3.57335
20
-6.65013
11
3.57897
21
-6.63326
0
LINE
8
BLACK
6
CONTINUOUS
10
3.57897
20
-6.63326
11
3.58459
21
-6.62201
0
LINE
8
BLACK
6
CONTINUOUS
10
3.58459
20
-6.62201
11
3.59584
21
-6.60513
0
LINE
8
BLACK
6
CONTINUOUS
10
3.59584
20
-6.60513
11
3.60147
21
-6.59951
0
LINE
8
BLACK
6
CONTINUOUS
10
3.65209
20
-6.73449
11
3.67458
21
-6.73449
0
LINE
8
BLACK
6
CONTINUOUS
10
3.67458
20
-6.73449
11
3.68583
21
-6.72887
0
LINE
8
BLACK
6
CONTINUOUS
10
3.68583
20
-6.72887
11
3.69146
21
-6.72325
0
LINE
8
BLACK
6
CONTINUOUS
10
3.69146
20
-6.72325
11
3.70271
21
-6.70637
0
LINE
8
BLACK
6
CONTINUOUS
10
3.70271
20
-6.70637
11
3.70833
21
-6.68388
0
LINE
8
BLACK
6
CONTINUOUS
10
3.70833
20
-6.68388
11
3.70833
21
-6.63888
0
LINE
8
BLACK
6
CONTINUOUS
10
3.70833
20
-6.63888
11
3.70271
21
-6.62763
0
LINE
8
BLACK
6
CONTINUOUS
10
3.70271
20
-6.62763
11
3.69708
21
-6.62201
0
LINE
8
BLACK
6
CONTINUOUS
10
3.69708
20
-6.62201
11
3.68583
21
-6.61638
0
LINE
8
BLACK
6
CONTINUOUS
10
3.68583
20
-6.61638
11
3.66334
21
-6.61638
0
LINE
8
BLACK
6
CONTINUOUS
10
3.66334
20
-6.61638
11
3.65209
21
-6.62201
0
LINE
8
BLACK
6
CONTINUOUS
10
3.65209
20
-6.62201
11
3.64646
21
-6.62763
0
LINE
8
BLACK
6
CONTINUOUS
10
3.64646
20
-6.62763
11
3.64084
21
-6.63888
0
LINE
8
BLACK
6
CONTINUOUS
10
3.64084
20
-6.63888
11
3.64084
21
-6.667
0
LINE
8
BLACK
6
CONTINUOUS
10
3.64084
20
-6.667
11
3.64646
21
-6.67825
0
LINE
8
BLACK
6
CONTINUOUS
10
3.64646
20
-6.67825
11
3.65209
21
-6.68388
0
LINE
8
BLACK
6
CONTINUOUS
10
3.65209
20
-6.68388
11
3.66334
21
-6.6895
0
LINE
8
BLACK
6
CONTINUOUS
10
3.66334
20
-6.6895
11
3.68583
21
-6.6895
0
LINE
8
BLACK
6
CONTINUOUS
10
3.68583
20
-6.6895
11
3.69708
21
-6.68388
0
LINE
8
BLACK
6
CONTINUOUS
10
3.69708
20
-6.68388
11
3.70271
21
-6.67825
0
LINE
8
BLACK
6
CONTINUOUS
10
3.70271
20
-6.67825
11
3.70833
21
-6.667
0
LINE
8
BLACK
6
CONTINUOUS
10
3.84894
20
-6.73449
11
3.84894
21
-6.61638
0
LINE
8
BLACK
6
CONTINUOUS
10
3.89956
20
-6.73449
11
3.89956
21
-6.67263
0
LINE
8
BLACK
6
CONTINUOUS
10
3.89956
20
-6.67263
11
3.89393
21
-6.66138
0
LINE
8
BLACK
6
CONTINUOUS
10
3.89393
20
-6.66138
11
3.88268
21
-6.65575
0
LINE
8
BLACK
6
CONTINUOUS
10
3.88268
20
-6.65575
11
3.86581
21
-6.65575
0
LINE
8
BLACK
6
CONTINUOUS
10
3.86581
20
-6.65575
11
3.85456
21
-6.66138
0
LINE
8
BLACK
6
CONTINUOUS
10
3.85456
20
-6.66138
11
3.84894
21
-6.667
0
LINE
8
BLACK
6
CONTINUOUS
10
3.97267
20
-6.73449
11
3.96142
21
-6.72887
0
LINE
8
BLACK
6
CONTINUOUS
10
3.96142
20
-6.72887
11
3.9558
21
-6.72325
0
LINE
8
BLACK
6
CONTINUOUS
10
3.9558
20
-6.72325
11
3.95017
21
-6.712
0
LINE
8
BLACK
6
CONTINUOUS
10
3.95017
20
-6.712
11
3.95017
21
-6.67825
0
LINE
8
BLACK
6
CONTINUOUS
10
3.95017
20
-6.67825
11
3.9558
21
-6.667
0
LINE
8
BLACK
6
CONTINUOUS
10
3.9558
20
-6.667
11
3.96142
21
-6.66138
0
LINE
8
BLACK
6
CONTINUOUS
10
3.96142
20
-6.66138
11
3.97267
21
-6.65575
0
LINE
8
BLACK
6
CONTINUOUS
10
3.97267
20
-6.65575
11
3.98954
21
-6.65575
0
LINE
8
BLACK
6
CONTINUOUS
10
3.98954
20
-6.65575
11
4.00079
21
-6.66138
0
LINE
8
BLACK
6
CONTINUOUS
10
4.00079
20
-6.66138
11
4.00642
21
-6.667
0
LINE
8
BLACK
6
CONTINUOUS
10
4.00642
20
-6.667
11
4.01204
21
-6.67825
0
LINE
8
BLACK
6
CONTINUOUS
10
4.01204
20
-6.67825
11
4.01204
21
-6.712
0
LINE
8
BLACK
6
CONTINUOUS
10
4.01204
20
-6.712
11
4.00642
21
-6.72325
0
LINE
8
BLACK
6
CONTINUOUS
10
4.00642
20
-6.72325
11
4.00079
21
-6.72887
0
LINE
8
BLACK
6
CONTINUOUS
10
4.00079
20
-6.72887
11
3.98954
21
-6.73449
0
LINE
8
BLACK
6
CONTINUOUS
10
3.98954
20
-6.73449
11
3.97267
21
-6.73449
0
LINE
8
BLACK
6
CONTINUOUS
10
4.07953
20
-6.73449
11
4.06828
21
-6.72887
0
LINE
8
BLACK
6
CONTINUOUS
10
4.06828
20
-6.72887
11
4.06266
21
-6.71762
0
LINE
8
BLACK
6
CONTINUOUS
10
4.06266
20
-6.71762
11
4.06266
21
-6.61638
0
LINE
8
BLACK
6
CONTINUOUS
10
4.16952
20
-6.72887
11
4.15827
21
-6.73449
0
LINE
8
BLACK
6
CONTINUOUS
10
4.15827
20
-6.73449
11
4.13578
21
-6.73449
0
LINE
8
BLACK
6
CONTINUOUS
10
4.13578
20
-6.73449
11
4.12453
21
-6.72887
0
LINE
8
BLACK
6
CONTINUOUS
10
4.12453
20
-6.72887
11
4.1189
21
-6.71762
0
LINE
8
BLACK
6
CONTINUOUS
10
4.1189
20
-6.71762
11
4.1189
21
-6.67263
0
LINE
8
BLACK
6
CONTINUOUS
10
4.1189
20
-6.67263
11
4.12453
21
-6.66138
0
LINE
8
BLACK
6
CONTINUOUS
10
4.12453
20
-6.66138
11
4.13578
21
-6.65575
0
LINE
8
BLACK
6
CONTINUOUS
10
4.13578
20
-6.65575
11
4.15827
21
-6.65575
0
LINE
8
BLACK
6
CONTINUOUS
10
4.15827
20
-6.65575
11
4.16952
21
-6.66138
0
LINE
8
BLACK
6
CONTINUOUS
10
4.16952
20
-6.66138
11
4.17515
21
-6.67263
0
LINE
8
BLACK
6
CONTINUOUS
10
4.17515
20
-6.67263
11
4.17515
21
-6.68388
0
LINE
8
BLACK
6
CONTINUOUS
10
4.17515
20
-6.68388
11
4.1189
21
-6.69512
0
LINE
8
BLACK
6
CONTINUOUS
10
4.22014
20
-6.72887
11
4.23139
21
-6.73449
0
LINE
8
BLACK
6
CONTINUOUS
10
4.23139
20
-6.73449
11
4.25389
21
-6.73449
0
LINE
8
BLACK
6
CONTINUOUS
10
4.25389
20
-6.73449
11
4.26513
21
-6.72887
0
LINE
8
BLACK
6
CONTINUOUS
10
4.26513
20
-6.72887
11
4.27076
21
-6.71762
0
LINE
8
BLACK
6
CONTINUOUS
10
4.27076
20
-6.71762
11
4.27076
21
-6.712
0
LINE
8
BLACK
6
CONTINUOUS
10
4.27076
20
-6.712
11
4.26513
21
-6.70075
0
LINE
8
BLACK
6
CONTINUOUS
10
4.26513
20
-6.70075
11
4.25389
21
-6.69512
0
LINE
8
BLACK
6
CONTINUOUS
10
4.25389
20
-6.69512
11
4.23701
21
-6.69512
0
LINE
8
BLACK
6
CONTINUOUS
10
4.23701
20
-6.69512
11
4.22576
21
-6.6895
0
LINE
8
BLACK
6
CONTINUOUS
10
4.22576
20
-6.6895
11
4.22014
21
-6.67825
0
LINE
8
BLACK
6
CONTINUOUS
10
4.22014
20
-6.67825
11
4.22014
21
-6.67263
0
LINE
8
BLACK
6
CONTINUOUS
10
4.22014
20
-6.67263
11
4.22576
21
-6.66138
0
LINE
8
BLACK
6
CONTINUOUS
10
4.22576
20
-6.66138
11
4.23701
21
-6.65575
0
LINE
8
BLACK
6
CONTINUOUS
10
4.23701
20
-6.65575
11
4.25389
21
-6.65575
0
LINE
8
BLACK
6
CONTINUOUS
10
4.25389
20
-6.65575
11
4.26513
21
-6.66138
0
LINE
8
BLACK
6
CONTINUOUS
10
4.31013
20
-6.77949
11
4.31575
21
-6.77386
0
LINE
8
BLACK
6
CONTINUOUS
10
4.31575
20
-6.77386
11
4.327
21
-6.75699
0
LINE
8
BLACK
6
CONTINUOUS
10
4.327
20
-6.75699
11
4.33263
21
-6.74574
0
LINE
8
BLACK
6
CONTINUOUS
10
4.33263
20
-6.74574
11
4.33825
21
-6.72887
0
LINE
8
BLACK
6
CONTINUOUS
10
4.33825
20
-6.72887
11
4.34388
21
-6.70075
0
LINE
8
BLACK
6
CONTINUOUS
10
4.34388
20
-6.70075
11
4.34388
21
-6.67825
0
LINE
8
BLACK
6
CONTINUOUS
10
4.34388
20
-6.67825
11
4.33825
21
-6.65013
0
LINE
8
BLACK
6
CONTINUOUS
10
4.33825
20
-6.65013
11
4.33263
21
-6.63326
0
LINE
8
BLACK
6
CONTINUOUS
10
4.33263
20
-6.63326
11
4.327
21
-6.62201
0
LINE
8
BLACK
6
CONTINUOUS
10
4.327
20
-6.62201
11
4.31575
21
-6.60513
0
LINE
8
BLACK
6
CONTINUOUS
10
4.31575
20
-6.60513
11
4.31013
21
-6.59951
0
LINE
8
BLACK
6
CONTINUOUS
10
1.74489
20
-6.86481
11
1.74489
21
-6.80913
0
LINE
8
BLACK
6
CONTINUOUS
10
1.74489
20
-6.80913
11
1.68921
21
-6.80913
0
LINE
8
BLACK
6
CONTINUOUS
10
1.68921
20
-6.80913
11
1.68921
21
-6.86481
0
LINE
8
BLACK
6
CONTINUOUS
10
1.68921
20
-6.86481
11
1.74489
21
-6.86481
0
LINE
8
BLACK
6
CONTINUOUS
10
1.86356
20
-6.78354
11
1.86918
21
-6.77791
0
LINE
8
BLACK
6
CONTINUOUS
10
1.86918
20
-6.77791
11
1.88043
21
-6.77229
0
LINE
8
BLACK
6
CONTINUOUS
10
1.88043
20
-6.77229
11
1.90855
21
-6.77229
0
LINE
8
BLACK
6
CONTINUOUS
10
1.90855
20
-6.77229
11
1.9198
21
-6.77791
0
LINE
8
BLACK
6
CONTINUOUS
10
1.9198
20
-6.77791
11
1.92543
21
-6.78354
0
LINE
8
BLACK
6
CONTINUOUS
10
1.92543
20
-6.78354
11
1.93105
21
-6.79479
0
LINE
8
BLACK
6
CONTINUOUS
10
1.93105
20
-6.79479
11
1.93105
21
-6.80603
0
LINE
8
BLACK
6
CONTINUOUS
10
1.93105
20
-6.80603
11
1.92543
21
-6.82291
0
LINE
8
BLACK
6
CONTINUOUS
10
1.92543
20
-6.82291
11
1.85794
21
-6.8904
0
LINE
8
BLACK
6
CONTINUOUS
10
1.85794
20
-6.8904
11
1.93105
21
-6.8904
0
LINE
8
BLACK
6
CONTINUOUS
10
1.98167
20
-6.87915
11
1.98729
21
-6.88478
0
LINE
8
BLACK
6
CONTINUOUS
10
1.98729
20
-6.88478
11
1.98167
21
-6.8904
0
LINE
8
BLACK
6
CONTINUOUS
10
1.98167
20
-6.8904
11
1.97605
21
-6.88478
0
LINE
8
BLACK
6
CONTINUOUS
10
1.97605
20
-6.88478
11
1.98167
21
-6.87915
0
LINE
8
BLACK
6
CONTINUOUS
10
1.98167
20
-6.87915
11
1.98167
21
-6.8904
0
LINE
8
BLACK
6
CONTINUOUS
10
2.06041
20
-6.77229
11
2.07166
21
-6.77229
0
LINE
8
BLACK
6
CONTINUOUS
10
2.07166
20
-6.77229
11
2.08291
21
-6.77791
0
LINE
8
BLACK
6
CONTINUOUS
10
2.08291
20
-6.77791
11
2.08853
21
-6.78354
0
LINE
8
BLACK
6
CONTINUOUS
10
2.08853
20
-6.78354
11
2.09416
21
-6.79479
0
LINE
8
BLACK
6
CONTINUOUS
10
2.09416
20
-6.79479
11
2.09978
21
-6.81728
0
LINE
8
BLACK
6
CONTINUOUS
10
2.09978
20
-6.81728
11
2.09978
21
-6.8454
0
LINE
8
BLACK
6
CONTINUOUS
10
2.09978
20
-6.8454
11
2.09416
21
-6.8679
0
LINE
8
BLACK
6
CONTINUOUS
10
2.09416
20
-6.8679
11
2.08853
21
-6.87915
0
LINE
8
BLACK
6
CONTINUOUS
10
2.08853
20
-6.87915
11
2.08291
21
-6.88478
0
LINE
8
BLACK
6
CONTINUOUS
10
2.08291
20
-6.88478
11
2.07166
21
-6.8904
0
LINE
8
BLACK
6
CONTINUOUS
10
2.07166
20
-6.8904
11
2.06041
21
-6.8904
0
LINE
8
BLACK
6
CONTINUOUS
10
2.06041
20
-6.8904
11
2.04916
21
-6.88478
0
LINE
8
BLACK
6
CONTINUOUS
10
2.04916
20
-6.88478
11
2.04354
21
-6.87915
0
LINE
8
BLACK
6
CONTINUOUS
10
2.04354
20
-6.87915
11
2.03791
21
-6.8679
0
LINE
8
BLACK
6
CONTINUOUS
10
2.03791
20
-6.8679
11
2.03229
21
-6.8454
0
LINE
8
BLACK
6
CONTINUOUS
10
2.03229
20
-6.8454
11
2.03229
21
-6.81728
0
LINE
8
BLACK
6
CONTINUOUS
10
2.03229
20
-6.81728
11
2.03791
21
-6.79479
0
LINE
8
BLACK
6
CONTINUOUS
10
2.03791
20
-6.79479
11
2.04354
21
-6.78354
0
LINE
8
BLACK
6
CONTINUOUS
10
2.04354
20
-6.78354
11
2.04916
21
-6.77791
0
LINE
8
BLACK
6
CONTINUOUS
10
2.04916
20
-6.77791
11
2.06041
21
-6.77229
0
LINE
8
BLACK
6
CONTINUOUS
10
2.1729
20
-6.77229
11
2.18415
21
-6.77229
0
LINE
8
BLACK
6
CONTINUOUS
10
2.18415
20
-6.77229
11
2.19539
21
-6.77791
0
LINE
8
BLACK
6
CONTINUOUS
10
2.19539
20
-6.77791
11
2.20102
21
-6.78354
0
LINE
8
BLACK
6
CONTINUOUS
10
2.20102
20
-6.78354
11
2.20664
21
-6.79479
0
LINE
8
BLACK
6
CONTINUOUS
10
2.20664
20
-6.79479
11
2.21227
21
-6.81728
0
LINE
8
BLACK
6
CONTINUOUS
10
2.21227
20
-6.81728
11
2.21227
21
-6.8454
0
LINE
8
BLACK
6
CONTINUOUS
10
2.21227
20
-6.8454
11
2.20664
21
-6.8679
0
LINE
8
BLACK
6
CONTINUOUS
10
2.20664
20
-6.8679
11
2.20102
21
-6.87915
0
LINE
8
BLACK
6
CONTINUOUS
10
2.20102
20
-6.87915
11
2.19539
21
-6.88478
0
LINE
8
BLACK
6
CONTINUOUS
10
2.19539
20
-6.88478
11
2.18415
21
-6.8904
0
LINE
8
BLACK
6
CONTINUOUS
10
2.18415
20
-6.8904
11
2.1729
21
-6.8904
0
LINE
8
BLACK
6
CONTINUOUS
10
2.1729
20
-6.8904
11
2.16165
21
-6.88478
0
LINE
8
BLACK
6
CONTINUOUS
10
2.16165
20
-6.88478
11
2.15602
21
-6.87915
0
LINE
8
BLACK
6
CONTINUOUS
10
2.15602
20
-6.87915
11
2.1504
21
-6.8679
0
LINE
8
BLACK
6
CONTINUOUS
10
2.1504
20
-6.8679
11
2.14477
21
-6.8454
0
LINE
8
BLACK
6
CONTINUOUS
10
2.14477
20
-6.8454
11
2.14477
21
-6.81728
0
LINE
8
BLACK
6
CONTINUOUS
10
2.14477
20
-6.81728
11
2.1504
21
-6.79479
0
LINE
8
BLACK
6
CONTINUOUS
10
2.1504
20
-6.79479
11
2.15602
21
-6.78354
0
LINE
8
BLACK
6
CONTINUOUS
10
2.15602
20
-6.78354
11
2.16165
21
-6.77791
0
LINE
8
BLACK
6
CONTINUOUS
10
2.16165
20
-6.77791
11
2.1729
21
-6.77229
0
LINE
8
BLACK
6
CONTINUOUS
10
2.26289
20
-6.8904
11
2.26289
21
-6.81166
0
LINE
8
BLACK
6
CONTINUOUS
10
2.26289
20
-6.82291
11
2.26851
21
-6.81728
0
LINE
8
BLACK
6
CONTINUOUS
10
2.26851
20
-6.81728
11
2.27976
21
-6.81166
0
LINE
8
BLACK
6
CONTINUOUS
10
2.27976
20
-6.81166
11
2.29663
21
-6.81166
0
LINE
8
BLACK
6
CONTINUOUS
10
2.29663
20
-6.81166
11
2.30788
21
-6.81728
0
LINE
8
BLACK
6
CONTINUOUS
10
2.30788
20
-6.81728
11
2.3135
21
-6.82853
0
LINE
8
BLACK
6
CONTINUOUS
10
2.3135
20
-6.82853
11
2.3135
21
-6.8904
0
LINE
8
BLACK
6
CONTINUOUS
10
2.3135
20
-6.82853
11
2.31913
21
-6.81728
0
LINE
8
BLACK
6
CONTINUOUS
10
2.31913
20
-6.81728
11
2.33038
21
-6.81166
0
LINE
8
BLACK
6
CONTINUOUS
10
2.33038
20
-6.81166
11
2.34725
21
-6.81166
0
LINE
8
BLACK
6
CONTINUOUS
10
2.34725
20
-6.81166
11
2.3585
21
-6.81728
0
LINE
8
BLACK
6
CONTINUOUS
10
2.3585
20
-6.81728
11
2.36412
21
-6.82853
0
LINE
8
BLACK
6
CONTINUOUS
10
2.36412
20
-6.82853
11
2.36412
21
-6.8904
0
LINE
8
BLACK
6
CONTINUOUS
10
2.42037
20
-6.8904
11
2.42037
21
-6.81166
0
LINE
8
BLACK
6
CONTINUOUS
10
2.42037
20
-6.82291
11
2.42599
21
-6.81728
0
LINE
8
BLACK
6
CONTINUOUS
10
2.42599
20
-6.81728
11
2.43724
21
-6.81166
0
LINE
8
BLACK
6
CONTINUOUS
10
2.43724
20
-6.81166
11
2.45411
21
-6.81166
0
LINE
8
BLACK
6
CONTINUOUS
10
2.45411
20
-6.81166
11
2.46536
21
-6.81728
0
LINE
8
BLACK
6
CONTINUOUS
10
2.46536
20
-6.81728
11
2.47098
21
-6.82853
0
LINE
8
BLACK
6
CONTINUOUS
10
2.47098
20
-6.82853
11
2.47098
21
-6.8904
0
LINE
8
BLACK
6
CONTINUOUS
10
2.47098
20
-6.82853
11
2.47661
21
-6.81728
0
LINE
8
BLACK
6
CONTINUOUS
10
2.47661
20
-6.81728
11
2.48786
21
-6.81166
0
LINE
8
BLACK
6
CONTINUOUS
10
2.48786
20
-6.81166
11
2.50473
21
-6.81166
0
LINE
8
BLACK
6
CONTINUOUS
10
2.50473
20
-6.81166
11
2.51598
21
-6.81728
0
LINE
8
BLACK
6
CONTINUOUS
10
2.51598
20
-6.81728
11
2.5216
21
-6.82853
0
LINE
8
BLACK
6
CONTINUOUS
10
2.5216
20
-6.82853
11
2.5216
21
-6.8904
0
LINE
8
BLACK
6
CONTINUOUS
10
2.7522
20
-6.76666
11
2.65096
21
-6.91852
0
LINE
8
BLACK
6
CONTINUOUS
10
2.90406
20
-6.77229
11
2.9153
21
-6.77229
0
LINE
8
BLACK
6
CONTINUOUS
10
2.9153
20
-6.77229
11
2.92655
21
-6.77791
0
LINE
8
BLACK
6
CONTINUOUS
10
2.92655
20
-6.77791
11
2.93218
21
-6.78354
0
LINE
8
BLACK
6
CONTINUOUS
10
2.93218
20
-6.78354
11
2.9378
21
-6.79479
0
LINE
8
BLACK
6
CONTINUOUS
10
2.9378
20
-6.79479
11
2.94343
21
-6.81728
0
LINE
8
BLACK
6
CONTINUOUS
10
2.94343
20
-6.81728
11
2.94343
21
-6.8454
0
LINE
8
BLACK
6
CONTINUOUS
10
2.94343
20
-6.8454
11
2.9378
21
-6.8679
0
LINE
8
BLACK
6
CONTINUOUS
10
2.9378
20
-6.8679
11
2.93218
21
-6.87915
0
LINE
8
BLACK
6
CONTINUOUS
10
2.93218
20
-6.87915
11
2.92655
21
-6.88478
0
LINE
8
BLACK
6
CONTINUOUS
10
2.92655
20
-6.88478
11
2.9153
21
-6.8904
0
LINE
8
BLACK
6
CONTINUOUS
10
2.9153
20
-6.8904
11
2.90406
21
-6.8904
0
LINE
8
BLACK
6
CONTINUOUS
10
2.90406
20
-6.8904
11
2.89281
21
-6.88478
0
LINE
8
BLACK
6
CONTINUOUS
10
2.89281
20
-6.88478
11
2.88718
21
-6.87915
0
LINE
8
BLACK
6
CONTINUOUS
10
2.88718
20
-6.87915
11
2.88156
21
-6.8679
0
LINE
8
BLACK
6
CONTINUOUS
10
2.88156
20
-6.8679
11
2.87593
21
-6.8454
0
LINE
8
BLACK
6
CONTINUOUS
10
2.87593
20
-6.8454
11
2.87593
21
-6.81728
0
LINE
8
BLACK
6
CONTINUOUS
10
2.87593
20
-6.81728
11
2.88156
21
-6.79479
0
LINE
8
BLACK
6
CONTINUOUS
10
2.88156
20
-6.79479
11
2.88718
21
-6.78354
0
LINE
8
BLACK
6
CONTINUOUS
10
2.88718
20
-6.78354
11
2.89281
21
-6.77791
0
LINE
8
BLACK
6
CONTINUOUS
10
2.89281
20
-6.77791
11
2.90406
21
-6.77229
0
LINE
8
BLACK
6
CONTINUOUS
10
2.99404
20
-6.87915
11
2.99967
21
-6.88478
0
LINE
8
BLACK
6
CONTINUOUS
10
2.99967
20
-6.88478
11
2.99404
21
-6.8904
0
LINE
8
BLACK
6
CONTINUOUS
10
2.99404
20
-6.8904
11
2.98842
21
-6.88478
0
LINE
8
BLACK
6
CONTINUOUS
10
2.98842
20
-6.88478
11
2.99404
21
-6.87915
0
LINE
8
BLACK
6
CONTINUOUS
10
2.99404
20
-6.87915
11
2.99404
21
-6.8904
0
LINE
8
BLACK
6
CONTINUOUS
10
3.07278
20
-6.77229
11
3.08403
21
-6.77229
0
LINE
8
BLACK
6
CONTINUOUS
10
3.08403
20
-6.77229
11
3.09528
21
-6.77791
0
LINE
8
BLACK
6
CONTINUOUS
10
3.09528
20
-6.77791
11
3.10091
21
-6.78354
0
LINE
8
BLACK
6
CONTINUOUS
10
3.10091
20
-6.78354
11
3.10653
21
-6.79479
0
LINE
8
BLACK
6
CONTINUOUS
10
3.10653
20
-6.79479
11
3.11215
21
-6.81728
0
LINE
8
BLACK
6
CONTINUOUS
10
3.11215
20
-6.81728
11
3.11215
21
-6.8454
0
LINE
8
BLACK
6
CONTINUOUS
10
3.11215
20
-6.8454
11
3.10653
21
-6.8679
0
LINE
8
BLACK
6
CONTINUOUS
10
3.10653
20
-6.8679
11
3.10091
21
-6.87915
0
LINE
8
BLACK
6
CONTINUOUS
10
3.10091
20
-6.87915
11
3.09528
21
-6.88478
0
LINE
8
BLACK
6
CONTINUOUS
10
3.09528
20
-6.88478
11
3.08403
21
-6.8904
0
LINE
8
BLACK
6
CONTINUOUS
10
3.08403
20
-6.8904
11
3.07278
21
-6.8904
0
LINE
8
BLACK
6
CONTINUOUS
10
3.07278
20
-6.8904
11
3.06154
21
-6.88478
0
LINE
8
BLACK
6
CONTINUOUS
10
3.06154
20
-6.88478
11
3.05591
21
-6.87915
0
LINE
8
BLACK
6
CONTINUOUS
10
3.05591
20
-6.87915
11
3.05029
21
-6.8679
0
LINE
8
BLACK
6
CONTINUOUS
10
3.05029
20
-6.8679
11
3.04466
21
-6.8454
0
LINE
8
BLACK
6
CONTINUOUS
10
3.04466
20
-6.8454
11
3.04466
21
-6.81728
0
LINE
8
BLACK
6
CONTINUOUS
10
3.04466
20
-6.81728
11
3.05029
21
-6.79479
0
LINE
8
BLACK
6
CONTINUOUS
10
3.05029
20
-6.79479
11
3.05591
21
-6.78354
0
LINE
8
BLACK
6
CONTINUOUS
10
3.05591
20
-6.78354
11
3.06154
21
-6.77791
0
LINE
8
BLACK
6
CONTINUOUS
10
3.06154
20
-6.77791
11
3.07278
21
-6.77229
0
LINE
8
BLACK
6
CONTINUOUS
10
3.15152
20
-6.77229
11
3.23026
21
-6.77229
0
LINE
8
BLACK
6
CONTINUOUS
10
3.23026
20
-6.77229
11
3.17965
21
-6.8904
0
LINE
8
BLACK
6
CONTINUOUS
10
3.28088
20
-6.8904
11
3.30338
21
-6.8904
0
LINE
8
BLACK
6
CONTINUOUS
10
3.30338
20
-6.8904
11
3.31463
21
-6.88478
0
LINE
8
BLACK
6
CONTINUOUS
10
3.31463
20
-6.88478
11
3.32025
21
-6.87915
0
LINE
8
BLACK
6
CONTINUOUS
10
3.32025
20
-6.87915
11
3.3315
21
-6.86228
0
LINE
8
BLACK
6
CONTINUOUS
10
3.3315
20
-6.86228
11
3.33713
21
-6.83978
0
LINE
8
BLACK
6
CONTINUOUS
10
3.33713
20
-6.83978
11
3.33713
21
-6.79479
0
LINE
8
BLACK
6
CONTINUOUS
10
3.33713
20
-6.79479
11
3.3315
21
-6.78354
0
LINE
8
BLACK
6
CONTINUOUS
10
3.3315
20
-6.78354
11
3.32588
21
-6.77791
0
LINE
8
BLACK
6
CONTINUOUS
10
3.32588
20
-6.77791
11
3.31463
21
-6.77229
0
LINE
8
BLACK
6
CONTINUOUS
10
3.31463
20
-6.77229
11
3.29213
21
-6.77229
0
LINE
8
BLACK
6
CONTINUOUS
10
3.29213
20
-6.77229
11
3.28088
21
-6.77791
0
LINE
8
BLACK
6
CONTINUOUS
10
3.28088
20
-6.77791
11
3.27526
21
-6.78354
0
LINE
8
BLACK
6
CONTINUOUS
10
3.27526
20
-6.78354
11
3.26963
21
-6.79479
0
LINE
8
BLACK
6
CONTINUOUS
10
3.26963
20
-6.79479
11
3.26963
21
-6.82291
0
LINE
8
BLACK
6
CONTINUOUS
10
3.26963
20
-6.82291
11
3.27526
21
-6.83416
0
LINE
8
BLACK
6
CONTINUOUS
10
3.27526
20
-6.83416
11
3.28088
21
-6.83978
0
LINE
8
BLACK
6
CONTINUOUS
10
3.28088
20
-6.83978
11
3.29213
21
-6.8454
0
LINE
8
BLACK
6
CONTINUOUS
10
3.29213
20
-6.8454
11
3.31463
21
-6.8454
0
LINE
8
BLACK
6
CONTINUOUS
10
3.31463
20
-6.8454
11
3.32588
21
-6.83978
0
LINE
8
BLACK
6
CONTINUOUS
10
3.32588
20
-6.83978
11
3.3315
21
-6.83416
0
LINE
8
BLACK
6
CONTINUOUS
10
3.3315
20
-6.83416
11
3.33713
21
-6.82291
0
LINE
8
BLACK
6
CONTINUOUS
10
3.38212
20
-6.77229
11
3.38212
21
-6.79479
0
LINE
8
BLACK
6
CONTINUOUS
10
3.42711
20
-6.77229
11
3.42711
21
-6.79479
0
LINE
8
BLACK
6
CONTINUOUS
10
3.60147
20
-6.93539
11
3.59584
21
-6.92977
0
LINE
8
BLACK
6
CONTINUOUS
10
3.59584
20
-6.92977
11
3.58459
21
-6.9129
0
LINE
8
BLACK
6
CONTINUOUS
10
3.58459
20
-6.9129
11
3.57897
21
-6.90165
0
LINE
8
BLACK
6
CONTINUOUS
10
3.57897
20
-6.90165
11
3.57335
21
-6.88478
0
LINE
8
BLACK
6
CONTINUOUS
10
3.57335
20
-6.88478
11
3.56772
21
-6.85665
0
LINE
8
BLACK
6
CONTINUOUS
10
3.56772
20
-6.85665
11
3.56772
21
-6.83416
0
LINE
8
BLACK
6
CONTINUOUS
10
3.56772
20
-6.83416
11
3.57335
21
-6.80603
0
LINE
8
BLACK
6
CONTINUOUS
10
3.57335
20
-6.80603
11
3.57897
21
-6.78916
0
LINE
8
BLACK
6
CONTINUOUS
10
3.57897
20
-6.78916
11
3.58459
21
-6.77791
0
LINE
8
BLACK
6
CONTINUOUS
10
3.58459
20
-6.77791
11
3.59584
21
-6.76104
0
LINE
8
BLACK
6
CONTINUOUS
10
3.59584
20
-6.76104
11
3.60147
21
-6.75542
0
LINE
8
BLACK
6
CONTINUOUS
10
3.70271
20
-6.77229
11
3.64646
21
-6.77229
0
LINE
8
BLACK
6
CONTINUOUS
10
3.64646
20
-6.77229
11
3.64084
21
-6.82853
0
LINE
8
BLACK
6
CONTINUOUS
10
3.64084
20
-6.82853
11
3.64646
21
-6.82291
0
LINE
8
BLACK
6
CONTINUOUS
10
3.64646
20
-6.82291
11
3.65771
21
-6.81728
0
LINE
8
BLACK
6
CONTINUOUS
10
3.65771
20
-6.81728
11
3.68583
21
-6.81728
0
LINE
8
BLACK
6
CONTINUOUS
10
3.68583
20
-6.81728
11
3.69708
21
-6.82291
0
LINE
8
BLACK
6
CONTINUOUS
10
3.69708
20
-6.82291
11
3.70271
21
-6.82853
0
LINE
8
BLACK
6
CONTINUOUS
10
3.70271
20
-6.82853
11
3.70833
21
-6.83978
0
LINE
8
BLACK
6
CONTINUOUS
10
3.70833
20
-6.83978
11
3.70833
21
-6.8679
0
LINE
8
BLACK
6
CONTINUOUS
10
3.70833
20
-6.8679
11
3.70271
21
-6.87915
0
LINE
8
BLACK
6
CONTINUOUS
10
3.70271
20
-6.87915
11
3.69708
21
-6.88478
0
LINE
8
BLACK
6
CONTINUOUS
10
3.69708
20
-6.88478
11
3.68583
21
-6.8904
0
LINE
8
BLACK
6
CONTINUOUS
10
3.68583
20
-6.8904
11
3.65771
21
-6.8904
0
LINE
8
BLACK
6
CONTINUOUS
10
3.65771
20
-6.8904
11
3.64646
21
-6.88478
0
LINE
8
BLACK
6
CONTINUOUS
10
3.64646
20
-6.88478
11
3.64084
21
-6.87915
0
LINE
8
BLACK
6
CONTINUOUS
10
3.84894
20
-6.8904
11
3.84894
21
-6.77229
0
LINE
8
BLACK
6
CONTINUOUS
10
3.89956
20
-6.8904
11
3.89956
21
-6.82853
0
LINE
8
BLACK
6
CONTINUOUS
10
3.89956
20
-6.82853
11
3.89393
21
-6.81728
0
LINE
8
BLACK
6
CONTINUOUS
10
3.89393
20
-6.81728
11
3.88268
21
-6.81166
0
LINE
8
BLACK
6
CONTINUOUS
10
3.88268
20
-6.81166
11
3.86581
21
-6.81166
0
LINE
8
BLACK
6
CONTINUOUS
10
3.86581
20
-6.81166
11
3.85456
21
-6.81728
0
LINE
8
BLACK
6
CONTINUOUS
10
3.85456
20
-6.81728
11
3.84894
21
-6.82291
0
LINE
8
BLACK
6
CONTINUOUS
10
3.97267
20
-6.8904
11
3.96142
21
-6.88478
0
LINE
8
BLACK
6
CONTINUOUS
10
3.96142
20
-6.88478
11
3.9558
21
-6.87915
0
LINE
8
BLACK
6
CONTINUOUS
10
3.9558
20
-6.87915
11
3.95017
21
-6.8679
0
LINE
8
BLACK
6
CONTINUOUS
10
3.95017
20
-6.8679
11
3.95017
21
-6.83416
0
LINE
8
BLACK
6
CONTINUOUS
10
3.95017
20
-6.83416
11
3.9558
21
-6.82291
0
LINE
8
BLACK
6
CONTINUOUS
10
3.9558
20
-6.82291
11
3.96142
21
-6.81728
0
LINE
8
BLACK
6
CONTINUOUS
10
3.96142
20
-6.81728
11
3.97267
21
-6.81166
0
LINE
8
BLACK
6
CONTINUOUS
10
3.97267
20
-6.81166
11
3.98954
21
-6.81166
0
LINE
8
BLACK
6
CONTINUOUS
10
3.98954
20
-6.81166
11
4.00079
21
-6.81728
0
LINE
8
BLACK
6
CONTINUOUS
10
4.00079
20
-6.81728
11
4.00642
21
-6.82291
0
LINE
8
BLACK
6
CONTINUOUS
10
4.00642
20
-6.82291
11
4.01204
21
-6.83416
0
LINE
8
BLACK
6
CONTINUOUS
10
4.01204
20
-6.83416
11
4.01204
21
-6.8679
0
LINE
8
BLACK
6
CONTINUOUS
10
4.01204
20
-6.8679
11
4.00642
21
-6.87915
0
LINE
8
BLACK
6
CONTINUOUS
10
4.00642
20
-6.87915
11
4.00079
21
-6.88478
0
LINE
8
BLACK
6
CONTINUOUS
10
4.00079
20
-6.88478
11
3.98954
21
-6.8904
0
LINE
8
BLACK
6
CONTINUOUS
10
3.98954
20
-6.8904
11
3.97267
21
-6.8904
0
LINE
8
BLACK
6
CONTINUOUS
10
4.07953
20
-6.8904
11
4.06828
21
-6.88478
0
LINE
8
BLACK
6
CONTINUOUS
10
4.06828
20
-6.88478
11
4.06266
21
-6.87353
0
LINE
8
BLACK
6
CONTINUOUS
10
4.06266
20
-6.87353
11
4.06266
21
-6.77229
0
LINE
8
BLACK
6
CONTINUOUS
10
4.16952
20
-6.88478
11
4.15827
21
-6.8904
0
LINE
8
BLACK
6
CONTINUOUS
10
4.15827
20
-6.8904
11
4.13578
21
-6.8904
0
LINE
8
BLACK
6
CONTINUOUS
10
4.13578
20
-6.8904
11
4.12453
21
-6.88478
0
LINE
8
BLACK
6
CONTINUOUS
10
4.12453
20
-6.88478
11
4.1189
21
-6.87353
0
LINE
8
BLACK
6
CONTINUOUS
10
4.1189
20
-6.87353
11
4.1189
21
-6.82853
0
LINE
8
BLACK
6
CONTINUOUS
10
4.1189
20
-6.82853
11
4.12453
21
-6.81728
0
LINE
8
BLACK
6
CONTINUOUS
10
4.12453
20
-6.81728
11
4.13578
21
-6.81166
0
LINE
8
BLACK
6
CONTINUOUS
10
4.13578
20
-6.81166
11
4.15827
21
-6.81166
0
LINE
8
BLACK
6
CONTINUOUS
10
4.15827
20
-6.81166
11
4.16952
21
-6.81728
0
LINE
8
BLACK
6
CONTINUOUS
10
4.16952
20
-6.81728
11
4.17515
21
-6.82853
0
LINE
8
BLACK
6
CONTINUOUS
10
4.17515
20
-6.82853
11
4.17515
21
-6.83978
0
LINE
8
BLACK
6
CONTINUOUS
10
4.17515
20
-6.83978
11
4.1189
21
-6.85103
0
LINE
8
BLACK
6
CONTINUOUS
10
4.22014
20
-6.88478
11
4.23139
21
-6.8904
0
LINE
8
BLACK
6
CONTINUOUS
10
4.23139
20
-6.8904
11
4.25389
21
-6.8904
0
LINE
8
BLACK
6
CONTINUOUS
10
4.25389
20
-6.8904
11
4.26513
21
-6.88478
0
LINE
8
BLACK
6
CONTINUOUS
10
4.26513
20
-6.88478
11
4.27076
21
-6.87353
0
LINE
8
BLACK
6
CONTINUOUS
10
4.27076
20
-6.87353
11
4.27076
21
-6.8679
0
LINE
8
BLACK
6
CONTINUOUS
10
4.27076
20
-6.8679
11
4.26513
21
-6.85665
0
LINE
8
BLACK
6
CONTINUOUS
10
4.26513
20
-6.85665
11
4.25389
21
-6.85103
0
LINE
8
BLACK
6
CONTINUOUS
10
4.25389
20
-6.85103
11
4.23701
21
-6.85103
0
LINE
8
BLACK
6
CONTINUOUS
10
4.23701
20
-6.85103
11
4.22576
21
-6.8454
0
LINE
8
BLACK
6
CONTINUOUS
10
4.22576
20
-6.8454
11
4.22014
21
-6.83416
0
LINE
8
BLACK
6
CONTINUOUS
10
4.22014
20
-6.83416
11
4.22014
21
-6.82853
0
LINE
8
BLACK
6
CONTINUOUS
10
4.22014
20
-6.82853
11
4.22576
21
-6.81728
0
LINE
8
BLACK
6
CONTINUOUS
10
4.22576
20
-6.81728
11
4.23701
21
-6.81166
0
LINE
8
BLACK
6
CONTINUOUS
10
4.23701
20
-6.81166
11
4.25389
21
-6.81166
0
LINE
8
BLACK
6
CONTINUOUS
10
4.25389
20
-6.81166
11
4.26513
21
-6.81728
0
LINE
8
BLACK
6
CONTINUOUS
10
4.31013
20
-6.93539
11
4.31575
21
-6.92977
0
LINE
8
BLACK
6
CONTINUOUS
10
4.31575
20
-6.92977
11
4.327
21
-6.9129
0
LINE
8
BLACK
6
CONTINUOUS
10
4.327
20
-6.9129
11
4.33263
21
-6.90165
0
LINE
8
BLACK
6
CONTINUOUS
10
4.33263
20
-6.90165
11
4.33825
21
-6.88478
0
LINE
8
BLACK
6
CONTINUOUS
10
4.33825
20
-6.88478
11
4.34388
21
-6.85665
0
LINE
8
BLACK
6
CONTINUOUS
10
4.34388
20
-6.85665
11
4.34388
21
-6.83416
0
LINE
8
BLACK
6
CONTINUOUS
10
4.34388
20
-6.83416
11
4.33825
21
-6.80603
0
LINE
8
BLACK
6
CONTINUOUS
10
4.33825
20
-6.80603
11
4.33263
21
-6.78916
0
LINE
8
BLACK
6
CONTINUOUS
10
4.33263
20
-6.78916
11
4.327
21
-6.77791
0
LINE
8
BLACK
6
CONTINUOUS
10
4.327
20
-6.77791
11
4.31575
21
-6.76104
0
LINE
8
BLACK
6
CONTINUOUS
10
4.31575
20
-6.76104
11
4.31013
21
-6.75542
0
LINE
8
BLACK
6
CONTINUOUS
10
1.71508
20
-7.03421
11
1.75642
21
-6.99287
0
LINE
8
BLACK
6
CONTINUOUS
10
1.75642
20
-6.99287
11
1.71508
21
-6.95154
0
LINE
8
BLACK
6
CONTINUOUS
10
1.71508
20
-6.95154
11
1.67374
21
-6.99287
0
LINE
8
BLACK
6
CONTINUOUS
10
1.67374
20
-6.99287
11
1.71508
21
-7.03421
0
LINE
8
BLACK
6
CONTINUOUS
10
1.86356
20
-6.93944
11
1.86918
21
-6.93382
0
LINE
8
BLACK
6
CONTINUOUS
10
1.86918
20
-6.93382
11
1.88043
21
-6.92819
0
LINE
8
BLACK
6
CONTINUOUS
10
1.88043
20
-6.92819
11
1.90855
21
-6.92819
0
LINE
8
BLACK
6
CONTINUOUS
10
1.90855
20
-6.92819
11
1.9198
21
-6.93382
0
LINE
8
BLACK
6
CONTINUOUS
10
1.9198
20
-6.93382
11
1.92543
21
-6.93944
0
LINE
8
BLACK
6
CONTINUOUS
10
1.92543
20
-6.93944
11
1.93105
21
-6.95069
0
LINE
8
BLACK
6
CONTINUOUS
10
1.93105
20
-6.95069
11
1.93105
21
-6.96194
0
LINE
8
BLACK
6
CONTINUOUS
10
1.93105
20
-6.96194
11
1.92543
21
-6.97881
0
LINE
8
BLACK
6
CONTINUOUS
10
1.92543
20
-6.97881
11
1.85794
21
-7.0463
0
LINE
8
BLACK
6
CONTINUOUS
10
1.85794
20
-7.0463
11
1.93105
21
-7.0463
0
LINE
8
BLACK
6
CONTINUOUS
10
1.98167
20
-7.03506
11
1.98729
21
-7.04068
0
LINE
8
BLACK
6
CONTINUOUS
10
1.98729
20
-7.04068
11
1.98167
21
-7.0463
0
LINE
8
BLACK
6
CONTINUOUS
10
1.98167
20
-7.0463
11
1.97605
21
-7.04068
0
LINE
8
BLACK
6
CONTINUOUS
10
1.97605
20
-7.04068
11
1.98167
21
-7.03506
0
LINE
8
BLACK
6
CONTINUOUS
10
1.98167
20
-7.03506
11
1.98167
21
-7.0463
0
LINE
8
BLACK
6
CONTINUOUS
10
2.09978
20
-7.0463
11
2.03229
21
-7.0463
0
LINE
8
BLACK
6
CONTINUOUS
10
2.06603
20
-7.0463
11
2.06603
21
-6.92819
0
LINE
8
BLACK
6
CONTINUOUS
10
2.06603
20
-6.92819
11
2.05479
21
-6.94507
0
LINE
8
BLACK
6
CONTINUOUS
10
2.05479
20
-6.94507
11
2.04354
21
-6.95632
0
LINE
8
BLACK
6
CONTINUOUS
10
2.04354
20
-6.95632
11
2.03229
21
-6.96194
0
LINE
8
BLACK
6
CONTINUOUS
10
2.1729
20
-6.92819
11
2.18415
21
-6.92819
0
LINE
8
BLACK
6
CONTINUOUS
10
2.18415
20
-6.92819
11
2.19539
21
-6.93382
0
LINE
8
BLACK
6
CONTINUOUS
10
2.19539
20
-6.93382
11
2.20102
21
-6.93944
0
LINE
8
BLACK
6
CONTINUOUS
10
2.20102
20
-6.93944
11
2.20664
21
-6.95069
0
LINE
8
BLACK
6
CONTINUOUS
10
2.20664
20
-6.95069
11
2.21227
21
-6.97319
0
LINE
8
BLACK
6
CONTINUOUS
10
2.21227
20
-6.97319
11
2.21227
21
-7.00131
0
LINE
8
BLACK
6
CONTINUOUS
10
2.21227
20
-7.00131
11
2.20664
21
-7.02381
0
LINE
8
BLACK
6
CONTINUOUS
10
2.20664
20
-7.02381
11
2.20102
21
-7.03506
0
LINE
8
BLACK
6
CONTINUOUS
10
2.20102
20
-7.03506
11
2.19539
21
-7.04068
0
LINE
8
BLACK
6
CONTINUOUS
10
2.19539
20
-7.04068
11
2.18415
21
-7.0463
0
LINE
8
BLACK
6
CONTINUOUS
10
2.18415
20
-7.0463
11
2.1729
21
-7.0463
0
LINE
8
BLACK
6
CONTINUOUS
10
2.1729
20
-7.0463
11
2.16165
21
-7.04068
0
LINE
8
BLACK
6
CONTINUOUS
10
2.16165
20
-7.04068
11
2.15602
21
-7.03506
0
LINE
8
BLACK
6
CONTINUOUS
10
2.15602
20
-7.03506
11
2.1504
21
-7.02381
0
LINE
8
BLACK
6
CONTINUOUS
10
2.1504
20
-7.02381
11
2.14477
21
-7.00131
0
LINE
8
BLACK
6
CONTINUOUS
10
2.14477
20
-7.00131
11
2.14477
21
-6.97319
0
LINE
8
BLACK
6
CONTINUOUS
10
2.14477
20
-6.97319
11
2.1504
21
-6.95069
0
LINE
8
BLACK
6
CONTINUOUS
10
2.1504
20
-6.95069
11
2.15602
21
-6.93944
0
LINE
8
BLACK
6
CONTINUOUS
10
2.15602
20
-6.93944
11
2.16165
21
-6.93382
0
LINE
8
BLACK
6
CONTINUOUS
10
2.16165
20
-6.93382
11
2.1729
21
-6.92819
0
LINE
8
BLACK
6
CONTINUOUS
10
2.26289
20
-7.0463
11
2.26289
21
-6.96756
0
LINE
8
BLACK
6
CONTINUOUS
10
2.26289
20
-6.97881
11
2.26851
21
-6.97319
0
LINE
8
BLACK
6
CONTINUOUS
10
2.26851
20
-6.97319
11
2.27976
21
-6.96756
0
LINE
8
BLACK
6
CONTINUOUS
10
2.27976
20
-6.96756
11
2.29663
21
-6.96756
0
LINE
8
BLACK
6
CONTINUOUS
10
2.29663
20
-6.96756
11
2.30788
21
-6.97319
0
LINE
8
BLACK
6
CONTINUOUS
10
2.30788
20
-6.97319
11
2.3135
21
-6.98444
0
LINE
8
BLACK
6
CONTINUOUS
10
2.3135
20
-6.98444
11
2.3135
21
-7.0463
0
LINE
8
BLACK
6
CONTINUOUS
10
2.3135
20
-6.98444
11
2.31913
21
-6.97319
0
LINE
8
BLACK
6
CONTINUOUS
10
2.31913
20
-6.97319
11
2.33038
21
-6.96756
0
LINE
8
BLACK
6
CONTINUOUS
10
2.33038
20
-6.96756
11
2.34725
21
-6.96756
0
LINE
8
BLACK
6
CONTINUOUS
10
2.34725
20
-6.96756
11
2.3585
21
-6.97319
0
LINE
8
BLACK
6
CONTINUOUS
10
2.3585
20
-6.97319
11
2.36412
21
-6.98444
0
LINE
8
BLACK
6
CONTINUOUS
10
2.36412
20
-6.98444
11
2.36412
21
-7.0463
0
LINE
8
BLACK
6
CONTINUOUS
10
2.42037
20
-7.0463
11
2.42037
21
-6.96756
0
LINE
8
BLACK
6
CONTINUOUS
10
2.42037
20
-6.97881
11
2.42599
21
-6.97319
0
LINE
8
BLACK
6
CONTINUOUS
10
2.42599
20
-6.97319
11
2.43724
21
-6.96756
0
LINE
8
BLACK
6
CONTINUOUS
10
2.43724
20
-6.96756
11
2.45411
21
-6.96756
0
LINE
8
BLACK
6
CONTINUOUS
10
2.45411
20
-6.96756
11
2.46536
21
-6.97319
0
LINE
8
BLACK
6
CONTINUOUS
10
2.46536
20
-6.97319
11
2.47098
21
-6.98444
0
LINE
8
BLACK
6
CONTINUOUS
10
2.47098
20
-6.98444
11
2.47098
21
-7.0463
0
LINE
8
BLACK
6
CONTINUOUS
10
2.47098
20
-6.98444
11
2.47661
21
-6.97319
0
LINE
8
BLACK
6
CONTINUOUS
10
2.47661
20
-6.97319
11
2.48786
21
-6.96756
0
LINE
8
BLACK
6
CONTINUOUS
10
2.48786
20
-6.96756
11
2.50473
21
-6.96756
0
LINE
8
BLACK
6
CONTINUOUS
10
2.50473
20
-6.96756
11
2.51598
21
-6.97319
0
LINE
8
BLACK
6
CONTINUOUS
10
2.51598
20
-6.97319
11
2.5216
21
-6.98444
0
LINE
8
BLACK
6
CONTINUOUS
10
2.5216
20
-6.98444
11
2.5216
21
-7.0463
0
LINE
8
BLACK
6
CONTINUOUS
10
2.7522
20
-6.92257
11
2.65096
21
-7.07443
0
LINE
8
BLACK
6
CONTINUOUS
10
2.90406
20
-6.92819
11
2.9153
21
-6.92819
0
LINE
8
BLACK
6
CONTINUOUS
10
2.9153
20
-6.92819
11
2.92655
21
-6.93382
0
LINE
8
BLACK
6
CONTINUOUS
10
2.92655
20
-6.93382
11
2.93218
21
-6.93944
0
LINE
8
BLACK
6
CONTINUOUS
10
2.93218
20
-6.93944
11
2.9378
21
-6.95069
0
LINE
8
BLACK
6
CONTINUOUS
10
2.9378
20
-6.95069
11
2.94343
21
-6.97319
0
LINE
8
BLACK
6
CONTINUOUS
10
2.94343
20
-6.97319
11
2.94343
21
-7.00131
0
LINE
8
BLACK
6
CONTINUOUS
10
2.94343
20
-7.00131
11
2.9378
21
-7.02381
0
LINE
8
BLACK
6
CONTINUOUS
10
2.9378
20
-7.02381
11
2.93218
21
-7.03506
0
LINE
8
BLACK
6
CONTINUOUS
10
2.93218
20
-7.03506
11
2.92655
21
-7.04068
0
LINE
8
BLACK
6
CONTINUOUS
10
2.92655
20
-7.04068
11
2.9153
21
-7.0463
0
LINE
8
BLACK
6
CONTINUOUS
10
2.9153
20
-7.0463
11
2.90406
21
-7.0463
0
LINE
8
BLACK
6
CONTINUOUS
10
2.90406
20
-7.0463
11
2.89281
21
-7.04068
0
LINE
8
BLACK
6
CONTINUOUS
10
2.89281
20
-7.04068
11
2.88718
21
-7.03506
0
LINE
8
BLACK
6
CONTINUOUS
10
2.88718
20
-7.03506
11
2.88156
21
-7.02381
0
LINE
8
BLACK
6
CONTINUOUS
10
2.88156
20
-7.02381
11
2.87593
21
-7.00131
0
LINE
8
BLACK
6
CONTINUOUS
10
2.87593
20
-7.00131
11
2.87593
21
-6.97319
0
LINE
8
BLACK
6
CONTINUOUS
10
2.87593
20
-6.97319
11
2.88156
21
-6.95069
0
LINE
8
BLACK
6
CONTINUOUS
10
2.88156
20
-6.95069
11
2.88718
21
-6.93944
0
LINE
8
BLACK
6
CONTINUOUS
10
2.88718
20
-6.93944
11
2.89281
21
-6.93382
0
LINE
8
BLACK
6
CONTINUOUS
10
2.89281
20
-6.93382
11
2.90406
21
-6.92819
0
LINE
8
BLACK
6
CONTINUOUS
10
2.99404
20
-7.03506
11
2.99967
21
-7.04068
0
LINE
8
BLACK
6
CONTINUOUS
10
2.99967
20
-7.04068
11
2.99404
21
-7.0463
0
LINE
8
BLACK
6
CONTINUOUS
10
2.99404
20
-7.0463
11
2.98842
21
-7.04068
0
LINE
8
BLACK
6
CONTINUOUS
10
2.98842
20
-7.04068
11
2.99404
21
-7.03506
0
LINE
8
BLACK
6
CONTINUOUS
10
2.99404
20
-7.03506
11
2.99404
21
-7.0463
0
LINE
8
BLACK
6
CONTINUOUS
10
3.07278
20
-6.92819
11
3.08403
21
-6.92819
0
LINE
8
BLACK
6
CONTINUOUS
10
3.08403
20
-6.92819
11
3.09528
21
-6.93382
0
LINE
8
BLACK
6
CONTINUOUS
10
3.09528
20
-6.93382
11
3.10091
21
-6.93944
0
LINE
8
BLACK
6
CONTINUOUS
10
3.10091
20
-6.93944
11
3.10653
21
-6.95069
0
LINE
8
BLACK
6
CONTINUOUS
10
3.10653
20
-6.95069
11
3.11215
21
-6.97319
0
LINE
8
BLACK
6
CONTINUOUS
10
3.11215
20
-6.97319
11
3.11215
21
-7.00131
0
LINE
8
BLACK
6
CONTINUOUS
10
3.11215
20
-7.00131
11
3.10653
21
-7.02381
0
LINE
8
BLACK
6
CONTINUOUS
10
3.10653
20
-7.02381
11
3.10091
21
-7.03506
0
LINE
8
BLACK
6
CONTINUOUS
10
3.10091
20
-7.03506
11
3.09528
21
-7.04068
0
LINE
8
BLACK
6
CONTINUOUS
10
3.09528
20
-7.04068
11
3.08403
21
-7.0463
0
LINE
8
BLACK
6
CONTINUOUS
10
3.08403
20
-7.0463
11
3.07278
21
-7.0463
0
LINE
8
BLACK
6
CONTINUOUS
10
3.07278
20
-7.0463
11
3.06154
21
-7.04068
0
LINE
8
BLACK
6
CONTINUOUS
10
3.06154
20
-7.04068
11
3.05591
21
-7.03506
0
LINE
8
BLACK
6
CONTINUOUS
10
3.05591
20
-7.03506
11
3.05029
21
-7.02381
0
LINE
8
BLACK
6
CONTINUOUS
10
3.05029
20
-7.02381
11
3.04466
21
-7.00131
0
LINE
8
BLACK
6
CONTINUOUS
10
3.04466
20
-7.00131
11
3.04466
21
-6.97319
0
LINE
8
BLACK
6
CONTINUOUS
10
3.04466
20
-6.97319
11
3.05029
21
-6.95069
0
LINE
8
BLACK
6
CONTINUOUS
10
3.05029
20
-6.95069
11
3.05591
21
-6.93944
0
LINE
8
BLACK
6
CONTINUOUS
10
3.05591
20
-6.93944
11
3.06154
21
-6.93382
0
LINE
8
BLACK
6
CONTINUOUS
10
3.06154
20
-6.93382
11
3.07278
21
-6.92819
0
LINE
8
BLACK
6
CONTINUOUS
10
3.17965
20
-6.97881
11
3.1684
21
-6.97319
0
LINE
8
BLACK
6
CONTINUOUS
10
3.1684
20
-6.97319
11
3.16277
21
-6.96756
0
LINE
8
BLACK
6
CONTINUOUS
10
3.16277
20
-6.96756
11
3.15715
21
-6.95632
0
LINE
8
BLACK
6
CONTINUOUS
10
3.15715
20
-6.95632
11
3.15715
21
-6.95069
0
LINE
8
BLACK
6
CONTINUOUS
10
3.15715
20
-6.95069
11
3.16277
21
-6.93944
0
LINE
8
BLACK
6
CONTINUOUS
10
3.16277
20
-6.93944
11
3.1684
21
-6.93382
0
LINE
8
BLACK
6
CONTINUOUS
10
3.1684
20
-6.93382
11
3.17965
21
-6.92819
0
LINE
8
BLACK
6
CONTINUOUS
10
3.17965
20
-6.92819
11
3.20214
21
-6.92819
0
LINE
8
BLACK
6
CONTINUOUS
10
3.20214
20
-6.92819
11
3.21339
21
-6.93382
0
LINE
8
BLACK
6
CONTINUOUS
10
3.21339
20
-6.93382
11
3.21902
21
-6.93944
0
LINE
8
BLACK
6
CONTINUOUS
10
3.21902
20
-6.93944
11
3.22464
21
-6.95069
0
LINE
8
BLACK
6
CONTINUOUS
10
3.22464
20
-6.95069
11
3.22464
21
-6.95632
0
LINE
8
BLACK
6
CONTINUOUS
10
3.22464
20
-6.95632
11
3.21902
21
-6.96756
0
LINE
8
BLACK
6
CONTINUOUS
10
3.21902
20
-6.96756
11
3.21339
21
-6.97319
0
LINE
8
BLACK
6
CONTINUOUS
10
3.21339
20
-6.97319
11
3.20214
21
-6.97881
0
LINE
8
BLACK
6
CONTINUOUS
10
3.20214
20
-6.97881
11
3.17965
21
-6.97881
0
LINE
8
BLACK
6
CONTINUOUS
10
3.17965
20
-6.97881
11
3.1684
21
-6.98444
0
LINE
8
BLACK
6
CONTINUOUS
10
3.1684
20
-6.98444
11
3.16277
21
-6.99006
0
LINE
8
BLACK
6
CONTINUOUS
10
3.16277
20
-6.99006
11
3.15715
21
-7.00131
0
LINE
8
BLACK
6
CONTINUOUS
10
3.15715
20
-7.00131
11
3.15715
21
-7.02381
0
LINE
8
BLACK
6
CONTINUOUS
10
3.15715
20
-7.02381
11
3.16277
21
-7.03506
0
LINE
8
BLACK
6
CONTINUOUS
10
3.16277
20
-7.03506
11
3.1684
21
-7.04068
0
LINE
8
BLACK
6
CONTINUOUS
10
3.1684
20
-7.04068
11
3.17965
21
-7.0463
0
LINE
8
BLACK
6
CONTINUOUS
10
3.17965
20
-7.0463
11
3.20214
21
-7.0463
0
LINE
8
BLACK
6
CONTINUOUS
10
3.20214
20
-7.0463
11
3.21339
21
-7.04068
0
LINE
8
BLACK
6
CONTINUOUS
10
3.21339
20
-7.04068
11
3.21902
21
-7.03506
0
LINE
8
BLACK
6
CONTINUOUS
10
3.21902
20
-7.03506
11
3.22464
21
-7.02381
0
LINE
8
BLACK
6
CONTINUOUS
10
3.22464
20
-7.02381
11
3.22464
21
-7.00131
0
LINE
8
BLACK
6
CONTINUOUS
10
3.22464
20
-7.00131
11
3.21902
21
-6.99006
0
LINE
8
BLACK
6
CONTINUOUS
10
3.21902
20
-6.99006
11
3.21339
21
-6.98444
0
LINE
8
BLACK
6
CONTINUOUS
10
3.21339
20
-6.98444
11
3.20214
21
-6.97881
0
LINE
8
BLACK
6
CONTINUOUS
10
3.26401
20
-6.92819
11
3.33713
21
-6.92819
0
LINE
8
BLACK
6
CONTINUOUS
10
3.33713
20
-6.92819
11
3.29776
21
-6.97319
0
LINE
8
BLACK
6
CONTINUOUS
10
3.29776
20
-6.97319
11
3.31463
21
-6.97319
0
LINE
8
BLACK
6
CONTINUOUS
10
3.31463
20
-6.97319
11
3.32588
21
-6.97881
0
LINE
8
BLACK
6
CONTINUOUS
10
3.32588
20
-6.97881
11
3.3315
21
-6.98444
0
LINE
8
BLACK
6
CONTINUOUS
10
3.3315
20
-6.98444
11
3.33713
21
-6.99569
0
LINE
8
BLACK
6
CONTINUOUS
10
3.33713
20
-6.99569
11
3.33713
21
-7.02381
0
LINE
8
BLACK
6
CONTINUOUS
10
3.33713
20
-7.02381
11
3.3315
21
-7.03506
0
LINE
8
BLACK
6
CONTINUOUS
10
3.3315
20
-7.03506
11
3.32588
21
-7.04068
0
LINE
8
BLACK
6
CONTINUOUS
10
3.32588
20
-7.04068
11
3.31463
21
-7.0463
0
LINE
8
BLACK
6
CONTINUOUS
10
3.31463
20
-7.0463
11
3.28088
21
-7.0463
0
LINE
8
BLACK
6
CONTINUOUS
10
3.28088
20
-7.0463
11
3.26963
21
-7.04068
0
LINE
8
BLACK
6
CONTINUOUS
10
3.26963
20
-7.04068
11
3.26401
21
-7.03506
0
LINE
8
BLACK
6
CONTINUOUS
10
3.38212
20
-6.92819
11
3.38212
21
-6.95069
0
LINE
8
BLACK
6
CONTINUOUS
10
3.42711
20
-6.92819
11
3.42711
21
-6.95069
0
LINE
8
BLACK
6
CONTINUOUS
10
3.60147
20
-7.0913
11
3.59584
21
-7.08567
0
LINE
8
BLACK
6
CONTINUOUS
10
3.59584
20
-7.08567
11
3.58459
21
-7.0688
0
LINE
8
BLACK
6
CONTINUOUS
10
3.58459
20
-7.0688
11
3.57897
21
-7.05755
0
LINE
8
BLACK
6
CONTINUOUS
10
3.57897
20
-7.05755
11
3.57335
21
-7.04068
0
LINE
8
BLACK
6
CONTINUOUS
10
3.57335
20
-7.04068
11
3.56772
21
-7.01256
0
LINE
8
BLACK
6
CONTINUOUS
10
3.56772
20
-7.01256
11
3.56772
21
-6.99006
0
LINE
8
BLACK
6
CONTINUOUS
10
3.56772
20
-6.99006
11
3.57335
21
-6.96194
0
LINE
8
BLACK
6
CONTINUOUS
10
3.57335
20
-6.96194
11
3.57897
21
-6.94507
0
LINE
8
BLACK
6
CONTINUOUS
10
3.57897
20
-6.94507
11
3.58459
21
-6.93382
0
LINE
8
BLACK
6
CONTINUOUS
10
3.58459
20
-6.93382
11
3.59584
21
-6.91695
0
LINE
8
BLACK
6
CONTINUOUS
10
3.59584
20
-6.91695
11
3.60147
21
-6.91132
0
LINE
8
BLACK
6
CONTINUOUS
10
3.64084
20
-6.93944
11
3.64646
21
-6.93382
0
LINE
8
BLACK
6
CONTINUOUS
10
3.64646
20
-6.93382
11
3.65771
21
-6.92819
0
LINE
8
BLACK
6
CONTINUOUS
10
3.65771
20
-6.92819
11
3.68583
21
-6.92819
0
LINE
8
BLACK
6
CONTINUOUS
10
3.68583
20
-6.92819
11
3.69708
21
-6.93382
0
LINE
8
BLACK
6
CONTINUOUS
10
3.69708
20
-6.93382
11
3.70271
21
-6.93944
0
LINE
8
BLACK
6
CONTINUOUS
10
3.70271
20
-6.93944
11
3.70833
21
-6.95069
0
LINE
8
BLACK
6
CONTINUOUS
10
3.70833
20
-6.95069
11
3.70833
21
-6.96194
0
LINE
8
BLACK
6
CONTINUOUS
10
3.70833
20
-6.96194
11
3.70271
21
-6.97881
0
LINE
8
BLACK
6
CONTINUOUS
10
3.70271
20
-6.97881
11
3.63521
21
-7.0463
0
LINE
8
BLACK
6
CONTINUOUS
10
3.63521
20
-7.0463
11
3.70833
21
-7.0463
0
LINE
8
BLACK
6
CONTINUOUS
10
3.84894
20
-7.0463
11
3.84894
21
-6.92819
0
LINE
8
BLACK
6
CONTINUOUS
10
3.89956
20
-7.0463
11
3.89956
21
-6.98444
0
LINE
8
BLACK
6
CONTINUOUS
10
3.89956
20
-6.98444
11
3.89393
21
-6.97319
0
LINE
8
BLACK
6
CONTINUOUS
10
3.89393
20
-6.97319
11
3.88268
21
-6.96756
0
LINE
8
BLACK
6
CONTINUOUS
10
3.88268
20
-6.96756
11
3.86581
21
-6.96756
0
LINE
8
BLACK
6
CONTINUOUS
10
3.86581
20
-6.96756
11
3.85456
21
-6.97319
0
LINE
8
BLACK
6
CONTINUOUS
10
3.85456
20
-6.97319
11
3.84894
21
-6.97881
0
LINE
8
BLACK
6
CONTINUOUS
10
3.97267
20
-7.0463
11
3.96142
21
-7.04068
0
LINE
8
BLACK
6
CONTINUOUS
10
3.96142
20
-7.04068
11
3.9558
21
-7.03506
0
LINE
8
BLACK
6
CONTINUOUS
10
3.9558
20
-7.03506
11
3.95017
21
-7.02381
0
LINE
8
BLACK
6
CONTINUOUS
10
3.95017
20
-7.02381
11
3.95017
21
-6.99006
0
LINE
8
BLACK
6
CONTINUOUS
10
3.95017
20
-6.99006
11
3.9558
21
-6.97881
0
LINE
8
BLACK
6
CONTINUOUS
10
3.9558
20
-6.97881
11
3.96142
21
-6.97319
0
LINE
8
BLACK
6
CONTINUOUS
10
3.96142
20
-6.97319
11
3.97267
21
-6.96756
0
LINE
8
BLACK
6
CONTINUOUS
10
3.97267
20
-6.96756
11
3.98954
21
-6.96756
0
LINE
8
BLACK
6
CONTINUOUS
10
3.98954
20
-6.96756
11
4.00079
21
-6.97319
0
LINE
8
BLACK
6
CONTINUOUS
10
4.00079
20
-6.97319
11
4.00642
21
-6.97881
0
LINE
8
BLACK
6
CONTINUOUS
10
4.00642
20
-6.97881
11
4.01204
21
-6.99006
0
LINE
8
BLACK
6
CONTINUOUS
10
4.01204
20
-6.99006
11
4.01204
21
-7.02381
0
LINE
8
BLACK
6
CONTINUOUS
10
4.01204
20
-7.02381
11
4.00642
21
-7.03506
0
LINE
8
BLACK
6
CONTINUOUS
10
4.00642
20
-7.03506
11
4.00079
21
-7.04068
0
LINE
8
BLACK
6
CONTINUOUS
10
4.00079
20
-7.04068
11
3.98954
21
-7.0463
0
LINE
8
BLACK
6
CONTINUOUS
10
3.98954
20
-7.0463
11
3.97267
21
-7.0463
0
LINE
8
BLACK
6
CONTINUOUS
10
4.07953
20
-7.0463
11
4.06828
21
-7.04068
0
LINE
8
BLACK
6
CONTINUOUS
10
4.06828
20
-7.04068
11
4.06266
21
-7.02943
0
LINE
8
BLACK
6
CONTINUOUS
10
4.06266
20
-7.02943
11
4.06266
21
-6.92819
0
LINE
8
BLACK
6
CONTINUOUS
10
4.16952
20
-7.04068
11
4.15827
21
-7.0463
0
LINE
8
BLACK
6
CONTINUOUS
10
4.15827
20
-7.0463
11
4.13578
21
-7.0463
0
LINE
8
BLACK
6
CONTINUOUS
10
4.13578
20
-7.0463
11
4.12453
21
-7.04068
0
LINE
8
BLACK
6
CONTINUOUS
10
4.12453
20
-7.04068
11
4.1189
21
-7.02943
0
LINE
8
BLACK
6
CONTINUOUS
10
4.1189
20
-7.02943
11
4.1189
21
-6.98444
0
LINE
8
BLACK
6
CONTINUOUS
10
4.1189
20
-6.98444
11
4.12453
21
-6.97319
0
LINE
8
BLACK
6
CONTINUOUS
10
4.12453
20
-6.97319
11
4.13578
21
-6.96756
0
LINE
8
BLACK
6
CONTINUOUS
10
4.13578
20
-6.96756
11
4.15827
21
-6.96756
0
LINE
8
BLACK
6
CONTINUOUS
10
4.15827
20
-6.96756
11
4.16952
21
-6.97319
0
LINE
8
BLACK
6
CONTINUOUS
10
4.16952
20
-6.97319
11
4.17515
21
-6.98444
0
LINE
8
BLACK
6
CONTINUOUS
10
4.17515
20
-6.98444
11
4.17515
21
-6.99569
0
LINE
8
BLACK
6
CONTINUOUS
10
4.17515
20
-6.99569
11
4.1189
21
-7.00693
0
LINE
8
BLACK
6
CONTINUOUS
10
4.22014
20
-7.04068
11
4.23139
21
-7.0463
0
LINE
8
BLACK
6
CONTINUOUS
10
4.23139
20
-7.0463
11
4.25389
21
-7.0463
0
LINE
8
BLACK
6
CONTINUOUS
10
4.25389
20
-7.0463
11
4.26513
21
-7.04068
0
LINE
8
BLACK
6
CONTINUOUS
10
4.26513
20
-7.04068
11
4.27076
21
-7.02943
0
LINE
8
BLACK
6
CONTINUOUS
10
4.27076
20
-7.02943
11
4.27076
21
-7.02381
0
LINE
8
BLACK
6
CONTINUOUS
10
4.27076
20
-7.02381
11
4.26513
21
-7.01256
0
LINE
8
BLACK
6
CONTINUOUS
10
4.26513
20
-7.01256
11
4.25389
21
-7.00693
0
LINE
8
BLACK
6
CONTINUOUS
10
4.25389
20
-7.00693
11
4.23701
21
-7.00693
0
LINE
8
BLACK
6
CONTINUOUS
10
4.23701
20
-7.00693
11
4.22576
21
-7.00131
0
LINE
8
BLACK
6
CONTINUOUS
10
4.22576
20
-7.00131
11
4.22014
21
-6.99006
0
LINE
8
BLACK
6
CONTINUOUS
10
4.22014
20
-6.99006
11
4.22014
21
-6.98444
0
LINE
8
BLACK
6
CONTINUOUS
10
4.22014
20
-6.98444
11
4.22576
21
-6.97319
0
LINE
8
BLACK
6
CONTINUOUS
10
4.22576
20
-6.97319
11
4.23701
21
-6.96756
0
LINE
8
BLACK
6
CONTINUOUS
10
4.23701
20
-6.96756
11
4.25389
21
-6.96756
0
LINE
8
BLACK
6
CONTINUOUS
10
4.25389
20
-6.96756
11
4.26513
21
-6.97319
0
LINE
8
BLACK
6
CONTINUOUS
10
4.31013
20
-7.0913
11
4.31575
21
-7.08567
0
LINE
8
BLACK
6
CONTINUOUS
10
4.31575
20
-7.08567
11
4.327
21
-7.0688
0
LINE
8
BLACK
6
CONTINUOUS
10
4.327
20
-7.0688
11
4.33263
21
-7.05755
0
LINE
8
BLACK
6
CONTINUOUS
10
4.33263
20
-7.05755
11
4.33825
21
-7.04068
0
LINE
8
BLACK
6
CONTINUOUS
10
4.33825
20
-7.04068
11
4.34388
21
-7.01256
0
LINE
8
BLACK
6
CONTINUOUS
10
4.34388
20
-7.01256
11
4.34388
21
-6.99006
0
LINE
8
BLACK
6
CONTINUOUS
10
4.34388
20
-6.99006
11
4.33825
21
-6.96194
0
LINE
8
BLACK
6
CONTINUOUS
10
4.33825
20
-6.96194
11
4.33263
21
-6.94507
0
LINE
8
BLACK
6
CONTINUOUS
10
4.33263
20
-6.94507
11
4.327
21
-6.93382
0
LINE
8
BLACK
6
CONTINUOUS
10
4.327
20
-6.93382
11
4.31575
21
-6.91695
0
LINE
8
BLACK
6
CONTINUOUS
10
4.31575
20
-6.91695
11
4.31013
21
-6.91132
0
LINE
8
BLACK
6
CONTINUOUS
10
1.63043
20
-7.08579
11
1.75642
21
-7.21177
0
LINE
8
BLACK
6
CONTINUOUS
10
1.75642
20
-7.08579
11
1.63043
21
-7.21177
0
CIRCLE
8
BLACK
10
1.69343
20
-7.14878
40
0.0629921
0
LINE
8
BLACK
6
CONTINUOUS
10
1.85794
20
-7.0841
11
1.93105
21
-7.0841
0
LINE
8
BLACK
6
CONTINUOUS
10
1.93105
20
-7.0841
11
1.89168
21
-7.12909
0
LINE
8
BLACK
6
CONTINUOUS
10
1.89168
20
-7.12909
11
1.90855
21
-7.12909
0
LINE
8
BLACK
6
CONTINUOUS
10
1.90855
20
-7.12909
11
1.9198
21
-7.13472
0
LINE
8
BLACK
6
CONTINUOUS
10
1.9198
20
-7.13472
11
1.92543
21
-7.14034
0
LINE
8
BLACK
6
CONTINUOUS
10
1.92543
20
-7.14034
11
1.93105
21
-7.15159
0
LINE
8
BLACK
6
CONTINUOUS
10
1.93105
20
-7.15159
11
1.93105
21
-7.17971
0
LINE
8
BLACK
6
CONTINUOUS
10
1.93105
20
-7.17971
11
1.92543
21
-7.19096
0
LINE
8
BLACK
6
CONTINUOUS
10
1.92543
20
-7.19096
11
1.9198
21
-7.19659
0
LINE
8
BLACK
6
CONTINUOUS
10
1.9198
20
-7.19659
11
1.90855
21
-7.20221
0
LINE
8
BLACK
6
CONTINUOUS
10
1.90855
20
-7.20221
11
1.87481
21
-7.20221
0
LINE
8
BLACK
6
CONTINUOUS
10
1.87481
20
-7.20221
11
1.86356
21
-7.19659
0
LINE
8
BLACK
6
CONTINUOUS
10
1.86356
20
-7.19659
11
1.85794
21
-7.19096
0
LINE
8
BLACK
6
CONTINUOUS
10
1.98167
20
-7.19096
11
1.98729
21
-7.19659
0
LINE
8
BLACK
6
CONTINUOUS
10
1.98729
20
-7.19659
11
1.98167
21
-7.20221
0
LINE
8
BLACK
6
CONTINUOUS
10
1.98167
20
-7.20221
11
1.97605
21
-7.19659
0
LINE
8
BLACK
6
CONTINUOUS
10
1.97605
20
-7.19659
11
1.98167
21
-7.19096
0
LINE
8
BLACK
6
CONTINUOUS
10
1.98167
20
-7.19096
11
1.98167
21
-7.20221
0
LINE
8
BLACK
6
CONTINUOUS
10
2.03229
20
-7.09535
11
2.03791
21
-7.08972
0
LINE
8
BLACK
6
CONTINUOUS
10
2.03791
20
-7.08972
11
2.04916
21
-7.0841
0
LINE
8
BLACK
6
CONTINUOUS
10
2.04916
20
-7.0841
11
2.07728
21
-7.0841
0
LINE
8
BLACK
6
CONTINUOUS
10
2.07728
20
-7.0841
11
2.08853
21
-7.08972
0
LINE
8
BLACK
6
CONTINUOUS
10
2.08853
20
-7.08972
11
2.09416
21
-7.09535
0
LINE
8
BLACK
6
CONTINUOUS
10
2.09416
20
-7.09535
11
2.09978
21
-7.1066
0
LINE
8
BLACK
6
CONTINUOUS
10
2.09978
20
-7.1066
11
2.09978
21
-7.11785
0
LINE
8
BLACK
6
CONTINUOUS
10
2.09978
20
-7.11785
11
2.09416
21
-7.13472
0
LINE
8
BLACK
6
CONTINUOUS
10
2.09416
20
-7.13472
11
2.02666
21
-7.20221
0
LINE
8
BLACK
6
CONTINUOUS
10
2.02666
20
-7.20221
11
2.09978
21
-7.20221
0
LINE
8
BLACK
6
CONTINUOUS
10
2.1729
20
-7.0841
11
2.18415
21
-7.0841
0
LINE
8
BLACK
6
CONTINUOUS
10
2.18415
20
-7.0841
11
2.19539
21
-7.08972
0
LINE
8
BLACK
6
CONTINUOUS
10
2.19539
20
-7.08972
11
2.20102
21
-7.09535
0
LINE
8
BLACK
6
CONTINUOUS
10
2.20102
20
-7.09535
11
2.20664
21
-7.1066
0
LINE
8
BLACK
6
CONTINUOUS
10
2.20664
20
-7.1066
11
2.21227
21
-7.12909
0
LINE
8
BLACK
6
CONTINUOUS
10
2.21227
20
-7.12909
11
2.21227
21
-7.15722
0
LINE
8
BLACK
6
CONTINUOUS
10
2.21227
20
-7.15722
11
2.20664
21
-7.17971
0
LINE
8
BLACK
6
CONTINUOUS
10
2.20664
20
-7.17971
11
2.20102
21
-7.19096
0
LINE
8
BLACK
6
CONTINUOUS
10
2.20102
20
-7.19096
11
2.19539
21
-7.19659
0
LINE
8
BLACK
6
CONTINUOUS
10
2.19539
20
-7.19659
11
2.18415
21
-7.20221
0
LINE
8
BLACK
6
CONTINUOUS
10
2.18415
20
-7.20221
11
2.1729
21
-7.20221
0
LINE
8
BLACK
6
CONTINUOUS
10
2.1729
20
-7.20221
11
2.16165
21
-7.19659
0
LINE
8
BLACK
6
CONTINUOUS
10
2.16165
20
-7.19659
11
2.15602
21
-7.19096
0
LINE
8
BLACK
6
CONTINUOUS
10
2.15602
20
-7.19096
11
2.1504
21
-7.17971
0
LINE
8
BLACK
6
CONTINUOUS
10
2.1504
20
-7.17971
11
2.14477
21
-7.15722
0
LINE
8
BLACK
6
CONTINUOUS
10
2.14477
20
-7.15722
11
2.14477
21
-7.12909
0
LINE
8
BLACK
6
CONTINUOUS
10
2.14477
20
-7.12909
11
2.1504
21
-7.1066
0
LINE
8
BLACK
6
CONTINUOUS
10
2.1504
20
-7.1066
11
2.15602
21
-7.09535
0
LINE
8
BLACK
6
CONTINUOUS
10
2.15602
20
-7.09535
11
2.16165
21
-7.08972
0
LINE
8
BLACK
6
CONTINUOUS
10
2.16165
20
-7.08972
11
2.1729
21
-7.0841
0
LINE
8
BLACK
6
CONTINUOUS
10
2.26289
20
-7.20221
11
2.26289
21
-7.12347
0
LINE
8
BLACK
6
CONTINUOUS
10
2.26289
20
-7.13472
11
2.26851
21
-7.12909
0
LINE
8
BLACK
6
CONTINUOUS
10
2.26851
20
-7.12909
11
2.27976
21
-7.12347
0
LINE
8
BLACK
6
CONTINUOUS
10
2.27976
20
-7.12347
11
2.29663
21
-7.12347
0
LINE
8
BLACK
6
CONTINUOUS
10
2.29663
20
-7.12347
11
2.30788
21
-7.12909
0
LINE
8
BLACK
6
CONTINUOUS
10
2.30788
20
-7.12909
11
2.3135
21
-7.14034
0
LINE
8
BLACK
6
CONTINUOUS
10
2.3135
20
-7.14034
11
2.3135
21
-7.20221
0
LINE
8
BLACK
6
CONTINUOUS
10
2.3135
20
-7.14034
11
2.31913
21
-7.12909
0
LINE
8
BLACK
6
CONTINUOUS
10
2.31913
20
-7.12909
11
2.33038
21
-7.12347
0
LINE
8
BLACK
6
CONTINUOUS
10
2.33038
20
-7.12347
11
2.34725
21
-7.12347
0
LINE
8
BLACK
6
CONTINUOUS
10
2.34725
20
-7.12347
11
2.3585
21
-7.12909
0
LINE
8
BLACK
6
CONTINUOUS
10
2.3585
20
-7.12909
11
2.36412
21
-7.14034
0
LINE
8
BLACK
6
CONTINUOUS
10
2.36412
20
-7.14034
11
2.36412
21
-7.20221
0
LINE
8
BLACK
6
CONTINUOUS
10
2.42037
20
-7.20221
11
2.42037
21
-7.12347
0
LINE
8
BLACK
6
CONTINUOUS
10
2.42037
20
-7.13472
11
2.42599
21
-7.12909
0
LINE
8
BLACK
6
CONTINUOUS
10
2.42599
20
-7.12909
11
2.43724
21
-7.12347
0
LINE
8
BLACK
6
CONTINUOUS
10
2.43724
20
-7.12347
11
2.45411
21
-7.12347
0
LINE
8
BLACK
6
CONTINUOUS
10
2.45411
20
-7.12347
11
2.46536
21
-7.12909
0
LINE
8
BLACK
6
CONTINUOUS
10
2.46536
20
-7.12909
11
2.47098
21
-7.14034
0
LINE
8
BLACK
6
CONTINUOUS
10
2.47098
20
-7.14034
11
2.47098
21
-7.20221
0
LINE
8
BLACK
6
CONTINUOUS
10
2.47098
20
-7.14034
11
2.47661
21
-7.12909
0
LINE
8
BLACK
6
CONTINUOUS
10
2.47661
20
-7.12909
11
2.48786
21
-7.12347
0
LINE
8
BLACK
6
CONTINUOUS
10
2.48786
20
-7.12347
11
2.50473
21
-7.12347
0
LINE
8
BLACK
6
CONTINUOUS
10
2.50473
20
-7.12347
11
2.51598
21
-7.12909
0
LINE
8
BLACK
6
CONTINUOUS
10
2.51598
20
-7.12909
11
2.5216
21
-7.14034
0
LINE
8
BLACK
6
CONTINUOUS
10
2.5216
20
-7.14034
11
2.5216
21
-7.20221
0
LINE
8
BLACK
6
CONTINUOUS
10
2.7522
20
-7.07848
11
2.65096
21
-7.23033
0
LINE
8
BLACK
6
CONTINUOUS
10
2.90406
20
-7.0841
11
2.9153
21
-7.0841
0
LINE
8
BLACK
6
CONTINUOUS
10
2.9153
20
-7.0841
11
2.92655
21
-7.08972
0
LINE
8
BLACK
6
CONTINUOUS
10
2.92655
20
-7.08972
11
2.93218
21
-7.09535
0
LINE
8
BLACK
6
CONTINUOUS
10
2.93218
20
-7.09535
11
2.9378
21
-7.1066
0
LINE
8
BLACK
6
CONTINUOUS
10
2.9378
20
-7.1066
11
2.94343
21
-7.12909
0
LINE
8
BLACK
6
CONTINUOUS
10
2.94343
20
-7.12909
11
2.94343
21
-7.15722
0
LINE
8
BLACK
6
CONTINUOUS
10
2.94343
20
-7.15722
11
2.9378
21
-7.17971
0
LINE
8
BLACK
6
CONTINUOUS
10
2.9378
20
-7.17971
11
2.93218
21
-7.19096
0
LINE
8
BLACK
6
CONTINUOUS
10
2.93218
20
-7.19096
11
2.92655
21
-7.19659
0
LINE
8
BLACK
6
CONTINUOUS
10
2.92655
20
-7.19659
11
2.9153
21
-7.20221
0
LINE
8
BLACK
6
CONTINUOUS
10
2.9153
20
-7.20221
11
2.90406
21
-7.20221
0
LINE
8
BLACK
6
CONTINUOUS
10
2.90406
20
-7.20221
11
2.89281
21
-7.19659
0
LINE
8
BLACK
6
CONTINUOUS
10
2.89281
20
-7.19659
11
2.88718
21
-7.19096
0
LINE
8
BLACK
6
CONTINUOUS
10
2.88718
20
-7.19096
11
2.88156
21
-7.17971
0
LINE
8
BLACK
6
CONTINUOUS
10
2.88156
20
-7.17971
11
2.87593
21
-7.15722
0
LINE
8
BLACK
6
CONTINUOUS
10
2.87593
20
-7.15722
11
2.87593
21
-7.12909
0
LINE
8
BLACK
6
CONTINUOUS
10
2.87593
20
-7.12909
11
2.88156
21
-7.1066
0
LINE
8
BLACK
6
CONTINUOUS
10
2.88156
20
-7.1066
11
2.88718
21
-7.09535
0
LINE
8
BLACK
6
CONTINUOUS
10
2.88718
20
-7.09535
11
2.89281
21
-7.08972
0
LINE
8
BLACK
6
CONTINUOUS
10
2.89281
20
-7.08972
11
2.90406
21
-7.0841
0
LINE
8
BLACK
6
CONTINUOUS
10
2.99404
20
-7.19096
11
2.99967
21
-7.19659
0
LINE
8
BLACK
6
CONTINUOUS
10
2.99967
20
-7.19659
11
2.99404
21
-7.20221
0
LINE
8
BLACK
6
CONTINUOUS
10
2.99404
20
-7.20221
11
2.98842
21
-7.19659
0
LINE
8
BLACK
6
CONTINUOUS
10
2.98842
20
-7.19659
11
2.99404
21
-7.19096
0
LINE
8
BLACK
6
CONTINUOUS
10
2.99404
20
-7.19096
11
2.99404
21
-7.20221
0
LINE
8
BLACK
6
CONTINUOUS
10
3.11215
20
-7.20221
11
3.04466
21
-7.20221
0
LINE
8
BLACK
6
CONTINUOUS
10
3.07841
20
-7.20221
11
3.07841
21
-7.0841
0
LINE
8
BLACK
6
CONTINUOUS
10
3.07841
20
-7.0841
11
3.06716
21
-7.10097
0
LINE
8
BLACK
6
CONTINUOUS
10
3.06716
20
-7.10097
11
3.05591
21
-7.11222
0
LINE
8
BLACK
6
CONTINUOUS
10
3.05591
20
-7.11222
11
3.04466
21
-7.11785
0
LINE
8
BLACK
6
CONTINUOUS
10
3.15715
20
-7.09535
11
3.16277
21
-7.08972
0
LINE
8
BLACK
6
CONTINUOUS
10
3.16277
20
-7.08972
11
3.17402
21
-7.0841
0
LINE
8
BLACK
6
CONTINUOUS
10
3.17402
20
-7.0841
11
3.20214
21
-7.0841
0
LINE
8
BLACK
6
CONTINUOUS
10
3.20214
20
-7.0841
11
3.21339
21
-7.08972
0
LINE
8
BLACK
6
CONTINUOUS
10
3.21339
20
-7.08972
11
3.21902
21
-7.09535
0
LINE
8
BLACK
6
CONTINUOUS
10
3.21902
20
-7.09535
11
3.22464
21
-7.1066
0
LINE
8
BLACK
6
CONTINUOUS
10
3.22464
20
-7.1066
11
3.22464
21
-7.11785
0
LINE
8
BLACK
6
CONTINUOUS
10
3.22464
20
-7.11785
11
3.21902
21
-7.13472
0
LINE
8
BLACK
6
CONTINUOUS
10
3.21902
20
-7.13472
11
3.15152
21
-7.20221
0
LINE
8
BLACK
6
CONTINUOUS
10
3.15152
20
-7.20221
11
3.22464
21
-7.20221
0
LINE
8
BLACK
6
CONTINUOUS
10
3.32588
20
-7.0841
11
3.30338
21
-7.0841
0
LINE
8
BLACK
6
CONTINUOUS
10
3.30338
20
-7.0841
11
3.29213
21
-7.08972
0
LINE
8
BLACK
6
CONTINUOUS
10
3.29213
20
-7.08972
11
3.28651
21
-7.09535
0
LINE
8
BLACK
6
CONTINUOUS
10
3.28651
20
-7.09535
11
3.27526
21
-7.11222
0
LINE
8
BLACK
6
CONTINUOUS
10
3.27526
20
-7.11222
11
3.26963
21
-7.13472
0
LINE
8
BLACK
6
CONTINUOUS
10
3.26963
20
-7.13472
11
3.26963
21
-7.17971
0
LINE
8
BLACK
6
CONTINUOUS
10
3.26963
20
-7.17971
11
3.27526
21
-7.19096
0
LINE
8
BLACK
6
CONTINUOUS
10
3.27526
20
-7.19096
11
3.28088
21
-7.19659
0
LINE
8
BLACK
6
CONTINUOUS
10
3.28088
20
-7.19659
11
3.29213
21
-7.20221
0
LINE
8
BLACK
6
CONTINUOUS
10
3.29213
20
-7.20221
11
3.31463
21
-7.20221
0
LINE
8
BLACK
6
CONTINUOUS
10
3.31463
20
-7.20221
11
3.32588
21
-7.19659
0
LINE
8
BLACK
6
CONTINUOUS
10
3.32588
20
-7.19659
11
3.3315
21
-7.19096
0
LINE
8
BLACK
6
CONTINUOUS
10
3.3315
20
-7.19096
11
3.33713
21
-7.17971
0
LINE
8
BLACK
6
CONTINUOUS
10
3.33713
20
-7.17971
11
3.33713
21
-7.15159
0
LINE
8
BLACK
6
CONTINUOUS
10
3.33713
20
-7.15159
11
3.3315
21
-7.14034
0
LINE
8
BLACK
6
CONTINUOUS
10
3.3315
20
-7.14034
11
3.32588
21
-7.13472
0
LINE
8
BLACK
6
CONTINUOUS
10
3.32588
20
-7.13472
11
3.31463
21
-7.12909
0
LINE
8
BLACK
6
CONTINUOUS
10
3.31463
20
-7.12909
11
3.29213
21
-7.12909
0
LINE
8
BLACK
6
CONTINUOUS
10
3.29213
20
-7.12909
11
3.28088
21
-7.13472
0
LINE
8
BLACK
6
CONTINUOUS
10
3.28088
20
-7.13472
11
3.27526
21
-7.14034
0
LINE
8
BLACK
6
CONTINUOUS
10
3.27526
20
-7.14034
11
3.26963
21
-7.15159
0
LINE
8
BLACK
6
CONTINUOUS
10
3.38212
20
-7.0841
11
3.38212
21
-7.1066
0
LINE
8
BLACK
6
CONTINUOUS
10
3.42711
20
-7.0841
11
3.42711
21
-7.1066
0
LINE
8
BLACK
6
CONTINUOUS
10
3.60147
20
-7.2472
11
3.59584
21
-7.24158
0
LINE
8
BLACK
6
CONTINUOUS
10
3.59584
20
-7.24158
11
3.58459
21
-7.22471
0
LINE
8
BLACK
6
CONTINUOUS
10
3.58459
20
-7.22471
11
3.57897
21
-7.21346
0
LINE
8
BLACK
6
CONTINUOUS
10
3.57897
20
-7.21346
11
3.57335
21
-7.19659
0
LINE
8
BLACK
6
CONTINUOUS
10
3.57335
20
-7.19659
11
3.56772
21
-7.16846
0
LINE
8
BLACK
6
CONTINUOUS
10
3.56772
20
-7.16846
11
3.56772
21
-7.14597
0
LINE
8
BLACK
6
CONTINUOUS
10
3.56772
20
-7.14597
11
3.57335
21
-7.11785
0
LINE
8
BLACK
6
CONTINUOUS
10
3.57335
20
-7.11785
11
3.57897
21
-7.10097
0
LINE
8
BLACK
6
CONTINUOUS
10
3.57897
20
-7.10097
11
3.58459
21
-7.08972
0
LINE
8
BLACK
6
CONTINUOUS
10
3.58459
20
-7.08972
11
3.59584
21
-7.07285
0
LINE
8
BLACK
6
CONTINUOUS
10
3.59584
20
-7.07285
11
3.60147
21
-7.06723
0
LINE
8
BLACK
6
CONTINUOUS
10
3.64084
20
-7.09535
11
3.64646
21
-7.08972
0
LINE
8
BLACK
6
CONTINUOUS
10
3.64646
20
-7.08972
11
3.65771
21
-7.0841
0
LINE
8
BLACK
6
CONTINUOUS
10
3.65771
20
-7.0841
11
3.68583
21
-7.0841
0
LINE
8
BLACK
6
CONTINUOUS
10
3.68583
20
-7.0841
11
3.69708
21
-7.08972
0
LINE
8
BLACK
6
CONTINUOUS
10
3.69708
20
-7.08972
11
3.70271
21
-7.09535
0
LINE
8
BLACK
6
CONTINUOUS
10
3.70271
20
-7.09535
11
3.70833
21
-7.1066
0
LINE
8
BLACK
6
CONTINUOUS
10
3.70833
20
-7.1066
11
3.70833
21
-7.11785
0
LINE
8
BLACK
6
CONTINUOUS
10
3.70833
20
-7.11785
11
3.70271
21
-7.13472
0
LINE
8
BLACK
6
CONTINUOUS
10
3.70271
20
-7.13472
11
3.63521
21
-7.20221
0
LINE
8
BLACK
6
CONTINUOUS
10
3.63521
20
-7.20221
11
3.70833
21
-7.20221
0
LINE
8
BLACK
6
CONTINUOUS
10
3.84894
20
-7.20221
11
3.84894
21
-7.0841
0
LINE
8
BLACK
6
CONTINUOUS
10
3.89956
20
-7.20221
11
3.89956
21
-7.14034
0
LINE
8
BLACK
6
CONTINUOUS
10
3.89956
20
-7.14034
11
3.89393
21
-7.12909
0
LINE
8
BLACK
6
CONTINUOUS
10
3.89393
20
-7.12909
11
3.88268
21
-7.12347
0
LINE
8
BLACK
6
CONTINUOUS
10
3.88268
20
-7.12347
11
3.86581
21
-7.12347
0
LINE
8
BLACK
6
CONTINUOUS
10
3.86581
20
-7.12347
11
3.85456
21
-7.12909
0
LINE
8
BLACK
6
CONTINUOUS
10
3.85456
20
-7.12909
11
3.84894
21
-7.13472
0
LINE
8
BLACK
6
CONTINUOUS
10
3.97267
20
-7.20221
11
3.96142
21
-7.19659
0
LINE
8
BLACK
6
CONTINUOUS
10
3.96142
20
-7.19659
11
3.9558
21
-7.19096
0
LINE
8
BLACK
6
CONTINUOUS
10
3.9558
20
-7.19096
11
3.95017
21
-7.17971
0
LINE
8
BLACK
6
CONTINUOUS
10
3.95017
20
-7.17971
11
3.95017
21
-7.14597
0
LINE
8
BLACK
6
CONTINUOUS
10
3.95017
20
-7.14597
11
3.9558
21
-7.13472
0
LINE
8
BLACK
6
CONTINUOUS
10
3.9558
20
-7.13472
11
3.96142
21
-7.12909
0
LINE
8
BLACK
6
CONTINUOUS
10
3.96142
20
-7.12909
11
3.97267
21
-7.12347
0
LINE
8
BLACK
6
CONTINUOUS
10
3.97267
20
-7.12347
11
3.98954
21
-7.12347
0
LINE
8
BLACK
6
CONTINUOUS
10
3.98954
20
-7.12347
11
4.00079
21
-7.12909
0
LINE
8
BLACK
6
CONTINUOUS
10
4.00079
20
-7.12909
11
4.00642
21
-7.13472
0
LINE
8
BLACK
6
CONTINUOUS
10
4.00642
20
-7.13472
11
4.01204
21
-7.14597
0
LINE
8
BLACK
6
CONTINUOUS
10
4.01204
20
-7.14597
11
4.01204
21
-7.17971
0
LINE
8
BLACK
6
CONTINUOUS
10
4.01204
20
-7.17971
11
4.00642
21
-7.19096
0
LINE
8
BLACK
6
CONTINUOUS
10
4.00642
20
-7.19096
11
4.00079
21
-7.19659
0
LINE
8
BLACK
6
CONTINUOUS
10
4.00079
20
-7.19659
11
3.98954
21
-7.20221
0
LINE
8
BLACK
6
CONTINUOUS
10
3.98954
20
-7.20221
11
3.97267
21
-7.20221
0
LINE
8
BLACK
6
CONTINUOUS
10
4.07953
20
-7.20221
11
4.06828
21
-7.19659
0
LINE
8
BLACK
6
CONTINUOUS
10
4.06828
20
-7.19659
11
4.06266
21
-7.18534
0
LINE
8
BLACK
6
CONTINUOUS
10
4.06266
20
-7.18534
11
4.06266
21
-7.0841
0
LINE
8
BLACK
6
CONTINUOUS
10
4.16952
20
-7.19659
11
4.15827
21
-7.20221
0
LINE
8
BLACK
6
CONTINUOUS
10
4.15827
20
-7.20221
11
4.13578
21
-7.20221
0
LINE
8
BLACK
6
CONTINUOUS
10
4.13578
20
-7.20221
11
4.12453
21
-7.19659
0
LINE
8
BLACK
6
CONTINUOUS
10
4.12453
20
-7.19659
11
4.1189
21
-7.18534
0
LINE
8
BLACK
6
CONTINUOUS
10
4.1189
20
-7.18534
11
4.1189
21
-7.14034
0
LINE
8
BLACK
6
CONTINUOUS
10
4.1189
20
-7.14034
11
4.12453
21
-7.12909
0
LINE
8
BLACK
6
CONTINUOUS
10
4.12453
20
-7.12909
11
4.13578
21
-7.12347
0
LINE
8
BLACK
6
CONTINUOUS
10
4.13578
20
-7.12347
11
4.15827
21
-7.12347
0
LINE
8
BLACK
6
CONTINUOUS
10
4.15827
20
-7.12347
11
4.16952
21
-7.12909
0
LINE
8
BLACK
6
CONTINUOUS
10
4.16952
20
-7.12909
11
4.17515
21
-7.14034
0
LINE
8
BLACK
6
CONTINUOUS
10
4.17515
20
-7.14034
11
4.17515
21
-7.15159
0
LINE
8
BLACK
6
CONTINUOUS
10
4.17515
20
-7.15159
11
4.1189
21
-7.16284
0
LINE
8
BLACK
6
CONTINUOUS
10
4.22014
20
-7.19659
11
4.23139
21
-7.20221
0
LINE
8
BLACK
6
CONTINUOUS
10
4.23139
20
-7.20221
11
4.25389
21
-7.20221
0
LINE
8
BLACK
6
CONTINUOUS
10
4.25389
20
-7.20221
11
4.26513
21
-7.19659
0
LINE
8
BLACK
6
CONTINUOUS
10
4.26513
20
-7.19659
11
4.27076
21
-7.18534
0
LINE
8
BLACK
6
CONTINUOUS
10
4.27076
20
-7.18534
11
4.27076
21
-7.17971
0
LINE
8
BLACK
6
CONTINUOUS
10
4.27076
20
-7.17971
11
4.26513
21
-7.16846
0
LINE
8
BLACK
6
CONTINUOUS
10
4.26513
20
-7.16846
11
4.25389
21
-7.16284
0
LINE
8
BLACK
6
CONTINUOUS
10
4.25389
20
-7.16284
11
4.23701
21
-7.16284
0
LINE
8
BLACK
6
CONTINUOUS
10
4.23701
20
-7.16284
11
4.22576
21
-7.15722
0
LINE
8
BLACK
6
CONTINUOUS
10
4.22576
20
-7.15722
11
4.22014
21
-7.14597
0
LINE
8
BLACK
6
CONTINUOUS
10
4.22014
20
-7.14597
11
4.22014
21
-7.14034
0
LINE
8
BLACK
6
CONTINUOUS
10
4.22014
20
-7.14034
11
4.22576
21
-7.12909
0
LINE
8
BLACK
6
CONTINUOUS
10
4.22576
20
-7.12909
11
4.23701
21
-7.12347
0
LINE
8
BLACK
6
CONTINUOUS
10
4.23701
20
-7.12347
11
4.25389
21
-7.12347
0
LINE
8
BLACK
6
CONTINUOUS
10
4.25389
20
-7.12347
11
4.26513
21
-7.12909
0
LINE
8
BLACK
6
CONTINUOUS
10
4.31013
20
-7.2472
11
4.31575
21
-7.24158
0
LINE
8
BLACK
6
CONTINUOUS
10
4.31575
20
-7.24158
11
4.327
21
-7.22471
0
LINE
8
BLACK
6
CONTINUOUS
10
4.327
20
-7.22471
11
4.33263
21
-7.21346
0
LINE
8
BLACK
6
CONTINUOUS
10
4.33263
20
-7.21346
11
4.33825
21
-7.19659
0
LINE
8
BLACK
6
CONTINUOUS
10
4.33825
20
-7.19659
11
4.34388
21
-7.16846
0
LINE
8
BLACK
6
CONTINUOUS
10
4.34388
20
-7.16846
11
4.34388
21
-7.14597
0
LINE
8
BLACK
6
CONTINUOUS
10
4.34388
20
-7.14597
11
4.33825
21
-7.11785
0
LINE
8
BLACK
6
CONTINUOUS
10
4.33825
20
-7.11785
11
4.33263
21
-7.10097
0
LINE
8
BLACK
6
CONTINUOUS
10
4.33263
20
-7.10097
11
4.327
21
-7.08972
0
LINE
8
BLACK
6
CONTINUOUS
10
4.327
20
-7.08972
11
4.31575
21
-7.07285
0
LINE
8
BLACK
6
CONTINUOUS
10
4.31575
20
-7.07285
11
4.31013
21
-7.06723
  0
ENDSEC
  0
EOF
