M48
; DRILL file {KiCad (5.1.5-0-10_14)} date 2021 December 27, Monday 15:14:25
; FORMAT={-:-/ absolute / inch / decimal}
; #@! TF.CreationDate,2021-12-27T15:14:25+01:00
; #@! TF.GenerationSoftware,Kicad,Pcbnew,(5.1.5-0-10_14)
; #@! TF.FileFunction,Plated,1,4,PTH
FMAT,2
INCH
T1C0.0157
T2C0.0394
T3C0.0472
T4C0.0787
T5C0.0827
%
G90
G05
T1
X1.975Y-2.095
X2.015Y-3.235
X2.015Y-3.435
X2.035Y-2.495
X2.035Y-3.535
X2.095Y-2.815
X2.115Y-3.635
X2.1154Y-2.175
X2.135Y-3.015
X2.2905Y-2.8705
X2.375Y-3.155
X2.395Y-3.255
X2.4437Y-2.86
X2.475Y-2.615
X2.495Y-2.955
X2.515Y-2.875
X2.5255Y-3.1055
X2.815Y-2.715
X2.855Y-2.355
X2.895Y-2.915
X2.915Y-3.095
X2.995Y-3.075
X3.015Y-2.355
X3.075Y-2.875
X3.135Y-3.635
X3.155Y-2.675
X3.2063Y-2.8502
X3.215Y-2.955
X3.315Y-2.935
X3.375Y-2.435
X3.375Y-3.505
X3.4985Y-2.6515
X3.565Y-3.365
X3.575Y-2.675
X3.635Y-3.095
X3.743Y-2.097
X3.7687Y-2.8002
X3.811Y-3.05
X3.855Y-2.795
X3.975Y-2.795
X3.9813Y-2.9002
X4.055Y-2.195
X4.1197Y-2.8303
X4.135Y-3.175
X4.1456Y-2.935
X4.215Y-3.595
X4.375Y-2.455
X4.395Y-2.755
X4.395Y-2.815
X4.425Y-3.355
X4.455Y-2.275
X4.5654Y-3.025
X4.575Y-2.835
X4.615Y-2.435
X4.7356Y-3.02
X4.815Y-2.855
X4.875Y-3.0251
X4.895Y-2.295
X4.975Y-2.675
X5.0537Y-2.9724
X5.075Y-3.015
X5.0943Y-2.6793
X5.175Y-2.935
X5.195Y-2.835
X5.215Y-3.135
X5.225Y-2.555
X5.275Y-2.905
X5.315Y-2.675
X5.325Y-3.105
X5.375Y-2.815
X5.415Y-2.155
X5.415Y-2.895
X5.425Y-3.705
X5.435Y-2.575
T2
X4.0031Y-2.0
X4.1016Y-2.0
X4.2Y-2.0
X4.9016Y-2.0
X5.0Y-2.0
X5.0984Y-2.0
T3
X3.7Y-3.6
X3.8Y-3.5921
X3.9Y-3.6
X2.315Y-3.5829
X2.415Y-3.575
X2.515Y-3.5829
X2.615Y-3.575
T4
X2.7Y-2.3
X2.1Y-2.3
X5.395Y-2.3
X3.72Y-2.3
T5
X3.9146Y-2.1614
X4.2886Y-2.1614
X4.813Y-2.1614
X5.187Y-2.1614
T0
M30
