G04 #@! TF.GenerationSoftware,KiCad,Pcbnew,(5.1.5-0-10_14)*
G04 #@! TF.CreationDate,2021-12-27T15:14:27+01:00*
G04 #@! TF.ProjectId,sk108-scabi-log,736b3130-382d-4736-9361-62692d6c6f67,rev?*
G04 #@! TF.SameCoordinates,Original*
G04 #@! TF.FileFunction,Copper,L3,Inr*
G04 #@! TF.FilePolarity,Positive*
%FSLAX46Y46*%
G04 Gerber Fmt 4.6, Leading zero omitted, Abs format (unit mm)*
G04 Created by KiCad (PCBNEW (5.1.5-0-10_14)) date 2021-12-27 15:14:27*
%MOMM*%
%LPD*%
G04 APERTURE LIST*
%ADD10C,3.200000*%
%ADD11C,4.200000*%
%ADD12C,1.800000*%
%ADD13O,1.740000X2.200000*%
%ADD14C,0.100000*%
%ADD15C,0.800000*%
%ADD16C,0.350000*%
%ADD17C,0.406400*%
%ADD18C,0.254000*%
G04 APERTURE END LIST*
D10*
X94488000Y-58420000D03*
X68580000Y-58420000D03*
X53340000Y-58420000D03*
X137033000Y-58420000D03*
D11*
X108930000Y-54900000D03*
X99430000Y-54900000D03*
D12*
X106680000Y-50800000D03*
X104180000Y-50800000D03*
X101680000Y-50800000D03*
D11*
X131750000Y-54900000D03*
X122250000Y-54900000D03*
D12*
X129500000Y-50800000D03*
X127000000Y-50800000D03*
X124500000Y-50800000D03*
D13*
X99060000Y-91440000D03*
X96520000Y-91240000D03*
G04 #@! TA.AperFunction,ViaPad*
D14*
G36*
X94624505Y-90341204D02*
G01*
X94648773Y-90344804D01*
X94672572Y-90350765D01*
X94695671Y-90359030D01*
X94717850Y-90369520D01*
X94738893Y-90382132D01*
X94758599Y-90396747D01*
X94776777Y-90413223D01*
X94793253Y-90431401D01*
X94807868Y-90451107D01*
X94820480Y-90472150D01*
X94830970Y-90494329D01*
X94839235Y-90517428D01*
X94845196Y-90541227D01*
X94848796Y-90565495D01*
X94850000Y-90589999D01*
X94850000Y-92290001D01*
X94848796Y-92314505D01*
X94845196Y-92338773D01*
X94839235Y-92362572D01*
X94830970Y-92385671D01*
X94820480Y-92407850D01*
X94807868Y-92428893D01*
X94793253Y-92448599D01*
X94776777Y-92466777D01*
X94758599Y-92483253D01*
X94738893Y-92497868D01*
X94717850Y-92510480D01*
X94695671Y-92520970D01*
X94672572Y-92529235D01*
X94648773Y-92535196D01*
X94624505Y-92538796D01*
X94600001Y-92540000D01*
X93359999Y-92540000D01*
X93335495Y-92538796D01*
X93311227Y-92535196D01*
X93287428Y-92529235D01*
X93264329Y-92520970D01*
X93242150Y-92510480D01*
X93221107Y-92497868D01*
X93201401Y-92483253D01*
X93183223Y-92466777D01*
X93166747Y-92448599D01*
X93152132Y-92428893D01*
X93139520Y-92407850D01*
X93129030Y-92385671D01*
X93120765Y-92362572D01*
X93114804Y-92338773D01*
X93111204Y-92314505D01*
X93110000Y-92290001D01*
X93110000Y-90589999D01*
X93111204Y-90565495D01*
X93114804Y-90541227D01*
X93120765Y-90517428D01*
X93129030Y-90494329D01*
X93139520Y-90472150D01*
X93152132Y-90451107D01*
X93166747Y-90431401D01*
X93183223Y-90413223D01*
X93201401Y-90396747D01*
X93221107Y-90382132D01*
X93242150Y-90369520D01*
X93264329Y-90359030D01*
X93287428Y-90350765D01*
X93311227Y-90344804D01*
X93335495Y-90341204D01*
X93359999Y-90340000D01*
X94600001Y-90340000D01*
X94624505Y-90341204D01*
G37*
G04 #@! TD.AperFunction*
G04 #@! TA.AperFunction,ViaPad*
G36*
X59445505Y-89906204D02*
G01*
X59469773Y-89909804D01*
X59493572Y-89915765D01*
X59516671Y-89924030D01*
X59538850Y-89934520D01*
X59559893Y-89947132D01*
X59579599Y-89961747D01*
X59597777Y-89978223D01*
X59614253Y-89996401D01*
X59628868Y-90016107D01*
X59641480Y-90037150D01*
X59651970Y-90059329D01*
X59660235Y-90082428D01*
X59666196Y-90106227D01*
X59669796Y-90130495D01*
X59671000Y-90154999D01*
X59671000Y-91855001D01*
X59669796Y-91879505D01*
X59666196Y-91903773D01*
X59660235Y-91927572D01*
X59651970Y-91950671D01*
X59641480Y-91972850D01*
X59628868Y-91993893D01*
X59614253Y-92013599D01*
X59597777Y-92031777D01*
X59579599Y-92048253D01*
X59559893Y-92062868D01*
X59538850Y-92075480D01*
X59516671Y-92085970D01*
X59493572Y-92094235D01*
X59469773Y-92100196D01*
X59445505Y-92103796D01*
X59421001Y-92105000D01*
X58180999Y-92105000D01*
X58156495Y-92103796D01*
X58132227Y-92100196D01*
X58108428Y-92094235D01*
X58085329Y-92085970D01*
X58063150Y-92075480D01*
X58042107Y-92062868D01*
X58022401Y-92048253D01*
X58004223Y-92031777D01*
X57987747Y-92013599D01*
X57973132Y-91993893D01*
X57960520Y-91972850D01*
X57950030Y-91950671D01*
X57941765Y-91927572D01*
X57935804Y-91903773D01*
X57932204Y-91879505D01*
X57931000Y-91855001D01*
X57931000Y-90154999D01*
X57932204Y-90130495D01*
X57935804Y-90106227D01*
X57941765Y-90082428D01*
X57950030Y-90059329D01*
X57960520Y-90037150D01*
X57973132Y-90016107D01*
X57987747Y-89996401D01*
X58004223Y-89978223D01*
X58022401Y-89961747D01*
X58042107Y-89947132D01*
X58063150Y-89934520D01*
X58085329Y-89924030D01*
X58108428Y-89915765D01*
X58132227Y-89909804D01*
X58156495Y-89906204D01*
X58180999Y-89905000D01*
X59421001Y-89905000D01*
X59445505Y-89906204D01*
G37*
G04 #@! TD.AperFunction*
D13*
X61341000Y-90805000D03*
X63881000Y-91005000D03*
X66421000Y-90805000D03*
D15*
X116205000Y-72009000D03*
X137541000Y-54737000D03*
X124333000Y-58293000D03*
X128905000Y-76581000D03*
X104639613Y-71890387D03*
X97917000Y-70993000D03*
X92329000Y-78613000D03*
X90805000Y-67945000D03*
X102997000Y-55753000D03*
X85725000Y-61849000D03*
X80137000Y-67945000D03*
X78105000Y-73025000D03*
X79629000Y-92329000D03*
X74041000Y-78613000D03*
X53721000Y-92329000D03*
X58178887Y-72910887D03*
X54229000Y-76581000D03*
X51689000Y-63373000D03*
X122301000Y-72517000D03*
X112395000Y-85217000D03*
X90551000Y-85471000D03*
X137795000Y-94107000D03*
X85725000Y-89027000D03*
X111125000Y-62357000D03*
X132715000Y-64897000D03*
X133985000Y-73787000D03*
X135255000Y-78867000D03*
X64147520Y-78879520D03*
X95072200Y-53263800D03*
X138049000Y-65405000D03*
X117221000Y-61849000D03*
X126365000Y-67945000D03*
X131445000Y-74549000D03*
X123825000Y-76837552D03*
X107061000Y-91313000D03*
X50165000Y-53213000D03*
X76073000Y-78105000D03*
X96800000Y-77470000D03*
X131953000Y-72009000D03*
X132461000Y-79629000D03*
X120283000Y-76708000D03*
X53730000Y-55245000D03*
X88862930Y-67347070D03*
X135001000Y-67945000D03*
X129395000Y-68052990D03*
X113157000Y-57785000D03*
X137541000Y-73533000D03*
X128364314Y-75498323D03*
X136525000Y-71501000D03*
X95725000Y-71125000D03*
X111633000Y-71501000D03*
X105029000Y-80645000D03*
X100965000Y-70993000D03*
X105297390Y-74549000D03*
X111633000Y-69977000D03*
X115960000Y-76835000D03*
X62865000Y-66421000D03*
X76581000Y-59817000D03*
X51689000Y-89789000D03*
X71501000Y-68961000D03*
X60325000Y-80137000D03*
X84201000Y-74549000D03*
X60833000Y-82677000D03*
X62070000Y-72645000D03*
X81661000Y-75057000D03*
X101125000Y-73665000D03*
X72517000Y-59817000D03*
X63373000Y-75057000D03*
X73533000Y-74041000D03*
X81440000Y-72395000D03*
X51181000Y-82169000D03*
X63881000Y-73025000D03*
X51181000Y-87249000D03*
X53213000Y-71501000D03*
D16*
X57602000Y-50673000D02*
X72188860Y-50673000D01*
X53730000Y-54545000D02*
X57602000Y-50673000D01*
X53730000Y-55245000D02*
X53730000Y-54545000D01*
X72188860Y-50673000D02*
X88462931Y-66947071D01*
X88462931Y-66947071D02*
X88862930Y-67347070D01*
D17*
X130163390Y-67284600D02*
X129395000Y-68052990D01*
X134340600Y-67284600D02*
X130163390Y-67284600D01*
X135001000Y-67945000D02*
X134340600Y-67284600D01*
D16*
X112141000Y-58801000D02*
X94615000Y-58801000D01*
X94615000Y-58801000D02*
X93980000Y-58166000D01*
X113157000Y-57785000D02*
X112141000Y-58801000D01*
D17*
X135575677Y-75498323D02*
X128364314Y-75498323D01*
X137541000Y-73533000D02*
X135575677Y-75498323D01*
X97889000Y-68961000D02*
X95725000Y-71125000D01*
X136525000Y-71501000D02*
X135051800Y-71501000D01*
D16*
X97889000Y-68961000D02*
X97889000Y-68938200D01*
X97889000Y-68938200D02*
X99949000Y-66878200D01*
X99949000Y-66878200D02*
X121539000Y-66878200D01*
X121539000Y-66878200D02*
X124790200Y-70129400D01*
X124790200Y-70129400D02*
X133527800Y-70129400D01*
D17*
X135051800Y-71501000D02*
X133527800Y-70129400D01*
D18*
X105029000Y-78105000D02*
X105029000Y-80645000D01*
X111633000Y-71501000D02*
X105029000Y-78105000D01*
D16*
X104897391Y-74149001D02*
X105297390Y-74549000D01*
X100965000Y-70993000D02*
X101741390Y-70993000D01*
X101741390Y-70993000D02*
X104897391Y-74149001D01*
D18*
X115960000Y-74304000D02*
X115960000Y-76835000D01*
X111633000Y-69977000D02*
X115960000Y-74304000D01*
D16*
X61645800Y-80137000D02*
X60325000Y-80137000D01*
X71501000Y-70281800D02*
X61645800Y-80137000D01*
X71501000Y-68961000D02*
X71501000Y-70281800D01*
X76073000Y-82677000D02*
X60833000Y-82677000D01*
X84201000Y-74549000D02*
X76073000Y-82677000D01*
X57683400Y-85697400D02*
X57683400Y-79273400D01*
X62070000Y-74886800D02*
X62070000Y-72645000D01*
X61341000Y-89355000D02*
X57683400Y-85697400D01*
X57683400Y-79273400D02*
X62070000Y-74886800D01*
X61341000Y-90805000D02*
X61341000Y-89355000D01*
X83053000Y-73665000D02*
X101125000Y-73665000D01*
X81661000Y-75057000D02*
X83053000Y-73665000D01*
X72517000Y-59817000D02*
X68961000Y-63373000D01*
X68961000Y-69469000D02*
X63373000Y-75057000D01*
X68961000Y-63373000D02*
X68961000Y-69469000D01*
X79794000Y-74041000D02*
X81440000Y-72395000D01*
X73533000Y-74041000D02*
X79794000Y-74041000D01*
X63881000Y-72537398D02*
X63881000Y-73025000D01*
X63108801Y-71765199D02*
X63881000Y-72537398D01*
X51181000Y-82169000D02*
X52298600Y-82169000D01*
X56870600Y-75463400D02*
X60568801Y-71765199D01*
X60568801Y-71765199D02*
X63108801Y-71765199D01*
X56870600Y-77597000D02*
X56870600Y-75463400D01*
X52298600Y-82169000D02*
X56870600Y-77597000D01*
X50301199Y-74412801D02*
X53213000Y-71501000D01*
X50301199Y-86369199D02*
X50301199Y-74412801D01*
X51181000Y-87249000D02*
X50301199Y-86369199D01*
D18*
G36*
X139040000Y-57424992D02*
G01*
X139013631Y-57361331D01*
X138769038Y-56995271D01*
X138457729Y-56683962D01*
X138091669Y-56439369D01*
X137684925Y-56270890D01*
X137253128Y-56185000D01*
X136812872Y-56185000D01*
X136381075Y-56270890D01*
X135974331Y-56439369D01*
X135608271Y-56683962D01*
X135296962Y-56995271D01*
X135052369Y-57361331D01*
X134883890Y-57768075D01*
X134798000Y-58199872D01*
X134798000Y-58640128D01*
X134883890Y-59071925D01*
X135052369Y-59478669D01*
X135296962Y-59844729D01*
X135608271Y-60156038D01*
X135974331Y-60400631D01*
X136381075Y-60569110D01*
X136812872Y-60655000D01*
X137253128Y-60655000D01*
X137684925Y-60569110D01*
X138091669Y-60400631D01*
X138457729Y-60156038D01*
X138769038Y-59844729D01*
X139013631Y-59478669D01*
X139040000Y-59415008D01*
X139040000Y-65092901D01*
X138966205Y-64914744D01*
X138852937Y-64745226D01*
X138708774Y-64601063D01*
X138539256Y-64487795D01*
X138350898Y-64409774D01*
X138150939Y-64370000D01*
X137947061Y-64370000D01*
X137747102Y-64409774D01*
X137558744Y-64487795D01*
X137389226Y-64601063D01*
X137245063Y-64745226D01*
X137131795Y-64914744D01*
X137053774Y-65103102D01*
X137014000Y-65303061D01*
X137014000Y-65506939D01*
X137053774Y-65706898D01*
X137131795Y-65895256D01*
X137245063Y-66064774D01*
X137389226Y-66208937D01*
X137558744Y-66322205D01*
X137747102Y-66400226D01*
X137947061Y-66440000D01*
X138150939Y-66440000D01*
X138350898Y-66400226D01*
X138539256Y-66322205D01*
X138708774Y-66208937D01*
X138852937Y-66064774D01*
X138966205Y-65895256D01*
X139040000Y-65717099D01*
X139040001Y-83787581D01*
X139040000Y-95860000D01*
X48920000Y-95860000D01*
X48920000Y-89687061D01*
X50654000Y-89687061D01*
X50654000Y-89890939D01*
X50693774Y-90090898D01*
X50771795Y-90279256D01*
X50885063Y-90448774D01*
X51029226Y-90592937D01*
X51198744Y-90706205D01*
X51387102Y-90784226D01*
X51587061Y-90824000D01*
X51790939Y-90824000D01*
X51990898Y-90784226D01*
X52179256Y-90706205D01*
X52348774Y-90592937D01*
X52492937Y-90448774D01*
X52606205Y-90279256D01*
X52684226Y-90090898D01*
X52724000Y-89890939D01*
X52724000Y-89687061D01*
X52684226Y-89487102D01*
X52606205Y-89298744D01*
X52492937Y-89129226D01*
X52348774Y-88985063D01*
X52179256Y-88871795D01*
X51990898Y-88793774D01*
X51790939Y-88754000D01*
X51587061Y-88754000D01*
X51387102Y-88793774D01*
X51198744Y-88871795D01*
X51029226Y-88985063D01*
X50885063Y-89129226D01*
X50771795Y-89298744D01*
X50693774Y-89487102D01*
X50654000Y-89687061D01*
X48920000Y-89687061D01*
X48920000Y-74412801D01*
X49487280Y-74412801D01*
X49491200Y-74452599D01*
X49491199Y-86329411D01*
X49487280Y-86369199D01*
X49491199Y-86408987D01*
X49491199Y-86408989D01*
X49502919Y-86527986D01*
X49549236Y-86680671D01*
X49549237Y-86680672D01*
X49624450Y-86821388D01*
X49655902Y-86859712D01*
X49725671Y-86944727D01*
X49756586Y-86970098D01*
X50148129Y-87361641D01*
X50185774Y-87550898D01*
X50263795Y-87739256D01*
X50377063Y-87908774D01*
X50521226Y-88052937D01*
X50690744Y-88166205D01*
X50879102Y-88244226D01*
X51079061Y-88284000D01*
X51282939Y-88284000D01*
X51482898Y-88244226D01*
X51671256Y-88166205D01*
X51840774Y-88052937D01*
X51984937Y-87908774D01*
X52098205Y-87739256D01*
X52176226Y-87550898D01*
X52216000Y-87350939D01*
X52216000Y-87147061D01*
X52176226Y-86947102D01*
X52098205Y-86758744D01*
X51984937Y-86589226D01*
X51840774Y-86445063D01*
X51671256Y-86331795D01*
X51482898Y-86253774D01*
X51293641Y-86216129D01*
X51111199Y-86033687D01*
X51111199Y-83204000D01*
X51282939Y-83204000D01*
X51482898Y-83164226D01*
X51671256Y-83086205D01*
X51831700Y-82979000D01*
X52258812Y-82979000D01*
X52298600Y-82982919D01*
X52338388Y-82979000D01*
X52338391Y-82979000D01*
X52457388Y-82967280D01*
X52610073Y-82920963D01*
X52750789Y-82845749D01*
X52874128Y-82744528D01*
X52899500Y-82713612D01*
X57415219Y-78197894D01*
X57446128Y-78172528D01*
X57547349Y-78049189D01*
X57622563Y-77908473D01*
X57668880Y-77755788D01*
X57680600Y-77636791D01*
X57680600Y-77636789D01*
X57684519Y-77597001D01*
X57680600Y-77557213D01*
X57680600Y-75798912D01*
X60904314Y-72575199D01*
X61035000Y-72575199D01*
X61035000Y-72746939D01*
X61074774Y-72946898D01*
X61152795Y-73135256D01*
X61260001Y-73295701D01*
X61260000Y-74551287D01*
X57138783Y-78672505D01*
X57107873Y-78697872D01*
X57082508Y-78728780D01*
X57006651Y-78821211D01*
X56931438Y-78961927D01*
X56885121Y-79114613D01*
X56869481Y-79273400D01*
X56873401Y-79313198D01*
X56873400Y-85657612D01*
X56869481Y-85697400D01*
X56873400Y-85737188D01*
X56873400Y-85737190D01*
X56885120Y-85856187D01*
X56931437Y-86008872D01*
X56931438Y-86008873D01*
X57006651Y-86149589D01*
X57038103Y-86187913D01*
X57107872Y-86272928D01*
X57138788Y-86298300D01*
X60312567Y-89472080D01*
X60271655Y-89505655D01*
X60151534Y-89652023D01*
X60048962Y-89527038D01*
X59914387Y-89416595D01*
X59760851Y-89334528D01*
X59594255Y-89283992D01*
X59421001Y-89266928D01*
X58180999Y-89266928D01*
X58007745Y-89283992D01*
X57841149Y-89334528D01*
X57687613Y-89416595D01*
X57553038Y-89527038D01*
X57442595Y-89661613D01*
X57360528Y-89815149D01*
X57309992Y-89981745D01*
X57292928Y-90154999D01*
X57292928Y-91855001D01*
X57309992Y-92028255D01*
X57360528Y-92194851D01*
X57442595Y-92348387D01*
X57553038Y-92482962D01*
X57687613Y-92593405D01*
X57841149Y-92675472D01*
X58007745Y-92726008D01*
X58180999Y-92743072D01*
X59421001Y-92743072D01*
X59594255Y-92726008D01*
X59760851Y-92675472D01*
X59914387Y-92593405D01*
X60048962Y-92482962D01*
X60159405Y-92348387D01*
X60241472Y-92194851D01*
X60269663Y-92101918D01*
X60271655Y-92104345D01*
X60500822Y-92292417D01*
X60762276Y-92432166D01*
X61045969Y-92518224D01*
X61341000Y-92547282D01*
X61636032Y-92518224D01*
X61919725Y-92432166D01*
X62181179Y-92292417D01*
X62410345Y-92104345D01*
X62548919Y-91935492D01*
X62623583Y-92075179D01*
X62811655Y-92304345D01*
X63040822Y-92492417D01*
X63302276Y-92632166D01*
X63585969Y-92718224D01*
X63881000Y-92747282D01*
X64176032Y-92718224D01*
X64459725Y-92632166D01*
X64721179Y-92492417D01*
X64950345Y-92304345D01*
X65138417Y-92075179D01*
X65213081Y-91935492D01*
X65351655Y-92104345D01*
X65580822Y-92292417D01*
X65842276Y-92432166D01*
X66125969Y-92518224D01*
X66421000Y-92547282D01*
X66716032Y-92518224D01*
X66999725Y-92432166D01*
X67261179Y-92292417D01*
X67490345Y-92104345D01*
X67678417Y-91875179D01*
X67818166Y-91613724D01*
X67904224Y-91330031D01*
X67926000Y-91108935D01*
X67926000Y-90589999D01*
X92471928Y-90589999D01*
X92471928Y-92290001D01*
X92488992Y-92463255D01*
X92539528Y-92629851D01*
X92621595Y-92783387D01*
X92732038Y-92917962D01*
X92866613Y-93028405D01*
X93020149Y-93110472D01*
X93186745Y-93161008D01*
X93359999Y-93178072D01*
X94600001Y-93178072D01*
X94773255Y-93161008D01*
X94939851Y-93110472D01*
X95093387Y-93028405D01*
X95227962Y-92917962D01*
X95338405Y-92783387D01*
X95420472Y-92629851D01*
X95450773Y-92529963D01*
X95549506Y-92630536D01*
X95794563Y-92797571D01*
X96067498Y-92913588D01*
X96159969Y-92931302D01*
X96393000Y-92810246D01*
X96393000Y-91367000D01*
X96373000Y-91367000D01*
X96373000Y-91113000D01*
X96393000Y-91113000D01*
X96393000Y-89669754D01*
X96647000Y-89669754D01*
X96647000Y-91113000D01*
X96667000Y-91113000D01*
X96667000Y-91367000D01*
X96647000Y-91367000D01*
X96647000Y-92810246D01*
X96880031Y-92931302D01*
X96972502Y-92913588D01*
X97245437Y-92797571D01*
X97490494Y-92630536D01*
X97698256Y-92418903D01*
X97728837Y-92372208D01*
X97802583Y-92510179D01*
X97990655Y-92739345D01*
X98219822Y-92927417D01*
X98481276Y-93067166D01*
X98764969Y-93153224D01*
X99060000Y-93182282D01*
X99355032Y-93153224D01*
X99638725Y-93067166D01*
X99900179Y-92927417D01*
X100129345Y-92739345D01*
X100317417Y-92510179D01*
X100457166Y-92248724D01*
X100543224Y-91965031D01*
X100565000Y-91743935D01*
X100565000Y-91211061D01*
X106026000Y-91211061D01*
X106026000Y-91414939D01*
X106065774Y-91614898D01*
X106143795Y-91803256D01*
X106257063Y-91972774D01*
X106401226Y-92116937D01*
X106570744Y-92230205D01*
X106759102Y-92308226D01*
X106959061Y-92348000D01*
X107162939Y-92348000D01*
X107362898Y-92308226D01*
X107551256Y-92230205D01*
X107720774Y-92116937D01*
X107864937Y-91972774D01*
X107978205Y-91803256D01*
X108056226Y-91614898D01*
X108096000Y-91414939D01*
X108096000Y-91211061D01*
X108056226Y-91011102D01*
X107978205Y-90822744D01*
X107864937Y-90653226D01*
X107720774Y-90509063D01*
X107551256Y-90395795D01*
X107362898Y-90317774D01*
X107162939Y-90278000D01*
X106959061Y-90278000D01*
X106759102Y-90317774D01*
X106570744Y-90395795D01*
X106401226Y-90509063D01*
X106257063Y-90653226D01*
X106143795Y-90822744D01*
X106065774Y-91011102D01*
X106026000Y-91211061D01*
X100565000Y-91211061D01*
X100565000Y-91136064D01*
X100543224Y-90914968D01*
X100457166Y-90631275D01*
X100317417Y-90369821D01*
X100129345Y-90140655D01*
X99900178Y-89952583D01*
X99638724Y-89812834D01*
X99355031Y-89726776D01*
X99060000Y-89697718D01*
X98764968Y-89726776D01*
X98481275Y-89812834D01*
X98219821Y-89952583D01*
X97990655Y-90140655D01*
X97857010Y-90303503D01*
X97698256Y-90061097D01*
X97490494Y-89849464D01*
X97245437Y-89682429D01*
X96972502Y-89566412D01*
X96880031Y-89548698D01*
X96647000Y-89669754D01*
X96393000Y-89669754D01*
X96159969Y-89548698D01*
X96067498Y-89566412D01*
X95794563Y-89682429D01*
X95549506Y-89849464D01*
X95341744Y-90061097D01*
X95327326Y-90083113D01*
X95227962Y-89962038D01*
X95093387Y-89851595D01*
X94939851Y-89769528D01*
X94773255Y-89718992D01*
X94600001Y-89701928D01*
X93359999Y-89701928D01*
X93186745Y-89718992D01*
X93020149Y-89769528D01*
X92866613Y-89851595D01*
X92732038Y-89962038D01*
X92621595Y-90096613D01*
X92539528Y-90250149D01*
X92488992Y-90416745D01*
X92471928Y-90589999D01*
X67926000Y-90589999D01*
X67926000Y-90501064D01*
X67904224Y-90279968D01*
X67818166Y-89996275D01*
X67678417Y-89734821D01*
X67490345Y-89505655D01*
X67261178Y-89317583D01*
X66999724Y-89177834D01*
X66716031Y-89091776D01*
X66421000Y-89062718D01*
X66125968Y-89091776D01*
X65842275Y-89177834D01*
X65580821Y-89317583D01*
X65351655Y-89505655D01*
X65163583Y-89734822D01*
X65088920Y-89874508D01*
X64950345Y-89705655D01*
X64721178Y-89517583D01*
X64459724Y-89377834D01*
X64176031Y-89291776D01*
X63881000Y-89262718D01*
X63585968Y-89291776D01*
X63302275Y-89377834D01*
X63040821Y-89517583D01*
X62811655Y-89705655D01*
X62673081Y-89874508D01*
X62598417Y-89734821D01*
X62410345Y-89505655D01*
X62181178Y-89317583D01*
X62149570Y-89300688D01*
X62139280Y-89196212D01*
X62092963Y-89043526D01*
X62017749Y-88902811D01*
X61941893Y-88810380D01*
X61916528Y-88779472D01*
X61885618Y-88754105D01*
X58493400Y-85361888D01*
X58493400Y-82575061D01*
X59798000Y-82575061D01*
X59798000Y-82778939D01*
X59837774Y-82978898D01*
X59915795Y-83167256D01*
X60029063Y-83336774D01*
X60173226Y-83480937D01*
X60342744Y-83594205D01*
X60531102Y-83672226D01*
X60731061Y-83712000D01*
X60934939Y-83712000D01*
X61134898Y-83672226D01*
X61323256Y-83594205D01*
X61483700Y-83487000D01*
X76033212Y-83487000D01*
X76073000Y-83490919D01*
X76112788Y-83487000D01*
X76112791Y-83487000D01*
X76231788Y-83475280D01*
X76384473Y-83428963D01*
X76525189Y-83353749D01*
X76648528Y-83252528D01*
X76673900Y-83221612D01*
X79352451Y-80543061D01*
X103994000Y-80543061D01*
X103994000Y-80746939D01*
X104033774Y-80946898D01*
X104111795Y-81135256D01*
X104225063Y-81304774D01*
X104369226Y-81448937D01*
X104538744Y-81562205D01*
X104727102Y-81640226D01*
X104927061Y-81680000D01*
X105130939Y-81680000D01*
X105330898Y-81640226D01*
X105519256Y-81562205D01*
X105688774Y-81448937D01*
X105832937Y-81304774D01*
X105946205Y-81135256D01*
X106024226Y-80946898D01*
X106064000Y-80746939D01*
X106064000Y-80543061D01*
X106024226Y-80343102D01*
X105946205Y-80154744D01*
X105832937Y-79985226D01*
X105791000Y-79943289D01*
X105791000Y-79527061D01*
X131426000Y-79527061D01*
X131426000Y-79730939D01*
X131465774Y-79930898D01*
X131543795Y-80119256D01*
X131657063Y-80288774D01*
X131801226Y-80432937D01*
X131970744Y-80546205D01*
X132159102Y-80624226D01*
X132359061Y-80664000D01*
X132562939Y-80664000D01*
X132762898Y-80624226D01*
X132951256Y-80546205D01*
X133120774Y-80432937D01*
X133264937Y-80288774D01*
X133378205Y-80119256D01*
X133456226Y-79930898D01*
X133496000Y-79730939D01*
X133496000Y-79527061D01*
X133456226Y-79327102D01*
X133378205Y-79138744D01*
X133264937Y-78969226D01*
X133120774Y-78825063D01*
X132951256Y-78711795D01*
X132762898Y-78633774D01*
X132562939Y-78594000D01*
X132359061Y-78594000D01*
X132159102Y-78633774D01*
X131970744Y-78711795D01*
X131801226Y-78825063D01*
X131657063Y-78969226D01*
X131543795Y-79138744D01*
X131465774Y-79327102D01*
X131426000Y-79527061D01*
X105791000Y-79527061D01*
X105791000Y-78420630D01*
X111675631Y-72536000D01*
X111734939Y-72536000D01*
X111934898Y-72496226D01*
X112123256Y-72418205D01*
X112292774Y-72304937D01*
X112436937Y-72160774D01*
X112550205Y-71991256D01*
X112555893Y-71977524D01*
X115198000Y-74619631D01*
X115198001Y-76133288D01*
X115156063Y-76175226D01*
X115042795Y-76344744D01*
X114964774Y-76533102D01*
X114925000Y-76733061D01*
X114925000Y-76936939D01*
X114964774Y-77136898D01*
X115042795Y-77325256D01*
X115156063Y-77494774D01*
X115300226Y-77638937D01*
X115469744Y-77752205D01*
X115658102Y-77830226D01*
X115858061Y-77870000D01*
X116061939Y-77870000D01*
X116261898Y-77830226D01*
X116450256Y-77752205D01*
X116619774Y-77638937D01*
X116763937Y-77494774D01*
X116877205Y-77325256D01*
X116955226Y-77136898D01*
X116995000Y-76936939D01*
X116995000Y-76733061D01*
X116969739Y-76606061D01*
X119248000Y-76606061D01*
X119248000Y-76809939D01*
X119287774Y-77009898D01*
X119365795Y-77198256D01*
X119479063Y-77367774D01*
X119623226Y-77511937D01*
X119792744Y-77625205D01*
X119981102Y-77703226D01*
X120181061Y-77743000D01*
X120384939Y-77743000D01*
X120584898Y-77703226D01*
X120773256Y-77625205D01*
X120942774Y-77511937D01*
X121086937Y-77367774D01*
X121200205Y-77198256D01*
X121278226Y-77009898D01*
X121318000Y-76809939D01*
X121318000Y-76735613D01*
X122790000Y-76735613D01*
X122790000Y-76939491D01*
X122829774Y-77139450D01*
X122907795Y-77327808D01*
X123021063Y-77497326D01*
X123165226Y-77641489D01*
X123334744Y-77754757D01*
X123523102Y-77832778D01*
X123723061Y-77872552D01*
X123926939Y-77872552D01*
X124126898Y-77832778D01*
X124315256Y-77754757D01*
X124484774Y-77641489D01*
X124628937Y-77497326D01*
X124742205Y-77327808D01*
X124820226Y-77139450D01*
X124860000Y-76939491D01*
X124860000Y-76735613D01*
X124820226Y-76535654D01*
X124742205Y-76347296D01*
X124628937Y-76177778D01*
X124484774Y-76033615D01*
X124315256Y-75920347D01*
X124126898Y-75842326D01*
X123926939Y-75802552D01*
X123723061Y-75802552D01*
X123523102Y-75842326D01*
X123334744Y-75920347D01*
X123165226Y-76033615D01*
X123021063Y-76177778D01*
X122907795Y-76347296D01*
X122829774Y-76535654D01*
X122790000Y-76735613D01*
X121318000Y-76735613D01*
X121318000Y-76606061D01*
X121278226Y-76406102D01*
X121200205Y-76217744D01*
X121086937Y-76048226D01*
X120942774Y-75904063D01*
X120773256Y-75790795D01*
X120584898Y-75712774D01*
X120384939Y-75673000D01*
X120181061Y-75673000D01*
X119981102Y-75712774D01*
X119792744Y-75790795D01*
X119623226Y-75904063D01*
X119479063Y-76048226D01*
X119365795Y-76217744D01*
X119287774Y-76406102D01*
X119248000Y-76606061D01*
X116969739Y-76606061D01*
X116955226Y-76533102D01*
X116877205Y-76344744D01*
X116763937Y-76175226D01*
X116722000Y-76133289D01*
X116722000Y-75396384D01*
X127329314Y-75396384D01*
X127329314Y-75600262D01*
X127369088Y-75800221D01*
X127447109Y-75988579D01*
X127560377Y-76158097D01*
X127704540Y-76302260D01*
X127874058Y-76415528D01*
X128062416Y-76493549D01*
X128262375Y-76533323D01*
X128466253Y-76533323D01*
X128666212Y-76493549D01*
X128854570Y-76415528D01*
X128972810Y-76336523D01*
X135534514Y-76336523D01*
X135575677Y-76340577D01*
X135616840Y-76336523D01*
X135616847Y-76336523D01*
X135739993Y-76324394D01*
X135897994Y-76276465D01*
X136043609Y-76198632D01*
X136171241Y-76093887D01*
X136197488Y-76061905D01*
X137703425Y-74555969D01*
X137842898Y-74528226D01*
X138031256Y-74450205D01*
X138200774Y-74336937D01*
X138344937Y-74192774D01*
X138458205Y-74023256D01*
X138536226Y-73834898D01*
X138576000Y-73634939D01*
X138576000Y-73431061D01*
X138536226Y-73231102D01*
X138458205Y-73042744D01*
X138344937Y-72873226D01*
X138200774Y-72729063D01*
X138031256Y-72615795D01*
X137842898Y-72537774D01*
X137642939Y-72498000D01*
X137439061Y-72498000D01*
X137239102Y-72537774D01*
X137050744Y-72615795D01*
X136881226Y-72729063D01*
X136737063Y-72873226D01*
X136623795Y-73042744D01*
X136545774Y-73231102D01*
X136518031Y-73370575D01*
X135228484Y-74660123D01*
X132478173Y-74660123D01*
X132480000Y-74650939D01*
X132480000Y-74447061D01*
X132440226Y-74247102D01*
X132362205Y-74058744D01*
X132248937Y-73889226D01*
X132104774Y-73745063D01*
X131935256Y-73631795D01*
X131746898Y-73553774D01*
X131546939Y-73514000D01*
X131343061Y-73514000D01*
X131143102Y-73553774D01*
X130954744Y-73631795D01*
X130785226Y-73745063D01*
X130641063Y-73889226D01*
X130527795Y-74058744D01*
X130449774Y-74247102D01*
X130410000Y-74447061D01*
X130410000Y-74650939D01*
X130411827Y-74660123D01*
X128972810Y-74660123D01*
X128854570Y-74581118D01*
X128666212Y-74503097D01*
X128466253Y-74463323D01*
X128262375Y-74463323D01*
X128062416Y-74503097D01*
X127874058Y-74581118D01*
X127704540Y-74694386D01*
X127560377Y-74838549D01*
X127447109Y-75008067D01*
X127369088Y-75196425D01*
X127329314Y-75396384D01*
X116722000Y-75396384D01*
X116722000Y-74341422D01*
X116725686Y-74303999D01*
X116720082Y-74247102D01*
X116710974Y-74154622D01*
X116667402Y-74010985D01*
X116596645Y-73878608D01*
X116501422Y-73762578D01*
X116472353Y-73738722D01*
X114640692Y-71907061D01*
X130918000Y-71907061D01*
X130918000Y-72110939D01*
X130957774Y-72310898D01*
X131035795Y-72499256D01*
X131149063Y-72668774D01*
X131293226Y-72812937D01*
X131462744Y-72926205D01*
X131651102Y-73004226D01*
X131851061Y-73044000D01*
X132054939Y-73044000D01*
X132254898Y-73004226D01*
X132443256Y-72926205D01*
X132612774Y-72812937D01*
X132756937Y-72668774D01*
X132870205Y-72499256D01*
X132948226Y-72310898D01*
X132988000Y-72110939D01*
X132988000Y-71907061D01*
X132948226Y-71707102D01*
X132870205Y-71518744D01*
X132756937Y-71349226D01*
X132612774Y-71205063D01*
X132443256Y-71091795D01*
X132254898Y-71013774D01*
X132054939Y-70974000D01*
X131851061Y-70974000D01*
X131651102Y-71013774D01*
X131462744Y-71091795D01*
X131293226Y-71205063D01*
X131149063Y-71349226D01*
X131035795Y-71518744D01*
X130957774Y-71707102D01*
X130918000Y-71907061D01*
X114640692Y-71907061D01*
X112668000Y-69934370D01*
X112668000Y-69875061D01*
X112628226Y-69675102D01*
X112550205Y-69486744D01*
X112436937Y-69317226D01*
X112292774Y-69173063D01*
X112123256Y-69059795D01*
X111934898Y-68981774D01*
X111734939Y-68942000D01*
X111531061Y-68942000D01*
X111331102Y-68981774D01*
X111142744Y-69059795D01*
X110973226Y-69173063D01*
X110829063Y-69317226D01*
X110715795Y-69486744D01*
X110637774Y-69675102D01*
X110598000Y-69875061D01*
X110598000Y-70078939D01*
X110637774Y-70278898D01*
X110715795Y-70467256D01*
X110829063Y-70636774D01*
X110931289Y-70739000D01*
X110829063Y-70841226D01*
X110715795Y-71010744D01*
X110637774Y-71199102D01*
X110598000Y-71399061D01*
X110598000Y-71458369D01*
X104516654Y-77539716D01*
X104487578Y-77563578D01*
X104460149Y-77597001D01*
X104392355Y-77679608D01*
X104379731Y-77703226D01*
X104321598Y-77811986D01*
X104278026Y-77955623D01*
X104273354Y-78003061D01*
X104263314Y-78105000D01*
X104267000Y-78142423D01*
X104267001Y-79943288D01*
X104225063Y-79985226D01*
X104111795Y-80154744D01*
X104033774Y-80343102D01*
X103994000Y-80543061D01*
X79352451Y-80543061D01*
X82527451Y-77368061D01*
X95765000Y-77368061D01*
X95765000Y-77571939D01*
X95804774Y-77771898D01*
X95882795Y-77960256D01*
X95996063Y-78129774D01*
X96140226Y-78273937D01*
X96309744Y-78387205D01*
X96498102Y-78465226D01*
X96698061Y-78505000D01*
X96901939Y-78505000D01*
X97101898Y-78465226D01*
X97290256Y-78387205D01*
X97459774Y-78273937D01*
X97603937Y-78129774D01*
X97717205Y-77960256D01*
X97795226Y-77771898D01*
X97835000Y-77571939D01*
X97835000Y-77368061D01*
X97795226Y-77168102D01*
X97717205Y-76979744D01*
X97603937Y-76810226D01*
X97459774Y-76666063D01*
X97290256Y-76552795D01*
X97101898Y-76474774D01*
X96901939Y-76435000D01*
X96698061Y-76435000D01*
X96498102Y-76474774D01*
X96309744Y-76552795D01*
X96140226Y-76666063D01*
X95996063Y-76810226D01*
X95882795Y-76979744D01*
X95804774Y-77168102D01*
X95765000Y-77368061D01*
X82527451Y-77368061D01*
X84313642Y-75581871D01*
X84502898Y-75544226D01*
X84691256Y-75466205D01*
X84860774Y-75352937D01*
X85004937Y-75208774D01*
X85118205Y-75039256D01*
X85196226Y-74850898D01*
X85236000Y-74650939D01*
X85236000Y-74475000D01*
X100474300Y-74475000D01*
X100634744Y-74582205D01*
X100823102Y-74660226D01*
X101023061Y-74700000D01*
X101226939Y-74700000D01*
X101426898Y-74660226D01*
X101615256Y-74582205D01*
X101784774Y-74468937D01*
X101928937Y-74324774D01*
X102042205Y-74155256D01*
X102120226Y-73966898D01*
X102160000Y-73766939D01*
X102160000Y-73563061D01*
X102120226Y-73363102D01*
X102042205Y-73174744D01*
X101928937Y-73005226D01*
X101784774Y-72861063D01*
X101615256Y-72747795D01*
X101426898Y-72669774D01*
X101226939Y-72630000D01*
X101023061Y-72630000D01*
X100823102Y-72669774D01*
X100634744Y-72747795D01*
X100474300Y-72855000D01*
X83092787Y-72855000D01*
X83052999Y-72851081D01*
X83013211Y-72855000D01*
X83013209Y-72855000D01*
X82894212Y-72866720D01*
X82741527Y-72913037D01*
X82695878Y-72937437D01*
X82600810Y-72988251D01*
X82545210Y-73033881D01*
X82477472Y-73089472D01*
X82452105Y-73120382D01*
X81548359Y-74024129D01*
X81359102Y-74061774D01*
X81170744Y-74139795D01*
X81001226Y-74253063D01*
X80857063Y-74397226D01*
X80743795Y-74566744D01*
X80665774Y-74755102D01*
X80626000Y-74955061D01*
X80626000Y-75158939D01*
X80665774Y-75358898D01*
X80743795Y-75547256D01*
X80857063Y-75716774D01*
X81001226Y-75860937D01*
X81170744Y-75974205D01*
X81359102Y-76052226D01*
X81520214Y-76084273D01*
X75737488Y-81867000D01*
X61483700Y-81867000D01*
X61323256Y-81759795D01*
X61134898Y-81681774D01*
X60934939Y-81642000D01*
X60731061Y-81642000D01*
X60531102Y-81681774D01*
X60342744Y-81759795D01*
X60173226Y-81873063D01*
X60029063Y-82017226D01*
X59915795Y-82186744D01*
X59837774Y-82375102D01*
X59798000Y-82575061D01*
X58493400Y-82575061D01*
X58493400Y-80035061D01*
X59290000Y-80035061D01*
X59290000Y-80238939D01*
X59329774Y-80438898D01*
X59407795Y-80627256D01*
X59521063Y-80796774D01*
X59665226Y-80940937D01*
X59834744Y-81054205D01*
X60023102Y-81132226D01*
X60223061Y-81172000D01*
X60426939Y-81172000D01*
X60626898Y-81132226D01*
X60815256Y-81054205D01*
X60975700Y-80947000D01*
X61606012Y-80947000D01*
X61645800Y-80950919D01*
X61685588Y-80947000D01*
X61685591Y-80947000D01*
X61804588Y-80935280D01*
X61957273Y-80888963D01*
X62097989Y-80813749D01*
X62221328Y-80712528D01*
X62246700Y-80681612D01*
X64925251Y-78003061D01*
X75038000Y-78003061D01*
X75038000Y-78206939D01*
X75077774Y-78406898D01*
X75155795Y-78595256D01*
X75269063Y-78764774D01*
X75413226Y-78908937D01*
X75582744Y-79022205D01*
X75771102Y-79100226D01*
X75971061Y-79140000D01*
X76174939Y-79140000D01*
X76374898Y-79100226D01*
X76563256Y-79022205D01*
X76732774Y-78908937D01*
X76876937Y-78764774D01*
X76990205Y-78595256D01*
X77068226Y-78406898D01*
X77108000Y-78206939D01*
X77108000Y-78003061D01*
X77068226Y-77803102D01*
X76990205Y-77614744D01*
X76876937Y-77445226D01*
X76732774Y-77301063D01*
X76563256Y-77187795D01*
X76374898Y-77109774D01*
X76174939Y-77070000D01*
X75971061Y-77070000D01*
X75771102Y-77109774D01*
X75582744Y-77187795D01*
X75413226Y-77301063D01*
X75269063Y-77445226D01*
X75155795Y-77614744D01*
X75077774Y-77803102D01*
X75038000Y-78003061D01*
X64925251Y-78003061D01*
X68989251Y-73939061D01*
X72498000Y-73939061D01*
X72498000Y-74142939D01*
X72537774Y-74342898D01*
X72615795Y-74531256D01*
X72729063Y-74700774D01*
X72873226Y-74844937D01*
X73042744Y-74958205D01*
X73231102Y-75036226D01*
X73431061Y-75076000D01*
X73634939Y-75076000D01*
X73834898Y-75036226D01*
X74023256Y-74958205D01*
X74183700Y-74851000D01*
X79754212Y-74851000D01*
X79794000Y-74854919D01*
X79833788Y-74851000D01*
X79833791Y-74851000D01*
X79952788Y-74839280D01*
X80105473Y-74792963D01*
X80246189Y-74717749D01*
X80369528Y-74616528D01*
X80394899Y-74585613D01*
X81552642Y-73427871D01*
X81741898Y-73390226D01*
X81930256Y-73312205D01*
X82099774Y-73198937D01*
X82243937Y-73054774D01*
X82357205Y-72885256D01*
X82435226Y-72696898D01*
X82475000Y-72496939D01*
X82475000Y-72293061D01*
X82435226Y-72093102D01*
X82357205Y-71904744D01*
X82243937Y-71735226D01*
X82099774Y-71591063D01*
X81930256Y-71477795D01*
X81741898Y-71399774D01*
X81541939Y-71360000D01*
X81338061Y-71360000D01*
X81138102Y-71399774D01*
X80949744Y-71477795D01*
X80780226Y-71591063D01*
X80636063Y-71735226D01*
X80522795Y-71904744D01*
X80444774Y-72093102D01*
X80407129Y-72282358D01*
X79458488Y-73231000D01*
X74183700Y-73231000D01*
X74023256Y-73123795D01*
X73834898Y-73045774D01*
X73634939Y-73006000D01*
X73431061Y-73006000D01*
X73231102Y-73045774D01*
X73042744Y-73123795D01*
X72873226Y-73237063D01*
X72729063Y-73381226D01*
X72615795Y-73550744D01*
X72537774Y-73739102D01*
X72498000Y-73939061D01*
X68989251Y-73939061D01*
X71905251Y-71023061D01*
X94690000Y-71023061D01*
X94690000Y-71226939D01*
X94729774Y-71426898D01*
X94807795Y-71615256D01*
X94921063Y-71784774D01*
X95065226Y-71928937D01*
X95234744Y-72042205D01*
X95423102Y-72120226D01*
X95623061Y-72160000D01*
X95826939Y-72160000D01*
X96026898Y-72120226D01*
X96215256Y-72042205D01*
X96384774Y-71928937D01*
X96528937Y-71784774D01*
X96642205Y-71615256D01*
X96720226Y-71426898D01*
X96747969Y-71287424D01*
X97144332Y-70891061D01*
X99930000Y-70891061D01*
X99930000Y-71094939D01*
X99969774Y-71294898D01*
X100047795Y-71483256D01*
X100161063Y-71652774D01*
X100305226Y-71796937D01*
X100474744Y-71910205D01*
X100663102Y-71988226D01*
X100863061Y-72028000D01*
X101066939Y-72028000D01*
X101266898Y-71988226D01*
X101455256Y-71910205D01*
X101489921Y-71887043D01*
X104264519Y-74661642D01*
X104302164Y-74850898D01*
X104380185Y-75039256D01*
X104493453Y-75208774D01*
X104637616Y-75352937D01*
X104807134Y-75466205D01*
X104995492Y-75544226D01*
X105195451Y-75584000D01*
X105399329Y-75584000D01*
X105599288Y-75544226D01*
X105787646Y-75466205D01*
X105957164Y-75352937D01*
X106101327Y-75208774D01*
X106214595Y-75039256D01*
X106292616Y-74850898D01*
X106332390Y-74650939D01*
X106332390Y-74447061D01*
X106292616Y-74247102D01*
X106214595Y-74058744D01*
X106101327Y-73889226D01*
X105957164Y-73745063D01*
X105787646Y-73631795D01*
X105599288Y-73553774D01*
X105410032Y-73516129D01*
X102342290Y-70448388D01*
X102316918Y-70417472D01*
X102193579Y-70316251D01*
X102052863Y-70241037D01*
X101900178Y-70194720D01*
X101781181Y-70183000D01*
X101781178Y-70183000D01*
X101741390Y-70179081D01*
X101701602Y-70183000D01*
X101615700Y-70183000D01*
X101455256Y-70075795D01*
X101266898Y-69997774D01*
X101066939Y-69958000D01*
X100863061Y-69958000D01*
X100663102Y-69997774D01*
X100474744Y-70075795D01*
X100305226Y-70189063D01*
X100161063Y-70333226D01*
X100047795Y-70502744D01*
X99969774Y-70691102D01*
X99930000Y-70891061D01*
X97144332Y-70891061D01*
X98510808Y-69524586D01*
X98589309Y-69428932D01*
X98641588Y-69331124D01*
X100284513Y-67688200D01*
X121203488Y-67688200D01*
X124189305Y-70674018D01*
X124214672Y-70704928D01*
X124251698Y-70735314D01*
X124338010Y-70806149D01*
X124371879Y-70824252D01*
X124478727Y-70881363D01*
X124631412Y-70927680D01*
X124750409Y-70939400D01*
X124750411Y-70939400D01*
X124790199Y-70943319D01*
X124829987Y-70939400D01*
X133174820Y-70939400D01*
X134444028Y-72081688D01*
X134456236Y-72096564D01*
X134505255Y-72136793D01*
X134521674Y-72151570D01*
X134537098Y-72162926D01*
X134583868Y-72201309D01*
X134603445Y-72211773D01*
X134621322Y-72224935D01*
X134676111Y-72250614D01*
X134729483Y-72279142D01*
X134750730Y-72285587D01*
X134770826Y-72295006D01*
X134829565Y-72309501D01*
X134887484Y-72327071D01*
X134909579Y-72329247D01*
X134931128Y-72334565D01*
X134991566Y-72337322D01*
X135010630Y-72339200D01*
X135032722Y-72339200D01*
X135096067Y-72342090D01*
X135115091Y-72339200D01*
X135916504Y-72339200D01*
X136034744Y-72418205D01*
X136223102Y-72496226D01*
X136423061Y-72536000D01*
X136626939Y-72536000D01*
X136826898Y-72496226D01*
X137015256Y-72418205D01*
X137184774Y-72304937D01*
X137328937Y-72160774D01*
X137442205Y-71991256D01*
X137520226Y-71802898D01*
X137560000Y-71602939D01*
X137560000Y-71399061D01*
X137520226Y-71199102D01*
X137442205Y-71010744D01*
X137328937Y-70841226D01*
X137184774Y-70697063D01*
X137015256Y-70583795D01*
X136826898Y-70505774D01*
X136626939Y-70466000D01*
X136423061Y-70466000D01*
X136223102Y-70505774D01*
X136034744Y-70583795D01*
X135916504Y-70662800D01*
X135373448Y-70662800D01*
X134057924Y-69478830D01*
X133958277Y-69405465D01*
X133808773Y-69335393D01*
X133648470Y-69295835D01*
X133483533Y-69288310D01*
X133320295Y-69313107D01*
X133302899Y-69319400D01*
X125125713Y-69319400D01*
X123649374Y-67843061D01*
X125330000Y-67843061D01*
X125330000Y-68046939D01*
X125369774Y-68246898D01*
X125447795Y-68435256D01*
X125561063Y-68604774D01*
X125705226Y-68748937D01*
X125874744Y-68862205D01*
X126063102Y-68940226D01*
X126263061Y-68980000D01*
X126466939Y-68980000D01*
X126666898Y-68940226D01*
X126855256Y-68862205D01*
X127024774Y-68748937D01*
X127168937Y-68604774D01*
X127282205Y-68435256D01*
X127360226Y-68246898D01*
X127400000Y-68046939D01*
X127400000Y-67951051D01*
X128360000Y-67951051D01*
X128360000Y-68154929D01*
X128399774Y-68354888D01*
X128477795Y-68543246D01*
X128591063Y-68712764D01*
X128735226Y-68856927D01*
X128904744Y-68970195D01*
X129093102Y-69048216D01*
X129293061Y-69087990D01*
X129496939Y-69087990D01*
X129696898Y-69048216D01*
X129885256Y-68970195D01*
X130054774Y-68856927D01*
X130198937Y-68712764D01*
X130312205Y-68543246D01*
X130390226Y-68354888D01*
X130417969Y-68215415D01*
X130510584Y-68122800D01*
X133981090Y-68122800D01*
X134005774Y-68246898D01*
X134083795Y-68435256D01*
X134197063Y-68604774D01*
X134341226Y-68748937D01*
X134510744Y-68862205D01*
X134699102Y-68940226D01*
X134899061Y-68980000D01*
X135102939Y-68980000D01*
X135302898Y-68940226D01*
X135491256Y-68862205D01*
X135660774Y-68748937D01*
X135804937Y-68604774D01*
X135918205Y-68435256D01*
X135996226Y-68246898D01*
X136036000Y-68046939D01*
X136036000Y-67843061D01*
X135996226Y-67643102D01*
X135918205Y-67454744D01*
X135804937Y-67285226D01*
X135660774Y-67141063D01*
X135491256Y-67027795D01*
X135302898Y-66949774D01*
X135163425Y-66922031D01*
X134962411Y-66721017D01*
X134936164Y-66689036D01*
X134808532Y-66584291D01*
X134662917Y-66506458D01*
X134504916Y-66458529D01*
X134381770Y-66446400D01*
X134381763Y-66446400D01*
X134340600Y-66442346D01*
X134299437Y-66446400D01*
X130204553Y-66446400D01*
X130163390Y-66442346D01*
X130122227Y-66446400D01*
X130122220Y-66446400D01*
X129999074Y-66458529D01*
X129841073Y-66506458D01*
X129695458Y-66584291D01*
X129632942Y-66635597D01*
X129567826Y-66689036D01*
X129541583Y-66721013D01*
X129232575Y-67030021D01*
X129093102Y-67057764D01*
X128904744Y-67135785D01*
X128735226Y-67249053D01*
X128591063Y-67393216D01*
X128477795Y-67562734D01*
X128399774Y-67751092D01*
X128360000Y-67951051D01*
X127400000Y-67951051D01*
X127400000Y-67843061D01*
X127360226Y-67643102D01*
X127282205Y-67454744D01*
X127168937Y-67285226D01*
X127024774Y-67141063D01*
X126855256Y-67027795D01*
X126666898Y-66949774D01*
X126466939Y-66910000D01*
X126263061Y-66910000D01*
X126063102Y-66949774D01*
X125874744Y-67027795D01*
X125705226Y-67141063D01*
X125561063Y-67285226D01*
X125447795Y-67454744D01*
X125369774Y-67643102D01*
X125330000Y-67843061D01*
X123649374Y-67843061D01*
X122139900Y-66333588D01*
X122114528Y-66302672D01*
X121991189Y-66201451D01*
X121850473Y-66126237D01*
X121697788Y-66079920D01*
X121578791Y-66068200D01*
X121578788Y-66068200D01*
X121539000Y-66064281D01*
X121499212Y-66068200D01*
X99988788Y-66068200D01*
X99949000Y-66064281D01*
X99909212Y-66068200D01*
X99909209Y-66068200D01*
X99790212Y-66079920D01*
X99637527Y-66126237D01*
X99572024Y-66161249D01*
X99496810Y-66201451D01*
X99432796Y-66253986D01*
X99373472Y-66302672D01*
X99348105Y-66333582D01*
X97420672Y-68261016D01*
X97325414Y-68339192D01*
X95562576Y-70102031D01*
X95423102Y-70129774D01*
X95234744Y-70207795D01*
X95065226Y-70321063D01*
X94921063Y-70465226D01*
X94807795Y-70634744D01*
X94729774Y-70823102D01*
X94690000Y-71023061D01*
X71905251Y-71023061D01*
X72045618Y-70882695D01*
X72076528Y-70857328D01*
X72177749Y-70733989D01*
X72252963Y-70593273D01*
X72299280Y-70440588D01*
X72311000Y-70321591D01*
X72311000Y-70321589D01*
X72314919Y-70281801D01*
X72311000Y-70242013D01*
X72311000Y-69611700D01*
X72418205Y-69451256D01*
X72496226Y-69262898D01*
X72536000Y-69062939D01*
X72536000Y-68859061D01*
X72496226Y-68659102D01*
X72418205Y-68470744D01*
X72304937Y-68301226D01*
X72160774Y-68157063D01*
X71991256Y-68043795D01*
X71802898Y-67965774D01*
X71602939Y-67926000D01*
X71399061Y-67926000D01*
X71199102Y-67965774D01*
X71010744Y-68043795D01*
X70841226Y-68157063D01*
X70697063Y-68301226D01*
X70583795Y-68470744D01*
X70505774Y-68659102D01*
X70466000Y-68859061D01*
X70466000Y-69062939D01*
X70505774Y-69262898D01*
X70583795Y-69451256D01*
X70691000Y-69611701D01*
X70691001Y-69946286D01*
X61310288Y-79327000D01*
X60975700Y-79327000D01*
X60815256Y-79219795D01*
X60626898Y-79141774D01*
X60426939Y-79102000D01*
X60223061Y-79102000D01*
X60023102Y-79141774D01*
X59834744Y-79219795D01*
X59665226Y-79333063D01*
X59521063Y-79477226D01*
X59407795Y-79646744D01*
X59329774Y-79835102D01*
X59290000Y-80035061D01*
X58493400Y-80035061D01*
X58493400Y-79608912D01*
X62495554Y-75606759D01*
X62569063Y-75716774D01*
X62713226Y-75860937D01*
X62882744Y-75974205D01*
X63071102Y-76052226D01*
X63271061Y-76092000D01*
X63474939Y-76092000D01*
X63674898Y-76052226D01*
X63863256Y-75974205D01*
X64032774Y-75860937D01*
X64176937Y-75716774D01*
X64290205Y-75547256D01*
X64368226Y-75358898D01*
X64405871Y-75169641D01*
X69505618Y-70069895D01*
X69536528Y-70044528D01*
X69637749Y-69921189D01*
X69712963Y-69780473D01*
X69759280Y-69627788D01*
X69771000Y-69508791D01*
X69771000Y-69508789D01*
X69774919Y-69469001D01*
X69771000Y-69429213D01*
X69771000Y-63708512D01*
X72629642Y-60849871D01*
X72818898Y-60812226D01*
X73007256Y-60734205D01*
X73176774Y-60620937D01*
X73320937Y-60476774D01*
X73434205Y-60307256D01*
X73512226Y-60118898D01*
X73552000Y-59918939D01*
X73552000Y-59715061D01*
X75546000Y-59715061D01*
X75546000Y-59918939D01*
X75585774Y-60118898D01*
X75663795Y-60307256D01*
X75777063Y-60476774D01*
X75921226Y-60620937D01*
X76090744Y-60734205D01*
X76279102Y-60812226D01*
X76479061Y-60852000D01*
X76682939Y-60852000D01*
X76882898Y-60812226D01*
X77071256Y-60734205D01*
X77240774Y-60620937D01*
X77384937Y-60476774D01*
X77498205Y-60307256D01*
X77576226Y-60118898D01*
X77616000Y-59918939D01*
X77616000Y-59715061D01*
X77576226Y-59515102D01*
X77498205Y-59326744D01*
X77384937Y-59157226D01*
X77240774Y-59013063D01*
X77071256Y-58899795D01*
X76882898Y-58821774D01*
X76682939Y-58782000D01*
X76479061Y-58782000D01*
X76279102Y-58821774D01*
X76090744Y-58899795D01*
X75921226Y-59013063D01*
X75777063Y-59157226D01*
X75663795Y-59326744D01*
X75585774Y-59515102D01*
X75546000Y-59715061D01*
X73552000Y-59715061D01*
X73512226Y-59515102D01*
X73434205Y-59326744D01*
X73320937Y-59157226D01*
X73176774Y-59013063D01*
X73007256Y-58899795D01*
X72818898Y-58821774D01*
X72618939Y-58782000D01*
X72415061Y-58782000D01*
X72215102Y-58821774D01*
X72026744Y-58899795D01*
X71857226Y-59013063D01*
X71713063Y-59157226D01*
X71599795Y-59326744D01*
X71521774Y-59515102D01*
X71484129Y-59704358D01*
X68416388Y-62772100D01*
X68385472Y-62797472D01*
X68347103Y-62844226D01*
X68284251Y-62920811D01*
X68244049Y-62996025D01*
X68209037Y-63061528D01*
X68162720Y-63214213D01*
X68151000Y-63333209D01*
X68147081Y-63373000D01*
X68151000Y-63412788D01*
X68151001Y-69133486D01*
X64778794Y-72505694D01*
X64684937Y-72365226D01*
X64670989Y-72351278D01*
X64632963Y-72225925D01*
X64571502Y-72110939D01*
X64557749Y-72085208D01*
X64498778Y-72013352D01*
X64456528Y-71961870D01*
X64425619Y-71936504D01*
X63709700Y-71220586D01*
X63684329Y-71189671D01*
X63560990Y-71088450D01*
X63420274Y-71013236D01*
X63267589Y-70966919D01*
X63148592Y-70955199D01*
X63148589Y-70955199D01*
X63108801Y-70951280D01*
X63069013Y-70955199D01*
X60608588Y-70955199D01*
X60568800Y-70951280D01*
X60529012Y-70955199D01*
X60529010Y-70955199D01*
X60410013Y-70966919D01*
X60257328Y-71013236D01*
X60238947Y-71023061D01*
X60116611Y-71088450D01*
X60072075Y-71125000D01*
X59993273Y-71189671D01*
X59967906Y-71220581D01*
X56325983Y-74862505D01*
X56295073Y-74887872D01*
X56256611Y-74934738D01*
X56193851Y-75011211D01*
X56119726Y-75149892D01*
X56118638Y-75151927D01*
X56073429Y-75300962D01*
X56072321Y-75304613D01*
X56056681Y-75463400D01*
X56060601Y-75503198D01*
X56060600Y-77261487D01*
X51963088Y-81359000D01*
X51831700Y-81359000D01*
X51671256Y-81251795D01*
X51482898Y-81173774D01*
X51282939Y-81134000D01*
X51111199Y-81134000D01*
X51111199Y-74748313D01*
X53325642Y-72533871D01*
X53514898Y-72496226D01*
X53703256Y-72418205D01*
X53872774Y-72304937D01*
X54016937Y-72160774D01*
X54130205Y-71991256D01*
X54208226Y-71802898D01*
X54248000Y-71602939D01*
X54248000Y-71399061D01*
X54208226Y-71199102D01*
X54130205Y-71010744D01*
X54016937Y-70841226D01*
X53872774Y-70697063D01*
X53703256Y-70583795D01*
X53514898Y-70505774D01*
X53314939Y-70466000D01*
X53111061Y-70466000D01*
X52911102Y-70505774D01*
X52722744Y-70583795D01*
X52553226Y-70697063D01*
X52409063Y-70841226D01*
X52295795Y-71010744D01*
X52217774Y-71199102D01*
X52180129Y-71388358D01*
X49756582Y-73811906D01*
X49725672Y-73837273D01*
X49691749Y-73878609D01*
X49624450Y-73960612D01*
X49571327Y-74060000D01*
X49549237Y-74101328D01*
X49505017Y-74247102D01*
X49502920Y-74254014D01*
X49487280Y-74412801D01*
X48920000Y-74412801D01*
X48920000Y-66319061D01*
X61830000Y-66319061D01*
X61830000Y-66522939D01*
X61869774Y-66722898D01*
X61947795Y-66911256D01*
X62061063Y-67080774D01*
X62205226Y-67224937D01*
X62374744Y-67338205D01*
X62563102Y-67416226D01*
X62763061Y-67456000D01*
X62966939Y-67456000D01*
X63166898Y-67416226D01*
X63355256Y-67338205D01*
X63524774Y-67224937D01*
X63668937Y-67080774D01*
X63782205Y-66911256D01*
X63860226Y-66722898D01*
X63900000Y-66522939D01*
X63900000Y-66319061D01*
X63860226Y-66119102D01*
X63782205Y-65930744D01*
X63668937Y-65761226D01*
X63524774Y-65617063D01*
X63355256Y-65503795D01*
X63166898Y-65425774D01*
X62966939Y-65386000D01*
X62763061Y-65386000D01*
X62563102Y-65425774D01*
X62374744Y-65503795D01*
X62205226Y-65617063D01*
X62061063Y-65761226D01*
X61947795Y-65930744D01*
X61869774Y-66119102D01*
X61830000Y-66319061D01*
X48920000Y-66319061D01*
X48920000Y-58199872D01*
X51105000Y-58199872D01*
X51105000Y-58640128D01*
X51190890Y-59071925D01*
X51359369Y-59478669D01*
X51603962Y-59844729D01*
X51915271Y-60156038D01*
X52281331Y-60400631D01*
X52688075Y-60569110D01*
X53119872Y-60655000D01*
X53560128Y-60655000D01*
X53991925Y-60569110D01*
X54398669Y-60400631D01*
X54764729Y-60156038D01*
X55076038Y-59844729D01*
X55320631Y-59478669D01*
X55489110Y-59071925D01*
X55575000Y-58640128D01*
X55575000Y-58199872D01*
X66345000Y-58199872D01*
X66345000Y-58640128D01*
X66430890Y-59071925D01*
X66599369Y-59478669D01*
X66843962Y-59844729D01*
X67155271Y-60156038D01*
X67521331Y-60400631D01*
X67928075Y-60569110D01*
X68359872Y-60655000D01*
X68800128Y-60655000D01*
X69231925Y-60569110D01*
X69638669Y-60400631D01*
X70004729Y-60156038D01*
X70316038Y-59844729D01*
X70560631Y-59478669D01*
X70729110Y-59071925D01*
X70815000Y-58640128D01*
X70815000Y-58199872D01*
X70729110Y-57768075D01*
X70560631Y-57361331D01*
X70316038Y-56995271D01*
X70004729Y-56683962D01*
X69638669Y-56439369D01*
X69231925Y-56270890D01*
X68800128Y-56185000D01*
X68359872Y-56185000D01*
X67928075Y-56270890D01*
X67521331Y-56439369D01*
X67155271Y-56683962D01*
X66843962Y-56995271D01*
X66599369Y-57361331D01*
X66430890Y-57768075D01*
X66345000Y-58199872D01*
X55575000Y-58199872D01*
X55489110Y-57768075D01*
X55320631Y-57361331D01*
X55076038Y-56995271D01*
X54764729Y-56683962D01*
X54398669Y-56439369D01*
X53991925Y-56270890D01*
X53934832Y-56259533D01*
X54031898Y-56240226D01*
X54220256Y-56162205D01*
X54389774Y-56048937D01*
X54533937Y-55904774D01*
X54647205Y-55735256D01*
X54725226Y-55546898D01*
X54765000Y-55346939D01*
X54765000Y-55143061D01*
X54725226Y-54943102D01*
X54652642Y-54767870D01*
X57937513Y-51483000D01*
X71853348Y-51483000D01*
X87830059Y-67459712D01*
X87867704Y-67648968D01*
X87945725Y-67837326D01*
X88058993Y-68006844D01*
X88203156Y-68151007D01*
X88372674Y-68264275D01*
X88561032Y-68342296D01*
X88760991Y-68382070D01*
X88964869Y-68382070D01*
X89164828Y-68342296D01*
X89353186Y-68264275D01*
X89522704Y-68151007D01*
X89666867Y-68006844D01*
X89780135Y-67837326D01*
X89858156Y-67648968D01*
X89897930Y-67449009D01*
X89897930Y-67245131D01*
X89858156Y-67045172D01*
X89780135Y-66856814D01*
X89666867Y-66687296D01*
X89522704Y-66543133D01*
X89353186Y-66429865D01*
X89164828Y-66351844D01*
X88975572Y-66314199D01*
X84408434Y-61747061D01*
X116186000Y-61747061D01*
X116186000Y-61950939D01*
X116225774Y-62150898D01*
X116303795Y-62339256D01*
X116417063Y-62508774D01*
X116561226Y-62652937D01*
X116730744Y-62766205D01*
X116919102Y-62844226D01*
X117119061Y-62884000D01*
X117322939Y-62884000D01*
X117522898Y-62844226D01*
X117711256Y-62766205D01*
X117880774Y-62652937D01*
X118024937Y-62508774D01*
X118138205Y-62339256D01*
X118216226Y-62150898D01*
X118256000Y-61950939D01*
X118256000Y-61747061D01*
X118216226Y-61547102D01*
X118138205Y-61358744D01*
X118024937Y-61189226D01*
X117880774Y-61045063D01*
X117711256Y-60931795D01*
X117522898Y-60853774D01*
X117322939Y-60814000D01*
X117119061Y-60814000D01*
X116919102Y-60853774D01*
X116730744Y-60931795D01*
X116561226Y-61045063D01*
X116417063Y-61189226D01*
X116303795Y-61358744D01*
X116225774Y-61547102D01*
X116186000Y-61747061D01*
X84408434Y-61747061D01*
X80861245Y-58199872D01*
X92253000Y-58199872D01*
X92253000Y-58640128D01*
X92338890Y-59071925D01*
X92507369Y-59478669D01*
X92751962Y-59844729D01*
X93063271Y-60156038D01*
X93429331Y-60400631D01*
X93836075Y-60569110D01*
X94267872Y-60655000D01*
X94708128Y-60655000D01*
X95139925Y-60569110D01*
X95546669Y-60400631D01*
X95912729Y-60156038D01*
X96224038Y-59844729D01*
X96380210Y-59611000D01*
X112101212Y-59611000D01*
X112141000Y-59614919D01*
X112180788Y-59611000D01*
X112180791Y-59611000D01*
X112299788Y-59599280D01*
X112452473Y-59552963D01*
X112593189Y-59477749D01*
X112716528Y-59376528D01*
X112741900Y-59345612D01*
X113269641Y-58817871D01*
X113458898Y-58780226D01*
X113647256Y-58702205D01*
X113816774Y-58588937D01*
X113960937Y-58444774D01*
X114074205Y-58275256D01*
X114152226Y-58086898D01*
X114192000Y-57886939D01*
X114192000Y-57683061D01*
X114152226Y-57483102D01*
X114074205Y-57294744D01*
X113960937Y-57125226D01*
X113816774Y-56981063D01*
X113647256Y-56867795D01*
X113458898Y-56789774D01*
X113258939Y-56750000D01*
X113055061Y-56750000D01*
X112855102Y-56789774D01*
X112666744Y-56867795D01*
X112497226Y-56981063D01*
X112353063Y-57125226D01*
X112239795Y-57294744D01*
X112161774Y-57483102D01*
X112124129Y-57672359D01*
X111805488Y-57991000D01*
X96681453Y-57991000D01*
X96637110Y-57768075D01*
X96468631Y-57361331D01*
X96224038Y-56995271D01*
X95912729Y-56683962D01*
X95546669Y-56439369D01*
X95139925Y-56270890D01*
X94708128Y-56185000D01*
X94267872Y-56185000D01*
X93836075Y-56270890D01*
X93429331Y-56439369D01*
X93063271Y-56683962D01*
X92751962Y-56995271D01*
X92507369Y-57361331D01*
X92338890Y-57768075D01*
X92253000Y-58199872D01*
X80861245Y-58199872D01*
X77291999Y-54630626D01*
X96695000Y-54630626D01*
X96695000Y-55169374D01*
X96800105Y-55697770D01*
X97006275Y-56195508D01*
X97305587Y-56643461D01*
X97686539Y-57024413D01*
X98134492Y-57323725D01*
X98632230Y-57529895D01*
X99160626Y-57635000D01*
X99699374Y-57635000D01*
X100227770Y-57529895D01*
X100725508Y-57323725D01*
X101173461Y-57024413D01*
X101554413Y-56643461D01*
X101853725Y-56195508D01*
X102059895Y-55697770D01*
X102165000Y-55169374D01*
X102165000Y-54630626D01*
X106195000Y-54630626D01*
X106195000Y-55169374D01*
X106300105Y-55697770D01*
X106506275Y-56195508D01*
X106805587Y-56643461D01*
X107186539Y-57024413D01*
X107634492Y-57323725D01*
X108132230Y-57529895D01*
X108660626Y-57635000D01*
X109199374Y-57635000D01*
X109727770Y-57529895D01*
X110225508Y-57323725D01*
X110673461Y-57024413D01*
X111054413Y-56643461D01*
X111353725Y-56195508D01*
X111559895Y-55697770D01*
X111665000Y-55169374D01*
X111665000Y-54630626D01*
X119515000Y-54630626D01*
X119515000Y-55169374D01*
X119620105Y-55697770D01*
X119826275Y-56195508D01*
X120125587Y-56643461D01*
X120506539Y-57024413D01*
X120954492Y-57323725D01*
X121452230Y-57529895D01*
X121980626Y-57635000D01*
X122519374Y-57635000D01*
X123047770Y-57529895D01*
X123545508Y-57323725D01*
X123993461Y-57024413D01*
X124374413Y-56643461D01*
X124673725Y-56195508D01*
X124879895Y-55697770D01*
X124985000Y-55169374D01*
X124985000Y-54630626D01*
X129015000Y-54630626D01*
X129015000Y-55169374D01*
X129120105Y-55697770D01*
X129326275Y-56195508D01*
X129625587Y-56643461D01*
X130006539Y-57024413D01*
X130454492Y-57323725D01*
X130952230Y-57529895D01*
X131480626Y-57635000D01*
X132019374Y-57635000D01*
X132547770Y-57529895D01*
X133045508Y-57323725D01*
X133493461Y-57024413D01*
X133874413Y-56643461D01*
X134173725Y-56195508D01*
X134379895Y-55697770D01*
X134485000Y-55169374D01*
X134485000Y-54630626D01*
X134379895Y-54102230D01*
X134173725Y-53604492D01*
X133874413Y-53156539D01*
X133493461Y-52775587D01*
X133045508Y-52476275D01*
X132547770Y-52270105D01*
X132019374Y-52165000D01*
X131480626Y-52165000D01*
X130952230Y-52270105D01*
X130454492Y-52476275D01*
X130006539Y-52775587D01*
X129625587Y-53156539D01*
X129326275Y-53604492D01*
X129120105Y-54102230D01*
X129015000Y-54630626D01*
X124985000Y-54630626D01*
X124879895Y-54102230D01*
X124673725Y-53604492D01*
X124374413Y-53156539D01*
X123993461Y-52775587D01*
X123545508Y-52476275D01*
X123047770Y-52270105D01*
X122519374Y-52165000D01*
X121980626Y-52165000D01*
X121452230Y-52270105D01*
X120954492Y-52476275D01*
X120506539Y-52775587D01*
X120125587Y-53156539D01*
X119826275Y-53604492D01*
X119620105Y-54102230D01*
X119515000Y-54630626D01*
X111665000Y-54630626D01*
X111559895Y-54102230D01*
X111353725Y-53604492D01*
X111054413Y-53156539D01*
X110673461Y-52775587D01*
X110225508Y-52476275D01*
X109727770Y-52270105D01*
X109199374Y-52165000D01*
X108660626Y-52165000D01*
X108132230Y-52270105D01*
X107634492Y-52476275D01*
X107186539Y-52775587D01*
X106805587Y-53156539D01*
X106506275Y-53604492D01*
X106300105Y-54102230D01*
X106195000Y-54630626D01*
X102165000Y-54630626D01*
X102059895Y-54102230D01*
X101853725Y-53604492D01*
X101554413Y-53156539D01*
X101173461Y-52775587D01*
X100725508Y-52476275D01*
X100227770Y-52270105D01*
X99699374Y-52165000D01*
X99160626Y-52165000D01*
X98632230Y-52270105D01*
X98134492Y-52476275D01*
X97686539Y-52775587D01*
X97305587Y-53156539D01*
X97006275Y-53604492D01*
X96800105Y-54102230D01*
X96695000Y-54630626D01*
X77291999Y-54630626D01*
X73310189Y-50648816D01*
X100145000Y-50648816D01*
X100145000Y-50951184D01*
X100203989Y-51247743D01*
X100319701Y-51527095D01*
X100487688Y-51778505D01*
X100701495Y-51992312D01*
X100952905Y-52160299D01*
X101232257Y-52276011D01*
X101528816Y-52335000D01*
X101831184Y-52335000D01*
X102127743Y-52276011D01*
X102407095Y-52160299D01*
X102658505Y-51992312D01*
X102872312Y-51778505D01*
X102930000Y-51692169D01*
X102987688Y-51778505D01*
X103201495Y-51992312D01*
X103452905Y-52160299D01*
X103732257Y-52276011D01*
X104028816Y-52335000D01*
X104331184Y-52335000D01*
X104627743Y-52276011D01*
X104907095Y-52160299D01*
X105158505Y-51992312D01*
X105372312Y-51778505D01*
X105430000Y-51692169D01*
X105487688Y-51778505D01*
X105701495Y-51992312D01*
X105952905Y-52160299D01*
X106232257Y-52276011D01*
X106528816Y-52335000D01*
X106831184Y-52335000D01*
X107127743Y-52276011D01*
X107407095Y-52160299D01*
X107658505Y-51992312D01*
X107872312Y-51778505D01*
X108040299Y-51527095D01*
X108156011Y-51247743D01*
X108215000Y-50951184D01*
X108215000Y-50648816D01*
X122965000Y-50648816D01*
X122965000Y-50951184D01*
X123023989Y-51247743D01*
X123139701Y-51527095D01*
X123307688Y-51778505D01*
X123521495Y-51992312D01*
X123772905Y-52160299D01*
X124052257Y-52276011D01*
X124348816Y-52335000D01*
X124651184Y-52335000D01*
X124947743Y-52276011D01*
X125227095Y-52160299D01*
X125478505Y-51992312D01*
X125692312Y-51778505D01*
X125750000Y-51692169D01*
X125807688Y-51778505D01*
X126021495Y-51992312D01*
X126272905Y-52160299D01*
X126552257Y-52276011D01*
X126848816Y-52335000D01*
X127151184Y-52335000D01*
X127447743Y-52276011D01*
X127727095Y-52160299D01*
X127978505Y-51992312D01*
X128192312Y-51778505D01*
X128250000Y-51692169D01*
X128307688Y-51778505D01*
X128521495Y-51992312D01*
X128772905Y-52160299D01*
X129052257Y-52276011D01*
X129348816Y-52335000D01*
X129651184Y-52335000D01*
X129947743Y-52276011D01*
X130227095Y-52160299D01*
X130478505Y-51992312D01*
X130692312Y-51778505D01*
X130860299Y-51527095D01*
X130976011Y-51247743D01*
X131035000Y-50951184D01*
X131035000Y-50648816D01*
X130976011Y-50352257D01*
X130860299Y-50072905D01*
X130692312Y-49821495D01*
X130478505Y-49607688D01*
X130227095Y-49439701D01*
X129947743Y-49323989D01*
X129651184Y-49265000D01*
X129348816Y-49265000D01*
X129052257Y-49323989D01*
X128772905Y-49439701D01*
X128521495Y-49607688D01*
X128307688Y-49821495D01*
X128250000Y-49907831D01*
X128192312Y-49821495D01*
X127978505Y-49607688D01*
X127727095Y-49439701D01*
X127447743Y-49323989D01*
X127151184Y-49265000D01*
X126848816Y-49265000D01*
X126552257Y-49323989D01*
X126272905Y-49439701D01*
X126021495Y-49607688D01*
X125807688Y-49821495D01*
X125750000Y-49907831D01*
X125692312Y-49821495D01*
X125478505Y-49607688D01*
X125227095Y-49439701D01*
X124947743Y-49323989D01*
X124651184Y-49265000D01*
X124348816Y-49265000D01*
X124052257Y-49323989D01*
X123772905Y-49439701D01*
X123521495Y-49607688D01*
X123307688Y-49821495D01*
X123139701Y-50072905D01*
X123023989Y-50352257D01*
X122965000Y-50648816D01*
X108215000Y-50648816D01*
X108156011Y-50352257D01*
X108040299Y-50072905D01*
X107872312Y-49821495D01*
X107658505Y-49607688D01*
X107407095Y-49439701D01*
X107127743Y-49323989D01*
X106831184Y-49265000D01*
X106528816Y-49265000D01*
X106232257Y-49323989D01*
X105952905Y-49439701D01*
X105701495Y-49607688D01*
X105487688Y-49821495D01*
X105430000Y-49907831D01*
X105372312Y-49821495D01*
X105158505Y-49607688D01*
X104907095Y-49439701D01*
X104627743Y-49323989D01*
X104331184Y-49265000D01*
X104028816Y-49265000D01*
X103732257Y-49323989D01*
X103452905Y-49439701D01*
X103201495Y-49607688D01*
X102987688Y-49821495D01*
X102930000Y-49907831D01*
X102872312Y-49821495D01*
X102658505Y-49607688D01*
X102407095Y-49439701D01*
X102127743Y-49323989D01*
X101831184Y-49265000D01*
X101528816Y-49265000D01*
X101232257Y-49323989D01*
X100952905Y-49439701D01*
X100701495Y-49607688D01*
X100487688Y-49821495D01*
X100319701Y-50072905D01*
X100203989Y-50352257D01*
X100145000Y-50648816D01*
X73310189Y-50648816D01*
X72789760Y-50128388D01*
X72764388Y-50097472D01*
X72641049Y-49996251D01*
X72500333Y-49921037D01*
X72347648Y-49874720D01*
X72228651Y-49863000D01*
X72228648Y-49863000D01*
X72188860Y-49859081D01*
X72149072Y-49863000D01*
X57641788Y-49863000D01*
X57602000Y-49859081D01*
X57562212Y-49863000D01*
X57562209Y-49863000D01*
X57443212Y-49874720D01*
X57290527Y-49921037D01*
X57225024Y-49956049D01*
X57149810Y-49996251D01*
X57085796Y-50048786D01*
X57026472Y-50097472D01*
X57001105Y-50128382D01*
X53185383Y-53944105D01*
X53154473Y-53969472D01*
X53129108Y-54000380D01*
X53053251Y-54092811D01*
X52990613Y-54210000D01*
X52978038Y-54233527D01*
X52931720Y-54386212D01*
X52926318Y-54441063D01*
X52916081Y-54545000D01*
X52920000Y-54584788D01*
X52920000Y-54594300D01*
X52812795Y-54754744D01*
X52734774Y-54943102D01*
X52695000Y-55143061D01*
X52695000Y-55346939D01*
X52734774Y-55546898D01*
X52812795Y-55735256D01*
X52926063Y-55904774D01*
X53070226Y-56048937D01*
X53239744Y-56162205D01*
X53294776Y-56185000D01*
X53119872Y-56185000D01*
X52688075Y-56270890D01*
X52281331Y-56439369D01*
X51915271Y-56683962D01*
X51603962Y-56995271D01*
X51359369Y-57361331D01*
X51190890Y-57768075D01*
X51105000Y-58199872D01*
X48920000Y-58199872D01*
X48920000Y-53111061D01*
X49130000Y-53111061D01*
X49130000Y-53314939D01*
X49169774Y-53514898D01*
X49247795Y-53703256D01*
X49361063Y-53872774D01*
X49505226Y-54016937D01*
X49674744Y-54130205D01*
X49863102Y-54208226D01*
X50063061Y-54248000D01*
X50266939Y-54248000D01*
X50466898Y-54208226D01*
X50655256Y-54130205D01*
X50824774Y-54016937D01*
X50968937Y-53872774D01*
X51082205Y-53703256D01*
X51160226Y-53514898D01*
X51200000Y-53314939D01*
X51200000Y-53111061D01*
X51160226Y-52911102D01*
X51082205Y-52722744D01*
X50968937Y-52553226D01*
X50824774Y-52409063D01*
X50655256Y-52295795D01*
X50466898Y-52217774D01*
X50266939Y-52178000D01*
X50063061Y-52178000D01*
X49863102Y-52217774D01*
X49674744Y-52295795D01*
X49505226Y-52409063D01*
X49361063Y-52553226D01*
X49247795Y-52722744D01*
X49169774Y-52911102D01*
X49130000Y-53111061D01*
X48920000Y-53111061D01*
X48920000Y-48920000D01*
X139040000Y-48920000D01*
X139040000Y-57424992D01*
G37*
X139040000Y-57424992D02*
X139013631Y-57361331D01*
X138769038Y-56995271D01*
X138457729Y-56683962D01*
X138091669Y-56439369D01*
X137684925Y-56270890D01*
X137253128Y-56185000D01*
X136812872Y-56185000D01*
X136381075Y-56270890D01*
X135974331Y-56439369D01*
X135608271Y-56683962D01*
X135296962Y-56995271D01*
X135052369Y-57361331D01*
X134883890Y-57768075D01*
X134798000Y-58199872D01*
X134798000Y-58640128D01*
X134883890Y-59071925D01*
X135052369Y-59478669D01*
X135296962Y-59844729D01*
X135608271Y-60156038D01*
X135974331Y-60400631D01*
X136381075Y-60569110D01*
X136812872Y-60655000D01*
X137253128Y-60655000D01*
X137684925Y-60569110D01*
X138091669Y-60400631D01*
X138457729Y-60156038D01*
X138769038Y-59844729D01*
X139013631Y-59478669D01*
X139040000Y-59415008D01*
X139040000Y-65092901D01*
X138966205Y-64914744D01*
X138852937Y-64745226D01*
X138708774Y-64601063D01*
X138539256Y-64487795D01*
X138350898Y-64409774D01*
X138150939Y-64370000D01*
X137947061Y-64370000D01*
X137747102Y-64409774D01*
X137558744Y-64487795D01*
X137389226Y-64601063D01*
X137245063Y-64745226D01*
X137131795Y-64914744D01*
X137053774Y-65103102D01*
X137014000Y-65303061D01*
X137014000Y-65506939D01*
X137053774Y-65706898D01*
X137131795Y-65895256D01*
X137245063Y-66064774D01*
X137389226Y-66208937D01*
X137558744Y-66322205D01*
X137747102Y-66400226D01*
X137947061Y-66440000D01*
X138150939Y-66440000D01*
X138350898Y-66400226D01*
X138539256Y-66322205D01*
X138708774Y-66208937D01*
X138852937Y-66064774D01*
X138966205Y-65895256D01*
X139040000Y-65717099D01*
X139040001Y-83787581D01*
X139040000Y-95860000D01*
X48920000Y-95860000D01*
X48920000Y-89687061D01*
X50654000Y-89687061D01*
X50654000Y-89890939D01*
X50693774Y-90090898D01*
X50771795Y-90279256D01*
X50885063Y-90448774D01*
X51029226Y-90592937D01*
X51198744Y-90706205D01*
X51387102Y-90784226D01*
X51587061Y-90824000D01*
X51790939Y-90824000D01*
X51990898Y-90784226D01*
X52179256Y-90706205D01*
X52348774Y-90592937D01*
X52492937Y-90448774D01*
X52606205Y-90279256D01*
X52684226Y-90090898D01*
X52724000Y-89890939D01*
X52724000Y-89687061D01*
X52684226Y-89487102D01*
X52606205Y-89298744D01*
X52492937Y-89129226D01*
X52348774Y-88985063D01*
X52179256Y-88871795D01*
X51990898Y-88793774D01*
X51790939Y-88754000D01*
X51587061Y-88754000D01*
X51387102Y-88793774D01*
X51198744Y-88871795D01*
X51029226Y-88985063D01*
X50885063Y-89129226D01*
X50771795Y-89298744D01*
X50693774Y-89487102D01*
X50654000Y-89687061D01*
X48920000Y-89687061D01*
X48920000Y-74412801D01*
X49487280Y-74412801D01*
X49491200Y-74452599D01*
X49491199Y-86329411D01*
X49487280Y-86369199D01*
X49491199Y-86408987D01*
X49491199Y-86408989D01*
X49502919Y-86527986D01*
X49549236Y-86680671D01*
X49549237Y-86680672D01*
X49624450Y-86821388D01*
X49655902Y-86859712D01*
X49725671Y-86944727D01*
X49756586Y-86970098D01*
X50148129Y-87361641D01*
X50185774Y-87550898D01*
X50263795Y-87739256D01*
X50377063Y-87908774D01*
X50521226Y-88052937D01*
X50690744Y-88166205D01*
X50879102Y-88244226D01*
X51079061Y-88284000D01*
X51282939Y-88284000D01*
X51482898Y-88244226D01*
X51671256Y-88166205D01*
X51840774Y-88052937D01*
X51984937Y-87908774D01*
X52098205Y-87739256D01*
X52176226Y-87550898D01*
X52216000Y-87350939D01*
X52216000Y-87147061D01*
X52176226Y-86947102D01*
X52098205Y-86758744D01*
X51984937Y-86589226D01*
X51840774Y-86445063D01*
X51671256Y-86331795D01*
X51482898Y-86253774D01*
X51293641Y-86216129D01*
X51111199Y-86033687D01*
X51111199Y-83204000D01*
X51282939Y-83204000D01*
X51482898Y-83164226D01*
X51671256Y-83086205D01*
X51831700Y-82979000D01*
X52258812Y-82979000D01*
X52298600Y-82982919D01*
X52338388Y-82979000D01*
X52338391Y-82979000D01*
X52457388Y-82967280D01*
X52610073Y-82920963D01*
X52750789Y-82845749D01*
X52874128Y-82744528D01*
X52899500Y-82713612D01*
X57415219Y-78197894D01*
X57446128Y-78172528D01*
X57547349Y-78049189D01*
X57622563Y-77908473D01*
X57668880Y-77755788D01*
X57680600Y-77636791D01*
X57680600Y-77636789D01*
X57684519Y-77597001D01*
X57680600Y-77557213D01*
X57680600Y-75798912D01*
X60904314Y-72575199D01*
X61035000Y-72575199D01*
X61035000Y-72746939D01*
X61074774Y-72946898D01*
X61152795Y-73135256D01*
X61260001Y-73295701D01*
X61260000Y-74551287D01*
X57138783Y-78672505D01*
X57107873Y-78697872D01*
X57082508Y-78728780D01*
X57006651Y-78821211D01*
X56931438Y-78961927D01*
X56885121Y-79114613D01*
X56869481Y-79273400D01*
X56873401Y-79313198D01*
X56873400Y-85657612D01*
X56869481Y-85697400D01*
X56873400Y-85737188D01*
X56873400Y-85737190D01*
X56885120Y-85856187D01*
X56931437Y-86008872D01*
X56931438Y-86008873D01*
X57006651Y-86149589D01*
X57038103Y-86187913D01*
X57107872Y-86272928D01*
X57138788Y-86298300D01*
X60312567Y-89472080D01*
X60271655Y-89505655D01*
X60151534Y-89652023D01*
X60048962Y-89527038D01*
X59914387Y-89416595D01*
X59760851Y-89334528D01*
X59594255Y-89283992D01*
X59421001Y-89266928D01*
X58180999Y-89266928D01*
X58007745Y-89283992D01*
X57841149Y-89334528D01*
X57687613Y-89416595D01*
X57553038Y-89527038D01*
X57442595Y-89661613D01*
X57360528Y-89815149D01*
X57309992Y-89981745D01*
X57292928Y-90154999D01*
X57292928Y-91855001D01*
X57309992Y-92028255D01*
X57360528Y-92194851D01*
X57442595Y-92348387D01*
X57553038Y-92482962D01*
X57687613Y-92593405D01*
X57841149Y-92675472D01*
X58007745Y-92726008D01*
X58180999Y-92743072D01*
X59421001Y-92743072D01*
X59594255Y-92726008D01*
X59760851Y-92675472D01*
X59914387Y-92593405D01*
X60048962Y-92482962D01*
X60159405Y-92348387D01*
X60241472Y-92194851D01*
X60269663Y-92101918D01*
X60271655Y-92104345D01*
X60500822Y-92292417D01*
X60762276Y-92432166D01*
X61045969Y-92518224D01*
X61341000Y-92547282D01*
X61636032Y-92518224D01*
X61919725Y-92432166D01*
X62181179Y-92292417D01*
X62410345Y-92104345D01*
X62548919Y-91935492D01*
X62623583Y-92075179D01*
X62811655Y-92304345D01*
X63040822Y-92492417D01*
X63302276Y-92632166D01*
X63585969Y-92718224D01*
X63881000Y-92747282D01*
X64176032Y-92718224D01*
X64459725Y-92632166D01*
X64721179Y-92492417D01*
X64950345Y-92304345D01*
X65138417Y-92075179D01*
X65213081Y-91935492D01*
X65351655Y-92104345D01*
X65580822Y-92292417D01*
X65842276Y-92432166D01*
X66125969Y-92518224D01*
X66421000Y-92547282D01*
X66716032Y-92518224D01*
X66999725Y-92432166D01*
X67261179Y-92292417D01*
X67490345Y-92104345D01*
X67678417Y-91875179D01*
X67818166Y-91613724D01*
X67904224Y-91330031D01*
X67926000Y-91108935D01*
X67926000Y-90589999D01*
X92471928Y-90589999D01*
X92471928Y-92290001D01*
X92488992Y-92463255D01*
X92539528Y-92629851D01*
X92621595Y-92783387D01*
X92732038Y-92917962D01*
X92866613Y-93028405D01*
X93020149Y-93110472D01*
X93186745Y-93161008D01*
X93359999Y-93178072D01*
X94600001Y-93178072D01*
X94773255Y-93161008D01*
X94939851Y-93110472D01*
X95093387Y-93028405D01*
X95227962Y-92917962D01*
X95338405Y-92783387D01*
X95420472Y-92629851D01*
X95450773Y-92529963D01*
X95549506Y-92630536D01*
X95794563Y-92797571D01*
X96067498Y-92913588D01*
X96159969Y-92931302D01*
X96393000Y-92810246D01*
X96393000Y-91367000D01*
X96373000Y-91367000D01*
X96373000Y-91113000D01*
X96393000Y-91113000D01*
X96393000Y-89669754D01*
X96647000Y-89669754D01*
X96647000Y-91113000D01*
X96667000Y-91113000D01*
X96667000Y-91367000D01*
X96647000Y-91367000D01*
X96647000Y-92810246D01*
X96880031Y-92931302D01*
X96972502Y-92913588D01*
X97245437Y-92797571D01*
X97490494Y-92630536D01*
X97698256Y-92418903D01*
X97728837Y-92372208D01*
X97802583Y-92510179D01*
X97990655Y-92739345D01*
X98219822Y-92927417D01*
X98481276Y-93067166D01*
X98764969Y-93153224D01*
X99060000Y-93182282D01*
X99355032Y-93153224D01*
X99638725Y-93067166D01*
X99900179Y-92927417D01*
X100129345Y-92739345D01*
X100317417Y-92510179D01*
X100457166Y-92248724D01*
X100543224Y-91965031D01*
X100565000Y-91743935D01*
X100565000Y-91211061D01*
X106026000Y-91211061D01*
X106026000Y-91414939D01*
X106065774Y-91614898D01*
X106143795Y-91803256D01*
X106257063Y-91972774D01*
X106401226Y-92116937D01*
X106570744Y-92230205D01*
X106759102Y-92308226D01*
X106959061Y-92348000D01*
X107162939Y-92348000D01*
X107362898Y-92308226D01*
X107551256Y-92230205D01*
X107720774Y-92116937D01*
X107864937Y-91972774D01*
X107978205Y-91803256D01*
X108056226Y-91614898D01*
X108096000Y-91414939D01*
X108096000Y-91211061D01*
X108056226Y-91011102D01*
X107978205Y-90822744D01*
X107864937Y-90653226D01*
X107720774Y-90509063D01*
X107551256Y-90395795D01*
X107362898Y-90317774D01*
X107162939Y-90278000D01*
X106959061Y-90278000D01*
X106759102Y-90317774D01*
X106570744Y-90395795D01*
X106401226Y-90509063D01*
X106257063Y-90653226D01*
X106143795Y-90822744D01*
X106065774Y-91011102D01*
X106026000Y-91211061D01*
X100565000Y-91211061D01*
X100565000Y-91136064D01*
X100543224Y-90914968D01*
X100457166Y-90631275D01*
X100317417Y-90369821D01*
X100129345Y-90140655D01*
X99900178Y-89952583D01*
X99638724Y-89812834D01*
X99355031Y-89726776D01*
X99060000Y-89697718D01*
X98764968Y-89726776D01*
X98481275Y-89812834D01*
X98219821Y-89952583D01*
X97990655Y-90140655D01*
X97857010Y-90303503D01*
X97698256Y-90061097D01*
X97490494Y-89849464D01*
X97245437Y-89682429D01*
X96972502Y-89566412D01*
X96880031Y-89548698D01*
X96647000Y-89669754D01*
X96393000Y-89669754D01*
X96159969Y-89548698D01*
X96067498Y-89566412D01*
X95794563Y-89682429D01*
X95549506Y-89849464D01*
X95341744Y-90061097D01*
X95327326Y-90083113D01*
X95227962Y-89962038D01*
X95093387Y-89851595D01*
X94939851Y-89769528D01*
X94773255Y-89718992D01*
X94600001Y-89701928D01*
X93359999Y-89701928D01*
X93186745Y-89718992D01*
X93020149Y-89769528D01*
X92866613Y-89851595D01*
X92732038Y-89962038D01*
X92621595Y-90096613D01*
X92539528Y-90250149D01*
X92488992Y-90416745D01*
X92471928Y-90589999D01*
X67926000Y-90589999D01*
X67926000Y-90501064D01*
X67904224Y-90279968D01*
X67818166Y-89996275D01*
X67678417Y-89734821D01*
X67490345Y-89505655D01*
X67261178Y-89317583D01*
X66999724Y-89177834D01*
X66716031Y-89091776D01*
X66421000Y-89062718D01*
X66125968Y-89091776D01*
X65842275Y-89177834D01*
X65580821Y-89317583D01*
X65351655Y-89505655D01*
X65163583Y-89734822D01*
X65088920Y-89874508D01*
X64950345Y-89705655D01*
X64721178Y-89517583D01*
X64459724Y-89377834D01*
X64176031Y-89291776D01*
X63881000Y-89262718D01*
X63585968Y-89291776D01*
X63302275Y-89377834D01*
X63040821Y-89517583D01*
X62811655Y-89705655D01*
X62673081Y-89874508D01*
X62598417Y-89734821D01*
X62410345Y-89505655D01*
X62181178Y-89317583D01*
X62149570Y-89300688D01*
X62139280Y-89196212D01*
X62092963Y-89043526D01*
X62017749Y-88902811D01*
X61941893Y-88810380D01*
X61916528Y-88779472D01*
X61885618Y-88754105D01*
X58493400Y-85361888D01*
X58493400Y-82575061D01*
X59798000Y-82575061D01*
X59798000Y-82778939D01*
X59837774Y-82978898D01*
X59915795Y-83167256D01*
X60029063Y-83336774D01*
X60173226Y-83480937D01*
X60342744Y-83594205D01*
X60531102Y-83672226D01*
X60731061Y-83712000D01*
X60934939Y-83712000D01*
X61134898Y-83672226D01*
X61323256Y-83594205D01*
X61483700Y-83487000D01*
X76033212Y-83487000D01*
X76073000Y-83490919D01*
X76112788Y-83487000D01*
X76112791Y-83487000D01*
X76231788Y-83475280D01*
X76384473Y-83428963D01*
X76525189Y-83353749D01*
X76648528Y-83252528D01*
X76673900Y-83221612D01*
X79352451Y-80543061D01*
X103994000Y-80543061D01*
X103994000Y-80746939D01*
X104033774Y-80946898D01*
X104111795Y-81135256D01*
X104225063Y-81304774D01*
X104369226Y-81448937D01*
X104538744Y-81562205D01*
X104727102Y-81640226D01*
X104927061Y-81680000D01*
X105130939Y-81680000D01*
X105330898Y-81640226D01*
X105519256Y-81562205D01*
X105688774Y-81448937D01*
X105832937Y-81304774D01*
X105946205Y-81135256D01*
X106024226Y-80946898D01*
X106064000Y-80746939D01*
X106064000Y-80543061D01*
X106024226Y-80343102D01*
X105946205Y-80154744D01*
X105832937Y-79985226D01*
X105791000Y-79943289D01*
X105791000Y-79527061D01*
X131426000Y-79527061D01*
X131426000Y-79730939D01*
X131465774Y-79930898D01*
X131543795Y-80119256D01*
X131657063Y-80288774D01*
X131801226Y-80432937D01*
X131970744Y-80546205D01*
X132159102Y-80624226D01*
X132359061Y-80664000D01*
X132562939Y-80664000D01*
X132762898Y-80624226D01*
X132951256Y-80546205D01*
X133120774Y-80432937D01*
X133264937Y-80288774D01*
X133378205Y-80119256D01*
X133456226Y-79930898D01*
X133496000Y-79730939D01*
X133496000Y-79527061D01*
X133456226Y-79327102D01*
X133378205Y-79138744D01*
X133264937Y-78969226D01*
X133120774Y-78825063D01*
X132951256Y-78711795D01*
X132762898Y-78633774D01*
X132562939Y-78594000D01*
X132359061Y-78594000D01*
X132159102Y-78633774D01*
X131970744Y-78711795D01*
X131801226Y-78825063D01*
X131657063Y-78969226D01*
X131543795Y-79138744D01*
X131465774Y-79327102D01*
X131426000Y-79527061D01*
X105791000Y-79527061D01*
X105791000Y-78420630D01*
X111675631Y-72536000D01*
X111734939Y-72536000D01*
X111934898Y-72496226D01*
X112123256Y-72418205D01*
X112292774Y-72304937D01*
X112436937Y-72160774D01*
X112550205Y-71991256D01*
X112555893Y-71977524D01*
X115198000Y-74619631D01*
X115198001Y-76133288D01*
X115156063Y-76175226D01*
X115042795Y-76344744D01*
X114964774Y-76533102D01*
X114925000Y-76733061D01*
X114925000Y-76936939D01*
X114964774Y-77136898D01*
X115042795Y-77325256D01*
X115156063Y-77494774D01*
X115300226Y-77638937D01*
X115469744Y-77752205D01*
X115658102Y-77830226D01*
X115858061Y-77870000D01*
X116061939Y-77870000D01*
X116261898Y-77830226D01*
X116450256Y-77752205D01*
X116619774Y-77638937D01*
X116763937Y-77494774D01*
X116877205Y-77325256D01*
X116955226Y-77136898D01*
X116995000Y-76936939D01*
X116995000Y-76733061D01*
X116969739Y-76606061D01*
X119248000Y-76606061D01*
X119248000Y-76809939D01*
X119287774Y-77009898D01*
X119365795Y-77198256D01*
X119479063Y-77367774D01*
X119623226Y-77511937D01*
X119792744Y-77625205D01*
X119981102Y-77703226D01*
X120181061Y-77743000D01*
X120384939Y-77743000D01*
X120584898Y-77703226D01*
X120773256Y-77625205D01*
X120942774Y-77511937D01*
X121086937Y-77367774D01*
X121200205Y-77198256D01*
X121278226Y-77009898D01*
X121318000Y-76809939D01*
X121318000Y-76735613D01*
X122790000Y-76735613D01*
X122790000Y-76939491D01*
X122829774Y-77139450D01*
X122907795Y-77327808D01*
X123021063Y-77497326D01*
X123165226Y-77641489D01*
X123334744Y-77754757D01*
X123523102Y-77832778D01*
X123723061Y-77872552D01*
X123926939Y-77872552D01*
X124126898Y-77832778D01*
X124315256Y-77754757D01*
X124484774Y-77641489D01*
X124628937Y-77497326D01*
X124742205Y-77327808D01*
X124820226Y-77139450D01*
X124860000Y-76939491D01*
X124860000Y-76735613D01*
X124820226Y-76535654D01*
X124742205Y-76347296D01*
X124628937Y-76177778D01*
X124484774Y-76033615D01*
X124315256Y-75920347D01*
X124126898Y-75842326D01*
X123926939Y-75802552D01*
X123723061Y-75802552D01*
X123523102Y-75842326D01*
X123334744Y-75920347D01*
X123165226Y-76033615D01*
X123021063Y-76177778D01*
X122907795Y-76347296D01*
X122829774Y-76535654D01*
X122790000Y-76735613D01*
X121318000Y-76735613D01*
X121318000Y-76606061D01*
X121278226Y-76406102D01*
X121200205Y-76217744D01*
X121086937Y-76048226D01*
X120942774Y-75904063D01*
X120773256Y-75790795D01*
X120584898Y-75712774D01*
X120384939Y-75673000D01*
X120181061Y-75673000D01*
X119981102Y-75712774D01*
X119792744Y-75790795D01*
X119623226Y-75904063D01*
X119479063Y-76048226D01*
X119365795Y-76217744D01*
X119287774Y-76406102D01*
X119248000Y-76606061D01*
X116969739Y-76606061D01*
X116955226Y-76533102D01*
X116877205Y-76344744D01*
X116763937Y-76175226D01*
X116722000Y-76133289D01*
X116722000Y-75396384D01*
X127329314Y-75396384D01*
X127329314Y-75600262D01*
X127369088Y-75800221D01*
X127447109Y-75988579D01*
X127560377Y-76158097D01*
X127704540Y-76302260D01*
X127874058Y-76415528D01*
X128062416Y-76493549D01*
X128262375Y-76533323D01*
X128466253Y-76533323D01*
X128666212Y-76493549D01*
X128854570Y-76415528D01*
X128972810Y-76336523D01*
X135534514Y-76336523D01*
X135575677Y-76340577D01*
X135616840Y-76336523D01*
X135616847Y-76336523D01*
X135739993Y-76324394D01*
X135897994Y-76276465D01*
X136043609Y-76198632D01*
X136171241Y-76093887D01*
X136197488Y-76061905D01*
X137703425Y-74555969D01*
X137842898Y-74528226D01*
X138031256Y-74450205D01*
X138200774Y-74336937D01*
X138344937Y-74192774D01*
X138458205Y-74023256D01*
X138536226Y-73834898D01*
X138576000Y-73634939D01*
X138576000Y-73431061D01*
X138536226Y-73231102D01*
X138458205Y-73042744D01*
X138344937Y-72873226D01*
X138200774Y-72729063D01*
X138031256Y-72615795D01*
X137842898Y-72537774D01*
X137642939Y-72498000D01*
X137439061Y-72498000D01*
X137239102Y-72537774D01*
X137050744Y-72615795D01*
X136881226Y-72729063D01*
X136737063Y-72873226D01*
X136623795Y-73042744D01*
X136545774Y-73231102D01*
X136518031Y-73370575D01*
X135228484Y-74660123D01*
X132478173Y-74660123D01*
X132480000Y-74650939D01*
X132480000Y-74447061D01*
X132440226Y-74247102D01*
X132362205Y-74058744D01*
X132248937Y-73889226D01*
X132104774Y-73745063D01*
X131935256Y-73631795D01*
X131746898Y-73553774D01*
X131546939Y-73514000D01*
X131343061Y-73514000D01*
X131143102Y-73553774D01*
X130954744Y-73631795D01*
X130785226Y-73745063D01*
X130641063Y-73889226D01*
X130527795Y-74058744D01*
X130449774Y-74247102D01*
X130410000Y-74447061D01*
X130410000Y-74650939D01*
X130411827Y-74660123D01*
X128972810Y-74660123D01*
X128854570Y-74581118D01*
X128666212Y-74503097D01*
X128466253Y-74463323D01*
X128262375Y-74463323D01*
X128062416Y-74503097D01*
X127874058Y-74581118D01*
X127704540Y-74694386D01*
X127560377Y-74838549D01*
X127447109Y-75008067D01*
X127369088Y-75196425D01*
X127329314Y-75396384D01*
X116722000Y-75396384D01*
X116722000Y-74341422D01*
X116725686Y-74303999D01*
X116720082Y-74247102D01*
X116710974Y-74154622D01*
X116667402Y-74010985D01*
X116596645Y-73878608D01*
X116501422Y-73762578D01*
X116472353Y-73738722D01*
X114640692Y-71907061D01*
X130918000Y-71907061D01*
X130918000Y-72110939D01*
X130957774Y-72310898D01*
X131035795Y-72499256D01*
X131149063Y-72668774D01*
X131293226Y-72812937D01*
X131462744Y-72926205D01*
X131651102Y-73004226D01*
X131851061Y-73044000D01*
X132054939Y-73044000D01*
X132254898Y-73004226D01*
X132443256Y-72926205D01*
X132612774Y-72812937D01*
X132756937Y-72668774D01*
X132870205Y-72499256D01*
X132948226Y-72310898D01*
X132988000Y-72110939D01*
X132988000Y-71907061D01*
X132948226Y-71707102D01*
X132870205Y-71518744D01*
X132756937Y-71349226D01*
X132612774Y-71205063D01*
X132443256Y-71091795D01*
X132254898Y-71013774D01*
X132054939Y-70974000D01*
X131851061Y-70974000D01*
X131651102Y-71013774D01*
X131462744Y-71091795D01*
X131293226Y-71205063D01*
X131149063Y-71349226D01*
X131035795Y-71518744D01*
X130957774Y-71707102D01*
X130918000Y-71907061D01*
X114640692Y-71907061D01*
X112668000Y-69934370D01*
X112668000Y-69875061D01*
X112628226Y-69675102D01*
X112550205Y-69486744D01*
X112436937Y-69317226D01*
X112292774Y-69173063D01*
X112123256Y-69059795D01*
X111934898Y-68981774D01*
X111734939Y-68942000D01*
X111531061Y-68942000D01*
X111331102Y-68981774D01*
X111142744Y-69059795D01*
X110973226Y-69173063D01*
X110829063Y-69317226D01*
X110715795Y-69486744D01*
X110637774Y-69675102D01*
X110598000Y-69875061D01*
X110598000Y-70078939D01*
X110637774Y-70278898D01*
X110715795Y-70467256D01*
X110829063Y-70636774D01*
X110931289Y-70739000D01*
X110829063Y-70841226D01*
X110715795Y-71010744D01*
X110637774Y-71199102D01*
X110598000Y-71399061D01*
X110598000Y-71458369D01*
X104516654Y-77539716D01*
X104487578Y-77563578D01*
X104460149Y-77597001D01*
X104392355Y-77679608D01*
X104379731Y-77703226D01*
X104321598Y-77811986D01*
X104278026Y-77955623D01*
X104273354Y-78003061D01*
X104263314Y-78105000D01*
X104267000Y-78142423D01*
X104267001Y-79943288D01*
X104225063Y-79985226D01*
X104111795Y-80154744D01*
X104033774Y-80343102D01*
X103994000Y-80543061D01*
X79352451Y-80543061D01*
X82527451Y-77368061D01*
X95765000Y-77368061D01*
X95765000Y-77571939D01*
X95804774Y-77771898D01*
X95882795Y-77960256D01*
X95996063Y-78129774D01*
X96140226Y-78273937D01*
X96309744Y-78387205D01*
X96498102Y-78465226D01*
X96698061Y-78505000D01*
X96901939Y-78505000D01*
X97101898Y-78465226D01*
X97290256Y-78387205D01*
X97459774Y-78273937D01*
X97603937Y-78129774D01*
X97717205Y-77960256D01*
X97795226Y-77771898D01*
X97835000Y-77571939D01*
X97835000Y-77368061D01*
X97795226Y-77168102D01*
X97717205Y-76979744D01*
X97603937Y-76810226D01*
X97459774Y-76666063D01*
X97290256Y-76552795D01*
X97101898Y-76474774D01*
X96901939Y-76435000D01*
X96698061Y-76435000D01*
X96498102Y-76474774D01*
X96309744Y-76552795D01*
X96140226Y-76666063D01*
X95996063Y-76810226D01*
X95882795Y-76979744D01*
X95804774Y-77168102D01*
X95765000Y-77368061D01*
X82527451Y-77368061D01*
X84313642Y-75581871D01*
X84502898Y-75544226D01*
X84691256Y-75466205D01*
X84860774Y-75352937D01*
X85004937Y-75208774D01*
X85118205Y-75039256D01*
X85196226Y-74850898D01*
X85236000Y-74650939D01*
X85236000Y-74475000D01*
X100474300Y-74475000D01*
X100634744Y-74582205D01*
X100823102Y-74660226D01*
X101023061Y-74700000D01*
X101226939Y-74700000D01*
X101426898Y-74660226D01*
X101615256Y-74582205D01*
X101784774Y-74468937D01*
X101928937Y-74324774D01*
X102042205Y-74155256D01*
X102120226Y-73966898D01*
X102160000Y-73766939D01*
X102160000Y-73563061D01*
X102120226Y-73363102D01*
X102042205Y-73174744D01*
X101928937Y-73005226D01*
X101784774Y-72861063D01*
X101615256Y-72747795D01*
X101426898Y-72669774D01*
X101226939Y-72630000D01*
X101023061Y-72630000D01*
X100823102Y-72669774D01*
X100634744Y-72747795D01*
X100474300Y-72855000D01*
X83092787Y-72855000D01*
X83052999Y-72851081D01*
X83013211Y-72855000D01*
X83013209Y-72855000D01*
X82894212Y-72866720D01*
X82741527Y-72913037D01*
X82695878Y-72937437D01*
X82600810Y-72988251D01*
X82545210Y-73033881D01*
X82477472Y-73089472D01*
X82452105Y-73120382D01*
X81548359Y-74024129D01*
X81359102Y-74061774D01*
X81170744Y-74139795D01*
X81001226Y-74253063D01*
X80857063Y-74397226D01*
X80743795Y-74566744D01*
X80665774Y-74755102D01*
X80626000Y-74955061D01*
X80626000Y-75158939D01*
X80665774Y-75358898D01*
X80743795Y-75547256D01*
X80857063Y-75716774D01*
X81001226Y-75860937D01*
X81170744Y-75974205D01*
X81359102Y-76052226D01*
X81520214Y-76084273D01*
X75737488Y-81867000D01*
X61483700Y-81867000D01*
X61323256Y-81759795D01*
X61134898Y-81681774D01*
X60934939Y-81642000D01*
X60731061Y-81642000D01*
X60531102Y-81681774D01*
X60342744Y-81759795D01*
X60173226Y-81873063D01*
X60029063Y-82017226D01*
X59915795Y-82186744D01*
X59837774Y-82375102D01*
X59798000Y-82575061D01*
X58493400Y-82575061D01*
X58493400Y-80035061D01*
X59290000Y-80035061D01*
X59290000Y-80238939D01*
X59329774Y-80438898D01*
X59407795Y-80627256D01*
X59521063Y-80796774D01*
X59665226Y-80940937D01*
X59834744Y-81054205D01*
X60023102Y-81132226D01*
X60223061Y-81172000D01*
X60426939Y-81172000D01*
X60626898Y-81132226D01*
X60815256Y-81054205D01*
X60975700Y-80947000D01*
X61606012Y-80947000D01*
X61645800Y-80950919D01*
X61685588Y-80947000D01*
X61685591Y-80947000D01*
X61804588Y-80935280D01*
X61957273Y-80888963D01*
X62097989Y-80813749D01*
X62221328Y-80712528D01*
X62246700Y-80681612D01*
X64925251Y-78003061D01*
X75038000Y-78003061D01*
X75038000Y-78206939D01*
X75077774Y-78406898D01*
X75155795Y-78595256D01*
X75269063Y-78764774D01*
X75413226Y-78908937D01*
X75582744Y-79022205D01*
X75771102Y-79100226D01*
X75971061Y-79140000D01*
X76174939Y-79140000D01*
X76374898Y-79100226D01*
X76563256Y-79022205D01*
X76732774Y-78908937D01*
X76876937Y-78764774D01*
X76990205Y-78595256D01*
X77068226Y-78406898D01*
X77108000Y-78206939D01*
X77108000Y-78003061D01*
X77068226Y-77803102D01*
X76990205Y-77614744D01*
X76876937Y-77445226D01*
X76732774Y-77301063D01*
X76563256Y-77187795D01*
X76374898Y-77109774D01*
X76174939Y-77070000D01*
X75971061Y-77070000D01*
X75771102Y-77109774D01*
X75582744Y-77187795D01*
X75413226Y-77301063D01*
X75269063Y-77445226D01*
X75155795Y-77614744D01*
X75077774Y-77803102D01*
X75038000Y-78003061D01*
X64925251Y-78003061D01*
X68989251Y-73939061D01*
X72498000Y-73939061D01*
X72498000Y-74142939D01*
X72537774Y-74342898D01*
X72615795Y-74531256D01*
X72729063Y-74700774D01*
X72873226Y-74844937D01*
X73042744Y-74958205D01*
X73231102Y-75036226D01*
X73431061Y-75076000D01*
X73634939Y-75076000D01*
X73834898Y-75036226D01*
X74023256Y-74958205D01*
X74183700Y-74851000D01*
X79754212Y-74851000D01*
X79794000Y-74854919D01*
X79833788Y-74851000D01*
X79833791Y-74851000D01*
X79952788Y-74839280D01*
X80105473Y-74792963D01*
X80246189Y-74717749D01*
X80369528Y-74616528D01*
X80394899Y-74585613D01*
X81552642Y-73427871D01*
X81741898Y-73390226D01*
X81930256Y-73312205D01*
X82099774Y-73198937D01*
X82243937Y-73054774D01*
X82357205Y-72885256D01*
X82435226Y-72696898D01*
X82475000Y-72496939D01*
X82475000Y-72293061D01*
X82435226Y-72093102D01*
X82357205Y-71904744D01*
X82243937Y-71735226D01*
X82099774Y-71591063D01*
X81930256Y-71477795D01*
X81741898Y-71399774D01*
X81541939Y-71360000D01*
X81338061Y-71360000D01*
X81138102Y-71399774D01*
X80949744Y-71477795D01*
X80780226Y-71591063D01*
X80636063Y-71735226D01*
X80522795Y-71904744D01*
X80444774Y-72093102D01*
X80407129Y-72282358D01*
X79458488Y-73231000D01*
X74183700Y-73231000D01*
X74023256Y-73123795D01*
X73834898Y-73045774D01*
X73634939Y-73006000D01*
X73431061Y-73006000D01*
X73231102Y-73045774D01*
X73042744Y-73123795D01*
X72873226Y-73237063D01*
X72729063Y-73381226D01*
X72615795Y-73550744D01*
X72537774Y-73739102D01*
X72498000Y-73939061D01*
X68989251Y-73939061D01*
X71905251Y-71023061D01*
X94690000Y-71023061D01*
X94690000Y-71226939D01*
X94729774Y-71426898D01*
X94807795Y-71615256D01*
X94921063Y-71784774D01*
X95065226Y-71928937D01*
X95234744Y-72042205D01*
X95423102Y-72120226D01*
X95623061Y-72160000D01*
X95826939Y-72160000D01*
X96026898Y-72120226D01*
X96215256Y-72042205D01*
X96384774Y-71928937D01*
X96528937Y-71784774D01*
X96642205Y-71615256D01*
X96720226Y-71426898D01*
X96747969Y-71287424D01*
X97144332Y-70891061D01*
X99930000Y-70891061D01*
X99930000Y-71094939D01*
X99969774Y-71294898D01*
X100047795Y-71483256D01*
X100161063Y-71652774D01*
X100305226Y-71796937D01*
X100474744Y-71910205D01*
X100663102Y-71988226D01*
X100863061Y-72028000D01*
X101066939Y-72028000D01*
X101266898Y-71988226D01*
X101455256Y-71910205D01*
X101489921Y-71887043D01*
X104264519Y-74661642D01*
X104302164Y-74850898D01*
X104380185Y-75039256D01*
X104493453Y-75208774D01*
X104637616Y-75352937D01*
X104807134Y-75466205D01*
X104995492Y-75544226D01*
X105195451Y-75584000D01*
X105399329Y-75584000D01*
X105599288Y-75544226D01*
X105787646Y-75466205D01*
X105957164Y-75352937D01*
X106101327Y-75208774D01*
X106214595Y-75039256D01*
X106292616Y-74850898D01*
X106332390Y-74650939D01*
X106332390Y-74447061D01*
X106292616Y-74247102D01*
X106214595Y-74058744D01*
X106101327Y-73889226D01*
X105957164Y-73745063D01*
X105787646Y-73631795D01*
X105599288Y-73553774D01*
X105410032Y-73516129D01*
X102342290Y-70448388D01*
X102316918Y-70417472D01*
X102193579Y-70316251D01*
X102052863Y-70241037D01*
X101900178Y-70194720D01*
X101781181Y-70183000D01*
X101781178Y-70183000D01*
X101741390Y-70179081D01*
X101701602Y-70183000D01*
X101615700Y-70183000D01*
X101455256Y-70075795D01*
X101266898Y-69997774D01*
X101066939Y-69958000D01*
X100863061Y-69958000D01*
X100663102Y-69997774D01*
X100474744Y-70075795D01*
X100305226Y-70189063D01*
X100161063Y-70333226D01*
X100047795Y-70502744D01*
X99969774Y-70691102D01*
X99930000Y-70891061D01*
X97144332Y-70891061D01*
X98510808Y-69524586D01*
X98589309Y-69428932D01*
X98641588Y-69331124D01*
X100284513Y-67688200D01*
X121203488Y-67688200D01*
X124189305Y-70674018D01*
X124214672Y-70704928D01*
X124251698Y-70735314D01*
X124338010Y-70806149D01*
X124371879Y-70824252D01*
X124478727Y-70881363D01*
X124631412Y-70927680D01*
X124750409Y-70939400D01*
X124750411Y-70939400D01*
X124790199Y-70943319D01*
X124829987Y-70939400D01*
X133174820Y-70939400D01*
X134444028Y-72081688D01*
X134456236Y-72096564D01*
X134505255Y-72136793D01*
X134521674Y-72151570D01*
X134537098Y-72162926D01*
X134583868Y-72201309D01*
X134603445Y-72211773D01*
X134621322Y-72224935D01*
X134676111Y-72250614D01*
X134729483Y-72279142D01*
X134750730Y-72285587D01*
X134770826Y-72295006D01*
X134829565Y-72309501D01*
X134887484Y-72327071D01*
X134909579Y-72329247D01*
X134931128Y-72334565D01*
X134991566Y-72337322D01*
X135010630Y-72339200D01*
X135032722Y-72339200D01*
X135096067Y-72342090D01*
X135115091Y-72339200D01*
X135916504Y-72339200D01*
X136034744Y-72418205D01*
X136223102Y-72496226D01*
X136423061Y-72536000D01*
X136626939Y-72536000D01*
X136826898Y-72496226D01*
X137015256Y-72418205D01*
X137184774Y-72304937D01*
X137328937Y-72160774D01*
X137442205Y-71991256D01*
X137520226Y-71802898D01*
X137560000Y-71602939D01*
X137560000Y-71399061D01*
X137520226Y-71199102D01*
X137442205Y-71010744D01*
X137328937Y-70841226D01*
X137184774Y-70697063D01*
X137015256Y-70583795D01*
X136826898Y-70505774D01*
X136626939Y-70466000D01*
X136423061Y-70466000D01*
X136223102Y-70505774D01*
X136034744Y-70583795D01*
X135916504Y-70662800D01*
X135373448Y-70662800D01*
X134057924Y-69478830D01*
X133958277Y-69405465D01*
X133808773Y-69335393D01*
X133648470Y-69295835D01*
X133483533Y-69288310D01*
X133320295Y-69313107D01*
X133302899Y-69319400D01*
X125125713Y-69319400D01*
X123649374Y-67843061D01*
X125330000Y-67843061D01*
X125330000Y-68046939D01*
X125369774Y-68246898D01*
X125447795Y-68435256D01*
X125561063Y-68604774D01*
X125705226Y-68748937D01*
X125874744Y-68862205D01*
X126063102Y-68940226D01*
X126263061Y-68980000D01*
X126466939Y-68980000D01*
X126666898Y-68940226D01*
X126855256Y-68862205D01*
X127024774Y-68748937D01*
X127168937Y-68604774D01*
X127282205Y-68435256D01*
X127360226Y-68246898D01*
X127400000Y-68046939D01*
X127400000Y-67951051D01*
X128360000Y-67951051D01*
X128360000Y-68154929D01*
X128399774Y-68354888D01*
X128477795Y-68543246D01*
X128591063Y-68712764D01*
X128735226Y-68856927D01*
X128904744Y-68970195D01*
X129093102Y-69048216D01*
X129293061Y-69087990D01*
X129496939Y-69087990D01*
X129696898Y-69048216D01*
X129885256Y-68970195D01*
X130054774Y-68856927D01*
X130198937Y-68712764D01*
X130312205Y-68543246D01*
X130390226Y-68354888D01*
X130417969Y-68215415D01*
X130510584Y-68122800D01*
X133981090Y-68122800D01*
X134005774Y-68246898D01*
X134083795Y-68435256D01*
X134197063Y-68604774D01*
X134341226Y-68748937D01*
X134510744Y-68862205D01*
X134699102Y-68940226D01*
X134899061Y-68980000D01*
X135102939Y-68980000D01*
X135302898Y-68940226D01*
X135491256Y-68862205D01*
X135660774Y-68748937D01*
X135804937Y-68604774D01*
X135918205Y-68435256D01*
X135996226Y-68246898D01*
X136036000Y-68046939D01*
X136036000Y-67843061D01*
X135996226Y-67643102D01*
X135918205Y-67454744D01*
X135804937Y-67285226D01*
X135660774Y-67141063D01*
X135491256Y-67027795D01*
X135302898Y-66949774D01*
X135163425Y-66922031D01*
X134962411Y-66721017D01*
X134936164Y-66689036D01*
X134808532Y-66584291D01*
X134662917Y-66506458D01*
X134504916Y-66458529D01*
X134381770Y-66446400D01*
X134381763Y-66446400D01*
X134340600Y-66442346D01*
X134299437Y-66446400D01*
X130204553Y-66446400D01*
X130163390Y-66442346D01*
X130122227Y-66446400D01*
X130122220Y-66446400D01*
X129999074Y-66458529D01*
X129841073Y-66506458D01*
X129695458Y-66584291D01*
X129632942Y-66635597D01*
X129567826Y-66689036D01*
X129541583Y-66721013D01*
X129232575Y-67030021D01*
X129093102Y-67057764D01*
X128904744Y-67135785D01*
X128735226Y-67249053D01*
X128591063Y-67393216D01*
X128477795Y-67562734D01*
X128399774Y-67751092D01*
X128360000Y-67951051D01*
X127400000Y-67951051D01*
X127400000Y-67843061D01*
X127360226Y-67643102D01*
X127282205Y-67454744D01*
X127168937Y-67285226D01*
X127024774Y-67141063D01*
X126855256Y-67027795D01*
X126666898Y-66949774D01*
X126466939Y-66910000D01*
X126263061Y-66910000D01*
X126063102Y-66949774D01*
X125874744Y-67027795D01*
X125705226Y-67141063D01*
X125561063Y-67285226D01*
X125447795Y-67454744D01*
X125369774Y-67643102D01*
X125330000Y-67843061D01*
X123649374Y-67843061D01*
X122139900Y-66333588D01*
X122114528Y-66302672D01*
X121991189Y-66201451D01*
X121850473Y-66126237D01*
X121697788Y-66079920D01*
X121578791Y-66068200D01*
X121578788Y-66068200D01*
X121539000Y-66064281D01*
X121499212Y-66068200D01*
X99988788Y-66068200D01*
X99949000Y-66064281D01*
X99909212Y-66068200D01*
X99909209Y-66068200D01*
X99790212Y-66079920D01*
X99637527Y-66126237D01*
X99572024Y-66161249D01*
X99496810Y-66201451D01*
X99432796Y-66253986D01*
X99373472Y-66302672D01*
X99348105Y-66333582D01*
X97420672Y-68261016D01*
X97325414Y-68339192D01*
X95562576Y-70102031D01*
X95423102Y-70129774D01*
X95234744Y-70207795D01*
X95065226Y-70321063D01*
X94921063Y-70465226D01*
X94807795Y-70634744D01*
X94729774Y-70823102D01*
X94690000Y-71023061D01*
X71905251Y-71023061D01*
X72045618Y-70882695D01*
X72076528Y-70857328D01*
X72177749Y-70733989D01*
X72252963Y-70593273D01*
X72299280Y-70440588D01*
X72311000Y-70321591D01*
X72311000Y-70321589D01*
X72314919Y-70281801D01*
X72311000Y-70242013D01*
X72311000Y-69611700D01*
X72418205Y-69451256D01*
X72496226Y-69262898D01*
X72536000Y-69062939D01*
X72536000Y-68859061D01*
X72496226Y-68659102D01*
X72418205Y-68470744D01*
X72304937Y-68301226D01*
X72160774Y-68157063D01*
X71991256Y-68043795D01*
X71802898Y-67965774D01*
X71602939Y-67926000D01*
X71399061Y-67926000D01*
X71199102Y-67965774D01*
X71010744Y-68043795D01*
X70841226Y-68157063D01*
X70697063Y-68301226D01*
X70583795Y-68470744D01*
X70505774Y-68659102D01*
X70466000Y-68859061D01*
X70466000Y-69062939D01*
X70505774Y-69262898D01*
X70583795Y-69451256D01*
X70691000Y-69611701D01*
X70691001Y-69946286D01*
X61310288Y-79327000D01*
X60975700Y-79327000D01*
X60815256Y-79219795D01*
X60626898Y-79141774D01*
X60426939Y-79102000D01*
X60223061Y-79102000D01*
X60023102Y-79141774D01*
X59834744Y-79219795D01*
X59665226Y-79333063D01*
X59521063Y-79477226D01*
X59407795Y-79646744D01*
X59329774Y-79835102D01*
X59290000Y-80035061D01*
X58493400Y-80035061D01*
X58493400Y-79608912D01*
X62495554Y-75606759D01*
X62569063Y-75716774D01*
X62713226Y-75860937D01*
X62882744Y-75974205D01*
X63071102Y-76052226D01*
X63271061Y-76092000D01*
X63474939Y-76092000D01*
X63674898Y-76052226D01*
X63863256Y-75974205D01*
X64032774Y-75860937D01*
X64176937Y-75716774D01*
X64290205Y-75547256D01*
X64368226Y-75358898D01*
X64405871Y-75169641D01*
X69505618Y-70069895D01*
X69536528Y-70044528D01*
X69637749Y-69921189D01*
X69712963Y-69780473D01*
X69759280Y-69627788D01*
X69771000Y-69508791D01*
X69771000Y-69508789D01*
X69774919Y-69469001D01*
X69771000Y-69429213D01*
X69771000Y-63708512D01*
X72629642Y-60849871D01*
X72818898Y-60812226D01*
X73007256Y-60734205D01*
X73176774Y-60620937D01*
X73320937Y-60476774D01*
X73434205Y-60307256D01*
X73512226Y-60118898D01*
X73552000Y-59918939D01*
X73552000Y-59715061D01*
X75546000Y-59715061D01*
X75546000Y-59918939D01*
X75585774Y-60118898D01*
X75663795Y-60307256D01*
X75777063Y-60476774D01*
X75921226Y-60620937D01*
X76090744Y-60734205D01*
X76279102Y-60812226D01*
X76479061Y-60852000D01*
X76682939Y-60852000D01*
X76882898Y-60812226D01*
X77071256Y-60734205D01*
X77240774Y-60620937D01*
X77384937Y-60476774D01*
X77498205Y-60307256D01*
X77576226Y-60118898D01*
X77616000Y-59918939D01*
X77616000Y-59715061D01*
X77576226Y-59515102D01*
X77498205Y-59326744D01*
X77384937Y-59157226D01*
X77240774Y-59013063D01*
X77071256Y-58899795D01*
X76882898Y-58821774D01*
X76682939Y-58782000D01*
X76479061Y-58782000D01*
X76279102Y-58821774D01*
X76090744Y-58899795D01*
X75921226Y-59013063D01*
X75777063Y-59157226D01*
X75663795Y-59326744D01*
X75585774Y-59515102D01*
X75546000Y-59715061D01*
X73552000Y-59715061D01*
X73512226Y-59515102D01*
X73434205Y-59326744D01*
X73320937Y-59157226D01*
X73176774Y-59013063D01*
X73007256Y-58899795D01*
X72818898Y-58821774D01*
X72618939Y-58782000D01*
X72415061Y-58782000D01*
X72215102Y-58821774D01*
X72026744Y-58899795D01*
X71857226Y-59013063D01*
X71713063Y-59157226D01*
X71599795Y-59326744D01*
X71521774Y-59515102D01*
X71484129Y-59704358D01*
X68416388Y-62772100D01*
X68385472Y-62797472D01*
X68347103Y-62844226D01*
X68284251Y-62920811D01*
X68244049Y-62996025D01*
X68209037Y-63061528D01*
X68162720Y-63214213D01*
X68151000Y-63333209D01*
X68147081Y-63373000D01*
X68151000Y-63412788D01*
X68151001Y-69133486D01*
X64778794Y-72505694D01*
X64684937Y-72365226D01*
X64670989Y-72351278D01*
X64632963Y-72225925D01*
X64571502Y-72110939D01*
X64557749Y-72085208D01*
X64498778Y-72013352D01*
X64456528Y-71961870D01*
X64425619Y-71936504D01*
X63709700Y-71220586D01*
X63684329Y-71189671D01*
X63560990Y-71088450D01*
X63420274Y-71013236D01*
X63267589Y-70966919D01*
X63148592Y-70955199D01*
X63148589Y-70955199D01*
X63108801Y-70951280D01*
X63069013Y-70955199D01*
X60608588Y-70955199D01*
X60568800Y-70951280D01*
X60529012Y-70955199D01*
X60529010Y-70955199D01*
X60410013Y-70966919D01*
X60257328Y-71013236D01*
X60238947Y-71023061D01*
X60116611Y-71088450D01*
X60072075Y-71125000D01*
X59993273Y-71189671D01*
X59967906Y-71220581D01*
X56325983Y-74862505D01*
X56295073Y-74887872D01*
X56256611Y-74934738D01*
X56193851Y-75011211D01*
X56119726Y-75149892D01*
X56118638Y-75151927D01*
X56073429Y-75300962D01*
X56072321Y-75304613D01*
X56056681Y-75463400D01*
X56060601Y-75503198D01*
X56060600Y-77261487D01*
X51963088Y-81359000D01*
X51831700Y-81359000D01*
X51671256Y-81251795D01*
X51482898Y-81173774D01*
X51282939Y-81134000D01*
X51111199Y-81134000D01*
X51111199Y-74748313D01*
X53325642Y-72533871D01*
X53514898Y-72496226D01*
X53703256Y-72418205D01*
X53872774Y-72304937D01*
X54016937Y-72160774D01*
X54130205Y-71991256D01*
X54208226Y-71802898D01*
X54248000Y-71602939D01*
X54248000Y-71399061D01*
X54208226Y-71199102D01*
X54130205Y-71010744D01*
X54016937Y-70841226D01*
X53872774Y-70697063D01*
X53703256Y-70583795D01*
X53514898Y-70505774D01*
X53314939Y-70466000D01*
X53111061Y-70466000D01*
X52911102Y-70505774D01*
X52722744Y-70583795D01*
X52553226Y-70697063D01*
X52409063Y-70841226D01*
X52295795Y-71010744D01*
X52217774Y-71199102D01*
X52180129Y-71388358D01*
X49756582Y-73811906D01*
X49725672Y-73837273D01*
X49691749Y-73878609D01*
X49624450Y-73960612D01*
X49571327Y-74060000D01*
X49549237Y-74101328D01*
X49505017Y-74247102D01*
X49502920Y-74254014D01*
X49487280Y-74412801D01*
X48920000Y-74412801D01*
X48920000Y-66319061D01*
X61830000Y-66319061D01*
X61830000Y-66522939D01*
X61869774Y-66722898D01*
X61947795Y-66911256D01*
X62061063Y-67080774D01*
X62205226Y-67224937D01*
X62374744Y-67338205D01*
X62563102Y-67416226D01*
X62763061Y-67456000D01*
X62966939Y-67456000D01*
X63166898Y-67416226D01*
X63355256Y-67338205D01*
X63524774Y-67224937D01*
X63668937Y-67080774D01*
X63782205Y-66911256D01*
X63860226Y-66722898D01*
X63900000Y-66522939D01*
X63900000Y-66319061D01*
X63860226Y-66119102D01*
X63782205Y-65930744D01*
X63668937Y-65761226D01*
X63524774Y-65617063D01*
X63355256Y-65503795D01*
X63166898Y-65425774D01*
X62966939Y-65386000D01*
X62763061Y-65386000D01*
X62563102Y-65425774D01*
X62374744Y-65503795D01*
X62205226Y-65617063D01*
X62061063Y-65761226D01*
X61947795Y-65930744D01*
X61869774Y-66119102D01*
X61830000Y-66319061D01*
X48920000Y-66319061D01*
X48920000Y-58199872D01*
X51105000Y-58199872D01*
X51105000Y-58640128D01*
X51190890Y-59071925D01*
X51359369Y-59478669D01*
X51603962Y-59844729D01*
X51915271Y-60156038D01*
X52281331Y-60400631D01*
X52688075Y-60569110D01*
X53119872Y-60655000D01*
X53560128Y-60655000D01*
X53991925Y-60569110D01*
X54398669Y-60400631D01*
X54764729Y-60156038D01*
X55076038Y-59844729D01*
X55320631Y-59478669D01*
X55489110Y-59071925D01*
X55575000Y-58640128D01*
X55575000Y-58199872D01*
X66345000Y-58199872D01*
X66345000Y-58640128D01*
X66430890Y-59071925D01*
X66599369Y-59478669D01*
X66843962Y-59844729D01*
X67155271Y-60156038D01*
X67521331Y-60400631D01*
X67928075Y-60569110D01*
X68359872Y-60655000D01*
X68800128Y-60655000D01*
X69231925Y-60569110D01*
X69638669Y-60400631D01*
X70004729Y-60156038D01*
X70316038Y-59844729D01*
X70560631Y-59478669D01*
X70729110Y-59071925D01*
X70815000Y-58640128D01*
X70815000Y-58199872D01*
X70729110Y-57768075D01*
X70560631Y-57361331D01*
X70316038Y-56995271D01*
X70004729Y-56683962D01*
X69638669Y-56439369D01*
X69231925Y-56270890D01*
X68800128Y-56185000D01*
X68359872Y-56185000D01*
X67928075Y-56270890D01*
X67521331Y-56439369D01*
X67155271Y-56683962D01*
X66843962Y-56995271D01*
X66599369Y-57361331D01*
X66430890Y-57768075D01*
X66345000Y-58199872D01*
X55575000Y-58199872D01*
X55489110Y-57768075D01*
X55320631Y-57361331D01*
X55076038Y-56995271D01*
X54764729Y-56683962D01*
X54398669Y-56439369D01*
X53991925Y-56270890D01*
X53934832Y-56259533D01*
X54031898Y-56240226D01*
X54220256Y-56162205D01*
X54389774Y-56048937D01*
X54533937Y-55904774D01*
X54647205Y-55735256D01*
X54725226Y-55546898D01*
X54765000Y-55346939D01*
X54765000Y-55143061D01*
X54725226Y-54943102D01*
X54652642Y-54767870D01*
X57937513Y-51483000D01*
X71853348Y-51483000D01*
X87830059Y-67459712D01*
X87867704Y-67648968D01*
X87945725Y-67837326D01*
X88058993Y-68006844D01*
X88203156Y-68151007D01*
X88372674Y-68264275D01*
X88561032Y-68342296D01*
X88760991Y-68382070D01*
X88964869Y-68382070D01*
X89164828Y-68342296D01*
X89353186Y-68264275D01*
X89522704Y-68151007D01*
X89666867Y-68006844D01*
X89780135Y-67837326D01*
X89858156Y-67648968D01*
X89897930Y-67449009D01*
X89897930Y-67245131D01*
X89858156Y-67045172D01*
X89780135Y-66856814D01*
X89666867Y-66687296D01*
X89522704Y-66543133D01*
X89353186Y-66429865D01*
X89164828Y-66351844D01*
X88975572Y-66314199D01*
X84408434Y-61747061D01*
X116186000Y-61747061D01*
X116186000Y-61950939D01*
X116225774Y-62150898D01*
X116303795Y-62339256D01*
X116417063Y-62508774D01*
X116561226Y-62652937D01*
X116730744Y-62766205D01*
X116919102Y-62844226D01*
X117119061Y-62884000D01*
X117322939Y-62884000D01*
X117522898Y-62844226D01*
X117711256Y-62766205D01*
X117880774Y-62652937D01*
X118024937Y-62508774D01*
X118138205Y-62339256D01*
X118216226Y-62150898D01*
X118256000Y-61950939D01*
X118256000Y-61747061D01*
X118216226Y-61547102D01*
X118138205Y-61358744D01*
X118024937Y-61189226D01*
X117880774Y-61045063D01*
X117711256Y-60931795D01*
X117522898Y-60853774D01*
X117322939Y-60814000D01*
X117119061Y-60814000D01*
X116919102Y-60853774D01*
X116730744Y-60931795D01*
X116561226Y-61045063D01*
X116417063Y-61189226D01*
X116303795Y-61358744D01*
X116225774Y-61547102D01*
X116186000Y-61747061D01*
X84408434Y-61747061D01*
X80861245Y-58199872D01*
X92253000Y-58199872D01*
X92253000Y-58640128D01*
X92338890Y-59071925D01*
X92507369Y-59478669D01*
X92751962Y-59844729D01*
X93063271Y-60156038D01*
X93429331Y-60400631D01*
X93836075Y-60569110D01*
X94267872Y-60655000D01*
X94708128Y-60655000D01*
X95139925Y-60569110D01*
X95546669Y-60400631D01*
X95912729Y-60156038D01*
X96224038Y-59844729D01*
X96380210Y-59611000D01*
X112101212Y-59611000D01*
X112141000Y-59614919D01*
X112180788Y-59611000D01*
X112180791Y-59611000D01*
X112299788Y-59599280D01*
X112452473Y-59552963D01*
X112593189Y-59477749D01*
X112716528Y-59376528D01*
X112741900Y-59345612D01*
X113269641Y-58817871D01*
X113458898Y-58780226D01*
X113647256Y-58702205D01*
X113816774Y-58588937D01*
X113960937Y-58444774D01*
X114074205Y-58275256D01*
X114152226Y-58086898D01*
X114192000Y-57886939D01*
X114192000Y-57683061D01*
X114152226Y-57483102D01*
X114074205Y-57294744D01*
X113960937Y-57125226D01*
X113816774Y-56981063D01*
X113647256Y-56867795D01*
X113458898Y-56789774D01*
X113258939Y-56750000D01*
X113055061Y-56750000D01*
X112855102Y-56789774D01*
X112666744Y-56867795D01*
X112497226Y-56981063D01*
X112353063Y-57125226D01*
X112239795Y-57294744D01*
X112161774Y-57483102D01*
X112124129Y-57672359D01*
X111805488Y-57991000D01*
X96681453Y-57991000D01*
X96637110Y-57768075D01*
X96468631Y-57361331D01*
X96224038Y-56995271D01*
X95912729Y-56683962D01*
X95546669Y-56439369D01*
X95139925Y-56270890D01*
X94708128Y-56185000D01*
X94267872Y-56185000D01*
X93836075Y-56270890D01*
X93429331Y-56439369D01*
X93063271Y-56683962D01*
X92751962Y-56995271D01*
X92507369Y-57361331D01*
X92338890Y-57768075D01*
X92253000Y-58199872D01*
X80861245Y-58199872D01*
X77291999Y-54630626D01*
X96695000Y-54630626D01*
X96695000Y-55169374D01*
X96800105Y-55697770D01*
X97006275Y-56195508D01*
X97305587Y-56643461D01*
X97686539Y-57024413D01*
X98134492Y-57323725D01*
X98632230Y-57529895D01*
X99160626Y-57635000D01*
X99699374Y-57635000D01*
X100227770Y-57529895D01*
X100725508Y-57323725D01*
X101173461Y-57024413D01*
X101554413Y-56643461D01*
X101853725Y-56195508D01*
X102059895Y-55697770D01*
X102165000Y-55169374D01*
X102165000Y-54630626D01*
X106195000Y-54630626D01*
X106195000Y-55169374D01*
X106300105Y-55697770D01*
X106506275Y-56195508D01*
X106805587Y-56643461D01*
X107186539Y-57024413D01*
X107634492Y-57323725D01*
X108132230Y-57529895D01*
X108660626Y-57635000D01*
X109199374Y-57635000D01*
X109727770Y-57529895D01*
X110225508Y-57323725D01*
X110673461Y-57024413D01*
X111054413Y-56643461D01*
X111353725Y-56195508D01*
X111559895Y-55697770D01*
X111665000Y-55169374D01*
X111665000Y-54630626D01*
X119515000Y-54630626D01*
X119515000Y-55169374D01*
X119620105Y-55697770D01*
X119826275Y-56195508D01*
X120125587Y-56643461D01*
X120506539Y-57024413D01*
X120954492Y-57323725D01*
X121452230Y-57529895D01*
X121980626Y-57635000D01*
X122519374Y-57635000D01*
X123047770Y-57529895D01*
X123545508Y-57323725D01*
X123993461Y-57024413D01*
X124374413Y-56643461D01*
X124673725Y-56195508D01*
X124879895Y-55697770D01*
X124985000Y-55169374D01*
X124985000Y-54630626D01*
X129015000Y-54630626D01*
X129015000Y-55169374D01*
X129120105Y-55697770D01*
X129326275Y-56195508D01*
X129625587Y-56643461D01*
X130006539Y-57024413D01*
X130454492Y-57323725D01*
X130952230Y-57529895D01*
X131480626Y-57635000D01*
X132019374Y-57635000D01*
X132547770Y-57529895D01*
X133045508Y-57323725D01*
X133493461Y-57024413D01*
X133874413Y-56643461D01*
X134173725Y-56195508D01*
X134379895Y-55697770D01*
X134485000Y-55169374D01*
X134485000Y-54630626D01*
X134379895Y-54102230D01*
X134173725Y-53604492D01*
X133874413Y-53156539D01*
X133493461Y-52775587D01*
X133045508Y-52476275D01*
X132547770Y-52270105D01*
X132019374Y-52165000D01*
X131480626Y-52165000D01*
X130952230Y-52270105D01*
X130454492Y-52476275D01*
X130006539Y-52775587D01*
X129625587Y-53156539D01*
X129326275Y-53604492D01*
X129120105Y-54102230D01*
X129015000Y-54630626D01*
X124985000Y-54630626D01*
X124879895Y-54102230D01*
X124673725Y-53604492D01*
X124374413Y-53156539D01*
X123993461Y-52775587D01*
X123545508Y-52476275D01*
X123047770Y-52270105D01*
X122519374Y-52165000D01*
X121980626Y-52165000D01*
X121452230Y-52270105D01*
X120954492Y-52476275D01*
X120506539Y-52775587D01*
X120125587Y-53156539D01*
X119826275Y-53604492D01*
X119620105Y-54102230D01*
X119515000Y-54630626D01*
X111665000Y-54630626D01*
X111559895Y-54102230D01*
X111353725Y-53604492D01*
X111054413Y-53156539D01*
X110673461Y-52775587D01*
X110225508Y-52476275D01*
X109727770Y-52270105D01*
X109199374Y-52165000D01*
X108660626Y-52165000D01*
X108132230Y-52270105D01*
X107634492Y-52476275D01*
X107186539Y-52775587D01*
X106805587Y-53156539D01*
X106506275Y-53604492D01*
X106300105Y-54102230D01*
X106195000Y-54630626D01*
X102165000Y-54630626D01*
X102059895Y-54102230D01*
X101853725Y-53604492D01*
X101554413Y-53156539D01*
X101173461Y-52775587D01*
X100725508Y-52476275D01*
X100227770Y-52270105D01*
X99699374Y-52165000D01*
X99160626Y-52165000D01*
X98632230Y-52270105D01*
X98134492Y-52476275D01*
X97686539Y-52775587D01*
X97305587Y-53156539D01*
X97006275Y-53604492D01*
X96800105Y-54102230D01*
X96695000Y-54630626D01*
X77291999Y-54630626D01*
X73310189Y-50648816D01*
X100145000Y-50648816D01*
X100145000Y-50951184D01*
X100203989Y-51247743D01*
X100319701Y-51527095D01*
X100487688Y-51778505D01*
X100701495Y-51992312D01*
X100952905Y-52160299D01*
X101232257Y-52276011D01*
X101528816Y-52335000D01*
X101831184Y-52335000D01*
X102127743Y-52276011D01*
X102407095Y-52160299D01*
X102658505Y-51992312D01*
X102872312Y-51778505D01*
X102930000Y-51692169D01*
X102987688Y-51778505D01*
X103201495Y-51992312D01*
X103452905Y-52160299D01*
X103732257Y-52276011D01*
X104028816Y-52335000D01*
X104331184Y-52335000D01*
X104627743Y-52276011D01*
X104907095Y-52160299D01*
X105158505Y-51992312D01*
X105372312Y-51778505D01*
X105430000Y-51692169D01*
X105487688Y-51778505D01*
X105701495Y-51992312D01*
X105952905Y-52160299D01*
X106232257Y-52276011D01*
X106528816Y-52335000D01*
X106831184Y-52335000D01*
X107127743Y-52276011D01*
X107407095Y-52160299D01*
X107658505Y-51992312D01*
X107872312Y-51778505D01*
X108040299Y-51527095D01*
X108156011Y-51247743D01*
X108215000Y-50951184D01*
X108215000Y-50648816D01*
X122965000Y-50648816D01*
X122965000Y-50951184D01*
X123023989Y-51247743D01*
X123139701Y-51527095D01*
X123307688Y-51778505D01*
X123521495Y-51992312D01*
X123772905Y-52160299D01*
X124052257Y-52276011D01*
X124348816Y-52335000D01*
X124651184Y-52335000D01*
X124947743Y-52276011D01*
X125227095Y-52160299D01*
X125478505Y-51992312D01*
X125692312Y-51778505D01*
X125750000Y-51692169D01*
X125807688Y-51778505D01*
X126021495Y-51992312D01*
X126272905Y-52160299D01*
X126552257Y-52276011D01*
X126848816Y-52335000D01*
X127151184Y-52335000D01*
X127447743Y-52276011D01*
X127727095Y-52160299D01*
X127978505Y-51992312D01*
X128192312Y-51778505D01*
X128250000Y-51692169D01*
X128307688Y-51778505D01*
X128521495Y-51992312D01*
X128772905Y-52160299D01*
X129052257Y-52276011D01*
X129348816Y-52335000D01*
X129651184Y-52335000D01*
X129947743Y-52276011D01*
X130227095Y-52160299D01*
X130478505Y-51992312D01*
X130692312Y-51778505D01*
X130860299Y-51527095D01*
X130976011Y-51247743D01*
X131035000Y-50951184D01*
X131035000Y-50648816D01*
X130976011Y-50352257D01*
X130860299Y-50072905D01*
X130692312Y-49821495D01*
X130478505Y-49607688D01*
X130227095Y-49439701D01*
X129947743Y-49323989D01*
X129651184Y-49265000D01*
X129348816Y-49265000D01*
X129052257Y-49323989D01*
X128772905Y-49439701D01*
X128521495Y-49607688D01*
X128307688Y-49821495D01*
X128250000Y-49907831D01*
X128192312Y-49821495D01*
X127978505Y-49607688D01*
X127727095Y-49439701D01*
X127447743Y-49323989D01*
X127151184Y-49265000D01*
X126848816Y-49265000D01*
X126552257Y-49323989D01*
X126272905Y-49439701D01*
X126021495Y-49607688D01*
X125807688Y-49821495D01*
X125750000Y-49907831D01*
X125692312Y-49821495D01*
X125478505Y-49607688D01*
X125227095Y-49439701D01*
X124947743Y-49323989D01*
X124651184Y-49265000D01*
X124348816Y-49265000D01*
X124052257Y-49323989D01*
X123772905Y-49439701D01*
X123521495Y-49607688D01*
X123307688Y-49821495D01*
X123139701Y-50072905D01*
X123023989Y-50352257D01*
X122965000Y-50648816D01*
X108215000Y-50648816D01*
X108156011Y-50352257D01*
X108040299Y-50072905D01*
X107872312Y-49821495D01*
X107658505Y-49607688D01*
X107407095Y-49439701D01*
X107127743Y-49323989D01*
X106831184Y-49265000D01*
X106528816Y-49265000D01*
X106232257Y-49323989D01*
X105952905Y-49439701D01*
X105701495Y-49607688D01*
X105487688Y-49821495D01*
X105430000Y-49907831D01*
X105372312Y-49821495D01*
X105158505Y-49607688D01*
X104907095Y-49439701D01*
X104627743Y-49323989D01*
X104331184Y-49265000D01*
X104028816Y-49265000D01*
X103732257Y-49323989D01*
X103452905Y-49439701D01*
X103201495Y-49607688D01*
X102987688Y-49821495D01*
X102930000Y-49907831D01*
X102872312Y-49821495D01*
X102658505Y-49607688D01*
X102407095Y-49439701D01*
X102127743Y-49323989D01*
X101831184Y-49265000D01*
X101528816Y-49265000D01*
X101232257Y-49323989D01*
X100952905Y-49439701D01*
X100701495Y-49607688D01*
X100487688Y-49821495D01*
X100319701Y-50072905D01*
X100203989Y-50352257D01*
X100145000Y-50648816D01*
X73310189Y-50648816D01*
X72789760Y-50128388D01*
X72764388Y-50097472D01*
X72641049Y-49996251D01*
X72500333Y-49921037D01*
X72347648Y-49874720D01*
X72228651Y-49863000D01*
X72228648Y-49863000D01*
X72188860Y-49859081D01*
X72149072Y-49863000D01*
X57641788Y-49863000D01*
X57602000Y-49859081D01*
X57562212Y-49863000D01*
X57562209Y-49863000D01*
X57443212Y-49874720D01*
X57290527Y-49921037D01*
X57225024Y-49956049D01*
X57149810Y-49996251D01*
X57085796Y-50048786D01*
X57026472Y-50097472D01*
X57001105Y-50128382D01*
X53185383Y-53944105D01*
X53154473Y-53969472D01*
X53129108Y-54000380D01*
X53053251Y-54092811D01*
X52990613Y-54210000D01*
X52978038Y-54233527D01*
X52931720Y-54386212D01*
X52926318Y-54441063D01*
X52916081Y-54545000D01*
X52920000Y-54584788D01*
X52920000Y-54594300D01*
X52812795Y-54754744D01*
X52734774Y-54943102D01*
X52695000Y-55143061D01*
X52695000Y-55346939D01*
X52734774Y-55546898D01*
X52812795Y-55735256D01*
X52926063Y-55904774D01*
X53070226Y-56048937D01*
X53239744Y-56162205D01*
X53294776Y-56185000D01*
X53119872Y-56185000D01*
X52688075Y-56270890D01*
X52281331Y-56439369D01*
X51915271Y-56683962D01*
X51603962Y-56995271D01*
X51359369Y-57361331D01*
X51190890Y-57768075D01*
X51105000Y-58199872D01*
X48920000Y-58199872D01*
X48920000Y-53111061D01*
X49130000Y-53111061D01*
X49130000Y-53314939D01*
X49169774Y-53514898D01*
X49247795Y-53703256D01*
X49361063Y-53872774D01*
X49505226Y-54016937D01*
X49674744Y-54130205D01*
X49863102Y-54208226D01*
X50063061Y-54248000D01*
X50266939Y-54248000D01*
X50466898Y-54208226D01*
X50655256Y-54130205D01*
X50824774Y-54016937D01*
X50968937Y-53872774D01*
X51082205Y-53703256D01*
X51160226Y-53514898D01*
X51200000Y-53314939D01*
X51200000Y-53111061D01*
X51160226Y-52911102D01*
X51082205Y-52722744D01*
X50968937Y-52553226D01*
X50824774Y-52409063D01*
X50655256Y-52295795D01*
X50466898Y-52217774D01*
X50266939Y-52178000D01*
X50063061Y-52178000D01*
X49863102Y-52217774D01*
X49674744Y-52295795D01*
X49505226Y-52409063D01*
X49361063Y-52553226D01*
X49247795Y-52722744D01*
X49169774Y-52911102D01*
X49130000Y-53111061D01*
X48920000Y-53111061D01*
X48920000Y-48920000D01*
X139040000Y-48920000D01*
X139040000Y-57424992D01*
M02*
