G04 #@! TF.GenerationSoftware,KiCad,Pcbnew,(5.1.5-0-10_14)*
G04 #@! TF.CreationDate,2021-12-27T15:14:27+01:00*
G04 #@! TF.ProjectId,sk108-scabi-log,736b3130-382d-4736-9361-62692d6c6f67,rev?*
G04 #@! TF.SameCoordinates,Original*
G04 #@! TF.FileFunction,Copper,L2,Inr*
G04 #@! TF.FilePolarity,Positive*
%FSLAX46Y46*%
G04 Gerber Fmt 4.6, Leading zero omitted, Abs format (unit mm)*
G04 Created by KiCad (PCBNEW (5.1.5-0-10_14)) date 2021-12-27 15:14:27*
%MOMM*%
%LPD*%
G04 APERTURE LIST*
%ADD10C,3.200000*%
%ADD11C,4.200000*%
%ADD12C,1.800000*%
%ADD13O,1.740000X2.200000*%
%ADD14C,0.100000*%
%ADD15C,0.800000*%
%ADD16C,0.406400*%
%ADD17C,1.000000*%
%ADD18C,0.350000*%
%ADD19C,0.254000*%
G04 APERTURE END LIST*
D10*
X94488000Y-58420000D03*
X68580000Y-58420000D03*
X53340000Y-58420000D03*
X137033000Y-58420000D03*
D11*
X108930000Y-54900000D03*
X99430000Y-54900000D03*
D12*
X106680000Y-50800000D03*
X104180000Y-50800000D03*
X101680000Y-50800000D03*
D11*
X131750000Y-54900000D03*
X122250000Y-54900000D03*
D12*
X129500000Y-50800000D03*
X127000000Y-50800000D03*
X124500000Y-50800000D03*
D13*
X99060000Y-91440000D03*
X96520000Y-91240000D03*
G04 #@! TA.AperFunction,ViaPad*
D14*
G36*
X94624505Y-90341204D02*
G01*
X94648773Y-90344804D01*
X94672572Y-90350765D01*
X94695671Y-90359030D01*
X94717850Y-90369520D01*
X94738893Y-90382132D01*
X94758599Y-90396747D01*
X94776777Y-90413223D01*
X94793253Y-90431401D01*
X94807868Y-90451107D01*
X94820480Y-90472150D01*
X94830970Y-90494329D01*
X94839235Y-90517428D01*
X94845196Y-90541227D01*
X94848796Y-90565495D01*
X94850000Y-90589999D01*
X94850000Y-92290001D01*
X94848796Y-92314505D01*
X94845196Y-92338773D01*
X94839235Y-92362572D01*
X94830970Y-92385671D01*
X94820480Y-92407850D01*
X94807868Y-92428893D01*
X94793253Y-92448599D01*
X94776777Y-92466777D01*
X94758599Y-92483253D01*
X94738893Y-92497868D01*
X94717850Y-92510480D01*
X94695671Y-92520970D01*
X94672572Y-92529235D01*
X94648773Y-92535196D01*
X94624505Y-92538796D01*
X94600001Y-92540000D01*
X93359999Y-92540000D01*
X93335495Y-92538796D01*
X93311227Y-92535196D01*
X93287428Y-92529235D01*
X93264329Y-92520970D01*
X93242150Y-92510480D01*
X93221107Y-92497868D01*
X93201401Y-92483253D01*
X93183223Y-92466777D01*
X93166747Y-92448599D01*
X93152132Y-92428893D01*
X93139520Y-92407850D01*
X93129030Y-92385671D01*
X93120765Y-92362572D01*
X93114804Y-92338773D01*
X93111204Y-92314505D01*
X93110000Y-92290001D01*
X93110000Y-90589999D01*
X93111204Y-90565495D01*
X93114804Y-90541227D01*
X93120765Y-90517428D01*
X93129030Y-90494329D01*
X93139520Y-90472150D01*
X93152132Y-90451107D01*
X93166747Y-90431401D01*
X93183223Y-90413223D01*
X93201401Y-90396747D01*
X93221107Y-90382132D01*
X93242150Y-90369520D01*
X93264329Y-90359030D01*
X93287428Y-90350765D01*
X93311227Y-90344804D01*
X93335495Y-90341204D01*
X93359999Y-90340000D01*
X94600001Y-90340000D01*
X94624505Y-90341204D01*
G37*
G04 #@! TD.AperFunction*
G04 #@! TA.AperFunction,ViaPad*
G36*
X59445505Y-89906204D02*
G01*
X59469773Y-89909804D01*
X59493572Y-89915765D01*
X59516671Y-89924030D01*
X59538850Y-89934520D01*
X59559893Y-89947132D01*
X59579599Y-89961747D01*
X59597777Y-89978223D01*
X59614253Y-89996401D01*
X59628868Y-90016107D01*
X59641480Y-90037150D01*
X59651970Y-90059329D01*
X59660235Y-90082428D01*
X59666196Y-90106227D01*
X59669796Y-90130495D01*
X59671000Y-90154999D01*
X59671000Y-91855001D01*
X59669796Y-91879505D01*
X59666196Y-91903773D01*
X59660235Y-91927572D01*
X59651970Y-91950671D01*
X59641480Y-91972850D01*
X59628868Y-91993893D01*
X59614253Y-92013599D01*
X59597777Y-92031777D01*
X59579599Y-92048253D01*
X59559893Y-92062868D01*
X59538850Y-92075480D01*
X59516671Y-92085970D01*
X59493572Y-92094235D01*
X59469773Y-92100196D01*
X59445505Y-92103796D01*
X59421001Y-92105000D01*
X58180999Y-92105000D01*
X58156495Y-92103796D01*
X58132227Y-92100196D01*
X58108428Y-92094235D01*
X58085329Y-92085970D01*
X58063150Y-92075480D01*
X58042107Y-92062868D01*
X58022401Y-92048253D01*
X58004223Y-92031777D01*
X57987747Y-92013599D01*
X57973132Y-91993893D01*
X57960520Y-91972850D01*
X57950030Y-91950671D01*
X57941765Y-91927572D01*
X57935804Y-91903773D01*
X57932204Y-91879505D01*
X57931000Y-91855001D01*
X57931000Y-90154999D01*
X57932204Y-90130495D01*
X57935804Y-90106227D01*
X57941765Y-90082428D01*
X57950030Y-90059329D01*
X57960520Y-90037150D01*
X57973132Y-90016107D01*
X57987747Y-89996401D01*
X58004223Y-89978223D01*
X58022401Y-89961747D01*
X58042107Y-89947132D01*
X58063150Y-89934520D01*
X58085329Y-89924030D01*
X58108428Y-89915765D01*
X58132227Y-89909804D01*
X58156495Y-89906204D01*
X58180999Y-89905000D01*
X59421001Y-89905000D01*
X59445505Y-89906204D01*
G37*
G04 #@! TD.AperFunction*
D13*
X61341000Y-90805000D03*
X63881000Y-91005000D03*
X66421000Y-90805000D03*
D15*
X116205000Y-72009000D03*
X137541000Y-54737000D03*
X124333000Y-58293000D03*
X128905000Y-76581000D03*
X104639613Y-71890387D03*
X97917000Y-70993000D03*
X92329000Y-78613000D03*
X90805000Y-67945000D03*
X102997000Y-55753000D03*
X85725000Y-61849000D03*
X80137000Y-67945000D03*
X78105000Y-73025000D03*
X79629000Y-92329000D03*
X74041000Y-78613000D03*
X53721000Y-92329000D03*
X58178887Y-72910887D03*
X54229000Y-76581000D03*
X51689000Y-63373000D03*
X122301000Y-72517000D03*
X112395000Y-85217000D03*
X90551000Y-85471000D03*
X137795000Y-94107000D03*
X85725000Y-89027000D03*
X111125000Y-62357000D03*
X132715000Y-64897000D03*
X133985000Y-73787000D03*
X135255000Y-78867000D03*
X64147520Y-78879520D03*
X95072200Y-53263800D03*
X138049000Y-65405000D03*
X117221000Y-61849000D03*
X126365000Y-67945000D03*
X131445000Y-74549000D03*
X123825000Y-76837552D03*
X107061000Y-91313000D03*
X50165000Y-53213000D03*
X76073000Y-78105000D03*
X96800000Y-77470000D03*
X131953000Y-72009000D03*
X132461000Y-79629000D03*
X120283000Y-76708000D03*
X53730000Y-55245000D03*
X88862930Y-67347070D03*
X135001000Y-67945000D03*
X129395000Y-68052990D03*
X113157000Y-57785000D03*
X137541000Y-73533000D03*
X128364314Y-75498323D03*
X136525000Y-71501000D03*
X95725000Y-71125000D03*
X111633000Y-71501000D03*
X105029000Y-80645000D03*
X100965000Y-70993000D03*
X105297390Y-74549000D03*
X111633000Y-69977000D03*
X115960000Y-76835000D03*
X62865000Y-66421000D03*
X76581000Y-59817000D03*
X51689000Y-89789000D03*
X71501000Y-68961000D03*
X60325000Y-80137000D03*
X84201000Y-74549000D03*
X60833000Y-82677000D03*
X62070000Y-72645000D03*
X81661000Y-75057000D03*
X101125000Y-73665000D03*
X72517000Y-59817000D03*
X63373000Y-75057000D03*
X73533000Y-74041000D03*
X81440000Y-72395000D03*
X51181000Y-82169000D03*
X63881000Y-73025000D03*
X51181000Y-87249000D03*
X53213000Y-71501000D03*
D16*
X138049000Y-65405000D02*
X134493000Y-61849000D01*
X123825000Y-65405000D02*
X126365000Y-67945000D01*
X123825000Y-61849000D02*
X123825000Y-65405000D01*
X134493000Y-61849000D02*
X123825000Y-61849000D01*
X123825000Y-61849000D02*
X117221000Y-61849000D01*
X126113552Y-74549000D02*
X123825000Y-76837552D01*
X131445000Y-74549000D02*
X126113552Y-74549000D01*
D17*
X91821000Y-76073000D02*
X89281000Y-73533000D01*
X94615000Y-78867000D02*
X95403000Y-78867000D01*
X95403000Y-78867000D02*
X96800000Y-77470000D01*
X94615000Y-78867000D02*
X91821000Y-76073000D01*
X107061000Y-91313000D02*
X99949000Y-84201000D01*
X99949000Y-84201000D02*
X94615000Y-78867000D01*
X132595001Y-72651001D02*
X131953000Y-72009000D01*
X129413000Y-84201000D02*
X132595001Y-81018999D01*
X132595001Y-79763001D02*
X132461000Y-79629000D01*
X132595001Y-81018999D02*
X132595001Y-79763001D01*
X132595001Y-79763001D02*
X132595001Y-72651001D01*
X120269000Y-76722000D02*
X120283000Y-76708000D01*
X120269000Y-84201000D02*
X120269000Y-76722000D01*
X120269000Y-84201000D02*
X129413000Y-84201000D01*
X106045000Y-83693000D02*
X120269000Y-84201000D01*
X99949000Y-84201000D02*
X106045000Y-83693000D01*
X127795199Y-49095199D02*
X129500000Y-50800000D01*
X108384801Y-49095199D02*
X127795199Y-49095199D01*
X106680000Y-50800000D02*
X108384801Y-49095199D01*
X77089000Y-77089000D02*
X76073000Y-78105000D01*
X85725000Y-77089000D02*
X77089000Y-77089000D01*
X89281000Y-73533000D02*
X85725000Y-77089000D01*
X73025000Y-53213000D02*
X50165000Y-53213000D01*
X89281000Y-69469000D02*
X73025000Y-53213000D01*
X89281000Y-73533000D02*
X89281000Y-69469000D01*
X104673400Y-52959000D02*
X104673400Y-68402200D01*
X107416600Y-71145400D02*
X107416600Y-82321400D01*
X107416600Y-82321400D02*
X106045000Y-83693000D01*
X104673400Y-68402200D02*
X107416600Y-71145400D01*
X106680000Y-50952400D02*
X104673400Y-52959000D01*
X106680000Y-50800000D02*
X106680000Y-50952400D01*
D18*
X62865000Y-66421000D02*
X69977000Y-66421000D01*
X69977000Y-66421000D02*
X76581000Y-59817000D01*
X62465001Y-66820999D02*
X62865000Y-66421000D01*
X52088999Y-77197001D02*
X62465001Y-66820999D01*
X52088999Y-89389001D02*
X52088999Y-77197001D01*
X51689000Y-89789000D02*
X52088999Y-89389001D01*
D19*
G36*
X106609868Y-49265000D02*
G01*
X106528816Y-49265000D01*
X106232257Y-49323989D01*
X105952905Y-49439701D01*
X105701495Y-49607688D01*
X105487688Y-49821495D01*
X105430000Y-49907831D01*
X105372312Y-49821495D01*
X105158505Y-49607688D01*
X104907095Y-49439701D01*
X104627743Y-49323989D01*
X104331184Y-49265000D01*
X104028816Y-49265000D01*
X103732257Y-49323989D01*
X103452905Y-49439701D01*
X103201495Y-49607688D01*
X102987688Y-49821495D01*
X102930000Y-49907831D01*
X102872312Y-49821495D01*
X102658505Y-49607688D01*
X102407095Y-49439701D01*
X102127743Y-49323989D01*
X101831184Y-49265000D01*
X101528816Y-49265000D01*
X101232257Y-49323989D01*
X100952905Y-49439701D01*
X100701495Y-49607688D01*
X100487688Y-49821495D01*
X100319701Y-50072905D01*
X100203989Y-50352257D01*
X100145000Y-50648816D01*
X100145000Y-50951184D01*
X100203989Y-51247743D01*
X100319701Y-51527095D01*
X100487688Y-51778505D01*
X100701495Y-51992312D01*
X100952905Y-52160299D01*
X101232257Y-52276011D01*
X101528816Y-52335000D01*
X101831184Y-52335000D01*
X102127743Y-52276011D01*
X102407095Y-52160299D01*
X102658505Y-51992312D01*
X102872312Y-51778505D01*
X102930000Y-51692169D01*
X102987688Y-51778505D01*
X103201495Y-51992312D01*
X103452905Y-52160299D01*
X103732257Y-52276011D01*
X103760946Y-52281718D01*
X103725116Y-52325377D01*
X103619725Y-52522553D01*
X103619724Y-52522554D01*
X103554823Y-52736502D01*
X103532909Y-52959000D01*
X103538400Y-53014751D01*
X103538401Y-68346439D01*
X103532909Y-68402200D01*
X103554823Y-68624698D01*
X103619724Y-68838646D01*
X103630636Y-68859061D01*
X103725117Y-69035823D01*
X103866952Y-69208649D01*
X103910260Y-69244191D01*
X106281600Y-71615533D01*
X106281600Y-74220508D01*
X106214595Y-74058744D01*
X106101327Y-73889226D01*
X105957164Y-73745063D01*
X105787646Y-73631795D01*
X105599288Y-73553774D01*
X105399329Y-73514000D01*
X105195451Y-73514000D01*
X104995492Y-73553774D01*
X104807134Y-73631795D01*
X104637616Y-73745063D01*
X104493453Y-73889226D01*
X104380185Y-74058744D01*
X104302164Y-74247102D01*
X104262390Y-74447061D01*
X104262390Y-74650939D01*
X104302164Y-74850898D01*
X104380185Y-75039256D01*
X104493453Y-75208774D01*
X104637616Y-75352937D01*
X104807134Y-75466205D01*
X104995492Y-75544226D01*
X105195451Y-75584000D01*
X105399329Y-75584000D01*
X105599288Y-75544226D01*
X105787646Y-75466205D01*
X105957164Y-75352937D01*
X106101327Y-75208774D01*
X106214595Y-75039256D01*
X106281600Y-74877492D01*
X106281601Y-81851267D01*
X105536421Y-82596448D01*
X100379337Y-83026205D01*
X97896193Y-80543061D01*
X103994000Y-80543061D01*
X103994000Y-80746939D01*
X104033774Y-80946898D01*
X104111795Y-81135256D01*
X104225063Y-81304774D01*
X104369226Y-81448937D01*
X104538744Y-81562205D01*
X104727102Y-81640226D01*
X104927061Y-81680000D01*
X105130939Y-81680000D01*
X105330898Y-81640226D01*
X105519256Y-81562205D01*
X105688774Y-81448937D01*
X105832937Y-81304774D01*
X105946205Y-81135256D01*
X106024226Y-80946898D01*
X106064000Y-80746939D01*
X106064000Y-80543061D01*
X106024226Y-80343102D01*
X105946205Y-80154744D01*
X105832937Y-79985226D01*
X105688774Y-79841063D01*
X105519256Y-79727795D01*
X105330898Y-79649774D01*
X105130939Y-79610000D01*
X104927061Y-79610000D01*
X104727102Y-79649774D01*
X104538744Y-79727795D01*
X104369226Y-79841063D01*
X104225063Y-79985226D01*
X104111795Y-80154744D01*
X104033774Y-80343102D01*
X103994000Y-80543061D01*
X97896193Y-80543061D01*
X96614131Y-79261000D01*
X97641988Y-78233144D01*
X97748283Y-78103624D01*
X97853675Y-77906448D01*
X97918576Y-77692500D01*
X97940490Y-77470001D01*
X97918576Y-77247502D01*
X97853675Y-77033554D01*
X97748283Y-76836378D01*
X97606448Y-76663552D01*
X97433622Y-76521717D01*
X97236446Y-76416325D01*
X97022498Y-76351424D01*
X96799999Y-76329510D01*
X96577500Y-76351424D01*
X96363552Y-76416325D01*
X96166376Y-76521717D01*
X96036856Y-76628012D01*
X95009001Y-77655868D01*
X92662992Y-75309861D01*
X92662988Y-75309856D01*
X90916193Y-73563061D01*
X100090000Y-73563061D01*
X100090000Y-73766939D01*
X100129774Y-73966898D01*
X100207795Y-74155256D01*
X100321063Y-74324774D01*
X100465226Y-74468937D01*
X100634744Y-74582205D01*
X100823102Y-74660226D01*
X101023061Y-74700000D01*
X101226939Y-74700000D01*
X101426898Y-74660226D01*
X101615256Y-74582205D01*
X101784774Y-74468937D01*
X101928937Y-74324774D01*
X102042205Y-74155256D01*
X102120226Y-73966898D01*
X102160000Y-73766939D01*
X102160000Y-73563061D01*
X102120226Y-73363102D01*
X102042205Y-73174744D01*
X101928937Y-73005226D01*
X101784774Y-72861063D01*
X101615256Y-72747795D01*
X101426898Y-72669774D01*
X101226939Y-72630000D01*
X101023061Y-72630000D01*
X100823102Y-72669774D01*
X100634744Y-72747795D01*
X100465226Y-72861063D01*
X100321063Y-73005226D01*
X100207795Y-73174744D01*
X100129774Y-73363102D01*
X100090000Y-73563061D01*
X90916193Y-73563061D01*
X90416000Y-73062869D01*
X90416000Y-71023061D01*
X94690000Y-71023061D01*
X94690000Y-71226939D01*
X94729774Y-71426898D01*
X94807795Y-71615256D01*
X94921063Y-71784774D01*
X95065226Y-71928937D01*
X95234744Y-72042205D01*
X95423102Y-72120226D01*
X95623061Y-72160000D01*
X95826939Y-72160000D01*
X96026898Y-72120226D01*
X96215256Y-72042205D01*
X96384774Y-71928937D01*
X96528937Y-71784774D01*
X96642205Y-71615256D01*
X96720226Y-71426898D01*
X96760000Y-71226939D01*
X96760000Y-71023061D01*
X96733744Y-70891061D01*
X99930000Y-70891061D01*
X99930000Y-71094939D01*
X99969774Y-71294898D01*
X100047795Y-71483256D01*
X100161063Y-71652774D01*
X100305226Y-71796937D01*
X100474744Y-71910205D01*
X100663102Y-71988226D01*
X100863061Y-72028000D01*
X101066939Y-72028000D01*
X101266898Y-71988226D01*
X101455256Y-71910205D01*
X101624774Y-71796937D01*
X101768937Y-71652774D01*
X101882205Y-71483256D01*
X101960226Y-71294898D01*
X102000000Y-71094939D01*
X102000000Y-70891061D01*
X101960226Y-70691102D01*
X101882205Y-70502744D01*
X101768937Y-70333226D01*
X101624774Y-70189063D01*
X101455256Y-70075795D01*
X101266898Y-69997774D01*
X101066939Y-69958000D01*
X100863061Y-69958000D01*
X100663102Y-69997774D01*
X100474744Y-70075795D01*
X100305226Y-70189063D01*
X100161063Y-70333226D01*
X100047795Y-70502744D01*
X99969774Y-70691102D01*
X99930000Y-70891061D01*
X96733744Y-70891061D01*
X96720226Y-70823102D01*
X96642205Y-70634744D01*
X96528937Y-70465226D01*
X96384774Y-70321063D01*
X96215256Y-70207795D01*
X96026898Y-70129774D01*
X95826939Y-70090000D01*
X95623061Y-70090000D01*
X95423102Y-70129774D01*
X95234744Y-70207795D01*
X95065226Y-70321063D01*
X94921063Y-70465226D01*
X94807795Y-70634744D01*
X94729774Y-70823102D01*
X94690000Y-71023061D01*
X90416000Y-71023061D01*
X90416000Y-69524752D01*
X90421491Y-69469000D01*
X90399577Y-69246501D01*
X90334676Y-69032553D01*
X90229284Y-68835377D01*
X90122989Y-68705856D01*
X90122987Y-68705854D01*
X90087449Y-68662551D01*
X90044146Y-68627013D01*
X89545422Y-68128289D01*
X89666867Y-68006844D01*
X89780135Y-67837326D01*
X89858156Y-67648968D01*
X89897930Y-67449009D01*
X89897930Y-67245131D01*
X89858156Y-67045172D01*
X89780135Y-66856814D01*
X89666867Y-66687296D01*
X89522704Y-66543133D01*
X89353186Y-66429865D01*
X89164828Y-66351844D01*
X88964869Y-66312070D01*
X88760991Y-66312070D01*
X88561032Y-66351844D01*
X88372674Y-66429865D01*
X88203156Y-66543133D01*
X88081711Y-66664578D01*
X79617004Y-58199872D01*
X92253000Y-58199872D01*
X92253000Y-58640128D01*
X92338890Y-59071925D01*
X92507369Y-59478669D01*
X92751962Y-59844729D01*
X93063271Y-60156038D01*
X93429331Y-60400631D01*
X93836075Y-60569110D01*
X94267872Y-60655000D01*
X94708128Y-60655000D01*
X95139925Y-60569110D01*
X95546669Y-60400631D01*
X95912729Y-60156038D01*
X96224038Y-59844729D01*
X96468631Y-59478669D01*
X96637110Y-59071925D01*
X96723000Y-58640128D01*
X96723000Y-58199872D01*
X96637110Y-57768075D01*
X96468631Y-57361331D01*
X96224038Y-56995271D01*
X95912729Y-56683962D01*
X95546669Y-56439369D01*
X95139925Y-56270890D01*
X94708128Y-56185000D01*
X94267872Y-56185000D01*
X93836075Y-56270890D01*
X93429331Y-56439369D01*
X93063271Y-56683962D01*
X92751962Y-56995271D01*
X92507369Y-57361331D01*
X92338890Y-57768075D01*
X92253000Y-58199872D01*
X79617004Y-58199872D01*
X76047758Y-54630626D01*
X96695000Y-54630626D01*
X96695000Y-55169374D01*
X96800105Y-55697770D01*
X97006275Y-56195508D01*
X97305587Y-56643461D01*
X97686539Y-57024413D01*
X98134492Y-57323725D01*
X98632230Y-57529895D01*
X99160626Y-57635000D01*
X99699374Y-57635000D01*
X100227770Y-57529895D01*
X100725508Y-57323725D01*
X101173461Y-57024413D01*
X101554413Y-56643461D01*
X101853725Y-56195508D01*
X102059895Y-55697770D01*
X102165000Y-55169374D01*
X102165000Y-54630626D01*
X102059895Y-54102230D01*
X101853725Y-53604492D01*
X101554413Y-53156539D01*
X101173461Y-52775587D01*
X100725508Y-52476275D01*
X100227770Y-52270105D01*
X99699374Y-52165000D01*
X99160626Y-52165000D01*
X98632230Y-52270105D01*
X98134492Y-52476275D01*
X97686539Y-52775587D01*
X97305587Y-53156539D01*
X97006275Y-53604492D01*
X96800105Y-54102230D01*
X96695000Y-54630626D01*
X76047758Y-54630626D01*
X73866996Y-52449865D01*
X73831449Y-52406551D01*
X73658623Y-52264716D01*
X73461447Y-52159324D01*
X73247499Y-52094423D01*
X73080752Y-52078000D01*
X73080751Y-52078000D01*
X73025000Y-52072509D01*
X72969249Y-52078000D01*
X50109248Y-52078000D01*
X49942501Y-52094423D01*
X49728553Y-52159324D01*
X49531377Y-52264716D01*
X49358551Y-52406551D01*
X49216716Y-52579377D01*
X49111324Y-52776553D01*
X49046423Y-52990501D01*
X49024509Y-53213000D01*
X49046423Y-53435499D01*
X49111324Y-53649447D01*
X49216716Y-53846623D01*
X49358551Y-54019449D01*
X49531377Y-54161284D01*
X49728553Y-54266676D01*
X49942501Y-54331577D01*
X50109248Y-54348000D01*
X53209505Y-54348000D01*
X53070226Y-54441063D01*
X52926063Y-54585226D01*
X52812795Y-54754744D01*
X52734774Y-54943102D01*
X52695000Y-55143061D01*
X52695000Y-55346939D01*
X52734774Y-55546898D01*
X52812795Y-55735256D01*
X52926063Y-55904774D01*
X53070226Y-56048937D01*
X53239744Y-56162205D01*
X53294776Y-56185000D01*
X53119872Y-56185000D01*
X52688075Y-56270890D01*
X52281331Y-56439369D01*
X51915271Y-56683962D01*
X51603962Y-56995271D01*
X51359369Y-57361331D01*
X51190890Y-57768075D01*
X51105000Y-58199872D01*
X51105000Y-58640128D01*
X51190890Y-59071925D01*
X51359369Y-59478669D01*
X51603962Y-59844729D01*
X51915271Y-60156038D01*
X52281331Y-60400631D01*
X52688075Y-60569110D01*
X53119872Y-60655000D01*
X53560128Y-60655000D01*
X53991925Y-60569110D01*
X54398669Y-60400631D01*
X54764729Y-60156038D01*
X55076038Y-59844729D01*
X55320631Y-59478669D01*
X55489110Y-59071925D01*
X55575000Y-58640128D01*
X55575000Y-58199872D01*
X66345000Y-58199872D01*
X66345000Y-58640128D01*
X66430890Y-59071925D01*
X66599369Y-59478669D01*
X66843962Y-59844729D01*
X67155271Y-60156038D01*
X67521331Y-60400631D01*
X67928075Y-60569110D01*
X68359872Y-60655000D01*
X68800128Y-60655000D01*
X69231925Y-60569110D01*
X69638669Y-60400631D01*
X70004729Y-60156038D01*
X70316038Y-59844729D01*
X70402679Y-59715061D01*
X71482000Y-59715061D01*
X71482000Y-59918939D01*
X71521774Y-60118898D01*
X71599795Y-60307256D01*
X71713063Y-60476774D01*
X71857226Y-60620937D01*
X72026744Y-60734205D01*
X72215102Y-60812226D01*
X72415061Y-60852000D01*
X72618939Y-60852000D01*
X72818898Y-60812226D01*
X73007256Y-60734205D01*
X73176774Y-60620937D01*
X73320937Y-60476774D01*
X73434205Y-60307256D01*
X73512226Y-60118898D01*
X73552000Y-59918939D01*
X73552000Y-59715061D01*
X73512226Y-59515102D01*
X73434205Y-59326744D01*
X73320937Y-59157226D01*
X73176774Y-59013063D01*
X73007256Y-58899795D01*
X72818898Y-58821774D01*
X72618939Y-58782000D01*
X72415061Y-58782000D01*
X72215102Y-58821774D01*
X72026744Y-58899795D01*
X71857226Y-59013063D01*
X71713063Y-59157226D01*
X71599795Y-59326744D01*
X71521774Y-59515102D01*
X71482000Y-59715061D01*
X70402679Y-59715061D01*
X70560631Y-59478669D01*
X70729110Y-59071925D01*
X70815000Y-58640128D01*
X70815000Y-58199872D01*
X70729110Y-57768075D01*
X70560631Y-57361331D01*
X70316038Y-56995271D01*
X70004729Y-56683962D01*
X69638669Y-56439369D01*
X69231925Y-56270890D01*
X68800128Y-56185000D01*
X68359872Y-56185000D01*
X67928075Y-56270890D01*
X67521331Y-56439369D01*
X67155271Y-56683962D01*
X66843962Y-56995271D01*
X66599369Y-57361331D01*
X66430890Y-57768075D01*
X66345000Y-58199872D01*
X55575000Y-58199872D01*
X55489110Y-57768075D01*
X55320631Y-57361331D01*
X55076038Y-56995271D01*
X54764729Y-56683962D01*
X54398669Y-56439369D01*
X53991925Y-56270890D01*
X53934832Y-56259533D01*
X54031898Y-56240226D01*
X54220256Y-56162205D01*
X54389774Y-56048937D01*
X54533937Y-55904774D01*
X54647205Y-55735256D01*
X54725226Y-55546898D01*
X54765000Y-55346939D01*
X54765000Y-55143061D01*
X54725226Y-54943102D01*
X54647205Y-54754744D01*
X54533937Y-54585226D01*
X54389774Y-54441063D01*
X54250495Y-54348000D01*
X72554869Y-54348000D01*
X77177962Y-58971093D01*
X77071256Y-58899795D01*
X76882898Y-58821774D01*
X76682939Y-58782000D01*
X76479061Y-58782000D01*
X76279102Y-58821774D01*
X76090744Y-58899795D01*
X75921226Y-59013063D01*
X75777063Y-59157226D01*
X75663795Y-59326744D01*
X75585774Y-59515102D01*
X75548129Y-59704358D01*
X69641488Y-65611000D01*
X63515700Y-65611000D01*
X63355256Y-65503795D01*
X63166898Y-65425774D01*
X62966939Y-65386000D01*
X62763061Y-65386000D01*
X62563102Y-65425774D01*
X62374744Y-65503795D01*
X62205226Y-65617063D01*
X62061063Y-65761226D01*
X61947795Y-65930744D01*
X61869774Y-66119102D01*
X61832129Y-66308358D01*
X51544382Y-76596106D01*
X51513472Y-76621473D01*
X51470991Y-76673237D01*
X51412250Y-76744812D01*
X51340287Y-76879448D01*
X51337037Y-76885528D01*
X51292134Y-77033554D01*
X51290720Y-77038214D01*
X51275080Y-77197001D01*
X51279000Y-77236799D01*
X51279000Y-81134000D01*
X51079061Y-81134000D01*
X50879102Y-81173774D01*
X50690744Y-81251795D01*
X50521226Y-81365063D01*
X50377063Y-81509226D01*
X50263795Y-81678744D01*
X50185774Y-81867102D01*
X50146000Y-82067061D01*
X50146000Y-82270939D01*
X50185774Y-82470898D01*
X50263795Y-82659256D01*
X50377063Y-82828774D01*
X50521226Y-82972937D01*
X50690744Y-83086205D01*
X50879102Y-83164226D01*
X51079061Y-83204000D01*
X51279000Y-83204000D01*
X51278999Y-86214000D01*
X51079061Y-86214000D01*
X50879102Y-86253774D01*
X50690744Y-86331795D01*
X50521226Y-86445063D01*
X50377063Y-86589226D01*
X50263795Y-86758744D01*
X50185774Y-86947102D01*
X50146000Y-87147061D01*
X50146000Y-87350939D01*
X50185774Y-87550898D01*
X50263795Y-87739256D01*
X50377063Y-87908774D01*
X50521226Y-88052937D01*
X50690744Y-88166205D01*
X50879102Y-88244226D01*
X51079061Y-88284000D01*
X51278999Y-88284000D01*
X51278999Y-88838552D01*
X51198744Y-88871795D01*
X51029226Y-88985063D01*
X50885063Y-89129226D01*
X50771795Y-89298744D01*
X50693774Y-89487102D01*
X50654000Y-89687061D01*
X50654000Y-89890939D01*
X50693774Y-90090898D01*
X50771795Y-90279256D01*
X50885063Y-90448774D01*
X51029226Y-90592937D01*
X51198744Y-90706205D01*
X51387102Y-90784226D01*
X51587061Y-90824000D01*
X51790939Y-90824000D01*
X51990898Y-90784226D01*
X52179256Y-90706205D01*
X52348774Y-90592937D01*
X52492937Y-90448774D01*
X52606205Y-90279256D01*
X52657674Y-90154999D01*
X57292928Y-90154999D01*
X57292928Y-91855001D01*
X57309992Y-92028255D01*
X57360528Y-92194851D01*
X57442595Y-92348387D01*
X57553038Y-92482962D01*
X57687613Y-92593405D01*
X57841149Y-92675472D01*
X58007745Y-92726008D01*
X58180999Y-92743072D01*
X59421001Y-92743072D01*
X59594255Y-92726008D01*
X59760851Y-92675472D01*
X59914387Y-92593405D01*
X60048962Y-92482962D01*
X60159405Y-92348387D01*
X60241472Y-92194851D01*
X60269663Y-92101918D01*
X60271655Y-92104345D01*
X60500822Y-92292417D01*
X60762276Y-92432166D01*
X61045969Y-92518224D01*
X61341000Y-92547282D01*
X61636032Y-92518224D01*
X61919725Y-92432166D01*
X62181179Y-92292417D01*
X62410345Y-92104345D01*
X62548919Y-91935492D01*
X62623583Y-92075179D01*
X62811655Y-92304345D01*
X63040822Y-92492417D01*
X63302276Y-92632166D01*
X63585969Y-92718224D01*
X63881000Y-92747282D01*
X64176032Y-92718224D01*
X64459725Y-92632166D01*
X64721179Y-92492417D01*
X64950345Y-92304345D01*
X65138417Y-92075179D01*
X65213081Y-91935492D01*
X65351655Y-92104345D01*
X65580822Y-92292417D01*
X65842276Y-92432166D01*
X66125969Y-92518224D01*
X66421000Y-92547282D01*
X66716032Y-92518224D01*
X66999725Y-92432166D01*
X67261179Y-92292417D01*
X67490345Y-92104345D01*
X67678417Y-91875179D01*
X67818166Y-91613724D01*
X67904224Y-91330031D01*
X67926000Y-91108935D01*
X67926000Y-90589999D01*
X92471928Y-90589999D01*
X92471928Y-92290001D01*
X92488992Y-92463255D01*
X92539528Y-92629851D01*
X92621595Y-92783387D01*
X92732038Y-92917962D01*
X92866613Y-93028405D01*
X93020149Y-93110472D01*
X93186745Y-93161008D01*
X93359999Y-93178072D01*
X94600001Y-93178072D01*
X94773255Y-93161008D01*
X94939851Y-93110472D01*
X95093387Y-93028405D01*
X95227962Y-92917962D01*
X95338405Y-92783387D01*
X95420472Y-92629851D01*
X95450773Y-92529963D01*
X95549506Y-92630536D01*
X95794563Y-92797571D01*
X96067498Y-92913588D01*
X96159969Y-92931302D01*
X96393000Y-92810246D01*
X96393000Y-91367000D01*
X96373000Y-91367000D01*
X96373000Y-91113000D01*
X96393000Y-91113000D01*
X96393000Y-89669754D01*
X96647000Y-89669754D01*
X96647000Y-91113000D01*
X96667000Y-91113000D01*
X96667000Y-91367000D01*
X96647000Y-91367000D01*
X96647000Y-92810246D01*
X96880031Y-92931302D01*
X96972502Y-92913588D01*
X97245437Y-92797571D01*
X97490494Y-92630536D01*
X97698256Y-92418903D01*
X97728837Y-92372208D01*
X97802583Y-92510179D01*
X97990655Y-92739345D01*
X98219822Y-92927417D01*
X98481276Y-93067166D01*
X98764969Y-93153224D01*
X99060000Y-93182282D01*
X99355032Y-93153224D01*
X99638725Y-93067166D01*
X99900179Y-92927417D01*
X100129345Y-92739345D01*
X100317417Y-92510179D01*
X100457166Y-92248724D01*
X100543224Y-91965031D01*
X100565000Y-91743935D01*
X100565000Y-91136064D01*
X100543224Y-90914968D01*
X100457166Y-90631275D01*
X100317417Y-90369821D01*
X100129345Y-90140655D01*
X99900178Y-89952583D01*
X99638724Y-89812834D01*
X99355031Y-89726776D01*
X99060000Y-89697718D01*
X98764968Y-89726776D01*
X98481275Y-89812834D01*
X98219821Y-89952583D01*
X97990655Y-90140655D01*
X97857010Y-90303503D01*
X97698256Y-90061097D01*
X97490494Y-89849464D01*
X97245437Y-89682429D01*
X96972502Y-89566412D01*
X96880031Y-89548698D01*
X96647000Y-89669754D01*
X96393000Y-89669754D01*
X96159969Y-89548698D01*
X96067498Y-89566412D01*
X95794563Y-89682429D01*
X95549506Y-89849464D01*
X95341744Y-90061097D01*
X95327326Y-90083113D01*
X95227962Y-89962038D01*
X95093387Y-89851595D01*
X94939851Y-89769528D01*
X94773255Y-89718992D01*
X94600001Y-89701928D01*
X93359999Y-89701928D01*
X93186745Y-89718992D01*
X93020149Y-89769528D01*
X92866613Y-89851595D01*
X92732038Y-89962038D01*
X92621595Y-90096613D01*
X92539528Y-90250149D01*
X92488992Y-90416745D01*
X92471928Y-90589999D01*
X67926000Y-90589999D01*
X67926000Y-90501064D01*
X67904224Y-90279968D01*
X67818166Y-89996275D01*
X67678417Y-89734821D01*
X67490345Y-89505655D01*
X67261178Y-89317583D01*
X66999724Y-89177834D01*
X66716031Y-89091776D01*
X66421000Y-89062718D01*
X66125968Y-89091776D01*
X65842275Y-89177834D01*
X65580821Y-89317583D01*
X65351655Y-89505655D01*
X65163583Y-89734822D01*
X65088920Y-89874508D01*
X64950345Y-89705655D01*
X64721178Y-89517583D01*
X64459724Y-89377834D01*
X64176031Y-89291776D01*
X63881000Y-89262718D01*
X63585968Y-89291776D01*
X63302275Y-89377834D01*
X63040821Y-89517583D01*
X62811655Y-89705655D01*
X62673081Y-89874508D01*
X62598417Y-89734821D01*
X62410345Y-89505655D01*
X62181178Y-89317583D01*
X61919724Y-89177834D01*
X61636031Y-89091776D01*
X61341000Y-89062718D01*
X61045968Y-89091776D01*
X60762275Y-89177834D01*
X60500821Y-89317583D01*
X60271655Y-89505655D01*
X60151534Y-89652023D01*
X60048962Y-89527038D01*
X59914387Y-89416595D01*
X59760851Y-89334528D01*
X59594255Y-89283992D01*
X59421001Y-89266928D01*
X58180999Y-89266928D01*
X58007745Y-89283992D01*
X57841149Y-89334528D01*
X57687613Y-89416595D01*
X57553038Y-89527038D01*
X57442595Y-89661613D01*
X57360528Y-89815149D01*
X57309992Y-89981745D01*
X57292928Y-90154999D01*
X52657674Y-90154999D01*
X52684226Y-90090898D01*
X52723706Y-89892419D01*
X52765748Y-89841190D01*
X52840962Y-89700474D01*
X52887279Y-89547789D01*
X52898999Y-89428792D01*
X52898999Y-89428790D01*
X52902918Y-89389002D01*
X52898999Y-89349214D01*
X52898999Y-82575061D01*
X59798000Y-82575061D01*
X59798000Y-82778939D01*
X59837774Y-82978898D01*
X59915795Y-83167256D01*
X60029063Y-83336774D01*
X60173226Y-83480937D01*
X60342744Y-83594205D01*
X60531102Y-83672226D01*
X60731061Y-83712000D01*
X60934939Y-83712000D01*
X61134898Y-83672226D01*
X61323256Y-83594205D01*
X61492774Y-83480937D01*
X61636937Y-83336774D01*
X61750205Y-83167256D01*
X61828226Y-82978898D01*
X61868000Y-82778939D01*
X61868000Y-82575061D01*
X61828226Y-82375102D01*
X61750205Y-82186744D01*
X61636937Y-82017226D01*
X61492774Y-81873063D01*
X61323256Y-81759795D01*
X61134898Y-81681774D01*
X60934939Y-81642000D01*
X60731061Y-81642000D01*
X60531102Y-81681774D01*
X60342744Y-81759795D01*
X60173226Y-81873063D01*
X60029063Y-82017226D01*
X59915795Y-82186744D01*
X59837774Y-82375102D01*
X59798000Y-82575061D01*
X52898999Y-82575061D01*
X52898999Y-80035061D01*
X59290000Y-80035061D01*
X59290000Y-80238939D01*
X59329774Y-80438898D01*
X59407795Y-80627256D01*
X59521063Y-80796774D01*
X59665226Y-80940937D01*
X59834744Y-81054205D01*
X60023102Y-81132226D01*
X60223061Y-81172000D01*
X60426939Y-81172000D01*
X60626898Y-81132226D01*
X60815256Y-81054205D01*
X60984774Y-80940937D01*
X61128937Y-80796774D01*
X61242205Y-80627256D01*
X61320226Y-80438898D01*
X61360000Y-80238939D01*
X61360000Y-80035061D01*
X61320226Y-79835102D01*
X61242205Y-79646744D01*
X61128937Y-79477226D01*
X60984774Y-79333063D01*
X60815256Y-79219795D01*
X60626898Y-79141774D01*
X60426939Y-79102000D01*
X60223061Y-79102000D01*
X60023102Y-79141774D01*
X59834744Y-79219795D01*
X59665226Y-79333063D01*
X59521063Y-79477226D01*
X59407795Y-79646744D01*
X59329774Y-79835102D01*
X59290000Y-80035061D01*
X52898999Y-80035061D01*
X52898999Y-77532513D01*
X55476451Y-74955061D01*
X62338000Y-74955061D01*
X62338000Y-75158939D01*
X62377774Y-75358898D01*
X62455795Y-75547256D01*
X62569063Y-75716774D01*
X62713226Y-75860937D01*
X62882744Y-75974205D01*
X63071102Y-76052226D01*
X63271061Y-76092000D01*
X63474939Y-76092000D01*
X63674898Y-76052226D01*
X63863256Y-75974205D01*
X64032774Y-75860937D01*
X64176937Y-75716774D01*
X64290205Y-75547256D01*
X64368226Y-75358898D01*
X64408000Y-75158939D01*
X64408000Y-74955061D01*
X64368226Y-74755102D01*
X64290205Y-74566744D01*
X64176937Y-74397226D01*
X64032774Y-74253063D01*
X63863256Y-74139795D01*
X63674898Y-74061774D01*
X63474939Y-74022000D01*
X63271061Y-74022000D01*
X63071102Y-74061774D01*
X62882744Y-74139795D01*
X62713226Y-74253063D01*
X62569063Y-74397226D01*
X62455795Y-74566744D01*
X62377774Y-74755102D01*
X62338000Y-74955061D01*
X55476451Y-74955061D01*
X57888451Y-72543061D01*
X61035000Y-72543061D01*
X61035000Y-72746939D01*
X61074774Y-72946898D01*
X61152795Y-73135256D01*
X61266063Y-73304774D01*
X61410226Y-73448937D01*
X61579744Y-73562205D01*
X61768102Y-73640226D01*
X61968061Y-73680000D01*
X62171939Y-73680000D01*
X62371898Y-73640226D01*
X62560256Y-73562205D01*
X62729774Y-73448937D01*
X62873937Y-73304774D01*
X62879667Y-73296198D01*
X62885774Y-73326898D01*
X62963795Y-73515256D01*
X63077063Y-73684774D01*
X63221226Y-73828937D01*
X63390744Y-73942205D01*
X63579102Y-74020226D01*
X63779061Y-74060000D01*
X63982939Y-74060000D01*
X64182898Y-74020226D01*
X64371256Y-73942205D01*
X64375961Y-73939061D01*
X72498000Y-73939061D01*
X72498000Y-74142939D01*
X72537774Y-74342898D01*
X72615795Y-74531256D01*
X72729063Y-74700774D01*
X72873226Y-74844937D01*
X73042744Y-74958205D01*
X73231102Y-75036226D01*
X73431061Y-75076000D01*
X73634939Y-75076000D01*
X73834898Y-75036226D01*
X74023256Y-74958205D01*
X74192774Y-74844937D01*
X74336937Y-74700774D01*
X74450205Y-74531256D01*
X74528226Y-74342898D01*
X74568000Y-74142939D01*
X74568000Y-73939061D01*
X74528226Y-73739102D01*
X74450205Y-73550744D01*
X74336937Y-73381226D01*
X74192774Y-73237063D01*
X74023256Y-73123795D01*
X73834898Y-73045774D01*
X73634939Y-73006000D01*
X73431061Y-73006000D01*
X73231102Y-73045774D01*
X73042744Y-73123795D01*
X72873226Y-73237063D01*
X72729063Y-73381226D01*
X72615795Y-73550744D01*
X72537774Y-73739102D01*
X72498000Y-73939061D01*
X64375961Y-73939061D01*
X64540774Y-73828937D01*
X64684937Y-73684774D01*
X64798205Y-73515256D01*
X64876226Y-73326898D01*
X64916000Y-73126939D01*
X64916000Y-72923061D01*
X64876226Y-72723102D01*
X64798205Y-72534744D01*
X64684937Y-72365226D01*
X64612772Y-72293061D01*
X80405000Y-72293061D01*
X80405000Y-72496939D01*
X80444774Y-72696898D01*
X80522795Y-72885256D01*
X80636063Y-73054774D01*
X80780226Y-73198937D01*
X80949744Y-73312205D01*
X81138102Y-73390226D01*
X81338061Y-73430000D01*
X81541939Y-73430000D01*
X81741898Y-73390226D01*
X81930256Y-73312205D01*
X82099774Y-73198937D01*
X82243937Y-73054774D01*
X82357205Y-72885256D01*
X82435226Y-72696898D01*
X82475000Y-72496939D01*
X82475000Y-72293061D01*
X82435226Y-72093102D01*
X82357205Y-71904744D01*
X82243937Y-71735226D01*
X82099774Y-71591063D01*
X81930256Y-71477795D01*
X81741898Y-71399774D01*
X81541939Y-71360000D01*
X81338061Y-71360000D01*
X81138102Y-71399774D01*
X80949744Y-71477795D01*
X80780226Y-71591063D01*
X80636063Y-71735226D01*
X80522795Y-71904744D01*
X80444774Y-72093102D01*
X80405000Y-72293061D01*
X64612772Y-72293061D01*
X64540774Y-72221063D01*
X64371256Y-72107795D01*
X64182898Y-72029774D01*
X63982939Y-71990000D01*
X63779061Y-71990000D01*
X63579102Y-72029774D01*
X63390744Y-72107795D01*
X63221226Y-72221063D01*
X63077063Y-72365226D01*
X63071333Y-72373802D01*
X63065226Y-72343102D01*
X62987205Y-72154744D01*
X62873937Y-71985226D01*
X62729774Y-71841063D01*
X62560256Y-71727795D01*
X62371898Y-71649774D01*
X62171939Y-71610000D01*
X61968061Y-71610000D01*
X61768102Y-71649774D01*
X61579744Y-71727795D01*
X61410226Y-71841063D01*
X61266063Y-71985226D01*
X61152795Y-72154744D01*
X61074774Y-72343102D01*
X61035000Y-72543061D01*
X57888451Y-72543061D01*
X61572451Y-68859061D01*
X70466000Y-68859061D01*
X70466000Y-69062939D01*
X70505774Y-69262898D01*
X70583795Y-69451256D01*
X70697063Y-69620774D01*
X70841226Y-69764937D01*
X71010744Y-69878205D01*
X71199102Y-69956226D01*
X71399061Y-69996000D01*
X71602939Y-69996000D01*
X71802898Y-69956226D01*
X71991256Y-69878205D01*
X72160774Y-69764937D01*
X72304937Y-69620774D01*
X72418205Y-69451256D01*
X72496226Y-69262898D01*
X72536000Y-69062939D01*
X72536000Y-68859061D01*
X72496226Y-68659102D01*
X72418205Y-68470744D01*
X72304937Y-68301226D01*
X72160774Y-68157063D01*
X71991256Y-68043795D01*
X71802898Y-67965774D01*
X71602939Y-67926000D01*
X71399061Y-67926000D01*
X71199102Y-67965774D01*
X71010744Y-68043795D01*
X70841226Y-68157063D01*
X70697063Y-68301226D01*
X70583795Y-68470744D01*
X70505774Y-68659102D01*
X70466000Y-68859061D01*
X61572451Y-68859061D01*
X62977642Y-67453871D01*
X63166898Y-67416226D01*
X63355256Y-67338205D01*
X63515700Y-67231000D01*
X69937212Y-67231000D01*
X69977000Y-67234919D01*
X70016788Y-67231000D01*
X70016791Y-67231000D01*
X70135788Y-67219280D01*
X70288473Y-67172963D01*
X70429189Y-67097749D01*
X70552528Y-66996528D01*
X70577900Y-66965612D01*
X76693642Y-60849871D01*
X76882898Y-60812226D01*
X77071256Y-60734205D01*
X77240774Y-60620937D01*
X77384937Y-60476774D01*
X77498205Y-60307256D01*
X77576226Y-60118898D01*
X77616000Y-59918939D01*
X77616000Y-59715061D01*
X77576226Y-59515102D01*
X77498205Y-59326744D01*
X77426907Y-59220038D01*
X88146001Y-69939134D01*
X88146000Y-73062868D01*
X85254869Y-75954000D01*
X82181495Y-75954000D01*
X82320774Y-75860937D01*
X82464937Y-75716774D01*
X82578205Y-75547256D01*
X82656226Y-75358898D01*
X82696000Y-75158939D01*
X82696000Y-74955061D01*
X82656226Y-74755102D01*
X82578205Y-74566744D01*
X82498236Y-74447061D01*
X83166000Y-74447061D01*
X83166000Y-74650939D01*
X83205774Y-74850898D01*
X83283795Y-75039256D01*
X83397063Y-75208774D01*
X83541226Y-75352937D01*
X83710744Y-75466205D01*
X83899102Y-75544226D01*
X84099061Y-75584000D01*
X84302939Y-75584000D01*
X84502898Y-75544226D01*
X84691256Y-75466205D01*
X84860774Y-75352937D01*
X85004937Y-75208774D01*
X85118205Y-75039256D01*
X85196226Y-74850898D01*
X85236000Y-74650939D01*
X85236000Y-74447061D01*
X85196226Y-74247102D01*
X85118205Y-74058744D01*
X85004937Y-73889226D01*
X84860774Y-73745063D01*
X84691256Y-73631795D01*
X84502898Y-73553774D01*
X84302939Y-73514000D01*
X84099061Y-73514000D01*
X83899102Y-73553774D01*
X83710744Y-73631795D01*
X83541226Y-73745063D01*
X83397063Y-73889226D01*
X83283795Y-74058744D01*
X83205774Y-74247102D01*
X83166000Y-74447061D01*
X82498236Y-74447061D01*
X82464937Y-74397226D01*
X82320774Y-74253063D01*
X82151256Y-74139795D01*
X81962898Y-74061774D01*
X81762939Y-74022000D01*
X81559061Y-74022000D01*
X81359102Y-74061774D01*
X81170744Y-74139795D01*
X81001226Y-74253063D01*
X80857063Y-74397226D01*
X80743795Y-74566744D01*
X80665774Y-74755102D01*
X80626000Y-74955061D01*
X80626000Y-75158939D01*
X80665774Y-75358898D01*
X80743795Y-75547256D01*
X80857063Y-75716774D01*
X81001226Y-75860937D01*
X81140505Y-75954000D01*
X77144751Y-75954000D01*
X77089000Y-75948509D01*
X77033248Y-75954000D01*
X76866501Y-75970423D01*
X76652553Y-76035324D01*
X76455377Y-76140716D01*
X76282551Y-76282551D01*
X76247011Y-76325857D01*
X75231012Y-77341857D01*
X75124717Y-77471378D01*
X75019324Y-77668554D01*
X74954423Y-77882502D01*
X74932509Y-78105000D01*
X74954423Y-78327498D01*
X75019324Y-78541446D01*
X75124717Y-78738622D01*
X75266552Y-78911448D01*
X75439378Y-79053283D01*
X75636554Y-79158676D01*
X75850502Y-79223577D01*
X76073000Y-79245491D01*
X76295498Y-79223577D01*
X76509446Y-79158676D01*
X76706622Y-79053283D01*
X76836143Y-78946988D01*
X77559132Y-78224000D01*
X85669249Y-78224000D01*
X85725000Y-78229491D01*
X85780751Y-78224000D01*
X85780752Y-78224000D01*
X85947499Y-78207577D01*
X86161447Y-78142676D01*
X86358623Y-78037284D01*
X86531449Y-77895449D01*
X86566996Y-77852135D01*
X89281000Y-75138132D01*
X91057856Y-76914988D01*
X91057861Y-76914992D01*
X93773013Y-79630146D01*
X93808551Y-79673449D01*
X93851854Y-79708987D01*
X93851856Y-79708989D01*
X93851867Y-79708998D01*
X99140438Y-84997570D01*
X99212309Y-85071635D01*
X99219393Y-85076524D01*
X106297856Y-92154988D01*
X106427377Y-92261284D01*
X106624553Y-92366676D01*
X106838501Y-92431577D01*
X107061000Y-92453491D01*
X107283499Y-92431577D01*
X107497446Y-92366676D01*
X107694622Y-92261284D01*
X107867449Y-92119449D01*
X108009284Y-91946622D01*
X108114676Y-91749446D01*
X108179577Y-91535499D01*
X108201491Y-91313000D01*
X108179577Y-91090501D01*
X108114676Y-90876553D01*
X108009284Y-90679377D01*
X107902988Y-90549856D01*
X102481983Y-85128852D01*
X106036435Y-84832647D01*
X106045000Y-84833491D01*
X106080530Y-84829992D01*
X120193046Y-85334010D01*
X120269000Y-85341491D01*
X120324751Y-85336000D01*
X129357249Y-85336000D01*
X129413000Y-85341491D01*
X129468751Y-85336000D01*
X129468752Y-85336000D01*
X129635499Y-85319577D01*
X129849447Y-85254676D01*
X130046623Y-85149284D01*
X130219449Y-85007449D01*
X130254996Y-84964135D01*
X133358142Y-81860990D01*
X133401450Y-81825448D01*
X133543285Y-81652622D01*
X133648677Y-81455446D01*
X133713578Y-81241498D01*
X133730001Y-81074751D01*
X133730001Y-81074750D01*
X133735492Y-81018999D01*
X133730001Y-80963248D01*
X133730001Y-79818752D01*
X133735492Y-79763000D01*
X133730001Y-79707249D01*
X133730001Y-73431061D01*
X136506000Y-73431061D01*
X136506000Y-73634939D01*
X136545774Y-73834898D01*
X136623795Y-74023256D01*
X136737063Y-74192774D01*
X136881226Y-74336937D01*
X137050744Y-74450205D01*
X137239102Y-74528226D01*
X137439061Y-74568000D01*
X137642939Y-74568000D01*
X137842898Y-74528226D01*
X138031256Y-74450205D01*
X138200774Y-74336937D01*
X138344937Y-74192774D01*
X138458205Y-74023256D01*
X138536226Y-73834898D01*
X138576000Y-73634939D01*
X138576000Y-73431061D01*
X138536226Y-73231102D01*
X138458205Y-73042744D01*
X138344937Y-72873226D01*
X138200774Y-72729063D01*
X138031256Y-72615795D01*
X137842898Y-72537774D01*
X137642939Y-72498000D01*
X137439061Y-72498000D01*
X137239102Y-72537774D01*
X137050744Y-72615795D01*
X136881226Y-72729063D01*
X136737063Y-72873226D01*
X136623795Y-73042744D01*
X136545774Y-73231102D01*
X136506000Y-73431061D01*
X133730001Y-73431061D01*
X133730001Y-72706753D01*
X133735492Y-72651001D01*
X133713578Y-72428502D01*
X133648677Y-72214554D01*
X133543285Y-72017378D01*
X133520816Y-71990000D01*
X133401450Y-71844552D01*
X133358141Y-71809009D01*
X132948193Y-71399061D01*
X135490000Y-71399061D01*
X135490000Y-71602939D01*
X135529774Y-71802898D01*
X135607795Y-71991256D01*
X135721063Y-72160774D01*
X135865226Y-72304937D01*
X136034744Y-72418205D01*
X136223102Y-72496226D01*
X136423061Y-72536000D01*
X136626939Y-72536000D01*
X136826898Y-72496226D01*
X137015256Y-72418205D01*
X137184774Y-72304937D01*
X137328937Y-72160774D01*
X137442205Y-71991256D01*
X137520226Y-71802898D01*
X137560000Y-71602939D01*
X137560000Y-71399061D01*
X137520226Y-71199102D01*
X137442205Y-71010744D01*
X137328937Y-70841226D01*
X137184774Y-70697063D01*
X137015256Y-70583795D01*
X136826898Y-70505774D01*
X136626939Y-70466000D01*
X136423061Y-70466000D01*
X136223102Y-70505774D01*
X136034744Y-70583795D01*
X135865226Y-70697063D01*
X135721063Y-70841226D01*
X135607795Y-71010744D01*
X135529774Y-71199102D01*
X135490000Y-71399061D01*
X132948193Y-71399061D01*
X132716143Y-71167012D01*
X132586622Y-71060717D01*
X132389446Y-70955324D01*
X132175498Y-70890423D01*
X131953000Y-70868509D01*
X131730502Y-70890423D01*
X131516554Y-70955324D01*
X131319378Y-71060717D01*
X131146552Y-71202552D01*
X131004717Y-71375378D01*
X130899324Y-71572554D01*
X130834423Y-71786502D01*
X130812509Y-72009000D01*
X130834423Y-72231498D01*
X130899324Y-72445446D01*
X131004717Y-72642622D01*
X131111012Y-72772143D01*
X131460002Y-73121133D01*
X131460002Y-73514000D01*
X131343061Y-73514000D01*
X131143102Y-73553774D01*
X130954744Y-73631795D01*
X130836504Y-73710800D01*
X126154711Y-73710800D01*
X126113551Y-73706746D01*
X126072391Y-73710800D01*
X126072382Y-73710800D01*
X125949236Y-73722929D01*
X125791235Y-73770858D01*
X125645620Y-73848691D01*
X125517988Y-73953436D01*
X125491746Y-73985412D01*
X123662576Y-75814583D01*
X123523102Y-75842326D01*
X123334744Y-75920347D01*
X123165226Y-76033615D01*
X123021063Y-76177778D01*
X122907795Y-76347296D01*
X122829774Y-76535654D01*
X122790000Y-76735613D01*
X122790000Y-76939491D01*
X122829774Y-77139450D01*
X122907795Y-77327808D01*
X123021063Y-77497326D01*
X123165226Y-77641489D01*
X123334744Y-77754757D01*
X123523102Y-77832778D01*
X123723061Y-77872552D01*
X123926939Y-77872552D01*
X124126898Y-77832778D01*
X124315256Y-77754757D01*
X124484774Y-77641489D01*
X124628937Y-77497326D01*
X124742205Y-77327808D01*
X124820226Y-77139450D01*
X124847969Y-76999976D01*
X126460746Y-75387200D01*
X127331141Y-75387200D01*
X127329314Y-75396384D01*
X127329314Y-75600262D01*
X127369088Y-75800221D01*
X127447109Y-75988579D01*
X127560377Y-76158097D01*
X127704540Y-76302260D01*
X127874058Y-76415528D01*
X128062416Y-76493549D01*
X128262375Y-76533323D01*
X128466253Y-76533323D01*
X128666212Y-76493549D01*
X128854570Y-76415528D01*
X129024088Y-76302260D01*
X129168251Y-76158097D01*
X129281519Y-75988579D01*
X129359540Y-75800221D01*
X129399314Y-75600262D01*
X129399314Y-75396384D01*
X129397487Y-75387200D01*
X130836504Y-75387200D01*
X130954744Y-75466205D01*
X131143102Y-75544226D01*
X131343061Y-75584000D01*
X131460002Y-75584000D01*
X131460001Y-79094002D01*
X131407324Y-79192554D01*
X131342423Y-79406502D01*
X131320509Y-79629000D01*
X131342423Y-79851498D01*
X131407324Y-80065446D01*
X131460001Y-80163998D01*
X131460001Y-80548867D01*
X128942869Y-83066000D01*
X121404000Y-83066000D01*
X121404000Y-76905897D01*
X121423491Y-76708000D01*
X121401577Y-76485502D01*
X121336676Y-76271554D01*
X121231283Y-76074378D01*
X121089448Y-75901552D01*
X120916622Y-75759717D01*
X120719446Y-75654324D01*
X120505498Y-75589423D01*
X120283000Y-75567509D01*
X120060502Y-75589423D01*
X119846554Y-75654324D01*
X119649378Y-75759717D01*
X119519857Y-75866012D01*
X119505860Y-75880009D01*
X119462552Y-75915551D01*
X119320717Y-76088377D01*
X119292741Y-76140717D01*
X119215324Y-76285554D01*
X119150423Y-76499502D01*
X119128509Y-76722000D01*
X119134001Y-76777761D01*
X119134000Y-83024742D01*
X108504473Y-82645115D01*
X108535177Y-82543899D01*
X108551600Y-82377152D01*
X108551600Y-82377143D01*
X108557090Y-82321401D01*
X108551600Y-82265659D01*
X108551600Y-76733061D01*
X114925000Y-76733061D01*
X114925000Y-76936939D01*
X114964774Y-77136898D01*
X115042795Y-77325256D01*
X115156063Y-77494774D01*
X115300226Y-77638937D01*
X115469744Y-77752205D01*
X115658102Y-77830226D01*
X115858061Y-77870000D01*
X116061939Y-77870000D01*
X116261898Y-77830226D01*
X116450256Y-77752205D01*
X116619774Y-77638937D01*
X116763937Y-77494774D01*
X116877205Y-77325256D01*
X116955226Y-77136898D01*
X116995000Y-76936939D01*
X116995000Y-76733061D01*
X116955226Y-76533102D01*
X116877205Y-76344744D01*
X116763937Y-76175226D01*
X116619774Y-76031063D01*
X116450256Y-75917795D01*
X116261898Y-75839774D01*
X116061939Y-75800000D01*
X115858061Y-75800000D01*
X115658102Y-75839774D01*
X115469744Y-75917795D01*
X115300226Y-76031063D01*
X115156063Y-76175226D01*
X115042795Y-76344744D01*
X114964774Y-76533102D01*
X114925000Y-76733061D01*
X108551600Y-76733061D01*
X108551600Y-71201152D01*
X108557091Y-71145400D01*
X108535177Y-70922901D01*
X108470276Y-70708953D01*
X108364884Y-70511777D01*
X108258589Y-70382256D01*
X108258587Y-70382254D01*
X108223049Y-70338951D01*
X108179746Y-70303413D01*
X107751394Y-69875061D01*
X110598000Y-69875061D01*
X110598000Y-70078939D01*
X110637774Y-70278898D01*
X110715795Y-70467256D01*
X110829063Y-70636774D01*
X110931289Y-70739000D01*
X110829063Y-70841226D01*
X110715795Y-71010744D01*
X110637774Y-71199102D01*
X110598000Y-71399061D01*
X110598000Y-71602939D01*
X110637774Y-71802898D01*
X110715795Y-71991256D01*
X110829063Y-72160774D01*
X110973226Y-72304937D01*
X111142744Y-72418205D01*
X111331102Y-72496226D01*
X111531061Y-72536000D01*
X111734939Y-72536000D01*
X111934898Y-72496226D01*
X112123256Y-72418205D01*
X112292774Y-72304937D01*
X112436937Y-72160774D01*
X112550205Y-71991256D01*
X112628226Y-71802898D01*
X112668000Y-71602939D01*
X112668000Y-71399061D01*
X112628226Y-71199102D01*
X112550205Y-71010744D01*
X112436937Y-70841226D01*
X112334711Y-70739000D01*
X112436937Y-70636774D01*
X112550205Y-70467256D01*
X112628226Y-70278898D01*
X112668000Y-70078939D01*
X112668000Y-69875061D01*
X112628226Y-69675102D01*
X112550205Y-69486744D01*
X112436937Y-69317226D01*
X112292774Y-69173063D01*
X112123256Y-69059795D01*
X111934898Y-68981774D01*
X111734939Y-68942000D01*
X111531061Y-68942000D01*
X111331102Y-68981774D01*
X111142744Y-69059795D01*
X110973226Y-69173063D01*
X110829063Y-69317226D01*
X110715795Y-69486744D01*
X110637774Y-69675102D01*
X110598000Y-69875061D01*
X107751394Y-69875061D01*
X105808400Y-67932069D01*
X105808400Y-57683061D01*
X112122000Y-57683061D01*
X112122000Y-57886939D01*
X112161774Y-58086898D01*
X112239795Y-58275256D01*
X112353063Y-58444774D01*
X112497226Y-58588937D01*
X112666744Y-58702205D01*
X112855102Y-58780226D01*
X113055061Y-58820000D01*
X113258939Y-58820000D01*
X113458898Y-58780226D01*
X113647256Y-58702205D01*
X113816774Y-58588937D01*
X113960937Y-58444774D01*
X114074205Y-58275256D01*
X114152226Y-58086898D01*
X114192000Y-57886939D01*
X114192000Y-57683061D01*
X114152226Y-57483102D01*
X114074205Y-57294744D01*
X113960937Y-57125226D01*
X113816774Y-56981063D01*
X113647256Y-56867795D01*
X113458898Y-56789774D01*
X113258939Y-56750000D01*
X113055061Y-56750000D01*
X112855102Y-56789774D01*
X112666744Y-56867795D01*
X112497226Y-56981063D01*
X112353063Y-57125226D01*
X112239795Y-57294744D01*
X112161774Y-57483102D01*
X112122000Y-57683061D01*
X105808400Y-57683061D01*
X105808400Y-54630626D01*
X106195000Y-54630626D01*
X106195000Y-55169374D01*
X106300105Y-55697770D01*
X106506275Y-56195508D01*
X106805587Y-56643461D01*
X107186539Y-57024413D01*
X107634492Y-57323725D01*
X108132230Y-57529895D01*
X108660626Y-57635000D01*
X109199374Y-57635000D01*
X109727770Y-57529895D01*
X110225508Y-57323725D01*
X110673461Y-57024413D01*
X111054413Y-56643461D01*
X111353725Y-56195508D01*
X111559895Y-55697770D01*
X111665000Y-55169374D01*
X111665000Y-54630626D01*
X119515000Y-54630626D01*
X119515000Y-55169374D01*
X119620105Y-55697770D01*
X119826275Y-56195508D01*
X120125587Y-56643461D01*
X120506539Y-57024413D01*
X120954492Y-57323725D01*
X121452230Y-57529895D01*
X121980626Y-57635000D01*
X122519374Y-57635000D01*
X123047770Y-57529895D01*
X123545508Y-57323725D01*
X123993461Y-57024413D01*
X124374413Y-56643461D01*
X124673725Y-56195508D01*
X124879895Y-55697770D01*
X124985000Y-55169374D01*
X124985000Y-54630626D01*
X129015000Y-54630626D01*
X129015000Y-55169374D01*
X129120105Y-55697770D01*
X129326275Y-56195508D01*
X129625587Y-56643461D01*
X130006539Y-57024413D01*
X130454492Y-57323725D01*
X130952230Y-57529895D01*
X131480626Y-57635000D01*
X132019374Y-57635000D01*
X132547770Y-57529895D01*
X133045508Y-57323725D01*
X133493461Y-57024413D01*
X133874413Y-56643461D01*
X134173725Y-56195508D01*
X134379895Y-55697770D01*
X134485000Y-55169374D01*
X134485000Y-54630626D01*
X134379895Y-54102230D01*
X134173725Y-53604492D01*
X133874413Y-53156539D01*
X133493461Y-52775587D01*
X133045508Y-52476275D01*
X132547770Y-52270105D01*
X132019374Y-52165000D01*
X131480626Y-52165000D01*
X130952230Y-52270105D01*
X130454492Y-52476275D01*
X130006539Y-52775587D01*
X129625587Y-53156539D01*
X129326275Y-53604492D01*
X129120105Y-54102230D01*
X129015000Y-54630626D01*
X124985000Y-54630626D01*
X124879895Y-54102230D01*
X124673725Y-53604492D01*
X124374413Y-53156539D01*
X123993461Y-52775587D01*
X123545508Y-52476275D01*
X123047770Y-52270105D01*
X122519374Y-52165000D01*
X121980626Y-52165000D01*
X121452230Y-52270105D01*
X120954492Y-52476275D01*
X120506539Y-52775587D01*
X120125587Y-53156539D01*
X119826275Y-53604492D01*
X119620105Y-54102230D01*
X119515000Y-54630626D01*
X111665000Y-54630626D01*
X111559895Y-54102230D01*
X111353725Y-53604492D01*
X111054413Y-53156539D01*
X110673461Y-52775587D01*
X110225508Y-52476275D01*
X109727770Y-52270105D01*
X109199374Y-52165000D01*
X108660626Y-52165000D01*
X108132230Y-52270105D01*
X107634492Y-52476275D01*
X107186539Y-52775587D01*
X106805587Y-53156539D01*
X106506275Y-53604492D01*
X106300105Y-54102230D01*
X106195000Y-54630626D01*
X105808400Y-54630626D01*
X105808400Y-53429131D01*
X106920247Y-52317284D01*
X107127743Y-52276011D01*
X107407095Y-52160299D01*
X107658505Y-51992312D01*
X107872312Y-51778505D01*
X108040299Y-51527095D01*
X108156011Y-51247743D01*
X108215000Y-50951184D01*
X108215000Y-50870132D01*
X108854934Y-50230199D01*
X123074547Y-50230199D01*
X123023989Y-50352257D01*
X122965000Y-50648816D01*
X122965000Y-50951184D01*
X123023989Y-51247743D01*
X123139701Y-51527095D01*
X123307688Y-51778505D01*
X123521495Y-51992312D01*
X123772905Y-52160299D01*
X124052257Y-52276011D01*
X124348816Y-52335000D01*
X124651184Y-52335000D01*
X124947743Y-52276011D01*
X125227095Y-52160299D01*
X125478505Y-51992312D01*
X125692312Y-51778505D01*
X125750000Y-51692169D01*
X125807688Y-51778505D01*
X126021495Y-51992312D01*
X126272905Y-52160299D01*
X126552257Y-52276011D01*
X126848816Y-52335000D01*
X127151184Y-52335000D01*
X127447743Y-52276011D01*
X127727095Y-52160299D01*
X127978505Y-51992312D01*
X128192312Y-51778505D01*
X128250000Y-51692169D01*
X128307688Y-51778505D01*
X128521495Y-51992312D01*
X128772905Y-52160299D01*
X129052257Y-52276011D01*
X129348816Y-52335000D01*
X129651184Y-52335000D01*
X129947743Y-52276011D01*
X130227095Y-52160299D01*
X130478505Y-51992312D01*
X130692312Y-51778505D01*
X130860299Y-51527095D01*
X130976011Y-51247743D01*
X131035000Y-50951184D01*
X131035000Y-50648816D01*
X130976011Y-50352257D01*
X130860299Y-50072905D01*
X130692312Y-49821495D01*
X130478505Y-49607688D01*
X130227095Y-49439701D01*
X129947743Y-49323989D01*
X129651184Y-49265000D01*
X129570132Y-49265000D01*
X129225132Y-48920000D01*
X139040000Y-48920000D01*
X139040000Y-57424992D01*
X139013631Y-57361331D01*
X138769038Y-56995271D01*
X138457729Y-56683962D01*
X138091669Y-56439369D01*
X137684925Y-56270890D01*
X137253128Y-56185000D01*
X136812872Y-56185000D01*
X136381075Y-56270890D01*
X135974331Y-56439369D01*
X135608271Y-56683962D01*
X135296962Y-56995271D01*
X135052369Y-57361331D01*
X134883890Y-57768075D01*
X134798000Y-58199872D01*
X134798000Y-58640128D01*
X134883890Y-59071925D01*
X135052369Y-59478669D01*
X135296962Y-59844729D01*
X135608271Y-60156038D01*
X135974331Y-60400631D01*
X136381075Y-60569110D01*
X136812872Y-60655000D01*
X137253128Y-60655000D01*
X137684925Y-60569110D01*
X138091669Y-60400631D01*
X138457729Y-60156038D01*
X138769038Y-59844729D01*
X139013631Y-59478669D01*
X139040000Y-59415008D01*
X139040000Y-65092901D01*
X138966205Y-64914744D01*
X138852937Y-64745226D01*
X138708774Y-64601063D01*
X138539256Y-64487795D01*
X138350898Y-64409774D01*
X138211425Y-64382031D01*
X135114811Y-61285418D01*
X135088564Y-61253436D01*
X134960932Y-61148691D01*
X134815317Y-61070858D01*
X134657316Y-61022929D01*
X134534170Y-61010800D01*
X134534163Y-61010800D01*
X134493000Y-61006746D01*
X134451837Y-61010800D01*
X123866170Y-61010800D01*
X123825000Y-61006745D01*
X123783830Y-61010800D01*
X117829496Y-61010800D01*
X117711256Y-60931795D01*
X117522898Y-60853774D01*
X117322939Y-60814000D01*
X117119061Y-60814000D01*
X116919102Y-60853774D01*
X116730744Y-60931795D01*
X116561226Y-61045063D01*
X116417063Y-61189226D01*
X116303795Y-61358744D01*
X116225774Y-61547102D01*
X116186000Y-61747061D01*
X116186000Y-61950939D01*
X116225774Y-62150898D01*
X116303795Y-62339256D01*
X116417063Y-62508774D01*
X116561226Y-62652937D01*
X116730744Y-62766205D01*
X116919102Y-62844226D01*
X117119061Y-62884000D01*
X117322939Y-62884000D01*
X117522898Y-62844226D01*
X117711256Y-62766205D01*
X117829496Y-62687200D01*
X122986800Y-62687200D01*
X122986801Y-65363828D01*
X122982746Y-65405000D01*
X122998929Y-65569315D01*
X123046858Y-65727316D01*
X123124691Y-65872931D01*
X123124692Y-65872932D01*
X123229437Y-66000564D01*
X123261413Y-66026806D01*
X125342031Y-68107425D01*
X125369774Y-68246898D01*
X125447795Y-68435256D01*
X125561063Y-68604774D01*
X125705226Y-68748937D01*
X125874744Y-68862205D01*
X126063102Y-68940226D01*
X126263061Y-68980000D01*
X126466939Y-68980000D01*
X126666898Y-68940226D01*
X126855256Y-68862205D01*
X127024774Y-68748937D01*
X127168937Y-68604774D01*
X127282205Y-68435256D01*
X127360226Y-68246898D01*
X127400000Y-68046939D01*
X127400000Y-67951051D01*
X128360000Y-67951051D01*
X128360000Y-68154929D01*
X128399774Y-68354888D01*
X128477795Y-68543246D01*
X128591063Y-68712764D01*
X128735226Y-68856927D01*
X128904744Y-68970195D01*
X129093102Y-69048216D01*
X129293061Y-69087990D01*
X129496939Y-69087990D01*
X129696898Y-69048216D01*
X129885256Y-68970195D01*
X130054774Y-68856927D01*
X130198937Y-68712764D01*
X130312205Y-68543246D01*
X130390226Y-68354888D01*
X130430000Y-68154929D01*
X130430000Y-67951051D01*
X130408520Y-67843061D01*
X133966000Y-67843061D01*
X133966000Y-68046939D01*
X134005774Y-68246898D01*
X134083795Y-68435256D01*
X134197063Y-68604774D01*
X134341226Y-68748937D01*
X134510744Y-68862205D01*
X134699102Y-68940226D01*
X134899061Y-68980000D01*
X135102939Y-68980000D01*
X135302898Y-68940226D01*
X135491256Y-68862205D01*
X135660774Y-68748937D01*
X135804937Y-68604774D01*
X135918205Y-68435256D01*
X135996226Y-68246898D01*
X136036000Y-68046939D01*
X136036000Y-67843061D01*
X135996226Y-67643102D01*
X135918205Y-67454744D01*
X135804937Y-67285226D01*
X135660774Y-67141063D01*
X135491256Y-67027795D01*
X135302898Y-66949774D01*
X135102939Y-66910000D01*
X134899061Y-66910000D01*
X134699102Y-66949774D01*
X134510744Y-67027795D01*
X134341226Y-67141063D01*
X134197063Y-67285226D01*
X134083795Y-67454744D01*
X134005774Y-67643102D01*
X133966000Y-67843061D01*
X130408520Y-67843061D01*
X130390226Y-67751092D01*
X130312205Y-67562734D01*
X130198937Y-67393216D01*
X130054774Y-67249053D01*
X129885256Y-67135785D01*
X129696898Y-67057764D01*
X129496939Y-67017990D01*
X129293061Y-67017990D01*
X129093102Y-67057764D01*
X128904744Y-67135785D01*
X128735226Y-67249053D01*
X128591063Y-67393216D01*
X128477795Y-67562734D01*
X128399774Y-67751092D01*
X128360000Y-67951051D01*
X127400000Y-67951051D01*
X127400000Y-67843061D01*
X127360226Y-67643102D01*
X127282205Y-67454744D01*
X127168937Y-67285226D01*
X127024774Y-67141063D01*
X126855256Y-67027795D01*
X126666898Y-66949774D01*
X126527425Y-66922031D01*
X124663200Y-65057807D01*
X124663200Y-62687200D01*
X134145807Y-62687200D01*
X137026031Y-65567425D01*
X137053774Y-65706898D01*
X137131795Y-65895256D01*
X137245063Y-66064774D01*
X137389226Y-66208937D01*
X137558744Y-66322205D01*
X137747102Y-66400226D01*
X137947061Y-66440000D01*
X138150939Y-66440000D01*
X138350898Y-66400226D01*
X138539256Y-66322205D01*
X138708774Y-66208937D01*
X138852937Y-66064774D01*
X138966205Y-65895256D01*
X139040000Y-65717099D01*
X139040001Y-83787581D01*
X139040000Y-95860000D01*
X48920000Y-95860000D01*
X48920000Y-71399061D01*
X52178000Y-71399061D01*
X52178000Y-71602939D01*
X52217774Y-71802898D01*
X52295795Y-71991256D01*
X52409063Y-72160774D01*
X52553226Y-72304937D01*
X52722744Y-72418205D01*
X52911102Y-72496226D01*
X53111061Y-72536000D01*
X53314939Y-72536000D01*
X53514898Y-72496226D01*
X53703256Y-72418205D01*
X53872774Y-72304937D01*
X54016937Y-72160774D01*
X54130205Y-71991256D01*
X54208226Y-71802898D01*
X54248000Y-71602939D01*
X54248000Y-71399061D01*
X54208226Y-71199102D01*
X54130205Y-71010744D01*
X54016937Y-70841226D01*
X53872774Y-70697063D01*
X53703256Y-70583795D01*
X53514898Y-70505774D01*
X53314939Y-70466000D01*
X53111061Y-70466000D01*
X52911102Y-70505774D01*
X52722744Y-70583795D01*
X52553226Y-70697063D01*
X52409063Y-70841226D01*
X52295795Y-71010744D01*
X52217774Y-71199102D01*
X52178000Y-71399061D01*
X48920000Y-71399061D01*
X48920000Y-48920000D01*
X106954868Y-48920000D01*
X106609868Y-49265000D01*
G37*
X106609868Y-49265000D02*
X106528816Y-49265000D01*
X106232257Y-49323989D01*
X105952905Y-49439701D01*
X105701495Y-49607688D01*
X105487688Y-49821495D01*
X105430000Y-49907831D01*
X105372312Y-49821495D01*
X105158505Y-49607688D01*
X104907095Y-49439701D01*
X104627743Y-49323989D01*
X104331184Y-49265000D01*
X104028816Y-49265000D01*
X103732257Y-49323989D01*
X103452905Y-49439701D01*
X103201495Y-49607688D01*
X102987688Y-49821495D01*
X102930000Y-49907831D01*
X102872312Y-49821495D01*
X102658505Y-49607688D01*
X102407095Y-49439701D01*
X102127743Y-49323989D01*
X101831184Y-49265000D01*
X101528816Y-49265000D01*
X101232257Y-49323989D01*
X100952905Y-49439701D01*
X100701495Y-49607688D01*
X100487688Y-49821495D01*
X100319701Y-50072905D01*
X100203989Y-50352257D01*
X100145000Y-50648816D01*
X100145000Y-50951184D01*
X100203989Y-51247743D01*
X100319701Y-51527095D01*
X100487688Y-51778505D01*
X100701495Y-51992312D01*
X100952905Y-52160299D01*
X101232257Y-52276011D01*
X101528816Y-52335000D01*
X101831184Y-52335000D01*
X102127743Y-52276011D01*
X102407095Y-52160299D01*
X102658505Y-51992312D01*
X102872312Y-51778505D01*
X102930000Y-51692169D01*
X102987688Y-51778505D01*
X103201495Y-51992312D01*
X103452905Y-52160299D01*
X103732257Y-52276011D01*
X103760946Y-52281718D01*
X103725116Y-52325377D01*
X103619725Y-52522553D01*
X103619724Y-52522554D01*
X103554823Y-52736502D01*
X103532909Y-52959000D01*
X103538400Y-53014751D01*
X103538401Y-68346439D01*
X103532909Y-68402200D01*
X103554823Y-68624698D01*
X103619724Y-68838646D01*
X103630636Y-68859061D01*
X103725117Y-69035823D01*
X103866952Y-69208649D01*
X103910260Y-69244191D01*
X106281600Y-71615533D01*
X106281600Y-74220508D01*
X106214595Y-74058744D01*
X106101327Y-73889226D01*
X105957164Y-73745063D01*
X105787646Y-73631795D01*
X105599288Y-73553774D01*
X105399329Y-73514000D01*
X105195451Y-73514000D01*
X104995492Y-73553774D01*
X104807134Y-73631795D01*
X104637616Y-73745063D01*
X104493453Y-73889226D01*
X104380185Y-74058744D01*
X104302164Y-74247102D01*
X104262390Y-74447061D01*
X104262390Y-74650939D01*
X104302164Y-74850898D01*
X104380185Y-75039256D01*
X104493453Y-75208774D01*
X104637616Y-75352937D01*
X104807134Y-75466205D01*
X104995492Y-75544226D01*
X105195451Y-75584000D01*
X105399329Y-75584000D01*
X105599288Y-75544226D01*
X105787646Y-75466205D01*
X105957164Y-75352937D01*
X106101327Y-75208774D01*
X106214595Y-75039256D01*
X106281600Y-74877492D01*
X106281601Y-81851267D01*
X105536421Y-82596448D01*
X100379337Y-83026205D01*
X97896193Y-80543061D01*
X103994000Y-80543061D01*
X103994000Y-80746939D01*
X104033774Y-80946898D01*
X104111795Y-81135256D01*
X104225063Y-81304774D01*
X104369226Y-81448937D01*
X104538744Y-81562205D01*
X104727102Y-81640226D01*
X104927061Y-81680000D01*
X105130939Y-81680000D01*
X105330898Y-81640226D01*
X105519256Y-81562205D01*
X105688774Y-81448937D01*
X105832937Y-81304774D01*
X105946205Y-81135256D01*
X106024226Y-80946898D01*
X106064000Y-80746939D01*
X106064000Y-80543061D01*
X106024226Y-80343102D01*
X105946205Y-80154744D01*
X105832937Y-79985226D01*
X105688774Y-79841063D01*
X105519256Y-79727795D01*
X105330898Y-79649774D01*
X105130939Y-79610000D01*
X104927061Y-79610000D01*
X104727102Y-79649774D01*
X104538744Y-79727795D01*
X104369226Y-79841063D01*
X104225063Y-79985226D01*
X104111795Y-80154744D01*
X104033774Y-80343102D01*
X103994000Y-80543061D01*
X97896193Y-80543061D01*
X96614131Y-79261000D01*
X97641988Y-78233144D01*
X97748283Y-78103624D01*
X97853675Y-77906448D01*
X97918576Y-77692500D01*
X97940490Y-77470001D01*
X97918576Y-77247502D01*
X97853675Y-77033554D01*
X97748283Y-76836378D01*
X97606448Y-76663552D01*
X97433622Y-76521717D01*
X97236446Y-76416325D01*
X97022498Y-76351424D01*
X96799999Y-76329510D01*
X96577500Y-76351424D01*
X96363552Y-76416325D01*
X96166376Y-76521717D01*
X96036856Y-76628012D01*
X95009001Y-77655868D01*
X92662992Y-75309861D01*
X92662988Y-75309856D01*
X90916193Y-73563061D01*
X100090000Y-73563061D01*
X100090000Y-73766939D01*
X100129774Y-73966898D01*
X100207795Y-74155256D01*
X100321063Y-74324774D01*
X100465226Y-74468937D01*
X100634744Y-74582205D01*
X100823102Y-74660226D01*
X101023061Y-74700000D01*
X101226939Y-74700000D01*
X101426898Y-74660226D01*
X101615256Y-74582205D01*
X101784774Y-74468937D01*
X101928937Y-74324774D01*
X102042205Y-74155256D01*
X102120226Y-73966898D01*
X102160000Y-73766939D01*
X102160000Y-73563061D01*
X102120226Y-73363102D01*
X102042205Y-73174744D01*
X101928937Y-73005226D01*
X101784774Y-72861063D01*
X101615256Y-72747795D01*
X101426898Y-72669774D01*
X101226939Y-72630000D01*
X101023061Y-72630000D01*
X100823102Y-72669774D01*
X100634744Y-72747795D01*
X100465226Y-72861063D01*
X100321063Y-73005226D01*
X100207795Y-73174744D01*
X100129774Y-73363102D01*
X100090000Y-73563061D01*
X90916193Y-73563061D01*
X90416000Y-73062869D01*
X90416000Y-71023061D01*
X94690000Y-71023061D01*
X94690000Y-71226939D01*
X94729774Y-71426898D01*
X94807795Y-71615256D01*
X94921063Y-71784774D01*
X95065226Y-71928937D01*
X95234744Y-72042205D01*
X95423102Y-72120226D01*
X95623061Y-72160000D01*
X95826939Y-72160000D01*
X96026898Y-72120226D01*
X96215256Y-72042205D01*
X96384774Y-71928937D01*
X96528937Y-71784774D01*
X96642205Y-71615256D01*
X96720226Y-71426898D01*
X96760000Y-71226939D01*
X96760000Y-71023061D01*
X96733744Y-70891061D01*
X99930000Y-70891061D01*
X99930000Y-71094939D01*
X99969774Y-71294898D01*
X100047795Y-71483256D01*
X100161063Y-71652774D01*
X100305226Y-71796937D01*
X100474744Y-71910205D01*
X100663102Y-71988226D01*
X100863061Y-72028000D01*
X101066939Y-72028000D01*
X101266898Y-71988226D01*
X101455256Y-71910205D01*
X101624774Y-71796937D01*
X101768937Y-71652774D01*
X101882205Y-71483256D01*
X101960226Y-71294898D01*
X102000000Y-71094939D01*
X102000000Y-70891061D01*
X101960226Y-70691102D01*
X101882205Y-70502744D01*
X101768937Y-70333226D01*
X101624774Y-70189063D01*
X101455256Y-70075795D01*
X101266898Y-69997774D01*
X101066939Y-69958000D01*
X100863061Y-69958000D01*
X100663102Y-69997774D01*
X100474744Y-70075795D01*
X100305226Y-70189063D01*
X100161063Y-70333226D01*
X100047795Y-70502744D01*
X99969774Y-70691102D01*
X99930000Y-70891061D01*
X96733744Y-70891061D01*
X96720226Y-70823102D01*
X96642205Y-70634744D01*
X96528937Y-70465226D01*
X96384774Y-70321063D01*
X96215256Y-70207795D01*
X96026898Y-70129774D01*
X95826939Y-70090000D01*
X95623061Y-70090000D01*
X95423102Y-70129774D01*
X95234744Y-70207795D01*
X95065226Y-70321063D01*
X94921063Y-70465226D01*
X94807795Y-70634744D01*
X94729774Y-70823102D01*
X94690000Y-71023061D01*
X90416000Y-71023061D01*
X90416000Y-69524752D01*
X90421491Y-69469000D01*
X90399577Y-69246501D01*
X90334676Y-69032553D01*
X90229284Y-68835377D01*
X90122989Y-68705856D01*
X90122987Y-68705854D01*
X90087449Y-68662551D01*
X90044146Y-68627013D01*
X89545422Y-68128289D01*
X89666867Y-68006844D01*
X89780135Y-67837326D01*
X89858156Y-67648968D01*
X89897930Y-67449009D01*
X89897930Y-67245131D01*
X89858156Y-67045172D01*
X89780135Y-66856814D01*
X89666867Y-66687296D01*
X89522704Y-66543133D01*
X89353186Y-66429865D01*
X89164828Y-66351844D01*
X88964869Y-66312070D01*
X88760991Y-66312070D01*
X88561032Y-66351844D01*
X88372674Y-66429865D01*
X88203156Y-66543133D01*
X88081711Y-66664578D01*
X79617004Y-58199872D01*
X92253000Y-58199872D01*
X92253000Y-58640128D01*
X92338890Y-59071925D01*
X92507369Y-59478669D01*
X92751962Y-59844729D01*
X93063271Y-60156038D01*
X93429331Y-60400631D01*
X93836075Y-60569110D01*
X94267872Y-60655000D01*
X94708128Y-60655000D01*
X95139925Y-60569110D01*
X95546669Y-60400631D01*
X95912729Y-60156038D01*
X96224038Y-59844729D01*
X96468631Y-59478669D01*
X96637110Y-59071925D01*
X96723000Y-58640128D01*
X96723000Y-58199872D01*
X96637110Y-57768075D01*
X96468631Y-57361331D01*
X96224038Y-56995271D01*
X95912729Y-56683962D01*
X95546669Y-56439369D01*
X95139925Y-56270890D01*
X94708128Y-56185000D01*
X94267872Y-56185000D01*
X93836075Y-56270890D01*
X93429331Y-56439369D01*
X93063271Y-56683962D01*
X92751962Y-56995271D01*
X92507369Y-57361331D01*
X92338890Y-57768075D01*
X92253000Y-58199872D01*
X79617004Y-58199872D01*
X76047758Y-54630626D01*
X96695000Y-54630626D01*
X96695000Y-55169374D01*
X96800105Y-55697770D01*
X97006275Y-56195508D01*
X97305587Y-56643461D01*
X97686539Y-57024413D01*
X98134492Y-57323725D01*
X98632230Y-57529895D01*
X99160626Y-57635000D01*
X99699374Y-57635000D01*
X100227770Y-57529895D01*
X100725508Y-57323725D01*
X101173461Y-57024413D01*
X101554413Y-56643461D01*
X101853725Y-56195508D01*
X102059895Y-55697770D01*
X102165000Y-55169374D01*
X102165000Y-54630626D01*
X102059895Y-54102230D01*
X101853725Y-53604492D01*
X101554413Y-53156539D01*
X101173461Y-52775587D01*
X100725508Y-52476275D01*
X100227770Y-52270105D01*
X99699374Y-52165000D01*
X99160626Y-52165000D01*
X98632230Y-52270105D01*
X98134492Y-52476275D01*
X97686539Y-52775587D01*
X97305587Y-53156539D01*
X97006275Y-53604492D01*
X96800105Y-54102230D01*
X96695000Y-54630626D01*
X76047758Y-54630626D01*
X73866996Y-52449865D01*
X73831449Y-52406551D01*
X73658623Y-52264716D01*
X73461447Y-52159324D01*
X73247499Y-52094423D01*
X73080752Y-52078000D01*
X73080751Y-52078000D01*
X73025000Y-52072509D01*
X72969249Y-52078000D01*
X50109248Y-52078000D01*
X49942501Y-52094423D01*
X49728553Y-52159324D01*
X49531377Y-52264716D01*
X49358551Y-52406551D01*
X49216716Y-52579377D01*
X49111324Y-52776553D01*
X49046423Y-52990501D01*
X49024509Y-53213000D01*
X49046423Y-53435499D01*
X49111324Y-53649447D01*
X49216716Y-53846623D01*
X49358551Y-54019449D01*
X49531377Y-54161284D01*
X49728553Y-54266676D01*
X49942501Y-54331577D01*
X50109248Y-54348000D01*
X53209505Y-54348000D01*
X53070226Y-54441063D01*
X52926063Y-54585226D01*
X52812795Y-54754744D01*
X52734774Y-54943102D01*
X52695000Y-55143061D01*
X52695000Y-55346939D01*
X52734774Y-55546898D01*
X52812795Y-55735256D01*
X52926063Y-55904774D01*
X53070226Y-56048937D01*
X53239744Y-56162205D01*
X53294776Y-56185000D01*
X53119872Y-56185000D01*
X52688075Y-56270890D01*
X52281331Y-56439369D01*
X51915271Y-56683962D01*
X51603962Y-56995271D01*
X51359369Y-57361331D01*
X51190890Y-57768075D01*
X51105000Y-58199872D01*
X51105000Y-58640128D01*
X51190890Y-59071925D01*
X51359369Y-59478669D01*
X51603962Y-59844729D01*
X51915271Y-60156038D01*
X52281331Y-60400631D01*
X52688075Y-60569110D01*
X53119872Y-60655000D01*
X53560128Y-60655000D01*
X53991925Y-60569110D01*
X54398669Y-60400631D01*
X54764729Y-60156038D01*
X55076038Y-59844729D01*
X55320631Y-59478669D01*
X55489110Y-59071925D01*
X55575000Y-58640128D01*
X55575000Y-58199872D01*
X66345000Y-58199872D01*
X66345000Y-58640128D01*
X66430890Y-59071925D01*
X66599369Y-59478669D01*
X66843962Y-59844729D01*
X67155271Y-60156038D01*
X67521331Y-60400631D01*
X67928075Y-60569110D01*
X68359872Y-60655000D01*
X68800128Y-60655000D01*
X69231925Y-60569110D01*
X69638669Y-60400631D01*
X70004729Y-60156038D01*
X70316038Y-59844729D01*
X70402679Y-59715061D01*
X71482000Y-59715061D01*
X71482000Y-59918939D01*
X71521774Y-60118898D01*
X71599795Y-60307256D01*
X71713063Y-60476774D01*
X71857226Y-60620937D01*
X72026744Y-60734205D01*
X72215102Y-60812226D01*
X72415061Y-60852000D01*
X72618939Y-60852000D01*
X72818898Y-60812226D01*
X73007256Y-60734205D01*
X73176774Y-60620937D01*
X73320937Y-60476774D01*
X73434205Y-60307256D01*
X73512226Y-60118898D01*
X73552000Y-59918939D01*
X73552000Y-59715061D01*
X73512226Y-59515102D01*
X73434205Y-59326744D01*
X73320937Y-59157226D01*
X73176774Y-59013063D01*
X73007256Y-58899795D01*
X72818898Y-58821774D01*
X72618939Y-58782000D01*
X72415061Y-58782000D01*
X72215102Y-58821774D01*
X72026744Y-58899795D01*
X71857226Y-59013063D01*
X71713063Y-59157226D01*
X71599795Y-59326744D01*
X71521774Y-59515102D01*
X71482000Y-59715061D01*
X70402679Y-59715061D01*
X70560631Y-59478669D01*
X70729110Y-59071925D01*
X70815000Y-58640128D01*
X70815000Y-58199872D01*
X70729110Y-57768075D01*
X70560631Y-57361331D01*
X70316038Y-56995271D01*
X70004729Y-56683962D01*
X69638669Y-56439369D01*
X69231925Y-56270890D01*
X68800128Y-56185000D01*
X68359872Y-56185000D01*
X67928075Y-56270890D01*
X67521331Y-56439369D01*
X67155271Y-56683962D01*
X66843962Y-56995271D01*
X66599369Y-57361331D01*
X66430890Y-57768075D01*
X66345000Y-58199872D01*
X55575000Y-58199872D01*
X55489110Y-57768075D01*
X55320631Y-57361331D01*
X55076038Y-56995271D01*
X54764729Y-56683962D01*
X54398669Y-56439369D01*
X53991925Y-56270890D01*
X53934832Y-56259533D01*
X54031898Y-56240226D01*
X54220256Y-56162205D01*
X54389774Y-56048937D01*
X54533937Y-55904774D01*
X54647205Y-55735256D01*
X54725226Y-55546898D01*
X54765000Y-55346939D01*
X54765000Y-55143061D01*
X54725226Y-54943102D01*
X54647205Y-54754744D01*
X54533937Y-54585226D01*
X54389774Y-54441063D01*
X54250495Y-54348000D01*
X72554869Y-54348000D01*
X77177962Y-58971093D01*
X77071256Y-58899795D01*
X76882898Y-58821774D01*
X76682939Y-58782000D01*
X76479061Y-58782000D01*
X76279102Y-58821774D01*
X76090744Y-58899795D01*
X75921226Y-59013063D01*
X75777063Y-59157226D01*
X75663795Y-59326744D01*
X75585774Y-59515102D01*
X75548129Y-59704358D01*
X69641488Y-65611000D01*
X63515700Y-65611000D01*
X63355256Y-65503795D01*
X63166898Y-65425774D01*
X62966939Y-65386000D01*
X62763061Y-65386000D01*
X62563102Y-65425774D01*
X62374744Y-65503795D01*
X62205226Y-65617063D01*
X62061063Y-65761226D01*
X61947795Y-65930744D01*
X61869774Y-66119102D01*
X61832129Y-66308358D01*
X51544382Y-76596106D01*
X51513472Y-76621473D01*
X51470991Y-76673237D01*
X51412250Y-76744812D01*
X51340287Y-76879448D01*
X51337037Y-76885528D01*
X51292134Y-77033554D01*
X51290720Y-77038214D01*
X51275080Y-77197001D01*
X51279000Y-77236799D01*
X51279000Y-81134000D01*
X51079061Y-81134000D01*
X50879102Y-81173774D01*
X50690744Y-81251795D01*
X50521226Y-81365063D01*
X50377063Y-81509226D01*
X50263795Y-81678744D01*
X50185774Y-81867102D01*
X50146000Y-82067061D01*
X50146000Y-82270939D01*
X50185774Y-82470898D01*
X50263795Y-82659256D01*
X50377063Y-82828774D01*
X50521226Y-82972937D01*
X50690744Y-83086205D01*
X50879102Y-83164226D01*
X51079061Y-83204000D01*
X51279000Y-83204000D01*
X51278999Y-86214000D01*
X51079061Y-86214000D01*
X50879102Y-86253774D01*
X50690744Y-86331795D01*
X50521226Y-86445063D01*
X50377063Y-86589226D01*
X50263795Y-86758744D01*
X50185774Y-86947102D01*
X50146000Y-87147061D01*
X50146000Y-87350939D01*
X50185774Y-87550898D01*
X50263795Y-87739256D01*
X50377063Y-87908774D01*
X50521226Y-88052937D01*
X50690744Y-88166205D01*
X50879102Y-88244226D01*
X51079061Y-88284000D01*
X51278999Y-88284000D01*
X51278999Y-88838552D01*
X51198744Y-88871795D01*
X51029226Y-88985063D01*
X50885063Y-89129226D01*
X50771795Y-89298744D01*
X50693774Y-89487102D01*
X50654000Y-89687061D01*
X50654000Y-89890939D01*
X50693774Y-90090898D01*
X50771795Y-90279256D01*
X50885063Y-90448774D01*
X51029226Y-90592937D01*
X51198744Y-90706205D01*
X51387102Y-90784226D01*
X51587061Y-90824000D01*
X51790939Y-90824000D01*
X51990898Y-90784226D01*
X52179256Y-90706205D01*
X52348774Y-90592937D01*
X52492937Y-90448774D01*
X52606205Y-90279256D01*
X52657674Y-90154999D01*
X57292928Y-90154999D01*
X57292928Y-91855001D01*
X57309992Y-92028255D01*
X57360528Y-92194851D01*
X57442595Y-92348387D01*
X57553038Y-92482962D01*
X57687613Y-92593405D01*
X57841149Y-92675472D01*
X58007745Y-92726008D01*
X58180999Y-92743072D01*
X59421001Y-92743072D01*
X59594255Y-92726008D01*
X59760851Y-92675472D01*
X59914387Y-92593405D01*
X60048962Y-92482962D01*
X60159405Y-92348387D01*
X60241472Y-92194851D01*
X60269663Y-92101918D01*
X60271655Y-92104345D01*
X60500822Y-92292417D01*
X60762276Y-92432166D01*
X61045969Y-92518224D01*
X61341000Y-92547282D01*
X61636032Y-92518224D01*
X61919725Y-92432166D01*
X62181179Y-92292417D01*
X62410345Y-92104345D01*
X62548919Y-91935492D01*
X62623583Y-92075179D01*
X62811655Y-92304345D01*
X63040822Y-92492417D01*
X63302276Y-92632166D01*
X63585969Y-92718224D01*
X63881000Y-92747282D01*
X64176032Y-92718224D01*
X64459725Y-92632166D01*
X64721179Y-92492417D01*
X64950345Y-92304345D01*
X65138417Y-92075179D01*
X65213081Y-91935492D01*
X65351655Y-92104345D01*
X65580822Y-92292417D01*
X65842276Y-92432166D01*
X66125969Y-92518224D01*
X66421000Y-92547282D01*
X66716032Y-92518224D01*
X66999725Y-92432166D01*
X67261179Y-92292417D01*
X67490345Y-92104345D01*
X67678417Y-91875179D01*
X67818166Y-91613724D01*
X67904224Y-91330031D01*
X67926000Y-91108935D01*
X67926000Y-90589999D01*
X92471928Y-90589999D01*
X92471928Y-92290001D01*
X92488992Y-92463255D01*
X92539528Y-92629851D01*
X92621595Y-92783387D01*
X92732038Y-92917962D01*
X92866613Y-93028405D01*
X93020149Y-93110472D01*
X93186745Y-93161008D01*
X93359999Y-93178072D01*
X94600001Y-93178072D01*
X94773255Y-93161008D01*
X94939851Y-93110472D01*
X95093387Y-93028405D01*
X95227962Y-92917962D01*
X95338405Y-92783387D01*
X95420472Y-92629851D01*
X95450773Y-92529963D01*
X95549506Y-92630536D01*
X95794563Y-92797571D01*
X96067498Y-92913588D01*
X96159969Y-92931302D01*
X96393000Y-92810246D01*
X96393000Y-91367000D01*
X96373000Y-91367000D01*
X96373000Y-91113000D01*
X96393000Y-91113000D01*
X96393000Y-89669754D01*
X96647000Y-89669754D01*
X96647000Y-91113000D01*
X96667000Y-91113000D01*
X96667000Y-91367000D01*
X96647000Y-91367000D01*
X96647000Y-92810246D01*
X96880031Y-92931302D01*
X96972502Y-92913588D01*
X97245437Y-92797571D01*
X97490494Y-92630536D01*
X97698256Y-92418903D01*
X97728837Y-92372208D01*
X97802583Y-92510179D01*
X97990655Y-92739345D01*
X98219822Y-92927417D01*
X98481276Y-93067166D01*
X98764969Y-93153224D01*
X99060000Y-93182282D01*
X99355032Y-93153224D01*
X99638725Y-93067166D01*
X99900179Y-92927417D01*
X100129345Y-92739345D01*
X100317417Y-92510179D01*
X100457166Y-92248724D01*
X100543224Y-91965031D01*
X100565000Y-91743935D01*
X100565000Y-91136064D01*
X100543224Y-90914968D01*
X100457166Y-90631275D01*
X100317417Y-90369821D01*
X100129345Y-90140655D01*
X99900178Y-89952583D01*
X99638724Y-89812834D01*
X99355031Y-89726776D01*
X99060000Y-89697718D01*
X98764968Y-89726776D01*
X98481275Y-89812834D01*
X98219821Y-89952583D01*
X97990655Y-90140655D01*
X97857010Y-90303503D01*
X97698256Y-90061097D01*
X97490494Y-89849464D01*
X97245437Y-89682429D01*
X96972502Y-89566412D01*
X96880031Y-89548698D01*
X96647000Y-89669754D01*
X96393000Y-89669754D01*
X96159969Y-89548698D01*
X96067498Y-89566412D01*
X95794563Y-89682429D01*
X95549506Y-89849464D01*
X95341744Y-90061097D01*
X95327326Y-90083113D01*
X95227962Y-89962038D01*
X95093387Y-89851595D01*
X94939851Y-89769528D01*
X94773255Y-89718992D01*
X94600001Y-89701928D01*
X93359999Y-89701928D01*
X93186745Y-89718992D01*
X93020149Y-89769528D01*
X92866613Y-89851595D01*
X92732038Y-89962038D01*
X92621595Y-90096613D01*
X92539528Y-90250149D01*
X92488992Y-90416745D01*
X92471928Y-90589999D01*
X67926000Y-90589999D01*
X67926000Y-90501064D01*
X67904224Y-90279968D01*
X67818166Y-89996275D01*
X67678417Y-89734821D01*
X67490345Y-89505655D01*
X67261178Y-89317583D01*
X66999724Y-89177834D01*
X66716031Y-89091776D01*
X66421000Y-89062718D01*
X66125968Y-89091776D01*
X65842275Y-89177834D01*
X65580821Y-89317583D01*
X65351655Y-89505655D01*
X65163583Y-89734822D01*
X65088920Y-89874508D01*
X64950345Y-89705655D01*
X64721178Y-89517583D01*
X64459724Y-89377834D01*
X64176031Y-89291776D01*
X63881000Y-89262718D01*
X63585968Y-89291776D01*
X63302275Y-89377834D01*
X63040821Y-89517583D01*
X62811655Y-89705655D01*
X62673081Y-89874508D01*
X62598417Y-89734821D01*
X62410345Y-89505655D01*
X62181178Y-89317583D01*
X61919724Y-89177834D01*
X61636031Y-89091776D01*
X61341000Y-89062718D01*
X61045968Y-89091776D01*
X60762275Y-89177834D01*
X60500821Y-89317583D01*
X60271655Y-89505655D01*
X60151534Y-89652023D01*
X60048962Y-89527038D01*
X59914387Y-89416595D01*
X59760851Y-89334528D01*
X59594255Y-89283992D01*
X59421001Y-89266928D01*
X58180999Y-89266928D01*
X58007745Y-89283992D01*
X57841149Y-89334528D01*
X57687613Y-89416595D01*
X57553038Y-89527038D01*
X57442595Y-89661613D01*
X57360528Y-89815149D01*
X57309992Y-89981745D01*
X57292928Y-90154999D01*
X52657674Y-90154999D01*
X52684226Y-90090898D01*
X52723706Y-89892419D01*
X52765748Y-89841190D01*
X52840962Y-89700474D01*
X52887279Y-89547789D01*
X52898999Y-89428792D01*
X52898999Y-89428790D01*
X52902918Y-89389002D01*
X52898999Y-89349214D01*
X52898999Y-82575061D01*
X59798000Y-82575061D01*
X59798000Y-82778939D01*
X59837774Y-82978898D01*
X59915795Y-83167256D01*
X60029063Y-83336774D01*
X60173226Y-83480937D01*
X60342744Y-83594205D01*
X60531102Y-83672226D01*
X60731061Y-83712000D01*
X60934939Y-83712000D01*
X61134898Y-83672226D01*
X61323256Y-83594205D01*
X61492774Y-83480937D01*
X61636937Y-83336774D01*
X61750205Y-83167256D01*
X61828226Y-82978898D01*
X61868000Y-82778939D01*
X61868000Y-82575061D01*
X61828226Y-82375102D01*
X61750205Y-82186744D01*
X61636937Y-82017226D01*
X61492774Y-81873063D01*
X61323256Y-81759795D01*
X61134898Y-81681774D01*
X60934939Y-81642000D01*
X60731061Y-81642000D01*
X60531102Y-81681774D01*
X60342744Y-81759795D01*
X60173226Y-81873063D01*
X60029063Y-82017226D01*
X59915795Y-82186744D01*
X59837774Y-82375102D01*
X59798000Y-82575061D01*
X52898999Y-82575061D01*
X52898999Y-80035061D01*
X59290000Y-80035061D01*
X59290000Y-80238939D01*
X59329774Y-80438898D01*
X59407795Y-80627256D01*
X59521063Y-80796774D01*
X59665226Y-80940937D01*
X59834744Y-81054205D01*
X60023102Y-81132226D01*
X60223061Y-81172000D01*
X60426939Y-81172000D01*
X60626898Y-81132226D01*
X60815256Y-81054205D01*
X60984774Y-80940937D01*
X61128937Y-80796774D01*
X61242205Y-80627256D01*
X61320226Y-80438898D01*
X61360000Y-80238939D01*
X61360000Y-80035061D01*
X61320226Y-79835102D01*
X61242205Y-79646744D01*
X61128937Y-79477226D01*
X60984774Y-79333063D01*
X60815256Y-79219795D01*
X60626898Y-79141774D01*
X60426939Y-79102000D01*
X60223061Y-79102000D01*
X60023102Y-79141774D01*
X59834744Y-79219795D01*
X59665226Y-79333063D01*
X59521063Y-79477226D01*
X59407795Y-79646744D01*
X59329774Y-79835102D01*
X59290000Y-80035061D01*
X52898999Y-80035061D01*
X52898999Y-77532513D01*
X55476451Y-74955061D01*
X62338000Y-74955061D01*
X62338000Y-75158939D01*
X62377774Y-75358898D01*
X62455795Y-75547256D01*
X62569063Y-75716774D01*
X62713226Y-75860937D01*
X62882744Y-75974205D01*
X63071102Y-76052226D01*
X63271061Y-76092000D01*
X63474939Y-76092000D01*
X63674898Y-76052226D01*
X63863256Y-75974205D01*
X64032774Y-75860937D01*
X64176937Y-75716774D01*
X64290205Y-75547256D01*
X64368226Y-75358898D01*
X64408000Y-75158939D01*
X64408000Y-74955061D01*
X64368226Y-74755102D01*
X64290205Y-74566744D01*
X64176937Y-74397226D01*
X64032774Y-74253063D01*
X63863256Y-74139795D01*
X63674898Y-74061774D01*
X63474939Y-74022000D01*
X63271061Y-74022000D01*
X63071102Y-74061774D01*
X62882744Y-74139795D01*
X62713226Y-74253063D01*
X62569063Y-74397226D01*
X62455795Y-74566744D01*
X62377774Y-74755102D01*
X62338000Y-74955061D01*
X55476451Y-74955061D01*
X57888451Y-72543061D01*
X61035000Y-72543061D01*
X61035000Y-72746939D01*
X61074774Y-72946898D01*
X61152795Y-73135256D01*
X61266063Y-73304774D01*
X61410226Y-73448937D01*
X61579744Y-73562205D01*
X61768102Y-73640226D01*
X61968061Y-73680000D01*
X62171939Y-73680000D01*
X62371898Y-73640226D01*
X62560256Y-73562205D01*
X62729774Y-73448937D01*
X62873937Y-73304774D01*
X62879667Y-73296198D01*
X62885774Y-73326898D01*
X62963795Y-73515256D01*
X63077063Y-73684774D01*
X63221226Y-73828937D01*
X63390744Y-73942205D01*
X63579102Y-74020226D01*
X63779061Y-74060000D01*
X63982939Y-74060000D01*
X64182898Y-74020226D01*
X64371256Y-73942205D01*
X64375961Y-73939061D01*
X72498000Y-73939061D01*
X72498000Y-74142939D01*
X72537774Y-74342898D01*
X72615795Y-74531256D01*
X72729063Y-74700774D01*
X72873226Y-74844937D01*
X73042744Y-74958205D01*
X73231102Y-75036226D01*
X73431061Y-75076000D01*
X73634939Y-75076000D01*
X73834898Y-75036226D01*
X74023256Y-74958205D01*
X74192774Y-74844937D01*
X74336937Y-74700774D01*
X74450205Y-74531256D01*
X74528226Y-74342898D01*
X74568000Y-74142939D01*
X74568000Y-73939061D01*
X74528226Y-73739102D01*
X74450205Y-73550744D01*
X74336937Y-73381226D01*
X74192774Y-73237063D01*
X74023256Y-73123795D01*
X73834898Y-73045774D01*
X73634939Y-73006000D01*
X73431061Y-73006000D01*
X73231102Y-73045774D01*
X73042744Y-73123795D01*
X72873226Y-73237063D01*
X72729063Y-73381226D01*
X72615795Y-73550744D01*
X72537774Y-73739102D01*
X72498000Y-73939061D01*
X64375961Y-73939061D01*
X64540774Y-73828937D01*
X64684937Y-73684774D01*
X64798205Y-73515256D01*
X64876226Y-73326898D01*
X64916000Y-73126939D01*
X64916000Y-72923061D01*
X64876226Y-72723102D01*
X64798205Y-72534744D01*
X64684937Y-72365226D01*
X64612772Y-72293061D01*
X80405000Y-72293061D01*
X80405000Y-72496939D01*
X80444774Y-72696898D01*
X80522795Y-72885256D01*
X80636063Y-73054774D01*
X80780226Y-73198937D01*
X80949744Y-73312205D01*
X81138102Y-73390226D01*
X81338061Y-73430000D01*
X81541939Y-73430000D01*
X81741898Y-73390226D01*
X81930256Y-73312205D01*
X82099774Y-73198937D01*
X82243937Y-73054774D01*
X82357205Y-72885256D01*
X82435226Y-72696898D01*
X82475000Y-72496939D01*
X82475000Y-72293061D01*
X82435226Y-72093102D01*
X82357205Y-71904744D01*
X82243937Y-71735226D01*
X82099774Y-71591063D01*
X81930256Y-71477795D01*
X81741898Y-71399774D01*
X81541939Y-71360000D01*
X81338061Y-71360000D01*
X81138102Y-71399774D01*
X80949744Y-71477795D01*
X80780226Y-71591063D01*
X80636063Y-71735226D01*
X80522795Y-71904744D01*
X80444774Y-72093102D01*
X80405000Y-72293061D01*
X64612772Y-72293061D01*
X64540774Y-72221063D01*
X64371256Y-72107795D01*
X64182898Y-72029774D01*
X63982939Y-71990000D01*
X63779061Y-71990000D01*
X63579102Y-72029774D01*
X63390744Y-72107795D01*
X63221226Y-72221063D01*
X63077063Y-72365226D01*
X63071333Y-72373802D01*
X63065226Y-72343102D01*
X62987205Y-72154744D01*
X62873937Y-71985226D01*
X62729774Y-71841063D01*
X62560256Y-71727795D01*
X62371898Y-71649774D01*
X62171939Y-71610000D01*
X61968061Y-71610000D01*
X61768102Y-71649774D01*
X61579744Y-71727795D01*
X61410226Y-71841063D01*
X61266063Y-71985226D01*
X61152795Y-72154744D01*
X61074774Y-72343102D01*
X61035000Y-72543061D01*
X57888451Y-72543061D01*
X61572451Y-68859061D01*
X70466000Y-68859061D01*
X70466000Y-69062939D01*
X70505774Y-69262898D01*
X70583795Y-69451256D01*
X70697063Y-69620774D01*
X70841226Y-69764937D01*
X71010744Y-69878205D01*
X71199102Y-69956226D01*
X71399061Y-69996000D01*
X71602939Y-69996000D01*
X71802898Y-69956226D01*
X71991256Y-69878205D01*
X72160774Y-69764937D01*
X72304937Y-69620774D01*
X72418205Y-69451256D01*
X72496226Y-69262898D01*
X72536000Y-69062939D01*
X72536000Y-68859061D01*
X72496226Y-68659102D01*
X72418205Y-68470744D01*
X72304937Y-68301226D01*
X72160774Y-68157063D01*
X71991256Y-68043795D01*
X71802898Y-67965774D01*
X71602939Y-67926000D01*
X71399061Y-67926000D01*
X71199102Y-67965774D01*
X71010744Y-68043795D01*
X70841226Y-68157063D01*
X70697063Y-68301226D01*
X70583795Y-68470744D01*
X70505774Y-68659102D01*
X70466000Y-68859061D01*
X61572451Y-68859061D01*
X62977642Y-67453871D01*
X63166898Y-67416226D01*
X63355256Y-67338205D01*
X63515700Y-67231000D01*
X69937212Y-67231000D01*
X69977000Y-67234919D01*
X70016788Y-67231000D01*
X70016791Y-67231000D01*
X70135788Y-67219280D01*
X70288473Y-67172963D01*
X70429189Y-67097749D01*
X70552528Y-66996528D01*
X70577900Y-66965612D01*
X76693642Y-60849871D01*
X76882898Y-60812226D01*
X77071256Y-60734205D01*
X77240774Y-60620937D01*
X77384937Y-60476774D01*
X77498205Y-60307256D01*
X77576226Y-60118898D01*
X77616000Y-59918939D01*
X77616000Y-59715061D01*
X77576226Y-59515102D01*
X77498205Y-59326744D01*
X77426907Y-59220038D01*
X88146001Y-69939134D01*
X88146000Y-73062868D01*
X85254869Y-75954000D01*
X82181495Y-75954000D01*
X82320774Y-75860937D01*
X82464937Y-75716774D01*
X82578205Y-75547256D01*
X82656226Y-75358898D01*
X82696000Y-75158939D01*
X82696000Y-74955061D01*
X82656226Y-74755102D01*
X82578205Y-74566744D01*
X82498236Y-74447061D01*
X83166000Y-74447061D01*
X83166000Y-74650939D01*
X83205774Y-74850898D01*
X83283795Y-75039256D01*
X83397063Y-75208774D01*
X83541226Y-75352937D01*
X83710744Y-75466205D01*
X83899102Y-75544226D01*
X84099061Y-75584000D01*
X84302939Y-75584000D01*
X84502898Y-75544226D01*
X84691256Y-75466205D01*
X84860774Y-75352937D01*
X85004937Y-75208774D01*
X85118205Y-75039256D01*
X85196226Y-74850898D01*
X85236000Y-74650939D01*
X85236000Y-74447061D01*
X85196226Y-74247102D01*
X85118205Y-74058744D01*
X85004937Y-73889226D01*
X84860774Y-73745063D01*
X84691256Y-73631795D01*
X84502898Y-73553774D01*
X84302939Y-73514000D01*
X84099061Y-73514000D01*
X83899102Y-73553774D01*
X83710744Y-73631795D01*
X83541226Y-73745063D01*
X83397063Y-73889226D01*
X83283795Y-74058744D01*
X83205774Y-74247102D01*
X83166000Y-74447061D01*
X82498236Y-74447061D01*
X82464937Y-74397226D01*
X82320774Y-74253063D01*
X82151256Y-74139795D01*
X81962898Y-74061774D01*
X81762939Y-74022000D01*
X81559061Y-74022000D01*
X81359102Y-74061774D01*
X81170744Y-74139795D01*
X81001226Y-74253063D01*
X80857063Y-74397226D01*
X80743795Y-74566744D01*
X80665774Y-74755102D01*
X80626000Y-74955061D01*
X80626000Y-75158939D01*
X80665774Y-75358898D01*
X80743795Y-75547256D01*
X80857063Y-75716774D01*
X81001226Y-75860937D01*
X81140505Y-75954000D01*
X77144751Y-75954000D01*
X77089000Y-75948509D01*
X77033248Y-75954000D01*
X76866501Y-75970423D01*
X76652553Y-76035324D01*
X76455377Y-76140716D01*
X76282551Y-76282551D01*
X76247011Y-76325857D01*
X75231012Y-77341857D01*
X75124717Y-77471378D01*
X75019324Y-77668554D01*
X74954423Y-77882502D01*
X74932509Y-78105000D01*
X74954423Y-78327498D01*
X75019324Y-78541446D01*
X75124717Y-78738622D01*
X75266552Y-78911448D01*
X75439378Y-79053283D01*
X75636554Y-79158676D01*
X75850502Y-79223577D01*
X76073000Y-79245491D01*
X76295498Y-79223577D01*
X76509446Y-79158676D01*
X76706622Y-79053283D01*
X76836143Y-78946988D01*
X77559132Y-78224000D01*
X85669249Y-78224000D01*
X85725000Y-78229491D01*
X85780751Y-78224000D01*
X85780752Y-78224000D01*
X85947499Y-78207577D01*
X86161447Y-78142676D01*
X86358623Y-78037284D01*
X86531449Y-77895449D01*
X86566996Y-77852135D01*
X89281000Y-75138132D01*
X91057856Y-76914988D01*
X91057861Y-76914992D01*
X93773013Y-79630146D01*
X93808551Y-79673449D01*
X93851854Y-79708987D01*
X93851856Y-79708989D01*
X93851867Y-79708998D01*
X99140438Y-84997570D01*
X99212309Y-85071635D01*
X99219393Y-85076524D01*
X106297856Y-92154988D01*
X106427377Y-92261284D01*
X106624553Y-92366676D01*
X106838501Y-92431577D01*
X107061000Y-92453491D01*
X107283499Y-92431577D01*
X107497446Y-92366676D01*
X107694622Y-92261284D01*
X107867449Y-92119449D01*
X108009284Y-91946622D01*
X108114676Y-91749446D01*
X108179577Y-91535499D01*
X108201491Y-91313000D01*
X108179577Y-91090501D01*
X108114676Y-90876553D01*
X108009284Y-90679377D01*
X107902988Y-90549856D01*
X102481983Y-85128852D01*
X106036435Y-84832647D01*
X106045000Y-84833491D01*
X106080530Y-84829992D01*
X120193046Y-85334010D01*
X120269000Y-85341491D01*
X120324751Y-85336000D01*
X129357249Y-85336000D01*
X129413000Y-85341491D01*
X129468751Y-85336000D01*
X129468752Y-85336000D01*
X129635499Y-85319577D01*
X129849447Y-85254676D01*
X130046623Y-85149284D01*
X130219449Y-85007449D01*
X130254996Y-84964135D01*
X133358142Y-81860990D01*
X133401450Y-81825448D01*
X133543285Y-81652622D01*
X133648677Y-81455446D01*
X133713578Y-81241498D01*
X133730001Y-81074751D01*
X133730001Y-81074750D01*
X133735492Y-81018999D01*
X133730001Y-80963248D01*
X133730001Y-79818752D01*
X133735492Y-79763000D01*
X133730001Y-79707249D01*
X133730001Y-73431061D01*
X136506000Y-73431061D01*
X136506000Y-73634939D01*
X136545774Y-73834898D01*
X136623795Y-74023256D01*
X136737063Y-74192774D01*
X136881226Y-74336937D01*
X137050744Y-74450205D01*
X137239102Y-74528226D01*
X137439061Y-74568000D01*
X137642939Y-74568000D01*
X137842898Y-74528226D01*
X138031256Y-74450205D01*
X138200774Y-74336937D01*
X138344937Y-74192774D01*
X138458205Y-74023256D01*
X138536226Y-73834898D01*
X138576000Y-73634939D01*
X138576000Y-73431061D01*
X138536226Y-73231102D01*
X138458205Y-73042744D01*
X138344937Y-72873226D01*
X138200774Y-72729063D01*
X138031256Y-72615795D01*
X137842898Y-72537774D01*
X137642939Y-72498000D01*
X137439061Y-72498000D01*
X137239102Y-72537774D01*
X137050744Y-72615795D01*
X136881226Y-72729063D01*
X136737063Y-72873226D01*
X136623795Y-73042744D01*
X136545774Y-73231102D01*
X136506000Y-73431061D01*
X133730001Y-73431061D01*
X133730001Y-72706753D01*
X133735492Y-72651001D01*
X133713578Y-72428502D01*
X133648677Y-72214554D01*
X133543285Y-72017378D01*
X133520816Y-71990000D01*
X133401450Y-71844552D01*
X133358141Y-71809009D01*
X132948193Y-71399061D01*
X135490000Y-71399061D01*
X135490000Y-71602939D01*
X135529774Y-71802898D01*
X135607795Y-71991256D01*
X135721063Y-72160774D01*
X135865226Y-72304937D01*
X136034744Y-72418205D01*
X136223102Y-72496226D01*
X136423061Y-72536000D01*
X136626939Y-72536000D01*
X136826898Y-72496226D01*
X137015256Y-72418205D01*
X137184774Y-72304937D01*
X137328937Y-72160774D01*
X137442205Y-71991256D01*
X137520226Y-71802898D01*
X137560000Y-71602939D01*
X137560000Y-71399061D01*
X137520226Y-71199102D01*
X137442205Y-71010744D01*
X137328937Y-70841226D01*
X137184774Y-70697063D01*
X137015256Y-70583795D01*
X136826898Y-70505774D01*
X136626939Y-70466000D01*
X136423061Y-70466000D01*
X136223102Y-70505774D01*
X136034744Y-70583795D01*
X135865226Y-70697063D01*
X135721063Y-70841226D01*
X135607795Y-71010744D01*
X135529774Y-71199102D01*
X135490000Y-71399061D01*
X132948193Y-71399061D01*
X132716143Y-71167012D01*
X132586622Y-71060717D01*
X132389446Y-70955324D01*
X132175498Y-70890423D01*
X131953000Y-70868509D01*
X131730502Y-70890423D01*
X131516554Y-70955324D01*
X131319378Y-71060717D01*
X131146552Y-71202552D01*
X131004717Y-71375378D01*
X130899324Y-71572554D01*
X130834423Y-71786502D01*
X130812509Y-72009000D01*
X130834423Y-72231498D01*
X130899324Y-72445446D01*
X131004717Y-72642622D01*
X131111012Y-72772143D01*
X131460002Y-73121133D01*
X131460002Y-73514000D01*
X131343061Y-73514000D01*
X131143102Y-73553774D01*
X130954744Y-73631795D01*
X130836504Y-73710800D01*
X126154711Y-73710800D01*
X126113551Y-73706746D01*
X126072391Y-73710800D01*
X126072382Y-73710800D01*
X125949236Y-73722929D01*
X125791235Y-73770858D01*
X125645620Y-73848691D01*
X125517988Y-73953436D01*
X125491746Y-73985412D01*
X123662576Y-75814583D01*
X123523102Y-75842326D01*
X123334744Y-75920347D01*
X123165226Y-76033615D01*
X123021063Y-76177778D01*
X122907795Y-76347296D01*
X122829774Y-76535654D01*
X122790000Y-76735613D01*
X122790000Y-76939491D01*
X122829774Y-77139450D01*
X122907795Y-77327808D01*
X123021063Y-77497326D01*
X123165226Y-77641489D01*
X123334744Y-77754757D01*
X123523102Y-77832778D01*
X123723061Y-77872552D01*
X123926939Y-77872552D01*
X124126898Y-77832778D01*
X124315256Y-77754757D01*
X124484774Y-77641489D01*
X124628937Y-77497326D01*
X124742205Y-77327808D01*
X124820226Y-77139450D01*
X124847969Y-76999976D01*
X126460746Y-75387200D01*
X127331141Y-75387200D01*
X127329314Y-75396384D01*
X127329314Y-75600262D01*
X127369088Y-75800221D01*
X127447109Y-75988579D01*
X127560377Y-76158097D01*
X127704540Y-76302260D01*
X127874058Y-76415528D01*
X128062416Y-76493549D01*
X128262375Y-76533323D01*
X128466253Y-76533323D01*
X128666212Y-76493549D01*
X128854570Y-76415528D01*
X129024088Y-76302260D01*
X129168251Y-76158097D01*
X129281519Y-75988579D01*
X129359540Y-75800221D01*
X129399314Y-75600262D01*
X129399314Y-75396384D01*
X129397487Y-75387200D01*
X130836504Y-75387200D01*
X130954744Y-75466205D01*
X131143102Y-75544226D01*
X131343061Y-75584000D01*
X131460002Y-75584000D01*
X131460001Y-79094002D01*
X131407324Y-79192554D01*
X131342423Y-79406502D01*
X131320509Y-79629000D01*
X131342423Y-79851498D01*
X131407324Y-80065446D01*
X131460001Y-80163998D01*
X131460001Y-80548867D01*
X128942869Y-83066000D01*
X121404000Y-83066000D01*
X121404000Y-76905897D01*
X121423491Y-76708000D01*
X121401577Y-76485502D01*
X121336676Y-76271554D01*
X121231283Y-76074378D01*
X121089448Y-75901552D01*
X120916622Y-75759717D01*
X120719446Y-75654324D01*
X120505498Y-75589423D01*
X120283000Y-75567509D01*
X120060502Y-75589423D01*
X119846554Y-75654324D01*
X119649378Y-75759717D01*
X119519857Y-75866012D01*
X119505860Y-75880009D01*
X119462552Y-75915551D01*
X119320717Y-76088377D01*
X119292741Y-76140717D01*
X119215324Y-76285554D01*
X119150423Y-76499502D01*
X119128509Y-76722000D01*
X119134001Y-76777761D01*
X119134000Y-83024742D01*
X108504473Y-82645115D01*
X108535177Y-82543899D01*
X108551600Y-82377152D01*
X108551600Y-82377143D01*
X108557090Y-82321401D01*
X108551600Y-82265659D01*
X108551600Y-76733061D01*
X114925000Y-76733061D01*
X114925000Y-76936939D01*
X114964774Y-77136898D01*
X115042795Y-77325256D01*
X115156063Y-77494774D01*
X115300226Y-77638937D01*
X115469744Y-77752205D01*
X115658102Y-77830226D01*
X115858061Y-77870000D01*
X116061939Y-77870000D01*
X116261898Y-77830226D01*
X116450256Y-77752205D01*
X116619774Y-77638937D01*
X116763937Y-77494774D01*
X116877205Y-77325256D01*
X116955226Y-77136898D01*
X116995000Y-76936939D01*
X116995000Y-76733061D01*
X116955226Y-76533102D01*
X116877205Y-76344744D01*
X116763937Y-76175226D01*
X116619774Y-76031063D01*
X116450256Y-75917795D01*
X116261898Y-75839774D01*
X116061939Y-75800000D01*
X115858061Y-75800000D01*
X115658102Y-75839774D01*
X115469744Y-75917795D01*
X115300226Y-76031063D01*
X115156063Y-76175226D01*
X115042795Y-76344744D01*
X114964774Y-76533102D01*
X114925000Y-76733061D01*
X108551600Y-76733061D01*
X108551600Y-71201152D01*
X108557091Y-71145400D01*
X108535177Y-70922901D01*
X108470276Y-70708953D01*
X108364884Y-70511777D01*
X108258589Y-70382256D01*
X108258587Y-70382254D01*
X108223049Y-70338951D01*
X108179746Y-70303413D01*
X107751394Y-69875061D01*
X110598000Y-69875061D01*
X110598000Y-70078939D01*
X110637774Y-70278898D01*
X110715795Y-70467256D01*
X110829063Y-70636774D01*
X110931289Y-70739000D01*
X110829063Y-70841226D01*
X110715795Y-71010744D01*
X110637774Y-71199102D01*
X110598000Y-71399061D01*
X110598000Y-71602939D01*
X110637774Y-71802898D01*
X110715795Y-71991256D01*
X110829063Y-72160774D01*
X110973226Y-72304937D01*
X111142744Y-72418205D01*
X111331102Y-72496226D01*
X111531061Y-72536000D01*
X111734939Y-72536000D01*
X111934898Y-72496226D01*
X112123256Y-72418205D01*
X112292774Y-72304937D01*
X112436937Y-72160774D01*
X112550205Y-71991256D01*
X112628226Y-71802898D01*
X112668000Y-71602939D01*
X112668000Y-71399061D01*
X112628226Y-71199102D01*
X112550205Y-71010744D01*
X112436937Y-70841226D01*
X112334711Y-70739000D01*
X112436937Y-70636774D01*
X112550205Y-70467256D01*
X112628226Y-70278898D01*
X112668000Y-70078939D01*
X112668000Y-69875061D01*
X112628226Y-69675102D01*
X112550205Y-69486744D01*
X112436937Y-69317226D01*
X112292774Y-69173063D01*
X112123256Y-69059795D01*
X111934898Y-68981774D01*
X111734939Y-68942000D01*
X111531061Y-68942000D01*
X111331102Y-68981774D01*
X111142744Y-69059795D01*
X110973226Y-69173063D01*
X110829063Y-69317226D01*
X110715795Y-69486744D01*
X110637774Y-69675102D01*
X110598000Y-69875061D01*
X107751394Y-69875061D01*
X105808400Y-67932069D01*
X105808400Y-57683061D01*
X112122000Y-57683061D01*
X112122000Y-57886939D01*
X112161774Y-58086898D01*
X112239795Y-58275256D01*
X112353063Y-58444774D01*
X112497226Y-58588937D01*
X112666744Y-58702205D01*
X112855102Y-58780226D01*
X113055061Y-58820000D01*
X113258939Y-58820000D01*
X113458898Y-58780226D01*
X113647256Y-58702205D01*
X113816774Y-58588937D01*
X113960937Y-58444774D01*
X114074205Y-58275256D01*
X114152226Y-58086898D01*
X114192000Y-57886939D01*
X114192000Y-57683061D01*
X114152226Y-57483102D01*
X114074205Y-57294744D01*
X113960937Y-57125226D01*
X113816774Y-56981063D01*
X113647256Y-56867795D01*
X113458898Y-56789774D01*
X113258939Y-56750000D01*
X113055061Y-56750000D01*
X112855102Y-56789774D01*
X112666744Y-56867795D01*
X112497226Y-56981063D01*
X112353063Y-57125226D01*
X112239795Y-57294744D01*
X112161774Y-57483102D01*
X112122000Y-57683061D01*
X105808400Y-57683061D01*
X105808400Y-54630626D01*
X106195000Y-54630626D01*
X106195000Y-55169374D01*
X106300105Y-55697770D01*
X106506275Y-56195508D01*
X106805587Y-56643461D01*
X107186539Y-57024413D01*
X107634492Y-57323725D01*
X108132230Y-57529895D01*
X108660626Y-57635000D01*
X109199374Y-57635000D01*
X109727770Y-57529895D01*
X110225508Y-57323725D01*
X110673461Y-57024413D01*
X111054413Y-56643461D01*
X111353725Y-56195508D01*
X111559895Y-55697770D01*
X111665000Y-55169374D01*
X111665000Y-54630626D01*
X119515000Y-54630626D01*
X119515000Y-55169374D01*
X119620105Y-55697770D01*
X119826275Y-56195508D01*
X120125587Y-56643461D01*
X120506539Y-57024413D01*
X120954492Y-57323725D01*
X121452230Y-57529895D01*
X121980626Y-57635000D01*
X122519374Y-57635000D01*
X123047770Y-57529895D01*
X123545508Y-57323725D01*
X123993461Y-57024413D01*
X124374413Y-56643461D01*
X124673725Y-56195508D01*
X124879895Y-55697770D01*
X124985000Y-55169374D01*
X124985000Y-54630626D01*
X129015000Y-54630626D01*
X129015000Y-55169374D01*
X129120105Y-55697770D01*
X129326275Y-56195508D01*
X129625587Y-56643461D01*
X130006539Y-57024413D01*
X130454492Y-57323725D01*
X130952230Y-57529895D01*
X131480626Y-57635000D01*
X132019374Y-57635000D01*
X132547770Y-57529895D01*
X133045508Y-57323725D01*
X133493461Y-57024413D01*
X133874413Y-56643461D01*
X134173725Y-56195508D01*
X134379895Y-55697770D01*
X134485000Y-55169374D01*
X134485000Y-54630626D01*
X134379895Y-54102230D01*
X134173725Y-53604492D01*
X133874413Y-53156539D01*
X133493461Y-52775587D01*
X133045508Y-52476275D01*
X132547770Y-52270105D01*
X132019374Y-52165000D01*
X131480626Y-52165000D01*
X130952230Y-52270105D01*
X130454492Y-52476275D01*
X130006539Y-52775587D01*
X129625587Y-53156539D01*
X129326275Y-53604492D01*
X129120105Y-54102230D01*
X129015000Y-54630626D01*
X124985000Y-54630626D01*
X124879895Y-54102230D01*
X124673725Y-53604492D01*
X124374413Y-53156539D01*
X123993461Y-52775587D01*
X123545508Y-52476275D01*
X123047770Y-52270105D01*
X122519374Y-52165000D01*
X121980626Y-52165000D01*
X121452230Y-52270105D01*
X120954492Y-52476275D01*
X120506539Y-52775587D01*
X120125587Y-53156539D01*
X119826275Y-53604492D01*
X119620105Y-54102230D01*
X119515000Y-54630626D01*
X111665000Y-54630626D01*
X111559895Y-54102230D01*
X111353725Y-53604492D01*
X111054413Y-53156539D01*
X110673461Y-52775587D01*
X110225508Y-52476275D01*
X109727770Y-52270105D01*
X109199374Y-52165000D01*
X108660626Y-52165000D01*
X108132230Y-52270105D01*
X107634492Y-52476275D01*
X107186539Y-52775587D01*
X106805587Y-53156539D01*
X106506275Y-53604492D01*
X106300105Y-54102230D01*
X106195000Y-54630626D01*
X105808400Y-54630626D01*
X105808400Y-53429131D01*
X106920247Y-52317284D01*
X107127743Y-52276011D01*
X107407095Y-52160299D01*
X107658505Y-51992312D01*
X107872312Y-51778505D01*
X108040299Y-51527095D01*
X108156011Y-51247743D01*
X108215000Y-50951184D01*
X108215000Y-50870132D01*
X108854934Y-50230199D01*
X123074547Y-50230199D01*
X123023989Y-50352257D01*
X122965000Y-50648816D01*
X122965000Y-50951184D01*
X123023989Y-51247743D01*
X123139701Y-51527095D01*
X123307688Y-51778505D01*
X123521495Y-51992312D01*
X123772905Y-52160299D01*
X124052257Y-52276011D01*
X124348816Y-52335000D01*
X124651184Y-52335000D01*
X124947743Y-52276011D01*
X125227095Y-52160299D01*
X125478505Y-51992312D01*
X125692312Y-51778505D01*
X125750000Y-51692169D01*
X125807688Y-51778505D01*
X126021495Y-51992312D01*
X126272905Y-52160299D01*
X126552257Y-52276011D01*
X126848816Y-52335000D01*
X127151184Y-52335000D01*
X127447743Y-52276011D01*
X127727095Y-52160299D01*
X127978505Y-51992312D01*
X128192312Y-51778505D01*
X128250000Y-51692169D01*
X128307688Y-51778505D01*
X128521495Y-51992312D01*
X128772905Y-52160299D01*
X129052257Y-52276011D01*
X129348816Y-52335000D01*
X129651184Y-52335000D01*
X129947743Y-52276011D01*
X130227095Y-52160299D01*
X130478505Y-51992312D01*
X130692312Y-51778505D01*
X130860299Y-51527095D01*
X130976011Y-51247743D01*
X131035000Y-50951184D01*
X131035000Y-50648816D01*
X130976011Y-50352257D01*
X130860299Y-50072905D01*
X130692312Y-49821495D01*
X130478505Y-49607688D01*
X130227095Y-49439701D01*
X129947743Y-49323989D01*
X129651184Y-49265000D01*
X129570132Y-49265000D01*
X129225132Y-48920000D01*
X139040000Y-48920000D01*
X139040000Y-57424992D01*
X139013631Y-57361331D01*
X138769038Y-56995271D01*
X138457729Y-56683962D01*
X138091669Y-56439369D01*
X137684925Y-56270890D01*
X137253128Y-56185000D01*
X136812872Y-56185000D01*
X136381075Y-56270890D01*
X135974331Y-56439369D01*
X135608271Y-56683962D01*
X135296962Y-56995271D01*
X135052369Y-57361331D01*
X134883890Y-57768075D01*
X134798000Y-58199872D01*
X134798000Y-58640128D01*
X134883890Y-59071925D01*
X135052369Y-59478669D01*
X135296962Y-59844729D01*
X135608271Y-60156038D01*
X135974331Y-60400631D01*
X136381075Y-60569110D01*
X136812872Y-60655000D01*
X137253128Y-60655000D01*
X137684925Y-60569110D01*
X138091669Y-60400631D01*
X138457729Y-60156038D01*
X138769038Y-59844729D01*
X139013631Y-59478669D01*
X139040000Y-59415008D01*
X139040000Y-65092901D01*
X138966205Y-64914744D01*
X138852937Y-64745226D01*
X138708774Y-64601063D01*
X138539256Y-64487795D01*
X138350898Y-64409774D01*
X138211425Y-64382031D01*
X135114811Y-61285418D01*
X135088564Y-61253436D01*
X134960932Y-61148691D01*
X134815317Y-61070858D01*
X134657316Y-61022929D01*
X134534170Y-61010800D01*
X134534163Y-61010800D01*
X134493000Y-61006746D01*
X134451837Y-61010800D01*
X123866170Y-61010800D01*
X123825000Y-61006745D01*
X123783830Y-61010800D01*
X117829496Y-61010800D01*
X117711256Y-60931795D01*
X117522898Y-60853774D01*
X117322939Y-60814000D01*
X117119061Y-60814000D01*
X116919102Y-60853774D01*
X116730744Y-60931795D01*
X116561226Y-61045063D01*
X116417063Y-61189226D01*
X116303795Y-61358744D01*
X116225774Y-61547102D01*
X116186000Y-61747061D01*
X116186000Y-61950939D01*
X116225774Y-62150898D01*
X116303795Y-62339256D01*
X116417063Y-62508774D01*
X116561226Y-62652937D01*
X116730744Y-62766205D01*
X116919102Y-62844226D01*
X117119061Y-62884000D01*
X117322939Y-62884000D01*
X117522898Y-62844226D01*
X117711256Y-62766205D01*
X117829496Y-62687200D01*
X122986800Y-62687200D01*
X122986801Y-65363828D01*
X122982746Y-65405000D01*
X122998929Y-65569315D01*
X123046858Y-65727316D01*
X123124691Y-65872931D01*
X123124692Y-65872932D01*
X123229437Y-66000564D01*
X123261413Y-66026806D01*
X125342031Y-68107425D01*
X125369774Y-68246898D01*
X125447795Y-68435256D01*
X125561063Y-68604774D01*
X125705226Y-68748937D01*
X125874744Y-68862205D01*
X126063102Y-68940226D01*
X126263061Y-68980000D01*
X126466939Y-68980000D01*
X126666898Y-68940226D01*
X126855256Y-68862205D01*
X127024774Y-68748937D01*
X127168937Y-68604774D01*
X127282205Y-68435256D01*
X127360226Y-68246898D01*
X127400000Y-68046939D01*
X127400000Y-67951051D01*
X128360000Y-67951051D01*
X128360000Y-68154929D01*
X128399774Y-68354888D01*
X128477795Y-68543246D01*
X128591063Y-68712764D01*
X128735226Y-68856927D01*
X128904744Y-68970195D01*
X129093102Y-69048216D01*
X129293061Y-69087990D01*
X129496939Y-69087990D01*
X129696898Y-69048216D01*
X129885256Y-68970195D01*
X130054774Y-68856927D01*
X130198937Y-68712764D01*
X130312205Y-68543246D01*
X130390226Y-68354888D01*
X130430000Y-68154929D01*
X130430000Y-67951051D01*
X130408520Y-67843061D01*
X133966000Y-67843061D01*
X133966000Y-68046939D01*
X134005774Y-68246898D01*
X134083795Y-68435256D01*
X134197063Y-68604774D01*
X134341226Y-68748937D01*
X134510744Y-68862205D01*
X134699102Y-68940226D01*
X134899061Y-68980000D01*
X135102939Y-68980000D01*
X135302898Y-68940226D01*
X135491256Y-68862205D01*
X135660774Y-68748937D01*
X135804937Y-68604774D01*
X135918205Y-68435256D01*
X135996226Y-68246898D01*
X136036000Y-68046939D01*
X136036000Y-67843061D01*
X135996226Y-67643102D01*
X135918205Y-67454744D01*
X135804937Y-67285226D01*
X135660774Y-67141063D01*
X135491256Y-67027795D01*
X135302898Y-66949774D01*
X135102939Y-66910000D01*
X134899061Y-66910000D01*
X134699102Y-66949774D01*
X134510744Y-67027795D01*
X134341226Y-67141063D01*
X134197063Y-67285226D01*
X134083795Y-67454744D01*
X134005774Y-67643102D01*
X133966000Y-67843061D01*
X130408520Y-67843061D01*
X130390226Y-67751092D01*
X130312205Y-67562734D01*
X130198937Y-67393216D01*
X130054774Y-67249053D01*
X129885256Y-67135785D01*
X129696898Y-67057764D01*
X129496939Y-67017990D01*
X129293061Y-67017990D01*
X129093102Y-67057764D01*
X128904744Y-67135785D01*
X128735226Y-67249053D01*
X128591063Y-67393216D01*
X128477795Y-67562734D01*
X128399774Y-67751092D01*
X128360000Y-67951051D01*
X127400000Y-67951051D01*
X127400000Y-67843061D01*
X127360226Y-67643102D01*
X127282205Y-67454744D01*
X127168937Y-67285226D01*
X127024774Y-67141063D01*
X126855256Y-67027795D01*
X126666898Y-66949774D01*
X126527425Y-66922031D01*
X124663200Y-65057807D01*
X124663200Y-62687200D01*
X134145807Y-62687200D01*
X137026031Y-65567425D01*
X137053774Y-65706898D01*
X137131795Y-65895256D01*
X137245063Y-66064774D01*
X137389226Y-66208937D01*
X137558744Y-66322205D01*
X137747102Y-66400226D01*
X137947061Y-66440000D01*
X138150939Y-66440000D01*
X138350898Y-66400226D01*
X138539256Y-66322205D01*
X138708774Y-66208937D01*
X138852937Y-66064774D01*
X138966205Y-65895256D01*
X139040000Y-65717099D01*
X139040001Y-83787581D01*
X139040000Y-95860000D01*
X48920000Y-95860000D01*
X48920000Y-71399061D01*
X52178000Y-71399061D01*
X52178000Y-71602939D01*
X52217774Y-71802898D01*
X52295795Y-71991256D01*
X52409063Y-72160774D01*
X52553226Y-72304937D01*
X52722744Y-72418205D01*
X52911102Y-72496226D01*
X53111061Y-72536000D01*
X53314939Y-72536000D01*
X53514898Y-72496226D01*
X53703256Y-72418205D01*
X53872774Y-72304937D01*
X54016937Y-72160774D01*
X54130205Y-71991256D01*
X54208226Y-71802898D01*
X54248000Y-71602939D01*
X54248000Y-71399061D01*
X54208226Y-71199102D01*
X54130205Y-71010744D01*
X54016937Y-70841226D01*
X53872774Y-70697063D01*
X53703256Y-70583795D01*
X53514898Y-70505774D01*
X53314939Y-70466000D01*
X53111061Y-70466000D01*
X52911102Y-70505774D01*
X52722744Y-70583795D01*
X52553226Y-70697063D01*
X52409063Y-70841226D01*
X52295795Y-71010744D01*
X52217774Y-71199102D01*
X52178000Y-71399061D01*
X48920000Y-71399061D01*
X48920000Y-48920000D01*
X106954868Y-48920000D01*
X106609868Y-49265000D01*
M02*
